M48
;Layer_Color=9474304
;FILE_FORMAT=2:5
INCH,TZ
;TYPE=PLATED
T1F00S00C0.01181
T2F00S00C0.02756
T3F00S00C0.03543
%
T01
X38800Y16600
X39500Y20000
X46700Y27100
X51800Y35200
X64400Y34600
X76100Y34700
X73700Y39100
X85400Y39800
X90500Y34000
X94900Y41200
X78858Y29500
X76000Y20300
X57400
X57000Y13900
X91500Y15000
X116701Y18000
X123000
X135400Y19900
X142500Y16400
X150500Y16500
X154772Y18046
X158819Y17500
X162319
X162119Y24900
X155519Y25000
X151100Y25600
X154900Y33800
X158900
X172300Y34700
Y26100
X172400Y19000
X181800Y24500
X186500
X191700
X197700Y23300
Y19300
X195000Y16800
X204000Y17000
X195600Y7600
X190500Y10500
X185500
X180500
X183200Y13800
X168300Y7900
X161000Y9000
X152500Y11000
X145900Y11100
X139800Y5700
X154700Y44000
X165500Y42500
X182500Y35715
X186500
X186700Y38715
X188700Y40715
X190500Y35715
X192500Y33715
X194500Y35600
X188500Y33715
X184500
X206200Y35000
X211200
X200300Y61700
X195000Y58500
X187500Y58300
X182500
X177900Y55300
X172900Y50400
X169200Y46700
X167600Y56100
X161900Y56200
X103100Y54500
X103500Y60500
X89500Y51500
T02
X170400Y40100
T03
X30000Y0
X40000
X25500Y10000
Y20000
Y30000
Y40000
X50000Y0
X60000
X70000
X80000
X90000
X100000
X110000
X120000
X130000
X140000
X150000
X160000
X170000
X180000
X190000
X200000
X210000
X220000
Y70000
X210000
X200000
X190000
X180000
X170000
X160000
X150000
X140000
X130000
X120000
X110000
X100000
X90000
X80000
X70000
X60000
X50000
X40000
X30000
X25500Y60000
Y50000
M30
