G04*
G04 #@! TF.GenerationSoftware,Altium Limited,Altium Designer,19.1.8 (144)*
G04*
G04 Layer_Physical_Order=1*
G04 Layer_Color=255*
%FSLAX25Y25*%
%MOIN*%
G70*
G01*
G75*
%ADD12C,0.01000*%
%ADD14C,0.02000*%
%ADD32O,0.08071X0.02362*%
%ADD33O,0.02362X0.08071*%
%ADD34R,0.04331X0.02559*%
%ADD35R,0.04724X0.03000*%
%ADD36R,0.03583X0.04803*%
%ADD37R,0.04331X0.03937*%
%ADD38R,0.03937X0.04331*%
G04:AMPARAMS|DCode=39|XSize=39.37mil|YSize=21.65mil|CornerRadius=5.41mil|HoleSize=0mil|Usage=FLASHONLY|Rotation=90.000|XOffset=0mil|YOffset=0mil|HoleType=Round|Shape=RoundedRectangle|*
%AMROUNDEDRECTD39*
21,1,0.03937,0.01083,0,0,90.0*
21,1,0.02854,0.02165,0,0,90.0*
1,1,0.01083,0.00541,0.01427*
1,1,0.01083,0.00541,-0.01427*
1,1,0.01083,-0.00541,-0.01427*
1,1,0.01083,-0.00541,0.01427*
%
%ADD39ROUNDEDRECTD39*%
%ADD40C,0.01500*%
%ADD41R,0.13600X0.04600*%
%ADD42C,0.05906*%
%ADD43R,0.05906X0.05906*%
%ADD44C,0.04724*%
%ADD45R,0.05906X0.05906*%
%ADD46C,0.01968*%
G36*
X226480Y-3980D02*
X17520Y-3980D01*
Y73980D01*
X217974Y73980D01*
X218073Y73480D01*
X218007Y73453D01*
X217181Y72819D01*
X216547Y71993D01*
X216149Y71032D01*
X216079Y70500D01*
X220000D01*
X223921D01*
X223851Y71032D01*
X223453Y71993D01*
X222819Y72819D01*
X221993Y73453D01*
X221927Y73480D01*
X222026Y73980D01*
X226480D01*
X226480Y-3980D01*
D02*
G37*
%LPC*%
G36*
X223921Y69500D02*
X220500D01*
Y66079D01*
X221032Y66149D01*
X221993Y66547D01*
X222819Y67181D01*
X223453Y68007D01*
X223851Y68968D01*
X223921Y69500D01*
D02*
G37*
G36*
X219500D02*
X216079D01*
X216149Y68968D01*
X216547Y68007D01*
X217181Y67181D01*
X218007Y66547D01*
X218968Y66149D01*
X219500Y66079D01*
Y69500D01*
D02*
G37*
G36*
X210000Y73483D02*
X209099Y73364D01*
X208259Y73016D01*
X207538Y72462D01*
X206984Y71741D01*
X206636Y70901D01*
X206518Y70002D01*
X206506Y69974D01*
X206503Y69567D01*
X206454Y68843D01*
X206411Y68542D01*
X206354Y68270D01*
X206287Y68033D01*
X206211Y67831D01*
X206128Y67664D01*
X206041Y67530D01*
X205926Y67396D01*
X205912Y67354D01*
X204578Y66020D01*
X200010D01*
X199975Y66506D01*
X200002Y66518D01*
X200901Y66636D01*
X201741Y66984D01*
X202463Y67537D01*
X203016Y68259D01*
X203364Y69099D01*
X203483Y70000D01*
X203364Y70901D01*
X203016Y71741D01*
X202463Y72462D01*
X201741Y73016D01*
X200901Y73364D01*
X200000Y73483D01*
X199099Y73364D01*
X198259Y73016D01*
X197538Y72462D01*
X196984Y71741D01*
X196636Y70901D01*
X196518Y70002D01*
X196506Y69974D01*
X196503Y69567D01*
X196454Y68843D01*
X196411Y68542D01*
X196354Y68270D01*
X196287Y68033D01*
X196211Y67831D01*
X196128Y67664D01*
X196041Y67530D01*
X195926Y67396D01*
X195912Y67354D01*
X192578Y64020D01*
X185169D01*
X184961Y64520D01*
X186787Y66345D01*
X186796Y66347D01*
X186818Y66376D01*
X186829Y66387D01*
X186872Y66401D01*
X187017Y66527D01*
X187149Y66610D01*
X187301Y66679D01*
X187478Y66732D01*
X187682Y66767D01*
X187915Y66783D01*
X188177Y66778D01*
X188467Y66749D01*
X188785Y66695D01*
X189143Y66613D01*
X189201Y66623D01*
X190000Y66518D01*
X190901Y66636D01*
X191741Y66984D01*
X192463Y67537D01*
X193016Y68259D01*
X193364Y69099D01*
X193482Y70000D01*
X193364Y70901D01*
X193016Y71741D01*
X192463Y72462D01*
X191741Y73016D01*
X190901Y73364D01*
X190000Y73483D01*
X189099Y73364D01*
X188259Y73016D01*
X187538Y72462D01*
X186984Y71741D01*
X186636Y70901D01*
X186630Y70852D01*
X186603Y70818D01*
X186265Y69548D01*
X186160Y69221D01*
X185944Y68657D01*
X185847Y68448D01*
X185753Y68279D01*
X185671Y68156D01*
X185578Y68048D01*
X185564Y68006D01*
X183578Y66020D01*
X180354D01*
X180272Y66049D01*
X180077Y66385D01*
X180148Y66473D01*
X180332Y66561D01*
X180901Y66636D01*
X181741Y66984D01*
X182463Y67537D01*
X183016Y68259D01*
X183364Y69099D01*
X183483Y70000D01*
X183364Y70901D01*
X183016Y71741D01*
X182463Y72462D01*
X181741Y73016D01*
X180901Y73364D01*
X180000Y73483D01*
X179099Y73364D01*
X178259Y73016D01*
X177538Y72462D01*
X176984Y71741D01*
X176636Y70901D01*
X176518Y70002D01*
X176506Y69974D01*
X176503Y69567D01*
X176454Y68843D01*
X176411Y68542D01*
X176355Y68270D01*
X176287Y68033D01*
X176211Y67831D01*
X176128Y67664D01*
X176041Y67530D01*
X175926Y67396D01*
X175912Y67354D01*
X170578Y62020D01*
X164115D01*
X163924Y62481D01*
X167354Y65912D01*
X167396Y65926D01*
X167530Y66041D01*
X167664Y66128D01*
X167831Y66211D01*
X168033Y66287D01*
X168270Y66355D01*
X168543Y66411D01*
X168842Y66454D01*
X169567Y66503D01*
X169975Y66506D01*
X170002Y66518D01*
X170901Y66636D01*
X171741Y66984D01*
X172462Y67537D01*
X173016Y68259D01*
X173364Y69099D01*
X173483Y70000D01*
X173364Y70901D01*
X173016Y71741D01*
X172462Y72462D01*
X171741Y73016D01*
X170901Y73364D01*
X170000Y73483D01*
X169099Y73364D01*
X168259Y73016D01*
X167537Y72462D01*
X166984Y71741D01*
X166636Y70901D01*
X166518Y70002D01*
X166506Y69974D01*
X166503Y69567D01*
X166454Y68843D01*
X166411Y68542D01*
X166355Y68270D01*
X166287Y68033D01*
X166211Y67831D01*
X166128Y67664D01*
X166041Y67530D01*
X165926Y67396D01*
X165912Y67354D01*
X162078Y63520D01*
X155615D01*
X155423Y63981D01*
X157354Y65912D01*
X157396Y65926D01*
X157530Y66041D01*
X157664Y66128D01*
X157831Y66211D01*
X158033Y66287D01*
X158270Y66355D01*
X158543Y66411D01*
X158843Y66454D01*
X159567Y66503D01*
X159975Y66506D01*
X160002Y66518D01*
X160901Y66636D01*
X161741Y66984D01*
X162462Y67537D01*
X163016Y68259D01*
X163364Y69099D01*
X163482Y70000D01*
X163364Y70901D01*
X163016Y71741D01*
X162462Y72462D01*
X161741Y73016D01*
X160901Y73364D01*
X160000Y73483D01*
X159099Y73364D01*
X158259Y73016D01*
X157537Y72462D01*
X156984Y71741D01*
X156636Y70901D01*
X156518Y70002D01*
X156506Y69974D01*
X156503Y69567D01*
X156454Y68843D01*
X156411Y68542D01*
X156354Y68270D01*
X156287Y68033D01*
X156211Y67831D01*
X156128Y67664D01*
X156041Y67530D01*
X155926Y67396D01*
X155912Y67354D01*
X153578Y65020D01*
X147115D01*
X146923Y65482D01*
X147354Y65912D01*
X147397Y65926D01*
X147530Y66041D01*
X147663Y66128D01*
X147831Y66211D01*
X148033Y66287D01*
X148270Y66355D01*
X148542Y66411D01*
X148843Y66454D01*
X149567Y66503D01*
X149975Y66506D01*
X150002Y66518D01*
X150901Y66636D01*
X151741Y66984D01*
X152462Y67537D01*
X153016Y68259D01*
X153364Y69099D01*
X153482Y70000D01*
X153364Y70901D01*
X153016Y71741D01*
X152462Y72462D01*
X151741Y73016D01*
X150901Y73364D01*
X150000Y73483D01*
X149099Y73364D01*
X148259Y73016D01*
X147538Y72462D01*
X146984Y71741D01*
X146636Y70901D01*
X146518Y70002D01*
X146506Y69974D01*
X146503Y69567D01*
X146454Y68843D01*
X146411Y68542D01*
X146354Y68270D01*
X146287Y68033D01*
X146211Y67831D01*
X146128Y67664D01*
X146041Y67530D01*
X145926Y67396D01*
X145912Y67354D01*
X145078Y66520D01*
X141927D01*
X141789Y66864D01*
X141788Y67020D01*
X142463Y67537D01*
X143016Y68259D01*
X143364Y69099D01*
X143482Y70000D01*
X143364Y70901D01*
X143016Y71741D01*
X142463Y72462D01*
X141741Y73016D01*
X140901Y73364D01*
X140000Y73483D01*
X139099Y73364D01*
X138259Y73016D01*
X137538Y72462D01*
X137276Y72122D01*
X137209Y72093D01*
X137196Y72061D01*
X137166Y72044D01*
X136995Y71819D01*
X136834Y71635D01*
X136672Y71476D01*
X136511Y71343D01*
X136352Y71234D01*
X136194Y71148D01*
X136036Y71082D01*
X135877Y71036D01*
X135715Y71008D01*
X135517Y70998D01*
X135423Y70952D01*
X135157Y70899D01*
X134826Y70678D01*
X133928Y69780D01*
X133639Y69923D01*
X133478Y70037D01*
X133364Y70901D01*
X133016Y71741D01*
X132463Y72462D01*
X131741Y73016D01*
X130901Y73364D01*
X130000Y73483D01*
X129099Y73364D01*
X128259Y73016D01*
X127538Y72462D01*
X126984Y71741D01*
X126636Y70901D01*
X126566Y70370D01*
X126517Y70277D01*
X126517Y70274D01*
X126517Y70274D01*
X126517Y70274D01*
X126478Y69846D01*
X126430Y69462D01*
X126305Y68777D01*
X126233Y68500D01*
X126153Y68254D01*
X126068Y68046D01*
X125980Y67876D01*
X125893Y67744D01*
X125784Y67618D01*
X125770Y67575D01*
X123215Y65020D01*
X121624D01*
X121234Y64942D01*
X120903Y64721D01*
X119129Y62947D01*
X118908Y62616D01*
X118852Y62332D01*
X118809Y62233D01*
X118807Y62047D01*
X118789Y61744D01*
X118778Y61653D01*
X118448Y61403D01*
X117924Y61490D01*
X117913Y61507D01*
X117801Y61582D01*
X117782Y61686D01*
X117746Y62106D01*
X117742Y62363D01*
X117720Y62413D01*
Y66174D01*
X117864Y66248D01*
X118060Y66325D01*
X118285Y66391D01*
X118541Y66445D01*
X118819Y66483D01*
X119490Y66517D01*
X119865Y66509D01*
X119870Y66511D01*
X119876Y66509D01*
X119922Y66528D01*
X120000Y66518D01*
X120901Y66636D01*
X121741Y66984D01*
X122462Y67537D01*
X123016Y68259D01*
X123364Y69099D01*
X123483Y70000D01*
X123364Y70901D01*
X123016Y71741D01*
X122462Y72462D01*
X121741Y73016D01*
X120901Y73364D01*
X120000Y73483D01*
X119099Y73364D01*
X118259Y73016D01*
X117537Y72462D01*
X116984Y71741D01*
X116636Y70901D01*
X116517Y70000D01*
X116528Y69923D01*
X116509Y69877D01*
Y69876D01*
X116509Y69876D01*
X116509Y69876D01*
X116508Y69134D01*
X116484Y68826D01*
X116445Y68541D01*
X116392Y68285D01*
X116325Y68060D01*
X116248Y67864D01*
X116161Y67696D01*
X116066Y67555D01*
X115940Y67411D01*
X115907Y67312D01*
X115759Y67091D01*
X115681Y66701D01*
Y62413D01*
X115660Y62363D01*
X115655Y62100D01*
X115642Y61879D01*
X115621Y61694D01*
X115601Y61582D01*
X115489Y61507D01*
X115427Y61414D01*
X115384Y61389D01*
X115319Y61363D01*
X115134Y61328D01*
X115118D01*
X114933Y61363D01*
X114868Y61389D01*
X114825Y61414D01*
X114763Y61507D01*
X114652Y61582D01*
X114632Y61686D01*
X114597Y62106D01*
X114592Y62363D01*
X114571Y62413D01*
Y66449D01*
X114493Y66839D01*
X114272Y67170D01*
X114088Y67354D01*
X114074Y67396D01*
X113959Y67530D01*
X113872Y67664D01*
X113789Y67831D01*
X113713Y68033D01*
X113646Y68270D01*
X113589Y68542D01*
X113546Y68843D01*
X113497Y69567D01*
X113494Y69974D01*
X113482Y70002D01*
X113364Y70901D01*
X113016Y71741D01*
X112462Y72462D01*
X111741Y73016D01*
X110901Y73364D01*
X110000Y73483D01*
X109099Y73364D01*
X108259Y73016D01*
X107537Y72462D01*
X106984Y71741D01*
X106636Y70901D01*
X106518Y70000D01*
X106636Y69099D01*
X106984Y68259D01*
X107537Y67537D01*
X108259Y66984D01*
X109099Y66636D01*
X109998Y66518D01*
X110026Y66506D01*
X110433Y66503D01*
X111158Y66454D01*
X111458Y66411D01*
X111730Y66355D01*
X111967Y66287D01*
X112169Y66211D01*
X112336Y66128D01*
X112470Y66041D01*
X112532Y65988D01*
Y62413D01*
X112510Y62363D01*
X112505Y62100D01*
X112492Y61879D01*
X112471Y61694D01*
X112451Y61582D01*
X112339Y61507D01*
X112277Y61414D01*
X112234Y61389D01*
X112170Y61363D01*
X111985Y61328D01*
X111968D01*
X111783Y61363D01*
X111719Y61389D01*
X111676Y61414D01*
X111614Y61507D01*
X111502Y61582D01*
X111483Y61686D01*
X111447Y62106D01*
X111443Y62363D01*
X111421Y62413D01*
Y63598D01*
X111344Y63989D01*
X111123Y64319D01*
X109721Y65721D01*
X109390Y65942D01*
X109000Y66020D01*
X105422D01*
X104088Y67354D01*
X104074Y67396D01*
X103959Y67530D01*
X103872Y67664D01*
X103789Y67831D01*
X103713Y68033D01*
X103646Y68270D01*
X103589Y68542D01*
X103546Y68843D01*
X103497Y69567D01*
X103494Y69974D01*
X103482Y70002D01*
X103364Y70901D01*
X103016Y71741D01*
X102462Y72462D01*
X101741Y73016D01*
X100901Y73364D01*
X100000Y73483D01*
X99099Y73364D01*
X98259Y73016D01*
X97537Y72462D01*
X96984Y71741D01*
X96636Y70901D01*
X96517Y70000D01*
X96636Y69099D01*
X96984Y68259D01*
X97537Y67537D01*
X98259Y66984D01*
X99099Y66636D01*
X99998Y66518D01*
X100025Y66506D01*
X100433Y66503D01*
X101157Y66454D01*
X101458Y66411D01*
X101730Y66355D01*
X101967Y66287D01*
X102169Y66211D01*
X102336Y66128D01*
X102470Y66041D01*
X102603Y65926D01*
X102646Y65912D01*
X104279Y64279D01*
X104610Y64058D01*
X105000Y63980D01*
X108578D01*
X109382Y63176D01*
Y62413D01*
X109361Y62363D01*
X109356Y62100D01*
X109343Y61879D01*
X109322Y61694D01*
X109301Y61582D01*
X109190Y61507D01*
X109127Y61414D01*
X108712Y61348D01*
X108633Y61363D01*
X108533Y61404D01*
X108464Y61507D01*
X107908Y61879D01*
X107252Y62009D01*
X106596Y61879D01*
X106040Y61507D01*
X105668Y60951D01*
X105538Y60295D01*
Y58532D01*
X105475Y58516D01*
X105369Y58498D01*
X105235Y58486D01*
X105059Y58482D01*
X105010Y58460D01*
X96981D01*
X91020Y64422D01*
Y65238D01*
X91040Y65278D01*
X91053Y65454D01*
X91086Y65610D01*
X91145Y65787D01*
X91234Y65984D01*
X91355Y66199D01*
X91507Y66431D01*
X91689Y66674D01*
X92166Y67221D01*
X92453Y67511D01*
X92463Y67539D01*
X93016Y68259D01*
X93364Y69099D01*
X93483Y70000D01*
X93364Y70901D01*
X93016Y71741D01*
X92462Y72462D01*
X91741Y73016D01*
X90901Y73364D01*
X90000Y73483D01*
X89099Y73364D01*
X88259Y73016D01*
X87537Y72462D01*
X86984Y71741D01*
X86636Y70901D01*
X86518Y70000D01*
X86636Y69099D01*
X86984Y68259D01*
X87537Y67539D01*
X87547Y67511D01*
X87834Y67221D01*
X88311Y66674D01*
X88493Y66431D01*
X88645Y66199D01*
X88766Y65984D01*
X88855Y65787D01*
X88914Y65610D01*
X88947Y65454D01*
X88960Y65278D01*
X88980Y65238D01*
Y64000D01*
X89058Y63610D01*
X89279Y63279D01*
X95838Y56720D01*
X96169Y56499D01*
X96559Y56421D01*
X105011D01*
X105059Y56400D01*
X105235Y56395D01*
X105369Y56384D01*
X105475Y56366D01*
X105538Y56349D01*
Y54587D01*
X105668Y53931D01*
X105929Y53541D01*
X105708Y53041D01*
X105500D01*
X105117Y52883D01*
X104959Y52500D01*
Y52293D01*
X104459Y52071D01*
X104069Y52332D01*
X103413Y52462D01*
X97705D01*
X97049Y52332D01*
X96838Y52191D01*
X96775Y52175D01*
X96753Y52138D01*
X96712Y52121D01*
X96704Y52101D01*
X96493Y51960D01*
X96418Y51848D01*
X96314Y51829D01*
X95894Y51794D01*
X95637Y51789D01*
X95587Y51768D01*
X95074D01*
X81090Y65752D01*
X81137Y65905D01*
X81215Y66088D01*
X81320Y66280D01*
X81452Y66480D01*
X81608Y66681D01*
X82030Y67128D01*
X82284Y67356D01*
X82290Y67370D01*
X82305Y67375D01*
X82329Y67435D01*
X82463Y67537D01*
X83016Y68259D01*
X83364Y69099D01*
X83482Y70000D01*
X83364Y70901D01*
X83016Y71741D01*
X82463Y72462D01*
X81741Y73016D01*
X80901Y73364D01*
X80000Y73483D01*
X79099Y73364D01*
X78259Y73016D01*
X77538Y72462D01*
X76984Y71741D01*
X76636Y70901D01*
X76517Y70000D01*
X76636Y69099D01*
X76984Y68259D01*
X77538Y67537D01*
X77671Y67435D01*
X77696Y67375D01*
X77710Y67370D01*
X77716Y67356D01*
X77976Y67122D01*
X78196Y66902D01*
X78387Y66688D01*
X78548Y66480D01*
X78680Y66280D01*
X78785Y66088D01*
X78863Y65905D01*
X78917Y65730D01*
X78948Y65562D01*
X78960Y65366D01*
X79006Y65272D01*
X79058Y65010D01*
X79279Y64679D01*
X93931Y50027D01*
X94262Y49806D01*
X94652Y49728D01*
X95587D01*
X95637Y49707D01*
X95900Y49702D01*
X96121Y49689D01*
X96306Y49668D01*
X96418Y49648D01*
X96493Y49536D01*
X96586Y49474D01*
X96611Y49431D01*
X96637Y49367D01*
X96672Y49182D01*
Y49165D01*
X96637Y48980D01*
X96611Y48916D01*
X96586Y48873D01*
X96493Y48810D01*
X96418Y48699D01*
X96314Y48680D01*
X95894Y48644D01*
X95637Y48640D01*
X95587Y48618D01*
X89724D01*
X75420Y62922D01*
Y65600D01*
X75342Y65990D01*
X75121Y66321D01*
X74088Y67354D01*
X74074Y67396D01*
X73959Y67530D01*
X73872Y67664D01*
X73789Y67831D01*
X73713Y68033D01*
X73646Y68270D01*
X73589Y68542D01*
X73546Y68843D01*
X73497Y69567D01*
X73494Y69974D01*
X73482Y70002D01*
X73364Y70901D01*
X73016Y71741D01*
X72462Y72462D01*
X71741Y73016D01*
X70901Y73364D01*
X70000Y73483D01*
X69099Y73364D01*
X68259Y73016D01*
X67537Y72462D01*
X66984Y71741D01*
X66636Y70901D01*
X66518Y70000D01*
X66636Y69099D01*
X66984Y68259D01*
X67537Y67537D01*
X68259Y66984D01*
X69099Y66636D01*
X69998Y66518D01*
X70025Y66506D01*
X70433Y66503D01*
X71157Y66454D01*
X71457Y66411D01*
X71730Y66355D01*
X71967Y66287D01*
X72169Y66211D01*
X72336Y66128D01*
X72470Y66041D01*
X72603Y65926D01*
X72646Y65912D01*
X73380Y65178D01*
Y62500D01*
X73458Y62110D01*
X73679Y61779D01*
X88581Y46878D01*
X88911Y46657D01*
X89302Y46579D01*
X95587D01*
X95637Y46557D01*
X95900Y46553D01*
X96121Y46539D01*
X96306Y46519D01*
X96418Y46498D01*
X96493Y46386D01*
X96586Y46324D01*
X96611Y46281D01*
X96637Y46217D01*
X96672Y46032D01*
Y46015D01*
X96637Y45830D01*
X96611Y45766D01*
X96586Y45723D01*
X96493Y45661D01*
X96418Y45549D01*
X96314Y45530D01*
X95894Y45494D01*
X95637Y45490D01*
X95587Y45468D01*
X88674D01*
X70121Y64021D01*
X69790Y64242D01*
X69400Y64320D01*
X61922D01*
X61020Y65222D01*
Y65238D01*
X61040Y65278D01*
X61053Y65454D01*
X61086Y65610D01*
X61145Y65787D01*
X61234Y65984D01*
X61355Y66199D01*
X61507Y66431D01*
X61689Y66674D01*
X62166Y67221D01*
X62453Y67511D01*
X62463Y67539D01*
X63016Y68259D01*
X63364Y69099D01*
X63482Y70000D01*
X63364Y70901D01*
X63016Y71741D01*
X62463Y72462D01*
X61741Y73016D01*
X60901Y73364D01*
X60000Y73483D01*
X59099Y73364D01*
X58259Y73016D01*
X57538Y72462D01*
X56984Y71741D01*
X56636Y70901D01*
X56517Y70000D01*
X56636Y69099D01*
X56984Y68259D01*
X57537Y67539D01*
X57547Y67511D01*
X57834Y67221D01*
X58311Y66674D01*
X58493Y66431D01*
X58645Y66199D01*
X58766Y65984D01*
X58855Y65787D01*
X58914Y65610D01*
X58947Y65454D01*
X58960Y65278D01*
X58980Y65238D01*
Y64800D01*
X59058Y64410D01*
X59279Y64079D01*
X60779Y62579D01*
X61110Y62358D01*
X61500Y62280D01*
X68978D01*
X87530Y43728D01*
X87861Y43507D01*
X88251Y43429D01*
X95587D01*
X95637Y43408D01*
X95900Y43403D01*
X96017Y43396D01*
X96135Y43150D01*
X96150Y42883D01*
X96132Y42872D01*
X95650Y42150D01*
X95631Y42055D01*
X96486Y42117D01*
X96656Y42147D01*
X96804Y42182D01*
X96930Y42223D01*
X97033Y42269D01*
X97115Y42320D01*
Y41799D01*
X100559D01*
Y40799D01*
X97115D01*
Y40278D01*
X97033Y40330D01*
X96930Y40376D01*
X96804Y40416D01*
X96656Y40452D01*
X96486Y40481D01*
X96080Y40525D01*
X95631Y40545D01*
X95650Y40448D01*
X96132Y39727D01*
X96145Y39718D01*
X96013Y39205D01*
X95894Y39195D01*
X95637Y39191D01*
X95587Y39169D01*
X93422D01*
X91971Y40621D01*
X91640Y40842D01*
X91250Y40920D01*
X88622D01*
X69121Y60421D01*
X68790Y60642D01*
X68400Y60720D01*
X56222D01*
X51087Y65855D01*
X51129Y66000D01*
X51198Y66168D01*
X51291Y66339D01*
X51407Y66513D01*
X51549Y66690D01*
X51717Y66870D01*
X51913Y67052D01*
X52148Y67245D01*
X52162Y67270D01*
X52188Y67281D01*
X52216Y67348D01*
X52463Y67537D01*
X53016Y68259D01*
X53364Y69099D01*
X53483Y70000D01*
X53364Y70901D01*
X53016Y71741D01*
X52463Y72462D01*
X51741Y73016D01*
X50901Y73364D01*
X50000Y73483D01*
X49099Y73364D01*
X48259Y73016D01*
X47537Y72462D01*
X46984Y71741D01*
X46636Y70901D01*
X46518Y70000D01*
X46636Y69099D01*
X46984Y68259D01*
X47537Y67537D01*
X47784Y67348D01*
X47812Y67281D01*
X47839Y67270D01*
X47852Y67245D01*
X48087Y67052D01*
X48283Y66870D01*
X48451Y66690D01*
X48593Y66513D01*
X48709Y66339D01*
X48802Y66168D01*
X48871Y66000D01*
X48920Y65834D01*
X48948Y65668D01*
X48960Y65469D01*
X49005Y65375D01*
X49058Y65110D01*
X49279Y64779D01*
X55079Y58979D01*
X55410Y58758D01*
X55800Y58680D01*
X67978D01*
X87479Y39179D01*
X87810Y38958D01*
X88200Y38880D01*
X90696D01*
X90908Y38609D01*
X90689Y38120D01*
X85622D01*
X67021Y56721D01*
X66690Y56942D01*
X66300Y57020D01*
X53422D01*
X43655Y66787D01*
X43653Y66796D01*
X43624Y66818D01*
X43613Y66829D01*
X43599Y66872D01*
X43473Y67017D01*
X43390Y67149D01*
X43321Y67301D01*
X43268Y67478D01*
X43233Y67682D01*
X43217Y67915D01*
X43222Y68177D01*
X43251Y68467D01*
X43305Y68785D01*
X43387Y69143D01*
X43377Y69201D01*
X43483Y70000D01*
X43364Y70901D01*
X43016Y71741D01*
X42463Y72462D01*
X41741Y73016D01*
X40901Y73364D01*
X40000Y73483D01*
X39099Y73364D01*
X38259Y73016D01*
X37538Y72462D01*
X36984Y71741D01*
X36636Y70901D01*
X36518Y70000D01*
X36636Y69099D01*
X36984Y68259D01*
X37538Y67537D01*
X38259Y66984D01*
X39099Y66636D01*
X39148Y66630D01*
X39182Y66603D01*
X40452Y66265D01*
X40779Y66160D01*
X41343Y65944D01*
X41552Y65847D01*
X41721Y65753D01*
X41844Y65671D01*
X41952Y65578D01*
X41994Y65564D01*
X52279Y55279D01*
X52610Y55058D01*
X53000Y54980D01*
X65878D01*
X70990Y49869D01*
X70783Y49369D01*
X65881D01*
Y44431D01*
Y40642D01*
X65800Y40597D01*
X65381Y40501D01*
X64923Y40993D01*
X64733Y41230D01*
X64586Y41440D01*
X64519Y41557D01*
Y42123D01*
X64536Y42165D01*
X64519Y42206D01*
Y42207D01*
X64529Y42250D01*
X64519Y42267D01*
Y43931D01*
X65019D01*
Y46400D01*
X61854D01*
X58688D01*
Y43931D01*
X58688D01*
X58739Y43431D01*
X58677Y43317D01*
X58457Y43298D01*
X58186Y43291D01*
X58149Y43275D01*
X52528D01*
X34901Y60901D01*
X34488Y61177D01*
X34000Y61274D01*
X29992D01*
X29955Y61291D01*
X29684Y61298D01*
X29464Y61317D01*
X29284Y61347D01*
X29145Y61384D01*
X29050Y61423D01*
X28997Y61455D01*
X28978Y61472D01*
X28976Y61475D01*
X28975Y61478D01*
X28967Y61557D01*
X28953Y61583D01*
Y63453D01*
X22047D01*
Y63453D01*
X21620Y63627D01*
Y65478D01*
X25122Y68980D01*
X25238D01*
X25278Y68960D01*
X25454Y68947D01*
X25610Y68914D01*
X25787Y68855D01*
X25984Y68766D01*
X26199Y68645D01*
X26431Y68493D01*
X26674Y68311D01*
X27221Y67834D01*
X27512Y67548D01*
X27539Y67536D01*
X28259Y66984D01*
X29099Y66636D01*
X30000Y66518D01*
X30901Y66636D01*
X31741Y66984D01*
X32462Y67537D01*
X33016Y68259D01*
X33364Y69099D01*
X33483Y70000D01*
X33364Y70901D01*
X33016Y71741D01*
X32462Y72462D01*
X31741Y73016D01*
X30901Y73364D01*
X30000Y73483D01*
X29099Y73364D01*
X28259Y73016D01*
X27539Y72464D01*
X27512Y72452D01*
X27221Y72166D01*
X26674Y71689D01*
X26431Y71507D01*
X26199Y71355D01*
X25984Y71234D01*
X25787Y71145D01*
X25610Y71086D01*
X25454Y71053D01*
X25278Y71040D01*
X25238Y71020D01*
X24700D01*
X24310Y70942D01*
X23979Y70721D01*
X19879Y66621D01*
X19658Y66290D01*
X19580Y65900D01*
Y56900D01*
X19658Y56510D01*
X19879Y56179D01*
X21779Y54279D01*
X22110Y54058D01*
X22500Y53980D01*
X23474D01*
X23573Y53480D01*
X23507Y53453D01*
X22681Y52819D01*
X22047Y51993D01*
X21649Y51032D01*
X21579Y50500D01*
X25500D01*
X29421D01*
X29351Y51032D01*
X28953Y51993D01*
X28319Y52819D01*
X27493Y53453D01*
X27427Y53480D01*
X27526Y53980D01*
X29778D01*
X37480Y46278D01*
Y37000D01*
X37558Y36610D01*
X37779Y36279D01*
X44679Y29379D01*
X45010Y29158D01*
X45400Y29080D01*
X54685D01*
X54877Y28618D01*
X50778Y24520D01*
X38722D01*
X38021Y25221D01*
X37690Y25442D01*
X37300Y25520D01*
X30000D01*
X29610Y25442D01*
X29279Y25221D01*
X28146Y24088D01*
X28104Y24074D01*
X27970Y23959D01*
X27836Y23872D01*
X27669Y23789D01*
X27467Y23713D01*
X27230Y23645D01*
X26957Y23589D01*
X26658Y23546D01*
X25933Y23497D01*
X25526Y23494D01*
X25498Y23482D01*
X24599Y23364D01*
X23759Y23016D01*
X23038Y22463D01*
X22484Y21741D01*
X22136Y20901D01*
X22017Y20000D01*
X22136Y19099D01*
X22484Y18259D01*
X23038Y17537D01*
X23759Y16984D01*
X24599Y16636D01*
X25500Y16517D01*
X26401Y16636D01*
X27241Y16984D01*
X27962Y17537D01*
X28516Y18259D01*
X28864Y19099D01*
X28982Y19998D01*
X28994Y20026D01*
X28997Y20433D01*
X29046Y21158D01*
X29089Y21457D01*
X29146Y21730D01*
X29213Y21967D01*
X29289Y22169D01*
X29372Y22336D01*
X29459Y22470D01*
X29574Y22603D01*
X29588Y22646D01*
X30422Y23480D01*
X36486D01*
X36709Y23221D01*
X36779Y22721D01*
X28146Y14088D01*
X28104Y14074D01*
X27970Y13959D01*
X27836Y13872D01*
X27669Y13789D01*
X27467Y13713D01*
X27230Y13645D01*
X26958Y13589D01*
X26658Y13546D01*
X25933Y13497D01*
X25526Y13494D01*
X25498Y13482D01*
X24599Y13364D01*
X23759Y13016D01*
X23038Y12462D01*
X22484Y11741D01*
X22136Y10901D01*
X22017Y10000D01*
X22136Y9099D01*
X22484Y8259D01*
X23038Y7537D01*
X23759Y6984D01*
X24599Y6636D01*
X25500Y6517D01*
X26401Y6636D01*
X27241Y6984D01*
X27962Y7537D01*
X28516Y8259D01*
X28864Y9099D01*
X28982Y9998D01*
X28994Y10025D01*
X28997Y10433D01*
X29046Y11158D01*
X29089Y11458D01*
X29146Y11730D01*
X29213Y11967D01*
X29289Y12169D01*
X29372Y12336D01*
X29459Y12470D01*
X29574Y12603D01*
X29588Y12646D01*
X37610Y20668D01*
X38070Y20422D01*
X37987Y20000D01*
X38102Y19421D01*
X38430Y18930D01*
X38921Y18602D01*
X39500Y18487D01*
X40079Y18602D01*
X40504Y18886D01*
X40528Y18894D01*
X40545Y18897D01*
X40552Y18902D01*
X40561Y18905D01*
X40571Y18914D01*
X40586Y18920D01*
X40615Y18928D01*
X40657Y18938D01*
X40704Y18945D01*
X40858Y18957D01*
X40948Y18959D01*
X40997Y18980D01*
X53400D01*
X53790Y19058D01*
X54121Y19279D01*
X57863Y23021D01*
X58668D01*
X58810Y22580D01*
X58810Y22580D01*
X58810D01*
X58810Y22580D01*
Y21073D01*
X59087Y21097D01*
X59282Y21133D01*
X59447Y21179D01*
X59582Y21236D01*
X59687Y21304D01*
X59762Y21381D01*
X59807Y21469D01*
X59822Y21567D01*
Y20800D01*
X61976D01*
Y19800D01*
X59822D01*
Y19033D01*
X59807Y19131D01*
X59762Y19219D01*
X59687Y19296D01*
X59582Y19364D01*
X59447Y19421D01*
X59282Y19467D01*
X59087Y19503D01*
X58862Y19529D01*
X58810Y19533D01*
Y18021D01*
X58571Y17620D01*
X40305D01*
X40258Y17641D01*
X40071Y17648D01*
X40011Y17654D01*
X39957Y17662D01*
X39915Y17672D01*
X39886Y17680D01*
X39871Y17686D01*
X39861Y17695D01*
X39852Y17698D01*
X39845Y17703D01*
X39828Y17706D01*
X39804Y17714D01*
X39379Y17998D01*
X38800Y18113D01*
X38221Y17998D01*
X37730Y17670D01*
X37402Y17179D01*
X37287Y16600D01*
X37402Y16021D01*
X37730Y15530D01*
X38221Y15202D01*
X38800Y15087D01*
X39379Y15202D01*
X39804Y15486D01*
X39828Y15494D01*
X39845Y15497D01*
X39852Y15502D01*
X39861Y15505D01*
X39871Y15514D01*
X39886Y15520D01*
X39915Y15528D01*
X39957Y15538D01*
X40004Y15545D01*
X40158Y15557D01*
X40248Y15559D01*
X40297Y15580D01*
X58760D01*
X58808Y15559D01*
X58984Y15554D01*
X59119Y15543D01*
X59225Y15525D01*
X59298Y15506D01*
X59310Y15501D01*
Y14780D01*
X62593D01*
X62630Y14758D01*
X62674Y14768D01*
X62715Y14751D01*
X62785Y14780D01*
X63050D01*
X63104Y14750D01*
X63226Y14665D01*
X63561Y14381D01*
X63753Y14196D01*
X63803Y14176D01*
X65898Y12082D01*
X65706Y11620D01*
X40600D01*
X40210Y11542D01*
X39879Y11321D01*
X32620Y4062D01*
X32572Y4044D01*
X32189Y3687D01*
X32040Y3568D01*
X31911Y3477D01*
X31868Y3453D01*
X31568D01*
X31526Y3470D01*
X31485Y3453D01*
X31484D01*
X31440Y3463D01*
X31424Y3453D01*
X26547D01*
Y-3453D01*
X33453D01*
Y1424D01*
X33463Y1440D01*
X33453Y1484D01*
Y1485D01*
X33470Y1527D01*
X33453Y1568D01*
Y1868D01*
X33477Y1911D01*
X33564Y2034D01*
X33850Y2371D01*
X34037Y2565D01*
X34057Y2615D01*
X41022Y9580D01*
X47485D01*
X47677Y9119D01*
X42646Y4088D01*
X42603Y4074D01*
X42470Y3959D01*
X42336Y3872D01*
X42169Y3789D01*
X41967Y3713D01*
X41730Y3646D01*
X41458Y3589D01*
X41157Y3546D01*
X40433Y3497D01*
X40025Y3494D01*
X39998Y3482D01*
X39099Y3364D01*
X38259Y3016D01*
X37538Y2462D01*
X36984Y1741D01*
X36636Y901D01*
X36518Y0D01*
X36636Y-901D01*
X36984Y-1741D01*
X37538Y-2462D01*
X38259Y-3016D01*
X39099Y-3364D01*
X40000Y-3483D01*
X40901Y-3364D01*
X41741Y-3016D01*
X42463Y-2462D01*
X43016Y-1741D01*
X43364Y-901D01*
X43482Y-2D01*
X43494Y25D01*
X43497Y433D01*
X43546Y1158D01*
X43589Y1457D01*
X43646Y1730D01*
X43713Y1967D01*
X43789Y2169D01*
X43872Y2336D01*
X43959Y2470D01*
X44074Y2603D01*
X44088Y2646D01*
X49422Y7980D01*
X103578D01*
X104053Y7505D01*
X103862Y7043D01*
X56024D01*
X55633Y6966D01*
X55303Y6745D01*
X52646Y4088D01*
X52604Y4074D01*
X52470Y3959D01*
X52337Y3872D01*
X52169Y3789D01*
X51967Y3713D01*
X51730Y3646D01*
X51458Y3589D01*
X51157Y3546D01*
X50433Y3497D01*
X50025Y3494D01*
X49998Y3482D01*
X49099Y3364D01*
X48259Y3016D01*
X47537Y2462D01*
X46984Y1741D01*
X46636Y901D01*
X46518Y0D01*
X46636Y-901D01*
X46984Y-1741D01*
X47537Y-2462D01*
X48259Y-3016D01*
X49099Y-3364D01*
X50000Y-3483D01*
X50901Y-3364D01*
X51741Y-3016D01*
X52463Y-2462D01*
X53016Y-1741D01*
X53364Y-901D01*
X53482Y-2D01*
X53494Y25D01*
X53497Y433D01*
X53546Y1158D01*
X53589Y1457D01*
X53645Y1730D01*
X53713Y1967D01*
X53789Y2169D01*
X53872Y2336D01*
X53959Y2470D01*
X54074Y2603D01*
X54088Y2646D01*
X56446Y5004D01*
X62909D01*
X63100Y4542D01*
X62646Y4088D01*
X62603Y4074D01*
X62470Y3959D01*
X62336Y3872D01*
X62169Y3789D01*
X61967Y3713D01*
X61730Y3646D01*
X61458Y3589D01*
X61158Y3546D01*
X60433Y3497D01*
X60026Y3494D01*
X59998Y3482D01*
X59099Y3364D01*
X58259Y3016D01*
X57538Y2462D01*
X56984Y1741D01*
X56636Y901D01*
X56517Y0D01*
X56636Y-901D01*
X56984Y-1741D01*
X57538Y-2462D01*
X58259Y-3016D01*
X59099Y-3364D01*
X60000Y-3483D01*
X60901Y-3364D01*
X61741Y-3016D01*
X62463Y-2462D01*
X63016Y-1741D01*
X63364Y-901D01*
X63482Y-2D01*
X63494Y25D01*
X63497Y433D01*
X63546Y1158D01*
X63589Y1457D01*
X63645Y1730D01*
X63713Y1967D01*
X63789Y2169D01*
X63872Y2336D01*
X63959Y2470D01*
X64074Y2603D01*
X64088Y2646D01*
X64946Y3504D01*
X68130D01*
X68248Y3055D01*
X68243Y3004D01*
X67537Y2462D01*
X66984Y1741D01*
X66636Y901D01*
X66518Y0D01*
X66636Y-901D01*
X66984Y-1741D01*
X67537Y-2462D01*
X68259Y-3016D01*
X69099Y-3364D01*
X70000Y-3483D01*
X70901Y-3364D01*
X71741Y-3016D01*
X72462Y-2462D01*
X73016Y-1741D01*
X73364Y-901D01*
X73483Y0D01*
X73364Y901D01*
X73016Y1741D01*
X72462Y2462D01*
X71757Y3004D01*
X71751Y3055D01*
X71870Y3504D01*
X78130D01*
X78249Y3055D01*
X78243Y3004D01*
X77538Y2462D01*
X76984Y1741D01*
X76636Y901D01*
X76517Y0D01*
X76636Y-901D01*
X76984Y-1741D01*
X77538Y-2462D01*
X78259Y-3016D01*
X79099Y-3364D01*
X80000Y-3483D01*
X80901Y-3364D01*
X81741Y-3016D01*
X82463Y-2462D01*
X83016Y-1741D01*
X83364Y-901D01*
X83482Y0D01*
X83364Y901D01*
X83016Y1741D01*
X82463Y2462D01*
X81757Y3004D01*
X81752Y3055D01*
X81870Y3504D01*
X88130D01*
X88248Y3055D01*
X88243Y3004D01*
X87537Y2462D01*
X86984Y1741D01*
X86636Y901D01*
X86518Y0D01*
X86636Y-901D01*
X86984Y-1741D01*
X87537Y-2462D01*
X88259Y-3016D01*
X89099Y-3364D01*
X90000Y-3483D01*
X90901Y-3364D01*
X91741Y-3016D01*
X92462Y-2462D01*
X93016Y-1741D01*
X93364Y-901D01*
X93483Y0D01*
X93364Y901D01*
X93016Y1741D01*
X92462Y2462D01*
X91757Y3004D01*
X91751Y3055D01*
X91870Y3504D01*
X98130D01*
X98248Y3055D01*
X98243Y3004D01*
X97537Y2462D01*
X96984Y1741D01*
X96636Y901D01*
X96517Y0D01*
X96636Y-901D01*
X96984Y-1741D01*
X97537Y-2462D01*
X98259Y-3016D01*
X99099Y-3364D01*
X100000Y-3483D01*
X100901Y-3364D01*
X101741Y-3016D01*
X102462Y-2462D01*
X103016Y-1741D01*
X103364Y-901D01*
X103482Y0D01*
X103364Y901D01*
X103016Y1741D01*
X102462Y2462D01*
X101757Y3004D01*
X101751Y3055D01*
X101870Y3504D01*
X108130D01*
X108248Y3055D01*
X108243Y3004D01*
X107537Y2462D01*
X106984Y1741D01*
X106636Y901D01*
X106518Y0D01*
X106636Y-901D01*
X106984Y-1741D01*
X107537Y-2462D01*
X108259Y-3016D01*
X109099Y-3364D01*
X110000Y-3483D01*
X110901Y-3364D01*
X111741Y-3016D01*
X112462Y-2462D01*
X113016Y-1741D01*
X113364Y-901D01*
X113464Y-138D01*
X113493Y-75D01*
X113508Y339D01*
X113576Y1073D01*
X113626Y1378D01*
X113688Y1654D01*
X113759Y1894D01*
X113838Y2099D01*
X113923Y2267D01*
X114010Y2400D01*
X114123Y2531D01*
X114137Y2574D01*
X116044Y4480D01*
X122331D01*
X122377Y4424D01*
X122495Y3980D01*
X122470Y3959D01*
X122336Y3872D01*
X122169Y3789D01*
X121967Y3713D01*
X121730Y3646D01*
X121458Y3589D01*
X121158Y3546D01*
X120433Y3497D01*
X120026Y3494D01*
X119998Y3482D01*
X119099Y3364D01*
X118259Y3016D01*
X117537Y2462D01*
X116984Y1741D01*
X116636Y901D01*
X116517Y0D01*
X116636Y-901D01*
X116984Y-1741D01*
X117537Y-2462D01*
X118259Y-3016D01*
X119099Y-3364D01*
X120000Y-3483D01*
X120901Y-3364D01*
X121741Y-3016D01*
X122462Y-2462D01*
X123016Y-1741D01*
X123364Y-901D01*
X123482Y-2D01*
X123494Y25D01*
X123497Y433D01*
X123546Y1158D01*
X123589Y1457D01*
X123645Y1730D01*
X123713Y1967D01*
X123789Y2169D01*
X123872Y2336D01*
X123959Y2470D01*
X124074Y2603D01*
X124088Y2646D01*
X128857Y7415D01*
X128906Y7434D01*
X129157Y7672D01*
X129369Y7848D01*
X129453Y7910D01*
X129530Y7960D01*
X129593Y7995D01*
X129640Y8017D01*
X129668Y8026D01*
X129714Y8036D01*
X129792Y8089D01*
X129955Y8121D01*
X130511Y8493D01*
X130580Y8596D01*
X130681Y8637D01*
X130759Y8652D01*
X131175Y8586D01*
X131237Y8493D01*
X131349Y8418D01*
X131368Y8314D01*
X131403Y7894D01*
X131408Y7637D01*
X131429Y7587D01*
Y4062D01*
X131408Y4018D01*
X131397Y3794D01*
X131370Y3644D01*
X131334Y3544D01*
X131299Y3485D01*
X131267Y3451D01*
X131227Y3427D01*
X131161Y3404D01*
X131053Y3389D01*
X130899Y3393D01*
X130675Y3427D01*
X130657Y3423D01*
X130640Y3432D01*
X130566Y3408D01*
X130000Y3483D01*
X129099Y3364D01*
X128259Y3016D01*
X127538Y2462D01*
X126984Y1741D01*
X126636Y901D01*
X126517Y0D01*
X126636Y-901D01*
X126984Y-1741D01*
X127538Y-2462D01*
X128259Y-3016D01*
X129099Y-3364D01*
X130000Y-3483D01*
X130901Y-3364D01*
X131741Y-3016D01*
X132463Y-2462D01*
X133016Y-1741D01*
X133364Y-901D01*
X133483Y0D01*
X133479Y25D01*
X133491Y47D01*
X133483Y71D01*
X133493Y94D01*
X133490Y3422D01*
X133468Y3474D01*
Y3547D01*
X133471Y3565D01*
X133468Y3568D01*
Y7587D01*
X133490Y7637D01*
X133495Y7900D01*
X133508Y8121D01*
X133529Y8306D01*
X133549Y8418D01*
X133661Y8493D01*
X133723Y8586D01*
X133766Y8611D01*
X133830Y8637D01*
X134015Y8672D01*
X134032D01*
X134217Y8637D01*
X134281Y8611D01*
X134324Y8586D01*
X134386Y8493D01*
X134498Y8418D01*
X134517Y8314D01*
X134553Y7894D01*
X134557Y7637D01*
X134579Y7587D01*
Y4402D01*
X134656Y4011D01*
X134878Y3681D01*
X135912Y2646D01*
X135926Y2603D01*
X136041Y2470D01*
X136128Y2337D01*
X136211Y2169D01*
X136287Y1967D01*
X136354Y1730D01*
X136411Y1457D01*
X136454Y1158D01*
X136503Y433D01*
X136506Y25D01*
X136518Y-2D01*
X136636Y-901D01*
X136984Y-1741D01*
X137538Y-2462D01*
X138259Y-3016D01*
X139099Y-3364D01*
X140000Y-3483D01*
X140901Y-3364D01*
X141741Y-3016D01*
X142463Y-2462D01*
X143016Y-1741D01*
X143364Y-901D01*
X143482Y0D01*
X143364Y901D01*
X143016Y1741D01*
X142463Y2462D01*
X141741Y3016D01*
X140901Y3364D01*
X140002Y3482D01*
X139974Y3494D01*
X139567Y3497D01*
X138842Y3546D01*
X138542Y3589D01*
X138270Y3646D01*
X138033Y3713D01*
X137831Y3789D01*
X137664Y3872D01*
X137530Y3959D01*
X137397Y4074D01*
X137354Y4088D01*
X136618Y4824D01*
Y7587D01*
X136639Y7637D01*
X136644Y7900D01*
X136657Y8121D01*
X136678Y8306D01*
X136699Y8418D01*
X136810Y8493D01*
X136873Y8586D01*
X137288Y8652D01*
X137366Y8637D01*
X137467Y8596D01*
X137536Y8493D01*
X138092Y8121D01*
X138748Y7991D01*
X139404Y8121D01*
X139960Y8493D01*
X140332Y9049D01*
X140462Y9705D01*
Y11465D01*
X140942Y11516D01*
X148691Y3767D01*
X148717Y3625D01*
X148659Y3225D01*
X148598Y3156D01*
X148259Y3016D01*
X147538Y2462D01*
X146984Y1741D01*
X146636Y901D01*
X146518Y0D01*
X146636Y-901D01*
X146984Y-1741D01*
X147538Y-2462D01*
X148259Y-3016D01*
X149099Y-3364D01*
X150000Y-3483D01*
X150901Y-3364D01*
X151741Y-3016D01*
X152462Y-2462D01*
X153016Y-1741D01*
X153364Y-901D01*
X153482Y0D01*
X153364Y901D01*
X153016Y1741D01*
X152462Y2462D01*
X151741Y3016D01*
X151402Y3156D01*
X151341Y3225D01*
X151260Y3264D01*
X151222Y3290D01*
X151190Y3319D01*
X151161Y3355D01*
X151132Y3402D01*
X151104Y3464D01*
X151079Y3544D01*
X151059Y3644D01*
X151046Y3762D01*
X151041Y3918D01*
X150996Y4016D01*
X150942Y4290D01*
X150721Y4621D01*
X142062Y13280D01*
X141731Y13501D01*
X141341Y13579D01*
X140989D01*
X140941Y13600D01*
X140765Y13605D01*
X140631Y13616D01*
X140525Y13634D01*
X140462Y13650D01*
Y15413D01*
X140332Y16069D01*
X139960Y16625D01*
X139404Y16997D01*
X139328Y17012D01*
X139183Y17491D01*
X140509Y18817D01*
X140988Y18672D01*
X141003Y18596D01*
X141375Y18040D01*
X141931Y17668D01*
X142587Y17538D01*
X144350D01*
X144366Y17475D01*
X144384Y17369D01*
X144395Y17235D01*
X144400Y17059D01*
X144421Y17011D01*
Y14559D01*
X144499Y14169D01*
X144720Y13838D01*
X155912Y2646D01*
X155926Y2603D01*
X156041Y2470D01*
X156128Y2337D01*
X156211Y2169D01*
X156287Y1967D01*
X156354Y1730D01*
X156411Y1457D01*
X156454Y1158D01*
X156503Y433D01*
X156506Y25D01*
X156518Y-2D01*
X156636Y-901D01*
X156984Y-1741D01*
X157537Y-2462D01*
X158259Y-3016D01*
X159099Y-3364D01*
X160000Y-3483D01*
X160901Y-3364D01*
X161741Y-3016D01*
X162462Y-2462D01*
X163016Y-1741D01*
X163364Y-901D01*
X163482Y0D01*
X163364Y901D01*
X163016Y1741D01*
X162462Y2462D01*
X161741Y3016D01*
X160901Y3364D01*
X160002Y3482D01*
X159975Y3494D01*
X159567Y3497D01*
X158843Y3546D01*
X158543Y3589D01*
X158270Y3646D01*
X158033Y3713D01*
X157831Y3789D01*
X157664Y3872D01*
X157530Y3959D01*
X157396Y4074D01*
X157354Y4088D01*
X146460Y14981D01*
Y17011D01*
X146482Y17059D01*
X146486Y17235D01*
X146498Y17369D01*
X146516Y17475D01*
X146532Y17538D01*
X148295D01*
X148951Y17668D01*
X149507Y18040D01*
X149879Y18596D01*
X150009Y19252D01*
X149879Y19908D01*
X149507Y20464D01*
X149338Y20577D01*
Y21077D01*
X149507Y21190D01*
X149879Y21746D01*
X150009Y22402D01*
X149879Y23057D01*
X149728Y23284D01*
X149830Y23954D01*
X149868Y23979D01*
X150350Y24700D01*
X150378Y24842D01*
X149750Y24799D01*
X149555Y24770D01*
X149226Y24693D01*
X149092Y24645D01*
X148978Y24591D01*
X148885Y24530D01*
Y25051D01*
X145441D01*
Y26051D01*
X148885D01*
Y26572D01*
X148955Y26530D01*
X149048Y26492D01*
X149166Y26459D01*
X149307Y26430D01*
X149473Y26406D01*
X149874Y26370D01*
X150360Y26353D01*
X150350Y26402D01*
X150033Y26877D01*
X150287Y27396D01*
X150436Y27407D01*
X150699Y27410D01*
X150738Y27426D01*
X151768D01*
X151805Y27410D01*
X152076Y27403D01*
X152296Y27384D01*
X152476Y27354D01*
X152615Y27317D01*
X152709Y27278D01*
X152762Y27246D01*
X152781Y27229D01*
X152784Y27225D01*
X152785Y27222D01*
X152793Y27144D01*
X152807Y27118D01*
Y26032D01*
X158138D01*
Y30968D01*
X152807D01*
Y30284D01*
X152793Y30258D01*
X152785Y30179D01*
X152784Y30176D01*
X152781Y30173D01*
X152762Y30156D01*
X152709Y30123D01*
X152614Y30085D01*
X152476Y30048D01*
X152296Y30018D01*
X152076Y29999D01*
X151805Y29992D01*
X151768Y29975D01*
X150738D01*
X150699Y29992D01*
X150428Y29995D01*
X149960Y30015D01*
X149589Y30055D01*
X149545Y30062D01*
X149444Y30292D01*
X149433Y30536D01*
X149445Y30594D01*
X149447Y30598D01*
X149507Y30638D01*
X149714Y30947D01*
X149808Y31035D01*
X149841Y31106D01*
X149872Y31164D01*
X149980Y31329D01*
X150035Y31405D01*
X150424Y31849D01*
X150540Y31968D01*
X150561Y32019D01*
X153522Y34980D01*
X159928D01*
X162978Y31930D01*
X162787Y31468D01*
X162665D01*
Y28500D01*
Y25532D01*
X164796D01*
Y24369D01*
X162665D01*
Y21400D01*
Y18431D01*
X164796D01*
Y4184D01*
X164874Y3794D01*
X165095Y3463D01*
X165912Y2646D01*
X165926Y2603D01*
X166041Y2470D01*
X166128Y2337D01*
X166211Y2169D01*
X166287Y1967D01*
X166355Y1730D01*
X166411Y1457D01*
X166454Y1158D01*
X166503Y433D01*
X166506Y25D01*
X166518Y-2D01*
X166636Y-901D01*
X166984Y-1741D01*
X167537Y-2462D01*
X168259Y-3016D01*
X169099Y-3364D01*
X170000Y-3483D01*
X170901Y-3364D01*
X171741Y-3016D01*
X172462Y-2462D01*
X173016Y-1741D01*
X173364Y-901D01*
X173483Y0D01*
X173364Y901D01*
X173016Y1741D01*
X172462Y2462D01*
X171741Y3016D01*
X170901Y3364D01*
X170002Y3482D01*
X169975Y3494D01*
X169567Y3497D01*
X168842Y3546D01*
X168543Y3589D01*
X168270Y3646D01*
X168033Y3713D01*
X167831Y3789D01*
X167664Y3872D01*
X167530Y3959D01*
X167396Y4074D01*
X167354Y4088D01*
X166835Y4607D01*
Y11169D01*
X167297Y11361D01*
X175954Y2704D01*
X175968Y2661D01*
X176085Y2526D01*
X176172Y2393D01*
X176253Y2227D01*
X176327Y2026D01*
X176391Y1791D01*
X176442Y1523D01*
X176480Y1227D01*
X176514Y511D01*
X176508Y109D01*
X176526Y63D01*
X176517Y0D01*
X176636Y-901D01*
X176984Y-1741D01*
X177538Y-2462D01*
X178259Y-3016D01*
X179099Y-3364D01*
X180000Y-3483D01*
X180901Y-3364D01*
X181741Y-3016D01*
X182463Y-2462D01*
X183016Y-1741D01*
X183364Y-901D01*
X183483Y0D01*
X183364Y901D01*
X183016Y1741D01*
X182463Y2462D01*
X181741Y3016D01*
X180901Y3364D01*
X180116Y3467D01*
X180058Y3493D01*
X179645Y3506D01*
X178912Y3571D01*
X178608Y3619D01*
X178333Y3680D01*
X178093Y3751D01*
X177889Y3830D01*
X177721Y3914D01*
X177588Y4001D01*
X177456Y4115D01*
X177388Y4343D01*
X177712Y4830D01*
X183728D01*
X185912Y2646D01*
X185926Y2603D01*
X186041Y2470D01*
X186128Y2337D01*
X186211Y2169D01*
X186287Y1967D01*
X186354Y1730D01*
X186411Y1457D01*
X186454Y1158D01*
X186503Y433D01*
X186506Y25D01*
X186518Y-2D01*
X186636Y-901D01*
X186984Y-1741D01*
X187538Y-2462D01*
X188259Y-3016D01*
X189099Y-3364D01*
X190000Y-3483D01*
X190901Y-3364D01*
X191741Y-3016D01*
X192463Y-2462D01*
X193016Y-1741D01*
X193364Y-901D01*
X193482Y0D01*
X193364Y901D01*
X193016Y1741D01*
X192463Y2462D01*
X191741Y3016D01*
X190901Y3364D01*
X190002Y3482D01*
X189974Y3494D01*
X190010Y3980D01*
X194578D01*
X195912Y2646D01*
X195926Y2603D01*
X196041Y2470D01*
X196128Y2337D01*
X196211Y2169D01*
X196287Y1967D01*
X196354Y1730D01*
X196411Y1457D01*
X196454Y1158D01*
X196503Y433D01*
X196506Y25D01*
X196518Y-2D01*
X196636Y-901D01*
X196984Y-1741D01*
X197538Y-2462D01*
X198259Y-3016D01*
X199099Y-3364D01*
X200000Y-3483D01*
X200901Y-3364D01*
X201741Y-3016D01*
X202463Y-2462D01*
X203016Y-1741D01*
X203364Y-901D01*
X203483Y0D01*
X203364Y901D01*
X203016Y1741D01*
X202464Y2461D01*
X202452Y2489D01*
X202166Y2779D01*
X201689Y3326D01*
X201507Y3569D01*
X201355Y3801D01*
X201234Y4016D01*
X201145Y4213D01*
X201086Y4390D01*
X201053Y4546D01*
X201040Y4722D01*
X201020Y4762D01*
Y15578D01*
X205422Y19980D01*
X206438D01*
X206486Y19959D01*
X206662Y19954D01*
X206797Y19943D01*
X206903Y19925D01*
X206976Y19906D01*
X206988Y19901D01*
Y19031D01*
X212319D01*
Y23968D01*
X206988D01*
Y22099D01*
X206976Y22094D01*
X206903Y22075D01*
X206797Y22057D01*
X206662Y22046D01*
X206486Y22041D01*
X206438Y22020D01*
X205000D01*
X204610Y21942D01*
X204279Y21721D01*
X199279Y16721D01*
X199058Y16390D01*
X198980Y16000D01*
Y4762D01*
X198960Y4722D01*
X198947Y4546D01*
X198914Y4390D01*
X198855Y4213D01*
X198766Y4016D01*
X198645Y3801D01*
X198511Y3596D01*
X198270Y3646D01*
X198033Y3713D01*
X197831Y3789D01*
X197664Y3872D01*
X197530Y3959D01*
X197397Y4074D01*
X197354Y4088D01*
X195721Y5721D01*
X195390Y5942D01*
X195000Y6020D01*
X188422D01*
X186221Y8221D01*
X185890Y8442D01*
X185500Y8520D01*
X178922D01*
X171335Y16107D01*
Y32399D01*
X171258Y32789D01*
X171037Y33120D01*
X162136Y42020D01*
X161805Y42241D01*
X161415Y42319D01*
X150413D01*
X150363Y42340D01*
X150100Y42345D01*
X149879Y42358D01*
X149694Y42379D01*
X149582Y42399D01*
X149507Y42511D01*
X149414Y42573D01*
X149389Y42616D01*
X149363Y42681D01*
X149328Y42866D01*
Y42882D01*
X149363Y43067D01*
X149389Y43132D01*
X149414Y43175D01*
X149507Y43237D01*
X149582Y43349D01*
X149687Y43368D01*
X150106Y43403D01*
X150363Y43408D01*
X150413Y43429D01*
X151000D01*
X151390Y43507D01*
X151721Y43728D01*
X154722Y46728D01*
X167248D01*
X167638Y46806D01*
X167969Y47027D01*
X180822Y59880D01*
X189327D01*
Y56019D01*
X189305Y55971D01*
X189301Y55798D01*
X189289Y55665D01*
X189272Y55562D01*
X189253Y55490D01*
X189245Y55470D01*
X189242Y55468D01*
X187681D01*
Y50968D01*
X187181D01*
Y48500D01*
X190347D01*
X193512D01*
Y50968D01*
X193012D01*
Y55468D01*
X191451D01*
X191448Y55470D01*
X191440Y55490D01*
X191421Y55562D01*
X191404Y55665D01*
X191392Y55798D01*
X191387Y55971D01*
X191366Y56019D01*
Y59573D01*
X191758Y59861D01*
X191794Y59880D01*
X194451D01*
X194841Y59958D01*
X195172Y60179D01*
X198974Y63980D01*
X205000D01*
X205390Y64058D01*
X205721Y64279D01*
X207354Y65912D01*
X207397Y65926D01*
X207530Y66041D01*
X207663Y66128D01*
X207831Y66211D01*
X208033Y66287D01*
X208270Y66355D01*
X208542Y66411D01*
X208842Y66454D01*
X209567Y66503D01*
X209975Y66506D01*
X210002Y66518D01*
X210901Y66636D01*
X211741Y66984D01*
X212462Y67537D01*
X213016Y68259D01*
X213364Y69099D01*
X213482Y70000D01*
X213364Y70901D01*
X213016Y71741D01*
X212462Y72462D01*
X211741Y73016D01*
X210901Y73364D01*
X210000Y73483D01*
D02*
G37*
G36*
X212819Y51468D02*
X210154D01*
Y49000D01*
X212819D01*
Y51468D01*
D02*
G37*
G36*
X209154D02*
X206488D01*
Y49000D01*
X209154D01*
Y51468D01*
D02*
G37*
G36*
X65019Y49869D02*
X62354D01*
Y47400D01*
X65019D01*
Y49869D01*
D02*
G37*
G36*
X61354D02*
X58688D01*
Y47400D01*
X61354D01*
Y49869D01*
D02*
G37*
G36*
X29421Y49500D02*
X26000D01*
Y46079D01*
X26532Y46149D01*
X27493Y46547D01*
X28319Y47181D01*
X28953Y48007D01*
X29351Y48968D01*
X29421Y49500D01*
D02*
G37*
G36*
X25000D02*
X21579D01*
X21649Y48968D01*
X22047Y48007D01*
X22681Y47181D01*
X23507Y46547D01*
X24468Y46149D01*
X25000Y46079D01*
Y49500D01*
D02*
G37*
G36*
X212819Y48000D02*
X210154D01*
Y45531D01*
X212819D01*
Y48000D01*
D02*
G37*
G36*
X209154D02*
X206488D01*
Y45531D01*
X209154D01*
Y48000D01*
D02*
G37*
G36*
X186319Y55468D02*
X180988D01*
Y50532D01*
X180988Y50532D01*
X180988Y50468D01*
X180988D01*
X180988Y50032D01*
Y45531D01*
X186319D01*
Y50032D01*
X186319Y50468D01*
X186319Y50532D01*
X186319D01*
Y55468D01*
D02*
G37*
G36*
X193512Y47500D02*
X190847D01*
Y45031D01*
X193512D01*
Y47500D01*
D02*
G37*
G36*
X189847D02*
X187181D01*
Y45031D01*
X189847D01*
Y47500D01*
D02*
G37*
G36*
X199357Y44382D02*
X193633D01*
Y40382D01*
X199357D01*
Y44382D01*
D02*
G37*
G36*
X191981Y42319D02*
X190899D01*
X190492Y42238D01*
X190148Y42008D01*
X189918Y41663D01*
X189837Y41257D01*
Y38403D01*
X189918Y37996D01*
X190148Y37652D01*
X190492Y37422D01*
X190899Y37341D01*
X191981D01*
X192388Y37422D01*
X192732Y37652D01*
X192962Y37996D01*
X193043Y38403D01*
Y41257D01*
X192962Y41663D01*
X192732Y42008D01*
X192388Y42238D01*
X191981Y42319D01*
D02*
G37*
G36*
X170400Y42987D02*
X169653Y42889D01*
X168956Y42600D01*
X168359Y42141D01*
X167900Y41543D01*
X167612Y40847D01*
X167513Y40100D01*
X167612Y39353D01*
X167900Y38656D01*
X168359Y38059D01*
X168956Y37600D01*
X169653Y37312D01*
X170400Y37213D01*
X171147Y37312D01*
X171844Y37600D01*
X172194Y37868D01*
X172289Y37896D01*
X172413Y37994D01*
X172527Y38070D01*
X172651Y38137D01*
X172786Y38197D01*
X172933Y38249D01*
X173092Y38293D01*
X173263Y38327D01*
X173454Y38295D01*
X173657Y38241D01*
X173807Y38180D01*
X173905Y38120D01*
X173960Y38070D01*
X173987Y38029D01*
X174004Y37983D01*
X174018Y37856D01*
X174031Y37831D01*
Y36796D01*
X178969D01*
Y37725D01*
X178995Y37773D01*
X179008Y37900D01*
X179024Y37946D01*
X179051Y37987D01*
X179105Y38036D01*
X179202Y38096D01*
X179350Y38156D01*
X179552Y38210D01*
X179805Y38253D01*
X180107Y38279D01*
X180471Y38289D01*
X180497Y38300D01*
X180839D01*
X180865Y38289D01*
X181162Y38281D01*
X181420Y38260D01*
X181652Y38225D01*
X181857Y38178D01*
X182036Y38121D01*
X182189Y38054D01*
X182318Y37980D01*
X182424Y37901D01*
X182513Y37814D01*
X182609Y37690D01*
X182640Y37672D01*
X182654Y37638D01*
X182743Y37602D01*
X183012Y37422D01*
X183419Y37341D01*
X184501D01*
X184907Y37422D01*
X185252Y37652D01*
X185482Y37996D01*
X185563Y38403D01*
Y41257D01*
X185482Y41663D01*
X185252Y42008D01*
X184907Y42238D01*
X184501Y42319D01*
X183419D01*
X183012Y42238D01*
X182743Y42058D01*
X182654Y42021D01*
X182640Y41988D01*
X182609Y41970D01*
X182513Y41846D01*
X182424Y41759D01*
X182318Y41679D01*
X182189Y41606D01*
X182036Y41539D01*
X181857Y41482D01*
X181652Y41435D01*
X181420Y41400D01*
X181162Y41379D01*
X180865Y41371D01*
X180839Y41359D01*
X180494D01*
X180468Y41371D01*
X180101Y41379D01*
X179790Y41400D01*
X179528Y41434D01*
X179315Y41479D01*
X179157Y41530D01*
X179055Y41579D01*
X179007Y41614D01*
X179002Y41620D01*
X178993Y41687D01*
X178969Y41729D01*
Y42127D01*
X178527D01*
X178456Y42156D01*
X178421Y42141D01*
X178385Y42151D01*
X178342Y42127D01*
X174662D01*
X174624Y42150D01*
X174582Y42140D01*
X174542Y42156D01*
X174472Y42127D01*
X174031D01*
Y41734D01*
X174008Y41695D01*
X174004Y41670D01*
X173968Y41646D01*
X173862Y41601D01*
X173699Y41554D01*
X173490Y41515D01*
X173449Y41511D01*
X173300Y41548D01*
X173155Y41596D01*
X173026Y41653D01*
X172910Y41717D01*
X172806Y41791D01*
X172712Y41873D01*
X172608Y41985D01*
X172536Y42017D01*
X172441Y42141D01*
X171844Y42600D01*
X171147Y42889D01*
X170400Y42987D01*
D02*
G37*
G36*
X25500Y43483D02*
X24599Y43364D01*
X23759Y43016D01*
X23038Y42463D01*
X22484Y41741D01*
X22136Y40901D01*
X22017Y40000D01*
X22136Y39099D01*
X22484Y38259D01*
X23038Y37538D01*
X23759Y36984D01*
X24599Y36636D01*
X25500Y36518D01*
X26401Y36636D01*
X27241Y36984D01*
X27962Y37538D01*
X28516Y38259D01*
X28864Y39099D01*
X28982Y40000D01*
X28864Y40901D01*
X28516Y41741D01*
X27962Y42463D01*
X27241Y43016D01*
X26401Y43364D01*
X25500Y43483D01*
D02*
G37*
G36*
X179469Y35934D02*
X177000D01*
Y33268D01*
X179469D01*
Y35934D01*
D02*
G37*
G36*
X176000D02*
X173531D01*
Y33268D01*
X176000D01*
Y35934D01*
D02*
G37*
G36*
X186693Y32106D02*
X186557Y32079D01*
X186047Y31738D01*
X185830Y31413D01*
X185292Y31365D01*
X185252Y31378D01*
X184907Y31608D01*
X184501Y31689D01*
X183419D01*
X183012Y31608D01*
X182668Y31378D01*
X182438Y31034D01*
X182357Y30627D01*
Y27773D01*
X182392Y27598D01*
X182379Y27566D01*
X182383Y27556D01*
X182283Y27306D01*
X182145Y27128D01*
X182016Y27056D01*
X179900D01*
X179517Y26898D01*
X179359Y26515D01*
Y21915D01*
X179517Y21532D01*
X179900Y21374D01*
X180565D01*
X180588Y20883D01*
X180588D01*
Y15947D01*
X181117D01*
X181143Y15932D01*
X181269Y15919D01*
X181315Y15903D01*
X181356Y15875D01*
X181406Y15821D01*
X181465Y15723D01*
X181526Y15574D01*
X181580Y15370D01*
X181623Y15115D01*
X181649Y14810D01*
X181659Y14444D01*
X181671Y14418D01*
Y13800D01*
X181787Y13215D01*
X182119Y12719D01*
X182615Y12387D01*
X183200Y12271D01*
X183785Y12387D01*
X184281Y12719D01*
X184613Y13215D01*
X184729Y13800D01*
Y14418D01*
X184741Y14444D01*
X184751Y14810D01*
X184777Y15115D01*
X184820Y15370D01*
X184874Y15574D01*
X184935Y15723D01*
X184994Y15821D01*
X185044Y15875D01*
X185085Y15903D01*
X185131Y15919D01*
X185257Y15932D01*
X185283Y15947D01*
X185919D01*
Y20883D01*
X185919D01*
X185942Y21374D01*
X186781D01*
Y18915D01*
X189946D01*
X193112D01*
Y21374D01*
X193500D01*
X193883Y21532D01*
X194041Y21915D01*
Y23358D01*
X194401Y23599D01*
X195462Y24659D01*
X195498Y24673D01*
X195500Y24677D01*
X195505Y24679D01*
X195759Y24923D01*
X195990Y25125D01*
X196204Y25291D01*
X196399Y25424D01*
X196574Y25522D01*
X196724Y25587D01*
X196830Y25618D01*
X197068D01*
X197119Y25605D01*
X197206Y25618D01*
X199357D01*
Y29618D01*
X193633D01*
Y27713D01*
X193340Y27498D01*
X193084Y27710D01*
X193043Y27773D01*
Y30627D01*
X192962Y31034D01*
X192732Y31378D01*
X192388Y31608D01*
X191981Y31689D01*
X190899D01*
X190492Y31608D01*
X190148Y31378D01*
X190108Y31365D01*
X189570Y31413D01*
X189353Y31738D01*
X188843Y32079D01*
X188715Y32104D01*
X188740Y30834D01*
X188200D01*
Y29200D01*
X187200D01*
Y30834D01*
X186660D01*
X186668Y30865D01*
X186674Y30935D01*
X186686Y31192D01*
X186693Y32106D01*
D02*
G37*
G36*
X179469Y32269D02*
X177000D01*
Y29603D01*
X179469D01*
Y32269D01*
D02*
G37*
G36*
X176000D02*
X173531D01*
Y29603D01*
X176000D01*
Y32269D01*
D02*
G37*
G36*
X161665Y31468D02*
X159000D01*
Y29000D01*
X161665D01*
Y31468D01*
D02*
G37*
G36*
X25500Y33483D02*
X24599Y33364D01*
X23759Y33016D01*
X23038Y32462D01*
X22484Y31741D01*
X22136Y30901D01*
X22017Y30000D01*
X22136Y29099D01*
X22484Y28259D01*
X23038Y27538D01*
X23759Y26984D01*
X24599Y26636D01*
X25500Y26518D01*
X26401Y26636D01*
X27241Y26984D01*
X27962Y27538D01*
X28516Y28259D01*
X28864Y29099D01*
X28982Y30000D01*
X28864Y30901D01*
X28516Y31741D01*
X27962Y32462D01*
X27241Y33016D01*
X26401Y33364D01*
X25500Y33483D01*
D02*
G37*
G36*
X223767Y29618D02*
X218042D01*
Y25618D01*
X223767D01*
Y29618D01*
D02*
G37*
G36*
X161665Y28000D02*
X159000D01*
Y25532D01*
X161665D01*
Y28000D01*
D02*
G37*
G36*
Y24369D02*
X159000D01*
Y21900D01*
X161665D01*
Y24369D01*
D02*
G37*
G36*
X219012Y50968D02*
X213681D01*
Y46031D01*
X215401D01*
X215406Y46020D01*
X215425Y45946D01*
X215443Y45840D01*
X215454Y45705D01*
X215459Y45529D01*
X215487Y45466D01*
X215558Y45110D01*
X215779Y44779D01*
X217382Y43176D01*
X217383Y43167D01*
X217413Y43145D01*
X217438Y43120D01*
X217458Y43070D01*
X217630Y42891D01*
X217769Y42734D01*
X217881Y42592D01*
X217940Y42507D01*
X217936Y42501D01*
X217859Y42387D01*
X217613Y42092D01*
X217457Y41930D01*
X217456Y41926D01*
X217452Y41924D01*
X217434Y41876D01*
X215626Y40067D01*
X215405Y39737D01*
X215327Y39347D01*
Y24519D01*
X215305Y24471D01*
X215301Y24295D01*
X215289Y24160D01*
X215272Y24054D01*
X215252Y23980D01*
X215247Y23968D01*
X213681D01*
Y19031D01*
X219012D01*
Y23968D01*
X217446D01*
X217441Y23980D01*
X217421Y24054D01*
X217404Y24160D01*
X217392Y24295D01*
X217388Y24471D01*
X217366Y24519D01*
Y38924D01*
X218216Y39774D01*
X218264Y39792D01*
X218702Y40202D01*
X218868Y40339D01*
X218928Y40382D01*
X223767D01*
Y44382D01*
X219524D01*
X219477Y44395D01*
X219454Y44382D01*
X219174D01*
X219084Y44447D01*
X218720Y44759D01*
X218507Y44966D01*
X218456Y44986D01*
X217910Y45531D01*
X218117Y46031D01*
X219012D01*
Y50968D01*
D02*
G37*
G36*
X161665Y20900D02*
X159000D01*
Y18431D01*
X161665D01*
Y20900D01*
D02*
G37*
G36*
X158138Y23868D02*
X152807D01*
Y18932D01*
X153265D01*
X153269Y18914D01*
X153310Y18372D01*
X153310Y18304D01*
X153259Y18046D01*
X153374Y17467D01*
X153702Y16976D01*
X154193Y16648D01*
X154772Y16533D01*
X155352Y16648D01*
X155842Y16976D01*
X155875Y17025D01*
X155935Y17065D01*
X156266Y17561D01*
X156370Y18083D01*
X156395Y18140D01*
X156397Y18377D01*
X156420Y18766D01*
X156436Y18902D01*
X156442Y18932D01*
X158138D01*
Y23868D01*
D02*
G37*
G36*
X193112Y17915D02*
X190446D01*
Y15447D01*
X193112D01*
Y17915D01*
D02*
G37*
G36*
X189446D02*
X186781D01*
Y15447D01*
X189446D01*
Y17915D01*
D02*
G37*
G36*
X220000Y3483D02*
X219099Y3364D01*
X218259Y3016D01*
X217537Y2462D01*
X216984Y1741D01*
X216636Y901D01*
X216517Y0D01*
X216636Y-901D01*
X216984Y-1741D01*
X217537Y-2462D01*
X218259Y-3016D01*
X219099Y-3364D01*
X220000Y-3483D01*
X220901Y-3364D01*
X221741Y-3016D01*
X222463Y-2462D01*
X223016Y-1741D01*
X223364Y-901D01*
X223482Y0D01*
X223364Y901D01*
X223016Y1741D01*
X222463Y2462D01*
X221741Y3016D01*
X220901Y3364D01*
X220000Y3483D01*
D02*
G37*
G36*
X210000D02*
X209099Y3364D01*
X208259Y3016D01*
X207538Y2462D01*
X206984Y1741D01*
X206636Y901D01*
X206518Y0D01*
X206636Y-901D01*
X206984Y-1741D01*
X207538Y-2462D01*
X208259Y-3016D01*
X209099Y-3364D01*
X210000Y-3483D01*
X210901Y-3364D01*
X211741Y-3016D01*
X212462Y-2462D01*
X213016Y-1741D01*
X213364Y-901D01*
X213482Y0D01*
X213364Y901D01*
X213016Y1741D01*
X212462Y2462D01*
X211741Y3016D01*
X210901Y3364D01*
X210000Y3483D01*
D02*
G37*
%LPD*%
G36*
X137648Y68215D02*
X137457Y68451D01*
X137262Y68662D01*
X137063Y68849D01*
X136859Y69010D01*
X136651Y69147D01*
X136439Y69258D01*
X136223Y69345D01*
X136002Y69407D01*
X135777Y69445D01*
X135547Y69457D01*
Y70457D01*
X135775Y70470D01*
X135998Y70508D01*
X136215Y70570D01*
X136428Y70659D01*
X136635Y70772D01*
X136838Y70910D01*
X137035Y71074D01*
X137227Y71263D01*
X137415Y71477D01*
X137597Y71716D01*
X137648Y68215D01*
D02*
G37*
G36*
X27891Y67933D02*
X27589Y68231D01*
X27015Y68732D01*
X26742Y68936D01*
X26480Y69108D01*
X26228Y69249D01*
X25985Y69359D01*
X25753Y69437D01*
X25531Y69484D01*
X25318Y69500D01*
Y70500D01*
X25531Y70516D01*
X25753Y70563D01*
X25985Y70641D01*
X26228Y70751D01*
X26480Y70892D01*
X26742Y71064D01*
X27015Y71268D01*
X27589Y71769D01*
X27891Y72067D01*
Y67933D01*
D02*
G37*
G36*
X189264Y67140D02*
X188891Y67226D01*
X188539Y67286D01*
X188210Y67318D01*
X187902Y67325D01*
X187617Y67305D01*
X187353Y67259D01*
X187111Y67187D01*
X186892Y67088D01*
X186694Y66962D01*
X186518Y66811D01*
X185988Y67695D01*
X186102Y67827D01*
X186215Y67996D01*
X186329Y68202D01*
X186443Y68445D01*
X186670Y69042D01*
X186784Y69396D01*
X187126Y70678D01*
X189264Y67140D01*
D02*
G37*
G36*
X129714Y67061D02*
X129306Y67092D01*
X128571Y67096D01*
X128244Y67069D01*
X127943Y67022D01*
X127669Y66955D01*
X127421Y66869D01*
X127200Y66764D01*
X127006Y66639D01*
X126839Y66494D01*
X126194Y67264D01*
X126326Y67417D01*
X126448Y67602D01*
X126560Y67819D01*
X126661Y68068D01*
X126753Y68348D01*
X126834Y68660D01*
X126965Y69380D01*
X127016Y69788D01*
X127056Y70227D01*
X129714Y67061D01*
D02*
G37*
G36*
X119876Y67050D02*
X119482Y67058D01*
X118768Y67023D01*
X118448Y66978D01*
X118154Y66917D01*
X117884Y66838D01*
X117639Y66741D01*
X117419Y66628D01*
X117224Y66496D01*
X117054Y66347D01*
X116347Y67054D01*
X116496Y67224D01*
X116628Y67419D01*
X116741Y67639D01*
X116838Y67884D01*
X116917Y68154D01*
X116978Y68448D01*
X117023Y68768D01*
X117049Y69112D01*
X117050Y69876D01*
X119876Y67050D01*
D02*
G37*
G36*
X209970Y67047D02*
X209546Y67044D01*
X208786Y66993D01*
X208449Y66944D01*
X208142Y66881D01*
X207863Y66802D01*
X207614Y66708D01*
X207395Y66599D01*
X207204Y66475D01*
X207043Y66336D01*
X206336Y67043D01*
X206475Y67204D01*
X206599Y67395D01*
X206708Y67615D01*
X206802Y67864D01*
X206880Y68142D01*
X206944Y68449D01*
X206993Y68786D01*
X207044Y69546D01*
X207047Y69971D01*
X209970Y67047D01*
D02*
G37*
G36*
X199970D02*
X199546Y67044D01*
X198785Y66993D01*
X198449Y66944D01*
X198142Y66881D01*
X197863Y66802D01*
X197615Y66708D01*
X197395Y66599D01*
X197204Y66475D01*
X197043Y66336D01*
X196336Y67043D01*
X196475Y67204D01*
X196599Y67395D01*
X196708Y67615D01*
X196802Y67864D01*
X196880Y68142D01*
X196944Y68449D01*
X196993Y68786D01*
X197044Y69546D01*
X197047Y69971D01*
X199970Y67047D01*
D02*
G37*
G36*
X179971D02*
X179546Y67044D01*
X178786Y66993D01*
X178449Y66944D01*
X178142Y66881D01*
X177864Y66802D01*
X177614Y66708D01*
X177395Y66599D01*
X177204Y66475D01*
X177043Y66336D01*
X176336Y67043D01*
X176475Y67204D01*
X176599Y67395D01*
X176708Y67615D01*
X176802Y67864D01*
X176881Y68142D01*
X176944Y68449D01*
X176993Y68786D01*
X177044Y69546D01*
X177047Y69971D01*
X179971Y67047D01*
D02*
G37*
G36*
X169971D02*
X169546Y67044D01*
X168786Y66993D01*
X168449Y66944D01*
X168142Y66881D01*
X167864Y66802D01*
X167614Y66708D01*
X167395Y66599D01*
X167204Y66475D01*
X167043Y66336D01*
X166336Y67043D01*
X166475Y67204D01*
X166599Y67395D01*
X166708Y67615D01*
X166802Y67864D01*
X166881Y68142D01*
X166944Y68449D01*
X166993Y68786D01*
X167044Y69546D01*
X167047Y69971D01*
X169971Y67047D01*
D02*
G37*
G36*
X159970D02*
X159546Y67044D01*
X158785Y66993D01*
X158449Y66944D01*
X158142Y66881D01*
X157863Y66802D01*
X157615Y66708D01*
X157395Y66599D01*
X157204Y66475D01*
X157043Y66336D01*
X156336Y67043D01*
X156475Y67204D01*
X156599Y67395D01*
X156708Y67615D01*
X156802Y67864D01*
X156880Y68142D01*
X156944Y68449D01*
X156993Y68786D01*
X157044Y69546D01*
X157047Y69971D01*
X159970Y67047D01*
D02*
G37*
G36*
X149970D02*
X149546Y67044D01*
X148785Y66993D01*
X148449Y66944D01*
X148142Y66881D01*
X147863Y66802D01*
X147615Y66708D01*
X147395Y66599D01*
X147204Y66475D01*
X147043Y66336D01*
X146336Y67043D01*
X146475Y67204D01*
X146599Y67395D01*
X146708Y67615D01*
X146802Y67864D01*
X146880Y68142D01*
X146944Y68449D01*
X146993Y68786D01*
X147044Y69546D01*
X147047Y69971D01*
X149970Y67047D01*
D02*
G37*
G36*
X112956Y69546D02*
X113007Y68786D01*
X113056Y68449D01*
X113119Y68142D01*
X113198Y67864D01*
X113292Y67615D01*
X113401Y67395D01*
X113525Y67204D01*
X113664Y67043D01*
X112957Y66336D01*
X112796Y66475D01*
X112605Y66599D01*
X112385Y66708D01*
X112136Y66802D01*
X111858Y66881D01*
X111551Y66944D01*
X111214Y66993D01*
X110454Y67044D01*
X110029Y67047D01*
X112953Y69971D01*
X112956Y69546D01*
D02*
G37*
G36*
X102956D02*
X103007Y68786D01*
X103056Y68449D01*
X103120Y68142D01*
X103198Y67864D01*
X103292Y67615D01*
X103401Y67395D01*
X103525Y67204D01*
X103664Y67043D01*
X102957Y66336D01*
X102796Y66475D01*
X102605Y66599D01*
X102385Y66708D01*
X102137Y66802D01*
X101858Y66881D01*
X101551Y66944D01*
X101215Y66993D01*
X100454Y67044D01*
X100030Y67047D01*
X102953Y69971D01*
X102956Y69546D01*
D02*
G37*
G36*
X72956D02*
X73007Y68786D01*
X73056Y68449D01*
X73119Y68142D01*
X73198Y67864D01*
X73292Y67615D01*
X73401Y67395D01*
X73525Y67204D01*
X73664Y67043D01*
X72957Y66336D01*
X72796Y66475D01*
X72605Y66599D01*
X72386Y66708D01*
X72136Y66802D01*
X71858Y66881D01*
X71551Y66944D01*
X71214Y66993D01*
X70454Y67044D01*
X70029Y67047D01*
X72953Y69971D01*
X72956Y69546D01*
D02*
G37*
G36*
X42774Y68891D02*
X42715Y68539D01*
X42682Y68210D01*
X42675Y67902D01*
X42695Y67617D01*
X42741Y67353D01*
X42813Y67111D01*
X42912Y66892D01*
X43038Y66694D01*
X43189Y66518D01*
X42305Y65988D01*
X42173Y66102D01*
X42004Y66215D01*
X41798Y66329D01*
X41555Y66443D01*
X40958Y66671D01*
X40604Y66784D01*
X39322Y67126D01*
X42860Y69264D01*
X42774Y68891D01*
D02*
G37*
G36*
X51557Y67460D02*
X51335Y67254D01*
X51139Y67045D01*
X50970Y66833D01*
X50826Y66618D01*
X50709Y66401D01*
X50617Y66180D01*
X50552Y65956D01*
X50513Y65729D01*
X50500Y65500D01*
X49500D01*
X49487Y65729D01*
X49448Y65956D01*
X49382Y66180D01*
X49291Y66401D01*
X49174Y66618D01*
X49030Y66833D01*
X48860Y67045D01*
X48665Y67254D01*
X48443Y67460D01*
X48195Y67663D01*
X51805D01*
X51557Y67460D01*
D02*
G37*
G36*
X81652Y67515D02*
X81197Y67034D01*
X81012Y66796D01*
X80855Y66559D01*
X80727Y66324D01*
X80628Y66091D01*
X80557Y65859D01*
X80514Y65629D01*
X80500Y65400D01*
X79500D01*
X79486Y65629D01*
X79443Y65859D01*
X79372Y66091D01*
X79273Y66324D01*
X79145Y66559D01*
X78988Y66796D01*
X78803Y67034D01*
X78590Y67274D01*
X78348Y67515D01*
X78078Y67758D01*
X81922D01*
X81652Y67515D01*
D02*
G37*
G36*
X91769Y67589D02*
X91268Y67015D01*
X91064Y66742D01*
X90892Y66480D01*
X90751Y66228D01*
X90641Y65985D01*
X90563Y65753D01*
X90516Y65531D01*
X90500Y65318D01*
X89500D01*
X89484Y65531D01*
X89437Y65753D01*
X89359Y65985D01*
X89249Y66228D01*
X89108Y66480D01*
X88936Y66742D01*
X88732Y67015D01*
X88231Y67589D01*
X87933Y67891D01*
X92067D01*
X91769Y67589D01*
D02*
G37*
G36*
X61769D02*
X61268Y67015D01*
X61064Y66742D01*
X60892Y66480D01*
X60751Y66228D01*
X60641Y65985D01*
X60563Y65753D01*
X60516Y65531D01*
X60500Y65318D01*
X59500D01*
X59484Y65531D01*
X59437Y65753D01*
X59359Y65985D01*
X59249Y66228D01*
X59108Y66480D01*
X58936Y66742D01*
X58732Y67015D01*
X58231Y67589D01*
X57933Y67891D01*
X62067D01*
X61769Y67589D01*
D02*
G37*
G36*
X134258Y61397D02*
X134072Y61204D01*
X133781Y60858D01*
X133676Y60704D01*
X133598Y60564D01*
X133548Y60437D01*
X133524Y60323D01*
X133528Y60222D01*
X133558Y60135D01*
X133616Y60060D01*
X132180Y61427D01*
X132257Y61373D01*
X132348Y61346D01*
X132452Y61346D01*
X132570Y61373D01*
X132700Y61427D01*
X132844Y61508D01*
X133001Y61617D01*
X133171Y61752D01*
X133354Y61915D01*
X133551Y62104D01*
X134258Y61397D01*
D02*
G37*
G36*
X124808Y61401D02*
X124622Y61207D01*
X124331Y60861D01*
X124226Y60708D01*
X124148Y60568D01*
X124098Y60441D01*
X124075Y60327D01*
X124078Y60226D01*
X124109Y60139D01*
X124167Y60065D01*
X122725Y61426D01*
X122803Y61372D01*
X122895Y61346D01*
X122999Y61346D01*
X123116Y61373D01*
X123247Y61428D01*
X123391Y61509D01*
X123548Y61618D01*
X123718Y61753D01*
X123902Y61916D01*
X124099Y62106D01*
X124808Y61401D01*
D02*
G37*
G36*
X120353Y62028D02*
X120389Y61558D01*
X120412Y61444D01*
X120438Y61350D01*
X120470Y61277D01*
X120507Y61224D01*
X120548Y61193D01*
X120595Y61183D01*
X119106D01*
X119152Y61193D01*
X119194Y61224D01*
X119231Y61277D01*
X119263Y61350D01*
X119289Y61444D01*
X119311Y61558D01*
X119328Y61694D01*
X119348Y62028D01*
X119350Y62226D01*
X120350D01*
X120353Y62028D01*
D02*
G37*
G36*
X140634Y60470D02*
X140485Y60317D01*
X140141Y59916D01*
X140061Y59801D01*
X139997Y59696D01*
X139951Y59600D01*
X139922Y59514D01*
X139910Y59437D01*
X139915Y59370D01*
X139520Y61161D01*
X139539Y61106D01*
X139566Y61066D01*
X139602Y61044D01*
X139647Y61038D01*
X139701Y61049D01*
X139764Y61077D01*
X139836Y61121D01*
X139916Y61182D01*
X140005Y61259D01*
X140103Y61353D01*
X140634Y60470D01*
D02*
G37*
G36*
X117206Y62078D02*
X117245Y61615D01*
X117279Y61427D01*
X117323Y61267D01*
X117377Y61137D01*
X117441Y61036D01*
X117515Y60963D01*
X117598Y60920D01*
X117691Y60905D01*
X115710D01*
X115804Y60920D01*
X115887Y60963D01*
X115960Y61036D01*
X116024Y61137D01*
X116078Y61267D01*
X116122Y61427D01*
X116157Y61615D01*
X116181Y61832D01*
X116196Y62078D01*
X116201Y62354D01*
X117201D01*
X117206Y62078D01*
D02*
G37*
G36*
X114056D02*
X114095Y61615D01*
X114130Y61427D01*
X114174Y61267D01*
X114228Y61137D01*
X114292Y61036D01*
X114365Y60963D01*
X114448Y60920D01*
X114542Y60905D01*
X112561D01*
X112654Y60920D01*
X112737Y60963D01*
X112811Y61036D01*
X112875Y61137D01*
X112929Y61267D01*
X112973Y61427D01*
X113007Y61615D01*
X113032Y61832D01*
X113046Y62078D01*
X113051Y62354D01*
X114051D01*
X114056Y62078D01*
D02*
G37*
G36*
X110907D02*
X110946Y61615D01*
X110980Y61427D01*
X111024Y61267D01*
X111078Y61137D01*
X111142Y61036D01*
X111215Y60963D01*
X111299Y60920D01*
X111392Y60905D01*
X109411D01*
X109504Y60920D01*
X109588Y60963D01*
X109661Y61036D01*
X109725Y61137D01*
X109779Y61267D01*
X109823Y61427D01*
X109857Y61615D01*
X109882Y61832D01*
X109897Y62078D01*
X109902Y62354D01*
X110902D01*
X110907Y62078D01*
D02*
G37*
G36*
X127844Y61637D02*
X127668Y61453D01*
X127397Y61127D01*
X127302Y60984D01*
X127234Y60853D01*
X127194Y60736D01*
X127181Y60632D01*
X127194Y60541D01*
X127235Y60464D01*
X127303Y60399D01*
X125844Y61434D01*
X125935Y61452D01*
X126030Y61482D01*
X126130Y61525D01*
X126235Y61580D01*
X126344Y61647D01*
X126458Y61726D01*
X126700Y61922D01*
X126828Y62039D01*
X126961Y62168D01*
X127844Y61637D01*
D02*
G37*
G36*
X191707Y60400D02*
X190743Y60395D01*
X190711Y60394D01*
X190700Y60393D01*
X190500Y60900D01*
Y61400D01*
X191707Y60400D01*
D02*
G37*
G36*
X28444Y61357D02*
X28489Y61230D01*
X28565Y61118D01*
X28671Y61020D01*
X28807Y60938D01*
X28973Y60870D01*
X29170Y60817D01*
X29396Y60780D01*
X29653Y60757D01*
X29941Y60750D01*
Y59250D01*
X29653Y59242D01*
X29396Y59220D01*
X29170Y59183D01*
X28973Y59130D01*
X28807Y59062D01*
X28671Y58980D01*
X28565Y58882D01*
X28489Y58770D01*
X28444Y58643D01*
X28429Y58500D01*
Y61500D01*
X28444Y61357D01*
D02*
G37*
G36*
X106085Y56441D02*
X106075Y56536D01*
X106044Y56621D01*
X105994Y56696D01*
X105923Y56761D01*
X105832Y56816D01*
X105720Y56861D01*
X105589Y56896D01*
X105437Y56921D01*
X105265Y56936D01*
X105073Y56941D01*
Y57941D01*
X105265Y57946D01*
X105437Y57961D01*
X105589Y57986D01*
X105720Y58021D01*
X105832Y58066D01*
X105923Y58121D01*
X105994Y58186D01*
X106044Y58261D01*
X106075Y58346D01*
X106085Y58441D01*
Y56441D01*
D02*
G37*
G36*
X190851Y55766D02*
X190866Y55597D01*
X190892Y55446D01*
X190927Y55317D01*
X190972Y55207D01*
X191026Y55116D01*
X191092Y55046D01*
X191166Y54997D01*
X191252Y54966D01*
X191347Y54957D01*
X189347D01*
X189442Y54966D01*
X189526Y54997D01*
X189602Y55046D01*
X189666Y55116D01*
X189722Y55207D01*
X189767Y55317D01*
X189802Y55446D01*
X189827Y55597D01*
X189841Y55766D01*
X189847Y55957D01*
X190847D01*
X190851Y55766D01*
D02*
G37*
G36*
X148312Y54500D02*
X148297Y54642D01*
X148252Y54770D01*
X148176Y54883D01*
X148070Y54980D01*
X147934Y55063D01*
X147768Y55130D01*
X147571Y55182D01*
X147345Y55220D01*
X147088Y55243D01*
X146800Y55250D01*
Y56750D01*
X147088Y56757D01*
X147345Y56780D01*
X147571Y56818D01*
X147768Y56870D01*
X147934Y56937D01*
X148070Y57020D01*
X148176Y57117D01*
X148252Y57230D01*
X148297Y57358D01*
X148312Y57500D01*
Y54500D01*
D02*
G37*
G36*
X179514Y66493D02*
X179581Y66402D01*
X179610Y65942D01*
X179551Y65903D01*
X179279Y65721D01*
X165326Y51768D01*
X150413D01*
X150363Y51789D01*
X150100Y51794D01*
X149879Y51807D01*
X149694Y51828D01*
X149582Y51848D01*
X149507Y51960D01*
X149296Y52101D01*
X149288Y52121D01*
X149247Y52138D01*
X149225Y52175D01*
X149162Y52191D01*
X148951Y52332D01*
X148295Y52462D01*
X142872D01*
X142665Y52962D01*
X144428Y54725D01*
X146749D01*
X146786Y54709D01*
X147057Y54702D01*
X147277Y54683D01*
X147457Y54653D01*
X147596Y54616D01*
X147691Y54577D01*
X147743Y54545D01*
X147763Y54528D01*
X147765Y54524D01*
X147766Y54522D01*
X147774Y54443D01*
X147788Y54417D01*
Y53931D01*
X153119D01*
Y58868D01*
X147788D01*
Y57583D01*
X147774Y57557D01*
X147766Y57478D01*
X147765Y57476D01*
X147763Y57472D01*
X147743Y57455D01*
X147691Y57423D01*
X147596Y57384D01*
X147457Y57347D01*
X147277Y57317D01*
X147057Y57298D01*
X146786Y57291D01*
X146749Y57275D01*
X143900D01*
X143412Y57178D01*
X142999Y56901D01*
X140962Y54865D01*
X140462Y55072D01*
Y59414D01*
X140474Y59438D01*
X140515Y59506D01*
X140569Y59584D01*
X140885Y59952D01*
X140913Y59980D01*
X171000D01*
X171390Y60058D01*
X171721Y60279D01*
X177354Y65912D01*
X177397Y65926D01*
X177530Y66041D01*
X177664Y66128D01*
X177831Y66211D01*
X178033Y66287D01*
X178270Y66355D01*
X178542Y66411D01*
X178842Y66454D01*
X179084Y66470D01*
X179505Y66495D01*
X179514Y66493D01*
D02*
G37*
G36*
X148920Y51645D02*
X148963Y51562D01*
X149036Y51488D01*
X149137Y51425D01*
X149267Y51371D01*
X149427Y51327D01*
X149615Y51292D01*
X149832Y51268D01*
X150078Y51253D01*
X150354Y51248D01*
Y50248D01*
X150078Y50243D01*
X149615Y50204D01*
X149427Y50170D01*
X149267Y50125D01*
X149137Y50072D01*
X149036Y50008D01*
X148963Y49934D01*
X148920Y49851D01*
X148905Y49758D01*
Y51739D01*
X148920Y51645D01*
D02*
G37*
G36*
X97095Y49758D02*
X97080Y49851D01*
X97037Y49934D01*
X96964Y50008D01*
X96863Y50072D01*
X96733Y50125D01*
X96573Y50170D01*
X96385Y50204D01*
X96168Y50228D01*
X95922Y50243D01*
X95646Y50248D01*
Y51248D01*
X95922Y51253D01*
X96385Y51292D01*
X96573Y51327D01*
X96733Y51371D01*
X96863Y51425D01*
X96964Y51488D01*
X97037Y51562D01*
X97080Y51645D01*
X97095Y51739D01*
Y49758D01*
D02*
G37*
G36*
X148920Y48496D02*
X148963Y48412D01*
X149036Y48339D01*
X149137Y48275D01*
X149267Y48221D01*
X149427Y48177D01*
X149615Y48143D01*
X149832Y48118D01*
X150078Y48103D01*
X150354Y48098D01*
Y47098D01*
X150078Y47093D01*
X149615Y47054D01*
X149427Y47020D01*
X149267Y46976D01*
X149137Y46922D01*
X149036Y46858D01*
X148963Y46784D01*
X148920Y46701D01*
X148905Y46608D01*
Y48589D01*
X148920Y48496D01*
D02*
G37*
G36*
X97095Y46608D02*
X97080Y46701D01*
X97037Y46784D01*
X96964Y46858D01*
X96863Y46922D01*
X96733Y46976D01*
X96573Y47020D01*
X96385Y47054D01*
X96168Y47079D01*
X95922Y47093D01*
X95646Y47098D01*
Y48098D01*
X95922Y48103D01*
X96385Y48143D01*
X96573Y48177D01*
X96733Y48221D01*
X96863Y48275D01*
X96964Y48339D01*
X97037Y48412D01*
X97080Y48496D01*
X97095Y48589D01*
Y46608D01*
D02*
G37*
G36*
X69046Y44956D02*
X69547D01*
X69451Y44945D01*
X69367Y44915D01*
X69292Y44864D01*
X69226Y44794D01*
X69172Y44703D01*
X69126Y44591D01*
X69091Y44460D01*
X69090Y44453D01*
X69091Y44447D01*
X69126Y44317D01*
X69172Y44207D01*
X69226Y44117D01*
X69292Y44047D01*
X69367Y43997D01*
X69451Y43966D01*
X69547Y43957D01*
X69047D01*
X69046Y43944D01*
X68046D01*
X68046Y43957D01*
X67546D01*
X67642Y43966D01*
X67726Y43997D01*
X67801Y44047D01*
X67866Y44117D01*
X67922Y44207D01*
X67967Y44317D01*
X68002Y44447D01*
X68002Y44453D01*
X68002Y44460D01*
X67967Y44591D01*
X67922Y44703D01*
X67866Y44794D01*
X67801Y44864D01*
X67726Y44915D01*
X67642Y44945D01*
X67546Y44956D01*
X68046D01*
X68046Y44956D01*
X69046D01*
X69046Y44956D01*
D02*
G37*
G36*
X148920Y45346D02*
X148963Y45263D01*
X149036Y45189D01*
X149137Y45125D01*
X149267Y45071D01*
X149427Y45027D01*
X149615Y44993D01*
X149832Y44968D01*
X150078Y44954D01*
X150354Y44949D01*
Y43949D01*
X150078Y43944D01*
X149615Y43905D01*
X149427Y43870D01*
X149267Y43826D01*
X149137Y43772D01*
X149036Y43709D01*
X148963Y43635D01*
X148920Y43551D01*
X148905Y43458D01*
Y45439D01*
X148920Y45346D01*
D02*
G37*
G36*
X97095Y43458D02*
X97080Y43551D01*
X97037Y43635D01*
X96964Y43709D01*
X96863Y43772D01*
X96733Y43826D01*
X96573Y43870D01*
X96385Y43905D01*
X96168Y43929D01*
X95922Y43944D01*
X95646Y43949D01*
Y44949D01*
X95922Y44954D01*
X96385Y44993D01*
X96573Y45027D01*
X96733Y45071D01*
X96863Y45125D01*
X96964Y45189D01*
X97037Y45263D01*
X97080Y45346D01*
X97095Y45439D01*
Y43458D01*
D02*
G37*
G36*
X59712Y40500D02*
X59697Y40642D01*
X59652Y40770D01*
X59576Y40883D01*
X59470Y40980D01*
X59334Y41063D01*
X59168Y41130D01*
X58971Y41183D01*
X58745Y41220D01*
X58487Y41243D01*
X58200Y41250D01*
Y42750D01*
X58487Y42757D01*
X58745Y42780D01*
X58971Y42818D01*
X59168Y42870D01*
X59334Y42937D01*
X59470Y43020D01*
X59576Y43117D01*
X59652Y43230D01*
X59697Y43358D01*
X59712Y43500D01*
Y40500D01*
D02*
G37*
G36*
X148920Y42197D02*
X148963Y42113D01*
X149036Y42040D01*
X149137Y41976D01*
X149267Y41922D01*
X149427Y41878D01*
X149615Y41843D01*
X149832Y41819D01*
X150078Y41804D01*
X150354Y41799D01*
Y40799D01*
X150078Y40794D01*
X149615Y40755D01*
X149427Y40721D01*
X149267Y40677D01*
X149137Y40623D01*
X149036Y40559D01*
X148963Y40485D01*
X148920Y40402D01*
X148905Y40309D01*
Y42290D01*
X148920Y42197D01*
D02*
G37*
G36*
X63911Y42049D02*
X63870Y41912D01*
X63871Y41754D01*
X63915Y41574D01*
X64001Y41372D01*
X64129Y41150D01*
X64300Y40905D01*
X64514Y40639D01*
X65068Y40044D01*
X64007Y38983D01*
X63698Y39281D01*
X63145Y39750D01*
X62901Y39921D01*
X62678Y40049D01*
X62477Y40136D01*
X62297Y40179D01*
X62138Y40180D01*
X62001Y40139D01*
X61886Y40056D01*
X63995Y42165D01*
X63911Y42049D01*
D02*
G37*
G36*
X149288Y38745D02*
X149312Y38725D01*
X149353Y38708D01*
X149411Y38692D01*
X149485Y38679D01*
X149575Y38669D01*
X149805Y38654D01*
X150100Y38650D01*
Y37650D01*
X149944Y37648D01*
X149485Y37620D01*
X149411Y37607D01*
X149353Y37592D01*
X149312Y37574D01*
X149288Y37554D01*
X149279Y37531D01*
Y38768D01*
X149288Y38745D01*
D02*
G37*
G36*
X97095Y37159D02*
X97080Y37252D01*
X97037Y37336D01*
X96964Y37409D01*
X96863Y37473D01*
X96733Y37527D01*
X96573Y37571D01*
X96385Y37606D01*
X96168Y37630D01*
X95922Y37645D01*
X95646Y37650D01*
Y38650D01*
X95922Y38655D01*
X96385Y38694D01*
X96573Y38728D01*
X96733Y38772D01*
X96863Y38826D01*
X96964Y38890D01*
X97037Y38963D01*
X97080Y39047D01*
X97095Y39140D01*
Y37159D01*
D02*
G37*
G36*
X84384Y36474D02*
X84283Y36101D01*
X84194Y35974D01*
X76864D01*
X76679Y36098D01*
X76100Y36213D01*
X75521Y36098D01*
X75395Y36014D01*
X75359Y36017D01*
X75179Y36047D01*
X75041Y36084D01*
X74946Y36123D01*
X74893Y36155D01*
X74874Y36172D01*
X74872Y36176D01*
X74871Y36178D01*
X74862Y36257D01*
X74848Y36283D01*
Y37502D01*
X70265D01*
Y36212D01*
X70259Y36200D01*
X69775Y36078D01*
X66783Y39070D01*
X66975Y39531D01*
X71212D01*
Y44431D01*
Y48939D01*
X71712Y49146D01*
X84384Y36474D01*
D02*
G37*
G36*
X97095Y34010D02*
X97080Y34103D01*
X97037Y34186D01*
X96964Y34260D01*
X96863Y34323D01*
X96733Y34377D01*
X96573Y34422D01*
X96385Y34456D01*
X96168Y34480D01*
X95922Y34495D01*
X95646Y34500D01*
Y35500D01*
X95922Y35505D01*
X96385Y35544D01*
X96573Y35579D01*
X96733Y35623D01*
X96863Y35677D01*
X96964Y35740D01*
X97037Y35814D01*
X97080Y35897D01*
X97095Y35991D01*
Y34010D01*
D02*
G37*
G36*
X70789Y33273D02*
X70775Y33402D01*
X70732Y33517D01*
X70660Y33618D01*
X70559Y33706D01*
X70430Y33781D01*
X70271Y33842D01*
X70084Y33889D01*
X69868Y33923D01*
X69624Y33943D01*
X69350Y33950D01*
Y35450D01*
X69624Y35457D01*
X69868Y35477D01*
X70084Y35511D01*
X70271Y35558D01*
X70430Y35619D01*
X70559Y35694D01*
X70660Y35782D01*
X70732Y35883D01*
X70775Y35998D01*
X70789Y36127D01*
Y33273D01*
D02*
G37*
G36*
X74339Y36057D02*
X74384Y35930D01*
X74460Y35818D01*
X74566Y35720D01*
X74702Y35638D01*
X74868Y35570D01*
X75065Y35517D01*
X75292Y35480D01*
X75549Y35458D01*
X75836Y35450D01*
Y33950D01*
X75549Y33942D01*
X75292Y33920D01*
X75065Y33882D01*
X74868Y33830D01*
X74702Y33762D01*
X74566Y33680D01*
X74460Y33582D01*
X74384Y33470D01*
X74339Y33342D01*
X74324Y33200D01*
Y36200D01*
X74339Y36057D01*
D02*
G37*
G36*
X150154Y32347D02*
X150026Y32217D01*
X149614Y31745D01*
X149535Y31638D01*
X149406Y31440D01*
X149356Y31348D01*
X149317Y31261D01*
X148649Y32956D01*
X148696Y32871D01*
X148758Y32814D01*
X148836Y32787D01*
X148929Y32788D01*
X149037Y32820D01*
X149161Y32880D01*
X149299Y32969D01*
X149453Y33088D01*
X149622Y33237D01*
X149807Y33414D01*
X150154Y32347D01*
D02*
G37*
G36*
X136568Y53915D02*
X136522Y53812D01*
X136481Y53686D01*
X136446Y53538D01*
X136416Y53368D01*
X136373Y52962D01*
X136353Y52500D01*
X140500D01*
X140500Y29456D01*
X141368Y29519D01*
X141538Y29548D01*
X141686Y29584D01*
X141812Y29624D01*
X141915Y29671D01*
X141997Y29722D01*
Y27680D01*
X141915Y27731D01*
X141812Y27777D01*
X141686Y27818D01*
X141538Y27853D01*
X141368Y27883D01*
X140962Y27926D01*
X140500Y27947D01*
Y21726D01*
X140407Y21629D01*
X140405Y21624D01*
X140400Y21621D01*
X140382Y21574D01*
X137644Y18835D01*
X126607D01*
X124721Y20721D01*
X124390Y20942D01*
X124000Y21020D01*
X115500D01*
X115110Y20942D01*
X114779Y20721D01*
X113078Y19020D01*
X106129D01*
X106000Y18994D01*
X105500Y19338D01*
Y31095D01*
X104632Y31033D01*
X104462Y31003D01*
X104314Y30968D01*
X104188Y30927D01*
X104085Y30881D01*
X104003Y30829D01*
Y32872D01*
X104085Y32820D01*
X104188Y32774D01*
X104314Y32733D01*
X104462Y32698D01*
X104632Y32668D01*
X105038Y32625D01*
X105500Y32605D01*
X105500Y52500D01*
X134843D01*
X134781Y53368D01*
X134751Y53538D01*
X134715Y53686D01*
X134675Y53812D01*
X134629Y53915D01*
X134577Y53997D01*
X136620D01*
X136568Y53915D01*
D02*
G37*
G36*
X92579Y34279D02*
X92910Y34058D01*
X93300Y33980D01*
X95587D01*
X95637Y33959D01*
X95900Y33954D01*
X96121Y33941D01*
X96219Y33930D01*
X96381Y33690D01*
X96427Y33549D01*
X96358Y33300D01*
X96223Y33125D01*
X95811D01*
X95323Y33028D01*
X94910Y32752D01*
X93933Y31775D01*
X93728D01*
X93689Y31791D01*
X93161Y31799D01*
X92767Y31822D01*
X92693Y31831D01*
Y31969D01*
X92253D01*
X92184Y31998D01*
X92112Y31969D01*
X90098D01*
X90081Y31979D01*
X90038Y31969D01*
X90037D01*
X89995Y31986D01*
X89954Y31969D01*
X89388D01*
X89271Y32036D01*
X89067Y32179D01*
X88546Y32620D01*
X88250Y32906D01*
X88211Y32922D01*
X85553Y35580D01*
X85558Y35669D01*
X85715Y36080D01*
X90778D01*
X92579Y34279D01*
D02*
G37*
G36*
X88183Y32219D02*
X88736Y31750D01*
X88980Y31579D01*
X89203Y31451D01*
X89404Y31364D01*
X89584Y31321D01*
X89743Y31320D01*
X89880Y31361D01*
X89995Y31444D01*
X87886Y29335D01*
X87970Y29451D01*
X88011Y29588D01*
X88010Y29746D01*
X87966Y29926D01*
X87880Y30128D01*
X87752Y30351D01*
X87581Y30595D01*
X87367Y30861D01*
X86813Y31457D01*
X87874Y32517D01*
X88183Y32219D01*
D02*
G37*
G36*
X92196Y31417D02*
X92241Y31382D01*
X92316Y31351D01*
X92421Y31324D01*
X92556Y31302D01*
X92721Y31283D01*
X93141Y31258D01*
X93681Y31250D01*
Y29750D01*
X93394Y29743D01*
X93138Y29720D01*
X92911Y29682D01*
X92715Y29630D01*
X92549Y29563D01*
X92413Y29480D01*
X92307Y29383D01*
X92231Y29270D01*
X92185Y29142D01*
X92169Y29000D01*
X92181Y31457D01*
X92196Y31417D01*
D02*
G37*
G36*
X97095Y27710D02*
X97080Y27804D01*
X97037Y27887D01*
X96964Y27960D01*
X96863Y28024D01*
X96733Y28078D01*
X96573Y28122D01*
X96385Y28157D01*
X96168Y28181D01*
X95922Y28196D01*
X95646Y28201D01*
Y29201D01*
X95922Y29206D01*
X96385Y29245D01*
X96573Y29279D01*
X96733Y29323D01*
X96863Y29377D01*
X96964Y29441D01*
X97037Y29515D01*
X97080Y29598D01*
X97095Y29691D01*
Y27710D01*
D02*
G37*
G36*
X148967Y29671D02*
X149070Y29624D01*
X149196Y29584D01*
X149344Y29548D01*
X149514Y29519D01*
X149919Y29475D01*
X150413Y29454D01*
X150693Y29451D01*
Y27951D01*
X150413Y27948D01*
X149514Y27883D01*
X149344Y27853D01*
X149196Y27818D01*
X149070Y27777D01*
X148967Y27731D01*
X148885Y27680D01*
Y29722D01*
X148967Y29671D01*
D02*
G37*
G36*
X153331Y27201D02*
X153316Y27343D01*
X153271Y27471D01*
X153195Y27583D01*
X153089Y27681D01*
X152953Y27763D01*
X152787Y27831D01*
X152590Y27883D01*
X152363Y27921D01*
X152106Y27943D01*
X151819Y27951D01*
Y29451D01*
X152106Y29458D01*
X152363Y29481D01*
X152590Y29518D01*
X152787Y29571D01*
X152953Y29638D01*
X153089Y29721D01*
X153195Y29818D01*
X153271Y29931D01*
X153316Y30058D01*
X153331Y30201D01*
Y27201D01*
D02*
G37*
G36*
X51099Y41099D02*
X51512Y40822D01*
X52000Y40725D01*
X58149D01*
X58186Y40709D01*
X58457Y40702D01*
X58677Y40683D01*
X58857Y40653D01*
X58996Y40616D01*
X59091Y40577D01*
X59143Y40545D01*
X59162Y40528D01*
X59165Y40525D01*
X59166Y40522D01*
X59174Y40443D01*
X59188Y40417D01*
Y39531D01*
X61783D01*
X61800Y39521D01*
X61844Y39531D01*
X61844D01*
X61886Y39514D01*
X61927Y39531D01*
X62493D01*
X62610Y39464D01*
X62814Y39321D01*
X63335Y38880D01*
X63631Y38594D01*
X63670Y38578D01*
X68449Y33799D01*
X68863Y33522D01*
X69258Y33444D01*
X69337Y33409D01*
X69595Y33403D01*
X69804Y33385D01*
X69976Y33358D01*
X70107Y33325D01*
X70196Y33291D01*
X70243Y33264D01*
X70246Y33261D01*
X70252Y33213D01*
X70265Y33188D01*
Y31698D01*
X74848D01*
Y33117D01*
X74862Y33143D01*
X74871Y33222D01*
X74872Y33224D01*
X74874Y33228D01*
X74893Y33245D01*
X74946Y33277D01*
X75041Y33316D01*
X75179Y33353D01*
X75359Y33383D01*
X75395Y33386D01*
X75521Y33302D01*
X76100Y33187D01*
X76679Y33302D01*
X76864Y33426D01*
X84103D01*
X84598Y32930D01*
X84407Y32469D01*
X83835D01*
Y29500D01*
X83335D01*
Y29000D01*
X80169D01*
Y27020D01*
X77322D01*
X76321Y28021D01*
X75990Y28242D01*
X75600Y28320D01*
X71122D01*
X68621Y30821D01*
X68290Y31042D01*
X67900Y31120D01*
X62902D01*
X62435Y31198D01*
X62435Y31620D01*
Y33825D01*
X62378Y33820D01*
X62151Y33783D01*
X61955Y33730D01*
X61789Y33663D01*
X61653Y33580D01*
X61547Y33483D01*
X61471Y33370D01*
X61426Y33242D01*
X61411Y33100D01*
Y34100D01*
X56852D01*
X56852Y31198D01*
X56385Y31120D01*
X45822D01*
X39520Y37422D01*
Y46700D01*
X39442Y47090D01*
X39221Y47421D01*
X30921Y55721D01*
X30590Y55942D01*
X30200Y56020D01*
X23371D01*
X23352Y56047D01*
X23619Y56547D01*
X28953D01*
Y58417D01*
X28967Y58443D01*
X28975Y58522D01*
X28976Y58525D01*
X28978Y58528D01*
X28997Y58545D01*
X29050Y58577D01*
X29145Y58616D01*
X29284Y58653D01*
X29464Y58683D01*
X29684Y58702D01*
X29955Y58709D01*
X29992Y58726D01*
X33472D01*
X51099Y41099D01*
D02*
G37*
G36*
X97095Y24561D02*
X97080Y24654D01*
X97037Y24737D01*
X96964Y24811D01*
X96863Y24875D01*
X96733Y24929D01*
X96573Y24973D01*
X96385Y25007D01*
X96168Y25032D01*
X95922Y25046D01*
X95646Y25051D01*
Y26051D01*
X95922Y26056D01*
X96385Y26095D01*
X96573Y26130D01*
X96733Y26174D01*
X96863Y26228D01*
X96964Y26291D01*
X97037Y26365D01*
X97080Y26449D01*
X97095Y26542D01*
Y24561D01*
D02*
G37*
G36*
X69996Y25840D02*
X70332Y25559D01*
X70487Y25452D01*
X70633Y25369D01*
X70770Y25308D01*
X70898Y25271D01*
X71017Y25256D01*
X71127Y25264D01*
X71228Y25296D01*
X69283Y24436D01*
X69363Y24488D01*
X69409Y24561D01*
X69421Y24653D01*
X69399Y24765D01*
X69344Y24896D01*
X69256Y25047D01*
X69133Y25218D01*
X68977Y25409D01*
X68564Y25850D01*
X69814Y26015D01*
X69996Y25840D01*
D02*
G37*
G36*
X73588Y24945D02*
X73618Y24860D01*
X73668Y24785D01*
X73738Y24720D01*
X73828Y24665D01*
X73938Y24620D01*
X74068Y24585D01*
X74218Y24560D01*
X74388Y24545D01*
X74578Y24540D01*
Y23540D01*
X74388Y23535D01*
X74218Y23520D01*
X74068Y23495D01*
X73938Y23460D01*
X73828Y23415D01*
X73738Y23360D01*
X73668Y23295D01*
X73618Y23220D01*
X73588Y23135D01*
X73578Y23040D01*
Y25040D01*
X73588Y24945D01*
D02*
G37*
G36*
X59834Y23040D02*
X59824Y23135D01*
X59794Y23220D01*
X59743Y23295D01*
X59672Y23360D01*
X59581Y23415D01*
X59470Y23460D01*
X59338Y23495D01*
X59187Y23520D01*
X59014Y23535D01*
X58822Y23540D01*
Y24540D01*
X59014Y24545D01*
X59187Y24560D01*
X59338Y24585D01*
X59470Y24620D01*
X59581Y24665D01*
X59672Y24720D01*
X59743Y24785D01*
X59794Y24860D01*
X59824Y24945D01*
X59834Y25040D01*
Y23040D01*
D02*
G37*
G36*
X64139Y24905D02*
X64169Y24820D01*
X64219Y24745D01*
X64289Y24680D01*
X64379Y24625D01*
X64489Y24580D01*
X64619Y24545D01*
X64769Y24520D01*
X64939Y24505D01*
X65129Y24500D01*
Y23500D01*
X64939Y23495D01*
X64769Y23480D01*
X64619Y23455D01*
X64489Y23420D01*
X64379Y23375D01*
X64289Y23320D01*
X64219Y23255D01*
X64169Y23180D01*
X64139Y23095D01*
X64129Y23000D01*
Y25000D01*
X64139Y24905D01*
D02*
G37*
G36*
X97095Y21411D02*
X97080Y21504D01*
X97037Y21588D01*
X96964Y21661D01*
X96863Y21725D01*
X96733Y21779D01*
X96573Y21823D01*
X96385Y21857D01*
X96168Y21882D01*
X95922Y21897D01*
X95646Y21902D01*
Y22902D01*
X95922Y22907D01*
X96385Y22946D01*
X96573Y22980D01*
X96733Y23024D01*
X96863Y23078D01*
X96964Y23142D01*
X97037Y23215D01*
X97080Y23299D01*
X97095Y23392D01*
Y21411D01*
D02*
G37*
G36*
X142887Y21234D02*
X142809Y21289D01*
X142718Y21316D01*
X142614Y21317D01*
X142498Y21291D01*
X142369Y21238D01*
X142227Y21159D01*
X142072Y21052D01*
X141904Y20920D01*
X141724Y20760D01*
X141531Y20573D01*
X140797Y21254D01*
X140984Y21448D01*
X141277Y21797D01*
X141383Y21951D01*
X141461Y22092D01*
X141513Y22219D01*
X141537Y22333D01*
X141533Y22434D01*
X141503Y22522D01*
X141445Y22596D01*
X142887Y21234D01*
D02*
G37*
G36*
X29164Y22957D02*
X29025Y22796D01*
X28901Y22605D01*
X28792Y22385D01*
X28698Y22137D01*
X28620Y21858D01*
X28556Y21551D01*
X28507Y21215D01*
X28456Y20454D01*
X28453Y20030D01*
X25530Y22953D01*
X25954Y22956D01*
X26715Y23007D01*
X27051Y23056D01*
X27358Y23120D01*
X27637Y23198D01*
X27885Y23292D01*
X28105Y23401D01*
X28296Y23525D01*
X28457Y23664D01*
X29164Y22957D01*
D02*
G37*
G36*
X207512Y20000D02*
X207502Y20095D01*
X207472Y20180D01*
X207421Y20255D01*
X207350Y20320D01*
X207259Y20375D01*
X207148Y20420D01*
X207016Y20455D01*
X206865Y20480D01*
X206693Y20495D01*
X206500Y20500D01*
Y21500D01*
X206693Y21505D01*
X206865Y21520D01*
X207016Y21545D01*
X207148Y21580D01*
X207259Y21625D01*
X207350Y21680D01*
X207421Y21745D01*
X207472Y21820D01*
X207502Y21905D01*
X207512Y22000D01*
Y20000D01*
D02*
G37*
G36*
X40244Y20653D02*
X40292Y20621D01*
X40347Y20593D01*
X40409Y20568D01*
X40479Y20547D01*
X40557Y20530D01*
X40641Y20517D01*
X40733Y20508D01*
X40938Y20500D01*
Y19500D01*
X40832Y19498D01*
X40641Y19483D01*
X40557Y19470D01*
X40479Y19453D01*
X40409Y19432D01*
X40347Y19407D01*
X40292Y19379D01*
X40244Y19347D01*
X40203Y19311D01*
Y20689D01*
X40244Y20653D01*
D02*
G37*
G36*
X73593Y21469D02*
X73638Y21381D01*
X73713Y21304D01*
X73818Y21236D01*
X73953Y21179D01*
X74118Y21133D01*
X74313Y21097D01*
X74538Y21071D01*
X74793Y21055D01*
X75078Y21050D01*
Y19550D01*
X74793Y19545D01*
X74313Y19503D01*
X74118Y19467D01*
X73953Y19421D01*
X73818Y19364D01*
X73713Y19296D01*
X73638Y19219D01*
X73593Y19131D01*
X73578Y19033D01*
Y21567D01*
X73593Y21469D01*
D02*
G37*
G36*
X97095Y18261D02*
X97080Y18355D01*
X97037Y18438D01*
X96964Y18512D01*
X96863Y18575D01*
X96733Y18629D01*
X96573Y18674D01*
X96385Y18708D01*
X96168Y18732D01*
X95922Y18747D01*
X95646Y18752D01*
Y19752D01*
X95922Y19757D01*
X96385Y19796D01*
X96573Y19830D01*
X96733Y19875D01*
X96863Y19929D01*
X96964Y19992D01*
X97037Y20066D01*
X97080Y20149D01*
X97095Y20242D01*
Y18261D01*
D02*
G37*
G36*
X146346Y18075D02*
X146261Y18044D01*
X146186Y17994D01*
X146121Y17923D01*
X146066Y17832D01*
X146021Y17720D01*
X145986Y17589D01*
X145961Y17437D01*
X145946Y17265D01*
X145941Y17073D01*
X144941D01*
X144936Y17265D01*
X144921Y17437D01*
X144896Y17589D01*
X144861Y17720D01*
X144816Y17832D01*
X144761Y17923D01*
X144696Y17994D01*
X144621Y18044D01*
X144536Y18075D01*
X144441Y18085D01*
X146441D01*
X146346Y18075D01*
D02*
G37*
G36*
X123753Y17531D02*
X123818Y16632D01*
X123848Y16462D01*
X123883Y16314D01*
X123924Y16188D01*
X123970Y16085D01*
X124021Y16003D01*
X121979D01*
X122030Y16085D01*
X122076Y16188D01*
X122117Y16314D01*
X122152Y16462D01*
X122182Y16632D01*
X122226Y17038D01*
X122247Y17531D01*
X122250Y17811D01*
X123750D01*
X123753Y17531D01*
D02*
G37*
G36*
X117454D02*
X117519Y16632D01*
X117548Y16462D01*
X117584Y16314D01*
X117624Y16188D01*
X117671Y16085D01*
X117722Y16003D01*
X115680D01*
X115731Y16085D01*
X115777Y16188D01*
X115818Y16314D01*
X115853Y16462D01*
X115883Y16632D01*
X115926Y17038D01*
X115948Y17531D01*
X115951Y17811D01*
X117451D01*
X117454Y17531D01*
D02*
G37*
G36*
X39544Y17253D02*
X39592Y17221D01*
X39647Y17193D01*
X39709Y17168D01*
X39779Y17147D01*
X39857Y17130D01*
X39941Y17117D01*
X40033Y17108D01*
X40238Y17100D01*
Y16100D01*
X40132Y16098D01*
X39941Y16083D01*
X39857Y16070D01*
X39779Y16053D01*
X39709Y16032D01*
X39647Y16007D01*
X39592Y15979D01*
X39544Y15947D01*
X39503Y15911D01*
Y17289D01*
X39544Y17253D01*
D02*
G37*
G36*
X69283Y15829D02*
X69276Y15861D01*
X69256Y15890D01*
X69222Y15916D01*
X69174Y15938D01*
X69112Y15957D01*
X69037Y15973D01*
X68948Y15985D01*
X68730Y15998D01*
X68600Y16000D01*
Y17000D01*
X68730Y17002D01*
X69037Y17027D01*
X69112Y17043D01*
X69174Y17062D01*
X69222Y17084D01*
X69256Y17109D01*
X69276Y17139D01*
X69283Y17171D01*
Y15829D01*
D02*
G37*
G36*
X59834Y15600D02*
X59824Y15695D01*
X59794Y15780D01*
X59743Y15855D01*
X59672Y15920D01*
X59581Y15975D01*
X59470Y16020D01*
X59338Y16055D01*
X59187Y16080D01*
X59014Y16095D01*
X58822Y16100D01*
Y17100D01*
X59014Y17105D01*
X59187Y17120D01*
X59338Y17145D01*
X59470Y17180D01*
X59581Y17225D01*
X59672Y17280D01*
X59743Y17345D01*
X59794Y17420D01*
X59824Y17505D01*
X59834Y17600D01*
Y15600D01*
D02*
G37*
G36*
X73588Y17465D02*
X73618Y17380D01*
X73668Y17305D01*
X73738Y17240D01*
X73828Y17185D01*
X73938Y17140D01*
X74068Y17105D01*
X74218Y17080D01*
X74388Y17065D01*
X74578Y17060D01*
Y16060D01*
X74388Y16055D01*
X74218Y16040D01*
X74068Y16015D01*
X73938Y15980D01*
X73828Y15935D01*
X73738Y15880D01*
X73668Y15815D01*
X73618Y15740D01*
X73588Y15655D01*
X73578Y15560D01*
Y17560D01*
X73588Y17465D01*
D02*
G37*
G36*
X64072Y16629D02*
X64044Y16537D01*
Y16431D01*
X64072Y16311D01*
X64129Y16176D01*
X64214Y16028D01*
X64327Y15865D01*
X64468Y15688D01*
X64836Y15292D01*
X64129Y14585D01*
X63924Y14783D01*
X63556Y15094D01*
X63394Y15207D01*
X63245Y15292D01*
X63111Y15349D01*
X62990Y15377D01*
X62884D01*
X62792Y15349D01*
X62715Y15292D01*
X64129Y16706D01*
X64072Y16629D01*
D02*
G37*
G36*
X105567Y15558D02*
X105538Y15413D01*
Y12706D01*
X105525Y12624D01*
X105502Y12534D01*
X105468Y12438D01*
X105422Y12338D01*
X105363Y12232D01*
X105290Y12121D01*
X105203Y12006D01*
X105100Y11886D01*
X104974Y11753D01*
X104955Y11704D01*
X104933Y11682D01*
X104902Y11659D01*
X104901Y11650D01*
X104871Y11620D01*
X81715D01*
X81524Y12082D01*
X85422Y15980D01*
X105129D01*
X105141Y15983D01*
X105567Y15558D01*
D02*
G37*
G36*
X139925Y13464D02*
X139956Y13379D01*
X140006Y13304D01*
X140077Y13239D01*
X140168Y13184D01*
X140279Y13139D01*
X140411Y13104D01*
X140563Y13079D01*
X140735Y13064D01*
X140927Y13059D01*
Y12059D01*
X140735Y12054D01*
X140563Y12039D01*
X140411Y12014D01*
X140279Y11979D01*
X140168Y11934D01*
X140077Y11879D01*
X140006Y11814D01*
X139956Y11739D01*
X139925Y11654D01*
X139915Y11559D01*
Y13559D01*
X139925Y13464D01*
D02*
G37*
G36*
X29164Y12957D02*
X29025Y12796D01*
X28901Y12605D01*
X28792Y12386D01*
X28698Y12137D01*
X28620Y11858D01*
X28556Y11551D01*
X28507Y11214D01*
X28456Y10454D01*
X28453Y10029D01*
X25530Y12953D01*
X25954Y12956D01*
X26715Y13007D01*
X27051Y13056D01*
X27358Y13119D01*
X27637Y13198D01*
X27885Y13292D01*
X28105Y13401D01*
X28296Y13525D01*
X28457Y13664D01*
X29164Y12957D01*
D02*
G37*
G36*
X106085Y9966D02*
X106080Y10098D01*
X106067Y10207D01*
X106045Y10293D01*
X106015Y10356D01*
X105975Y10395D01*
X105927Y10412D01*
X105870Y10405D01*
X105804Y10375D01*
X105730Y10323D01*
X105647Y10246D01*
X105366Y11380D01*
X105502Y11523D01*
X105624Y11666D01*
X105732Y11809D01*
X105826Y11951D01*
X105905Y12093D01*
X105970Y12234D01*
X106020Y12375D01*
X106056Y12515D01*
X106078Y12655D01*
X106085Y12794D01*
Y9966D01*
D02*
G37*
G36*
X126455Y8566D02*
X126408Y8553D01*
X126351Y8528D01*
X126284Y8488D01*
X126207Y8435D01*
X126024Y8288D01*
X125801Y8087D01*
X125538Y7831D01*
X124543Y8250D01*
X124712Y8426D01*
X124969Y8739D01*
X125057Y8876D01*
X125118Y9000D01*
X125153Y9111D01*
X125160Y9208D01*
X125140Y9293D01*
X125093Y9365D01*
X125020Y9423D01*
X126455Y8566D01*
D02*
G37*
G36*
X110707D02*
X110627Y8549D01*
X110541Y8520D01*
X110449Y8478D01*
X110351Y8423D01*
X110246Y8356D01*
X110136Y8275D01*
X109897Y8076D01*
X109634Y7826D01*
X108729Y8336D01*
X108903Y8517D01*
X109170Y8840D01*
X109264Y8982D01*
X109330Y9111D01*
X109369Y9227D01*
X109380Y9329D01*
X109365Y9418D01*
X109323Y9495D01*
X109254Y9558D01*
X110707Y8566D01*
D02*
G37*
G36*
X129604D02*
X129525Y8549D01*
X129439Y8520D01*
X129348Y8478D01*
X129250Y8423D01*
X129146Y8356D01*
X129035Y8275D01*
X128797Y8076D01*
X128533Y7826D01*
X127627Y8335D01*
X127802Y8516D01*
X128069Y8839D01*
X128162Y8980D01*
X128228Y9109D01*
X128267Y9225D01*
X128279Y9327D01*
X128263Y9416D01*
X128221Y9493D01*
X128152Y9556D01*
X129604Y8566D01*
D02*
G37*
G36*
X113856D02*
X113787Y8551D01*
X113711Y8522D01*
X113627Y8481D01*
X113535Y8426D01*
X113436Y8358D01*
X113215Y8183D01*
X112964Y7954D01*
X112828Y7821D01*
X111900Y8307D01*
X112073Y8487D01*
X112337Y8806D01*
X112428Y8947D01*
X112493Y9074D01*
X112530Y9188D01*
X112540Y9289D01*
X112524Y9377D01*
X112480Y9452D01*
X112409Y9513D01*
X113856Y8566D01*
D02*
G37*
G36*
X136496Y9080D02*
X136412Y9037D01*
X136339Y8964D01*
X136275Y8863D01*
X136221Y8733D01*
X136177Y8573D01*
X136143Y8385D01*
X136118Y8168D01*
X136103Y7922D01*
X136098Y7646D01*
X135098D01*
X135093Y7922D01*
X135054Y8385D01*
X135020Y8573D01*
X134976Y8733D01*
X134922Y8863D01*
X134858Y8964D01*
X134784Y9037D01*
X134701Y9080D01*
X134608Y9095D01*
X136589D01*
X136496Y9080D01*
D02*
G37*
G36*
X133346D02*
X133263Y9037D01*
X133189Y8964D01*
X133125Y8863D01*
X133071Y8733D01*
X133027Y8573D01*
X132993Y8385D01*
X132968Y8168D01*
X132954Y7922D01*
X132949Y7646D01*
X131949D01*
X131944Y7922D01*
X131905Y8385D01*
X131870Y8573D01*
X131826Y8733D01*
X131772Y8863D01*
X131709Y8964D01*
X131635Y9037D01*
X131552Y9080D01*
X131458Y9095D01*
X133439D01*
X133346Y9080D01*
D02*
G37*
G36*
X120440Y8683D02*
X120476Y8691D01*
X120480Y8669D01*
X120453Y8620D01*
X120395Y8542D01*
X120305Y8436D01*
X119633Y7727D01*
X119386Y7479D01*
X118506Y8013D01*
X118676Y8190D01*
X118928Y8498D01*
X119009Y8629D01*
X119060Y8743D01*
X119081Y8842D01*
X119073Y8926D01*
X119035Y8993D01*
X118967Y9046D01*
X118870Y9082D01*
X120440Y8683D01*
D02*
G37*
G36*
X200516Y4469D02*
X200563Y4247D01*
X200641Y4015D01*
X200751Y3772D01*
X200892Y3520D01*
X201064Y3258D01*
X201268Y2985D01*
X201769Y2411D01*
X202067Y2109D01*
X199127D01*
X197047Y30D01*
X197044Y454D01*
X196993Y1214D01*
X196944Y1551D01*
X196880Y1858D01*
X196802Y2136D01*
X196708Y2386D01*
X196599Y2605D01*
X196475Y2796D01*
X196336Y2957D01*
X197043Y3664D01*
X197204Y3525D01*
X197395Y3401D01*
X197615Y3292D01*
X197863Y3198D01*
X198142Y3119D01*
X198449Y3056D01*
X198752Y3012D01*
X198936Y3258D01*
X199108Y3520D01*
X199249Y3772D01*
X199359Y4015D01*
X199437Y4247D01*
X199484Y4469D01*
X199500Y4682D01*
X200500D01*
X200516Y4469D01*
D02*
G37*
G36*
X113713Y2885D02*
X113576Y2726D01*
X113453Y2537D01*
X113343Y2318D01*
X113247Y2069D01*
X113164Y1790D01*
X113094Y1481D01*
X113039Y1142D01*
X112968Y373D01*
X112952Y-56D01*
X110115Y2950D01*
X110534Y2942D01*
X111287Y2975D01*
X111620Y3016D01*
X111926Y3074D01*
X112203Y3148D01*
X112451Y3240D01*
X112672Y3347D01*
X112864Y3472D01*
X113027Y3613D01*
X113713Y2885D01*
D02*
G37*
G36*
X132949Y3421D02*
X132951Y93D01*
X130594Y2892D01*
X130851Y2853D01*
X131082Y2847D01*
X131285Y2874D01*
X131461Y2935D01*
X131610Y3028D01*
X131732Y3154D01*
X131827Y3313D01*
X131895Y3506D01*
X131935Y3731D01*
X131949Y3990D01*
X132949Y3421D01*
D02*
G37*
G36*
X33648Y2941D02*
X33449Y2735D01*
X33135Y2365D01*
X33021Y2203D01*
X32935Y2054D01*
X32877Y1920D01*
X32847Y1800D01*
X32846Y1694D01*
X32873Y1603D01*
X32929Y1527D01*
X31526Y2929D01*
X31603Y2873D01*
X31694Y2846D01*
X31800Y2847D01*
X31920Y2877D01*
X32054Y2935D01*
X32203Y3021D01*
X32366Y3135D01*
X32543Y3278D01*
X32941Y3648D01*
X33648Y2941D01*
D02*
G37*
G36*
X150506Y3723D02*
X150524Y3560D01*
X150555Y3410D01*
X150597Y3274D01*
X150651Y3151D01*
X150718Y3041D01*
X150796Y2945D01*
X150887Y2863D01*
X150990Y2794D01*
X151105Y2738D01*
X148895D01*
X149010Y2794D01*
X149113Y2863D01*
X149204Y2945D01*
X149282Y3041D01*
X149349Y3151D01*
X149403Y3274D01*
X149445Y3410D01*
X149476Y3560D01*
X149494Y3723D01*
X149500Y3900D01*
X150500D01*
X150506Y3723D01*
D02*
G37*
G36*
X177261Y3568D02*
X177451Y3444D01*
X177670Y3334D01*
X177919Y3238D01*
X178198Y3156D01*
X178507Y3088D01*
X178845Y3033D01*
X179613Y2966D01*
X180041Y2953D01*
X177049Y100D01*
X177056Y520D01*
X177020Y1274D01*
X176977Y1608D01*
X176918Y1914D01*
X176843Y2191D01*
X176751Y2440D01*
X176643Y2660D01*
X176519Y2852D01*
X176378Y3015D01*
X177102Y3705D01*
X177261Y3568D01*
D02*
G37*
G36*
X187204Y3525D02*
X187395Y3401D01*
X187615Y3292D01*
X187864Y3198D01*
X188142Y3119D01*
X188449Y3056D01*
X188786Y3007D01*
X189546Y2956D01*
X189971Y2953D01*
X187047Y30D01*
X187044Y454D01*
X186993Y1214D01*
X186944Y1551D01*
X186881Y1858D01*
X186802Y2136D01*
X186708Y2386D01*
X186599Y2605D01*
X186475Y2796D01*
X186336Y2957D01*
X187043Y3664D01*
X187204Y3525D01*
D02*
G37*
G36*
X167204D02*
X167395Y3401D01*
X167614Y3292D01*
X167864Y3198D01*
X168142Y3119D01*
X168449Y3056D01*
X168786Y3007D01*
X169546Y2956D01*
X169971Y2953D01*
X167047Y30D01*
X167044Y454D01*
X166993Y1214D01*
X166944Y1551D01*
X166881Y1858D01*
X166802Y2136D01*
X166708Y2386D01*
X166599Y2605D01*
X166475Y2796D01*
X166336Y2957D01*
X167043Y3664D01*
X167204Y3525D01*
D02*
G37*
G36*
X157204D02*
X157395Y3401D01*
X157615Y3292D01*
X157863Y3198D01*
X158142Y3119D01*
X158449Y3056D01*
X158785Y3007D01*
X159546Y2956D01*
X159970Y2953D01*
X157047Y30D01*
X157044Y454D01*
X156993Y1214D01*
X156944Y1551D01*
X156880Y1858D01*
X156802Y2136D01*
X156708Y2386D01*
X156599Y2605D01*
X156475Y2796D01*
X156336Y2957D01*
X157043Y3664D01*
X157204Y3525D01*
D02*
G37*
G36*
X137204D02*
X137395Y3401D01*
X137615Y3292D01*
X137864Y3198D01*
X138142Y3119D01*
X138449Y3056D01*
X138786Y3007D01*
X139546Y2956D01*
X139971Y2953D01*
X137047Y30D01*
X137044Y454D01*
X136993Y1214D01*
X136944Y1551D01*
X136881Y1858D01*
X136802Y2136D01*
X136708Y2386D01*
X136599Y2605D01*
X136475Y2796D01*
X136336Y2957D01*
X137043Y3664D01*
X137204Y3525D01*
D02*
G37*
G36*
X123664Y2957D02*
X123525Y2796D01*
X123401Y2605D01*
X123292Y2386D01*
X123198Y2136D01*
X123119Y1858D01*
X123056Y1551D01*
X123007Y1214D01*
X122956Y454D01*
X122953Y30D01*
X120029Y2953D01*
X120454Y2956D01*
X121214Y3007D01*
X121551Y3056D01*
X121858Y3119D01*
X122136Y3198D01*
X122386Y3292D01*
X122605Y3401D01*
X122796Y3525D01*
X122957Y3664D01*
X123664Y2957D01*
D02*
G37*
G36*
X63664D02*
X63525Y2796D01*
X63401Y2605D01*
X63292Y2386D01*
X63198Y2136D01*
X63120Y1858D01*
X63056Y1551D01*
X63007Y1214D01*
X62956Y454D01*
X62953Y30D01*
X60030Y2953D01*
X60454Y2956D01*
X61215Y3007D01*
X61551Y3056D01*
X61858Y3119D01*
X62137Y3198D01*
X62385Y3292D01*
X62605Y3401D01*
X62796Y3525D01*
X62957Y3664D01*
X63664Y2957D01*
D02*
G37*
G36*
X53664D02*
X53525Y2796D01*
X53401Y2605D01*
X53292Y2386D01*
X53198Y2136D01*
X53119Y1858D01*
X53056Y1551D01*
X53007Y1214D01*
X52956Y454D01*
X52953Y30D01*
X50029Y2953D01*
X50454Y2956D01*
X51214Y3007D01*
X51551Y3056D01*
X51858Y3119D01*
X52136Y3198D01*
X52385Y3292D01*
X52605Y3401D01*
X52796Y3525D01*
X52957Y3664D01*
X53664Y2957D01*
D02*
G37*
G36*
X43664D02*
X43525Y2796D01*
X43401Y2605D01*
X43292Y2386D01*
X43198Y2136D01*
X43119Y1858D01*
X43056Y1551D01*
X43007Y1214D01*
X42956Y454D01*
X42953Y30D01*
X40029Y2953D01*
X40454Y2956D01*
X41214Y3007D01*
X41551Y3056D01*
X41858Y3119D01*
X42136Y3198D01*
X42386Y3292D01*
X42605Y3401D01*
X42796Y3525D01*
X42957Y3664D01*
X43664Y2957D01*
D02*
G37*
%LPC*%
G36*
X160312Y59368D02*
X157646D01*
Y56900D01*
X160312D01*
Y59368D01*
D02*
G37*
G36*
X156646D02*
X153981D01*
Y56900D01*
X156646D01*
Y59368D01*
D02*
G37*
G36*
X160312Y55900D02*
X157646D01*
Y53431D01*
X160312D01*
Y55900D01*
D02*
G37*
G36*
X156646D02*
X153981D01*
Y53431D01*
X156646D01*
Y55900D01*
D02*
G37*
G36*
X62435Y38002D02*
X60143D01*
Y35100D01*
X61411D01*
Y36100D01*
X61426Y35958D01*
X61471Y35830D01*
X61547Y35717D01*
X61653Y35620D01*
X61789Y35537D01*
X61955Y35470D01*
X62151Y35418D01*
X62378Y35380D01*
X62435Y35375D01*
Y38002D01*
D02*
G37*
G36*
X59143D02*
X56852D01*
Y35100D01*
X59143D01*
Y38002D01*
D02*
G37*
G36*
X82835Y32469D02*
X80169D01*
Y30000D01*
X82835D01*
Y32469D01*
D02*
G37*
%LPD*%
G36*
X184558Y51045D02*
X184474Y51015D01*
X184399Y50964D01*
X184334Y50894D01*
X184279Y50802D01*
X184233Y50691D01*
X184199Y50560D01*
X184189Y50503D01*
X184199Y50446D01*
X184233Y50317D01*
X184279Y50207D01*
X184334Y50116D01*
X184399Y50046D01*
X184474Y49997D01*
X184558Y49966D01*
X184653Y49957D01*
X182653D01*
X182749Y49966D01*
X182834Y49997D01*
X182908Y50046D01*
X182974Y50116D01*
X183028Y50207D01*
X183074Y50317D01*
X183108Y50446D01*
X183118Y50503D01*
X183108Y50560D01*
X183074Y50691D01*
X183028Y50802D01*
X182974Y50894D01*
X182908Y50964D01*
X182834Y51015D01*
X182749Y51045D01*
X182653Y51056D01*
X184653D01*
X184558Y51045D01*
D02*
G37*
G36*
X183037Y38021D02*
X182918Y38175D01*
X182778Y38312D01*
X182616Y38434D01*
X182432Y38539D01*
X182227Y38628D01*
X182001Y38701D01*
X181752Y38757D01*
X181483Y38798D01*
X181192Y38822D01*
X180879Y38830D01*
Y40830D01*
X181192Y40838D01*
X181483Y40862D01*
X181752Y40903D01*
X182001Y40959D01*
X182227Y41032D01*
X182432Y41121D01*
X182616Y41226D01*
X182778Y41348D01*
X182918Y41485D01*
X183037Y41639D01*
Y38021D01*
D02*
G37*
G36*
X172335Y41483D02*
X172472Y41364D01*
X172622Y41259D01*
X172785Y41168D01*
X172961Y41090D01*
X173150Y41027D01*
X173351Y40978D01*
X173426Y40966D01*
X173564Y40978D01*
X173823Y41027D01*
X174044Y41090D01*
X174223Y41167D01*
X174364Y41258D01*
X174463Y41363D01*
X174523Y41482D01*
X174543Y41615D01*
X174556Y37915D01*
X174535Y38105D01*
X174474Y38275D01*
X174373Y38425D01*
X174232Y38555D01*
X174051Y38665D01*
X173830Y38755D01*
X173568Y38825D01*
X173270Y38874D01*
X173174Y38861D01*
X172967Y38820D01*
X172771Y38766D01*
X172585Y38701D01*
X172411Y38623D01*
X172247Y38534D01*
X172094Y38432D01*
X171952Y38319D01*
X172211Y41616D01*
X172335Y41483D01*
D02*
G37*
G36*
X178477Y41466D02*
X178536Y41332D01*
X178637Y41214D01*
X178777Y41113D01*
X178956Y41026D01*
X179176Y40955D01*
X179437Y40901D01*
X179736Y40861D01*
X180077Y40838D01*
X180456Y40830D01*
Y38830D01*
X180077Y38820D01*
X179736Y38790D01*
X179437Y38740D01*
X179176Y38670D01*
X178956Y38580D01*
X178777Y38470D01*
X178637Y38340D01*
X178536Y38190D01*
X178477Y38020D01*
X178456Y37830D01*
Y41615D01*
X178477Y41466D01*
D02*
G37*
G36*
X197251Y26130D02*
X197090Y26171D01*
X196918Y26179D01*
X196734Y26154D01*
X196539Y26097D01*
X196333Y26007D01*
X196115Y25885D01*
X195886Y25730D01*
X195645Y25542D01*
X195393Y25322D01*
X195130Y25069D01*
X193084Y25145D01*
X193426Y25497D01*
X193951Y26108D01*
X194136Y26366D01*
X194268Y26594D01*
X194348Y26791D01*
X194376Y26956D01*
X194351Y27091D01*
X194274Y27194D01*
X194145Y27266D01*
X197251Y26130D01*
D02*
G37*
G36*
X192425Y27470D02*
X192376Y27356D01*
X192332Y27223D01*
X192295Y27071D01*
X192263Y26902D01*
X192216Y26507D01*
X192202Y26281D01*
X192190Y25776D01*
X190690D01*
X190687Y26038D01*
X190644Y26713D01*
X190618Y26902D01*
X190548Y27223D01*
X190505Y27356D01*
X190455Y27470D01*
X190400Y27566D01*
X192480D01*
X192425Y27470D01*
D02*
G37*
G36*
X184945D02*
X184895Y27356D01*
X184852Y27223D01*
X184814Y27071D01*
X184782Y26902D01*
X184736Y26507D01*
X184721Y26281D01*
X184710Y25776D01*
X183210D01*
X183207Y26038D01*
X183163Y26713D01*
X183137Y26902D01*
X183068Y27223D01*
X183024Y27356D01*
X182975Y27470D01*
X182920Y27566D01*
X185000D01*
X184945Y27470D01*
D02*
G37*
G36*
X184210Y21992D02*
X184240Y21652D01*
X184290Y21351D01*
X184360Y21091D01*
X184450Y20872D01*
X184560Y20692D01*
X184690Y20551D01*
X184840Y20451D01*
X185010Y20391D01*
X185200Y20371D01*
X181200D01*
X181390Y20391D01*
X181560Y20451D01*
X181710Y20551D01*
X181840Y20692D01*
X181950Y20872D01*
X182040Y21091D01*
X182110Y21351D01*
X182160Y21652D01*
X182190Y21992D01*
X182200Y22372D01*
X184200D01*
X184210Y21992D01*
D02*
G37*
G36*
X185010Y16450D02*
X184840Y16390D01*
X184690Y16289D01*
X184560Y16149D01*
X184450Y15968D01*
X184360Y15746D01*
X184290Y15485D01*
X184240Y15183D01*
X184210Y14841D01*
X184200Y14458D01*
X182200D01*
X182190Y14841D01*
X182160Y15183D01*
X182110Y15485D01*
X182040Y15746D01*
X181950Y15968D01*
X181840Y16149D01*
X181710Y16289D01*
X181560Y16390D01*
X181390Y16450D01*
X181200Y16470D01*
X185200D01*
X185010Y16450D01*
D02*
G37*
G36*
X217405Y46545D02*
X217320Y46515D01*
X217245Y46464D01*
X217180Y46394D01*
X217125Y46303D01*
X217080Y46191D01*
X217045Y46060D01*
X217020Y45908D01*
X217005Y45736D01*
X217000Y45544D01*
X216000D01*
X215995Y45736D01*
X215980Y45908D01*
X215955Y46060D01*
X215920Y46191D01*
X215875Y46303D01*
X215820Y46394D01*
X215755Y46464D01*
X215680Y46515D01*
X215595Y46545D01*
X215500Y46556D01*
X217500D01*
X217405Y46545D01*
D02*
G37*
G36*
X218355Y44359D02*
X218750Y44020D01*
X218919Y43900D01*
X219070Y43811D01*
X219202Y43756D01*
X219315Y43733D01*
X219410Y43742D01*
X219487Y43784D01*
X219544Y43858D01*
X218768Y42408D01*
X219308Y40906D01*
X219261Y40991D01*
X219193Y41041D01*
X219104Y41056D01*
X218994Y41036D01*
X218863Y40982D01*
X218711Y40892D01*
X218538Y40768D01*
X218344Y40609D01*
X217894Y40187D01*
X217847Y41554D01*
X218017Y41731D01*
X218291Y42061D01*
X218396Y42214D01*
X218479Y42360D01*
X218540Y42497D01*
X218547Y42522D01*
X218508Y42611D01*
X218424Y42758D01*
X218316Y42914D01*
X218184Y43081D01*
X218028Y43258D01*
X217847Y43446D01*
X218130Y44577D01*
X218355Y44359D01*
D02*
G37*
G36*
X216851Y24264D02*
X216866Y24092D01*
X216892Y23940D01*
X216927Y23809D01*
X216971Y23697D01*
X217026Y23606D01*
X217091Y23536D01*
X217166Y23485D01*
X217251Y23455D01*
X217347Y23445D01*
X215347D01*
X215441Y23455D01*
X215527Y23485D01*
X215601Y23536D01*
X215667Y23606D01*
X215722Y23697D01*
X215767Y23809D01*
X215802Y23940D01*
X215827Y24092D01*
X215842Y24264D01*
X215846Y24456D01*
X216846D01*
X216851Y24264D01*
D02*
G37*
G36*
X156094Y19442D02*
X156044Y19403D01*
X155999Y19338D01*
X155961Y19246D01*
X155928Y19128D01*
X155901Y18984D01*
X155880Y18814D01*
X155857Y18395D01*
X155853Y18146D01*
X153853D01*
X153851Y18395D01*
X153806Y18984D01*
X153779Y19128D01*
X153747Y19246D01*
X153708Y19338D01*
X153663Y19403D01*
X153613Y19442D01*
X153557Y19455D01*
X156151D01*
X156094Y19442D01*
D02*
G37*
D12*
X88200Y39900D02*
X91250D01*
X68400Y59700D02*
X88200Y39900D01*
X91250D02*
X93000Y38150D01*
X30000Y24500D02*
X37300D01*
X25500Y20000D02*
X30000Y24500D01*
X22500Y55000D02*
X30200D01*
X20600Y56900D02*
X22500Y55000D01*
X20600Y56900D02*
Y65900D01*
X24700Y70000D01*
X30000D01*
X75600Y27300D02*
X76900Y26000D01*
X45400Y30100D02*
X67900D01*
X70700Y27300D02*
X75600D01*
X67900Y30100D02*
X70700Y27300D01*
X56250Y28550D02*
X66571D01*
X51200Y23500D02*
X56250Y28550D01*
X38300Y23500D02*
X51200D01*
X57300Y26800D02*
X65422D01*
X52500Y22000D02*
X57300Y26800D01*
X37500Y22000D02*
X52500D01*
X37300Y24500D02*
X38300Y23500D01*
X38500Y37000D02*
X45400Y30100D01*
X38500Y37000D02*
Y46700D01*
X30200Y55000D02*
X38500Y46700D01*
X76900Y26000D02*
X92700D01*
X57440Y24040D02*
X61976D01*
X53400Y20000D02*
X57440Y24040D01*
X39500Y20000D02*
X53400D01*
X38800Y16600D02*
X62821D01*
X85000Y17000D02*
X105129D01*
X80200Y12200D02*
X85000Y17000D01*
X67221Y12200D02*
X80200D01*
X83052Y19252D02*
X100559D01*
X78080Y14280D02*
X83052Y19252D01*
X68320Y14280D02*
X78080D01*
X82202Y22402D02*
X100559D01*
X76360Y16560D02*
X82202Y22402D01*
X71424Y16560D02*
X76360D01*
X62821Y16600D02*
X67221Y12200D01*
X65800Y16800D02*
X68320Y14280D01*
X65800Y16800D02*
Y23414D01*
X67400Y17700D02*
X68600Y16500D01*
X67400Y17700D02*
Y24822D01*
X93661Y24040D02*
X95173Y25551D01*
X71424Y24040D02*
X93661D01*
X65422Y26800D02*
X67400Y24822D01*
X71081Y24040D02*
X71424D01*
X66571Y28550D02*
X71081Y24040D01*
X105293Y10600D02*
X107252Y12559D01*
X40600Y10600D02*
X105293D01*
X30000Y0D02*
X40600Y10600D01*
X68600Y16500D02*
X71365D01*
X65214Y24000D02*
X65800Y23414D01*
X62016Y24000D02*
X65214D01*
X61976Y24040D02*
X62016Y24000D01*
X68546Y42000D02*
Y46900D01*
X145626Y25736D02*
X145763Y25600D01*
X145441Y25551D02*
X145626Y25736D01*
X145390Y25500D02*
X145441Y25551D01*
X165816Y4184D02*
Y30535D01*
Y4184D02*
X170000Y0D01*
X160350Y36000D02*
X165816Y30535D01*
X167316Y12784D02*
Y31156D01*
Y12784D02*
X180000Y100D01*
X160972Y37500D02*
X167316Y31156D01*
X168816Y14184D02*
Y31777D01*
Y14184D02*
X177150Y5850D01*
X161093Y39500D02*
X168816Y31777D01*
X170316Y15684D02*
Y32399D01*
Y15684D02*
X178500Y7500D01*
X161415Y41299D02*
X170316Y32399D01*
X95401Y28701D02*
X100559D01*
X92700Y26000D02*
X95401Y28701D01*
X95173Y25551D02*
X100559D01*
X61500Y63300D02*
X69400D01*
X60000Y64800D02*
X61500Y63300D01*
X60000Y64800D02*
Y70000D01*
X89302Y47598D02*
X100559D01*
X74400Y62500D02*
X89302Y47598D01*
X74400Y62500D02*
Y65600D01*
X70000Y70000D02*
X74400Y65600D01*
X69400Y63300D02*
X88251Y44449D01*
X66300Y56000D02*
X85200Y37100D01*
X53000Y56000D02*
X66300D01*
X40000Y69000D02*
X53000Y56000D01*
X55800Y59700D02*
X68400D01*
X50000Y65500D02*
X55800Y59700D01*
X94652Y50748D02*
X100559D01*
X80000Y65400D02*
X94652Y50748D01*
X80000Y65400D02*
Y70000D01*
X50000Y65500D02*
Y70000D01*
X150000Y0D02*
Y3900D01*
X141341Y12559D02*
X150000Y3900D01*
X138748Y12559D02*
X141341D01*
X190347Y60747D02*
X190500Y60900D01*
X190347Y53000D02*
Y60747D01*
X183653Y48000D02*
X183653Y48000D01*
Y53000D01*
X190500Y60900D02*
X194451D01*
X180400D02*
X190500D01*
X152100Y37500D02*
X160972D01*
X149600Y35000D02*
X152100Y37500D01*
X151450Y39500D02*
X161093D01*
X150100Y38150D02*
X151450Y39500D01*
X153100Y36000D02*
X160350D01*
X148950Y31850D02*
X153100Y36000D01*
X118200Y7000D02*
X120000Y8800D01*
X113621Y7000D02*
X118200D01*
X111145Y4524D02*
X113621Y7000D01*
X126051Y12657D02*
X126150Y12756D01*
X125927Y12707D02*
X125964Y12744D01*
X125927Y12533D02*
X126051Y12657D01*
X122500Y5500D02*
X125927Y8927D01*
X115621Y5500D02*
X122500D01*
X110121Y0D02*
X115621Y5500D01*
X25500Y10000D02*
X37500Y22000D01*
X167248Y47748D02*
X180400Y60900D01*
X145441Y44449D02*
X151000D01*
X154299Y47748D02*
X167248D01*
X165748Y50748D02*
X180000Y65000D01*
X145441Y50748D02*
X165748D01*
X151000Y44449D02*
X154299Y47748D01*
X166369Y49248D02*
X180121Y63000D01*
X145441Y47598D02*
X151200D01*
X152850Y49248D02*
X166369D01*
X151200Y47598D02*
X152850Y49248D01*
X108624Y7524D02*
X110216Y9116D01*
X134653Y62500D02*
X162500D01*
X132634Y60481D02*
X134653Y62500D01*
X132634Y57626D02*
Y60481D01*
X129299Y57441D02*
Y60664D01*
Y57244D02*
Y57441D01*
X132806Y62973D02*
X133833Y64000D01*
X129600Y60965D02*
Y61600D01*
X129299Y60664D02*
X129600Y60965D01*
Y61600D02*
X130973Y62973D01*
X132806D01*
X126150Y57441D02*
Y60650D01*
Y57244D02*
Y57441D01*
X129973Y64473D02*
X132184D01*
X126150Y60650D02*
X129973Y64473D01*
X105476Y7524D02*
X108624D01*
X104000Y9000D02*
X105476Y7524D01*
X110324Y6024D02*
X113366Y9066D01*
X56024Y6024D02*
X110324D01*
X50000Y0D02*
X56024Y6024D01*
X64524Y4524D02*
X111145D01*
X60000Y0D02*
X64524Y4524D01*
X138066Y17816D02*
X142652Y22402D01*
X126184Y17816D02*
X138066D01*
X124000Y20000D02*
X126184Y17816D01*
X128747Y66047D02*
X131637D01*
X132184Y64473D02*
X133211Y65500D01*
X145500D01*
X150000Y70000D01*
X131637Y66047D02*
X135547Y69957D01*
X139957D01*
X140000Y70000D01*
X133833Y64000D02*
X154000D01*
X123000Y60300D02*
X128747Y66047D01*
X123000Y57244D02*
Y60300D01*
X154000Y64000D02*
X160000Y70000D01*
X162500Y62500D02*
X170000Y70000D01*
X171000Y61000D02*
X180000Y70000D01*
X140457Y61000D02*
X171000D01*
X138748Y59291D02*
X140457Y61000D01*
X138748Y57244D02*
Y59291D01*
X145441Y35000D02*
X149600D01*
X145441Y38150D02*
X150100D01*
X145441Y31850D02*
X148950D01*
X120000Y8800D02*
Y12410D01*
X113366Y9066D02*
Y12374D01*
X110216Y9116D02*
Y12374D01*
X115500Y20000D02*
X124000D01*
X113500Y18000D02*
X115500Y20000D01*
X106129Y18000D02*
X113500D01*
X105129Y17000D02*
X106129Y18000D01*
X129299Y9299D02*
Y12559D01*
X120000Y0D02*
X129299Y9299D01*
X125964Y12744D02*
X126051Y12657D01*
X126051D02*
X126150Y12559D01*
X125927Y8927D02*
Y12533D01*
X216500Y45500D02*
X219500Y42500D01*
X216500Y45500D02*
Y48346D01*
X216347Y48500D02*
X216500Y48346D01*
X216347Y39347D02*
X219500Y42500D01*
X216347Y21500D02*
Y39347D01*
X205000Y21000D02*
X208653D01*
X209154Y21500D01*
X200000Y16000D02*
X205000Y21000D01*
X200000Y0D02*
Y16000D01*
X185500Y7500D02*
X188000Y5000D01*
X178500Y7500D02*
X185500D01*
X180121Y63000D02*
X193000D01*
X145441Y41299D02*
X161415D01*
X85200Y37100D02*
X91200D01*
X88251Y44449D02*
X100559D01*
X49000Y9000D02*
X104000D01*
X40000Y0D02*
X49000Y9000D01*
X142652Y22402D02*
X145244D01*
X126051Y12657D02*
X126051D01*
X110000Y0D02*
X110121D01*
X122906Y12654D02*
X123000Y12559D01*
X91200Y37100D02*
X93300Y35000D01*
X100559D01*
X93000Y38150D02*
X100559D01*
X119850Y62226D02*
X121624Y64000D01*
X123637D01*
X129637Y70000D01*
X119850Y57441D02*
Y62226D01*
X145441Y14559D02*
Y19252D01*
Y14559D02*
X160000Y0D01*
Y-1000D02*
Y0D01*
X177150Y5850D02*
X184150D01*
X40000Y69000D02*
Y70000D01*
X184150Y5850D02*
X190000Y0D01*
X180000D02*
Y100D01*
X194451Y60900D02*
X198551Y65000D01*
X205000D01*
X210000Y70000D01*
X193000Y63000D02*
X200000Y70000D01*
X180000Y65000D02*
X184000D01*
X189000Y70000D01*
X195000Y5000D02*
X200000Y0D01*
X188000Y5000D02*
X195000D01*
X189000Y70000D02*
X190000D01*
X132449Y57441D02*
X132634Y57626D01*
X129637Y70000D02*
X130000D01*
X90000Y64000D02*
Y70000D01*
Y64000D02*
X96559Y57441D01*
X107252D01*
X100000Y70000D02*
X105000Y65000D01*
X109000D01*
X110402Y63598D01*
Y57441D02*
Y63598D01*
X110000Y70000D02*
X113551Y66449D01*
Y57441D02*
Y66449D01*
X116701Y66701D02*
X120000Y70000D01*
X116701Y57441D02*
Y66701D01*
X110216Y12374D02*
X110402Y12559D01*
X119850D02*
X120000Y12410D01*
X113366Y12374D02*
X113551Y12559D01*
X132449Y449D02*
Y12559D01*
X132000Y0D02*
X132449Y449D01*
X135598Y4402D02*
X140000Y0D01*
X135598Y4402D02*
Y12559D01*
D14*
X183200Y13800D02*
Y23400D01*
X154853Y18146D02*
Y21700D01*
X187700Y29200D02*
Y33915D01*
X172300Y39915D02*
X176440D01*
X176525Y39830D02*
X183960D01*
X176440Y39915D02*
X176525Y39830D01*
D32*
X100559Y50748D02*
D03*
Y47598D02*
D03*
Y44449D02*
D03*
Y41299D02*
D03*
Y38150D02*
D03*
Y35000D02*
D03*
Y31850D02*
D03*
Y28701D02*
D03*
Y25551D02*
D03*
Y22402D02*
D03*
Y19252D02*
D03*
X145441D02*
D03*
Y22402D02*
D03*
Y25551D02*
D03*
Y28701D02*
D03*
Y31850D02*
D03*
Y35000D02*
D03*
Y38150D02*
D03*
Y41299D02*
D03*
Y44449D02*
D03*
Y47598D02*
D03*
Y50748D02*
D03*
D33*
X107252Y12559D02*
D03*
X110402D02*
D03*
X113551D02*
D03*
X116701D02*
D03*
X119850D02*
D03*
X123000D02*
D03*
X126150D02*
D03*
X129299D02*
D03*
X132449D02*
D03*
X135598D02*
D03*
X138748D02*
D03*
Y57441D02*
D03*
X135598D02*
D03*
X132449D02*
D03*
X129299D02*
D03*
X126150D02*
D03*
X123000D02*
D03*
X119850D02*
D03*
X116701D02*
D03*
X113551D02*
D03*
X110402D02*
D03*
X107252D02*
D03*
D34*
X61976Y24040D02*
D03*
Y20300D02*
D03*
Y16560D02*
D03*
X71424D02*
D03*
Y20300D02*
D03*
Y24040D02*
D03*
D35*
X196495Y27618D02*
D03*
Y42382D02*
D03*
X220905D02*
D03*
Y27618D02*
D03*
D36*
X59643Y34600D02*
D03*
X72557D02*
D03*
D37*
X183653Y53000D02*
D03*
X190347D02*
D03*
X183653Y48000D02*
D03*
X190347D02*
D03*
X189946Y18415D02*
D03*
X183254D02*
D03*
X61853Y42000D02*
D03*
X68546D02*
D03*
X61853Y46900D02*
D03*
X68546D02*
D03*
X155472Y21400D02*
D03*
X162165D02*
D03*
X216347Y48500D02*
D03*
X209653D02*
D03*
X216347Y21500D02*
D03*
X209653D02*
D03*
X157147Y56400D02*
D03*
X150453D02*
D03*
X162165Y28500D02*
D03*
X155472D02*
D03*
X83335Y29500D02*
D03*
X90028D02*
D03*
D38*
X176500Y32768D02*
D03*
Y39461D02*
D03*
D39*
X183960Y29200D02*
D03*
X187700D02*
D03*
X191440D02*
D03*
X183960Y39830D02*
D03*
X191440D02*
D03*
D40*
X25500Y60000D02*
X34000D01*
X76100Y34700D02*
X84631D01*
X69350D02*
X76100D01*
X191800Y24315D02*
X191985Y24500D01*
X191440Y24215D02*
Y29200D01*
X91331Y29500D02*
Y30500D01*
X84631Y34700D02*
X89831Y29500D01*
X62050Y42000D02*
X69350Y34700D01*
X59643Y34600D02*
X64400D01*
X59643D02*
X59943Y34300D01*
X71424Y20300D02*
X76000D01*
X57400D02*
X61976D01*
X61853Y42000D02*
X62050D01*
X34000Y60000D02*
X52000Y42000D01*
X61853D01*
X94900Y41299D02*
X100559D01*
X145441Y28701D02*
X154646D01*
X91331Y30500D02*
X94461D01*
X143900Y56000D02*
X150054D01*
X139500Y51600D02*
X143900Y56000D01*
X193500Y24500D02*
X196000Y27000D01*
X191985Y24500D02*
X193500D01*
X136600Y28701D02*
X145441D01*
X196000Y27000D02*
X196071D01*
X100559Y31850D02*
X108450D01*
X95811D02*
X100559D01*
X94461Y30500D02*
X95811Y31850D01*
X182660Y24555D02*
X182700Y24515D01*
X183960Y24555D02*
Y29200D01*
X145763Y25600D02*
X151100D01*
X116701Y12756D02*
Y18000D01*
X123000Y12756D02*
Y18000D01*
X135598Y50602D02*
Y57244D01*
X220000Y0D02*
X220200Y200D01*
D41*
X186700Y24215D02*
D03*
D42*
X25500Y10000D02*
D03*
Y20000D02*
D03*
Y30000D02*
D03*
Y40000D02*
D03*
Y50000D02*
D03*
X130000Y70000D02*
D03*
X220000D02*
D03*
X210000D02*
D03*
X200000D02*
D03*
X190000D02*
D03*
X180000D02*
D03*
X170000D02*
D03*
X160000D02*
D03*
X150000D02*
D03*
X140000D02*
D03*
X30000D02*
D03*
X120000D02*
D03*
X110000D02*
D03*
X100000D02*
D03*
X90000D02*
D03*
X80000D02*
D03*
X70000D02*
D03*
X60000D02*
D03*
X50000D02*
D03*
X40000D02*
D03*
X210000Y0D02*
D03*
X200000D02*
D03*
X190000D02*
D03*
X180000D02*
D03*
X170000D02*
D03*
X160000D02*
D03*
X150000D02*
D03*
X140000D02*
D03*
X130000D02*
D03*
X220000D02*
D03*
X110000D02*
D03*
X100000D02*
D03*
X90000D02*
D03*
X80000D02*
D03*
X70000D02*
D03*
X60000D02*
D03*
X50000D02*
D03*
X40000D02*
D03*
X120000D02*
D03*
D43*
X25500Y60000D02*
D03*
D44*
X170400Y40100D02*
D03*
D45*
X30000Y0D02*
D03*
D46*
X90500Y34000D02*
D03*
X57000Y13900D02*
D03*
X46700Y27100D02*
D03*
X51800Y35200D02*
D03*
X73700Y39100D02*
D03*
X76100Y34700D02*
D03*
X64400Y34600D02*
D03*
X57400Y20300D02*
D03*
X76000D02*
D03*
X38800Y16600D02*
D03*
X151100Y25600D02*
D03*
X167600Y56100D02*
D03*
X150500Y16500D02*
D03*
X152500Y11000D02*
D03*
X145900Y11100D02*
D03*
X181800Y24500D02*
D03*
X191700D02*
D03*
X154700Y44000D02*
D03*
X169200Y46700D02*
D03*
X172300Y34700D02*
D03*
X195000Y16800D02*
D03*
X183200Y13800D02*
D03*
X186500Y24500D02*
D03*
X135400Y19900D02*
D03*
X142500Y16400D02*
D03*
X155519Y25000D02*
D03*
X154900Y33800D02*
D03*
X158900D02*
D03*
X85400Y39800D02*
D03*
X168300Y7900D02*
D03*
X139800Y5700D02*
D03*
X91500Y15000D02*
D03*
X103500Y60500D02*
D03*
X103100Y54500D02*
D03*
X89500Y51500D02*
D03*
X197700Y23300D02*
D03*
X204000Y17000D02*
D03*
X180500Y10500D02*
D03*
X185500D02*
D03*
X190500D02*
D03*
X161900Y56200D02*
D03*
X165500Y42500D02*
D03*
X172900Y50400D02*
D03*
X177900Y55300D02*
D03*
X172400Y19000D02*
D03*
X172300Y26100D02*
D03*
X194500Y35600D02*
D03*
X211200Y35000D02*
D03*
X206200D02*
D03*
X195600Y7600D02*
D03*
X200300Y61700D02*
D03*
X195000Y58500D02*
D03*
X187500Y58300D02*
D03*
X182500D02*
D03*
X197700Y19300D02*
D03*
X186700Y38715D02*
D03*
X188700Y40715D02*
D03*
X182500Y35715D02*
D03*
X186500D02*
D03*
X190500D02*
D03*
X192500Y33715D02*
D03*
X188500D02*
D03*
X184500D02*
D03*
X39500Y20000D02*
D03*
X154772Y18046D02*
D03*
X158819Y17500D02*
D03*
X162319D02*
D03*
X162119Y24900D02*
D03*
X116701Y18000D02*
D03*
X123000D02*
D03*
X78858Y29500D02*
D03*
X94900Y41200D02*
D03*
X161000Y9000D02*
D03*
M02*
