G04*
G04 #@! TF.GenerationSoftware,Altium Limited,Altium Designer,19.1.8 (144)*
G04*
G04 Layer_Physical_Order=1*
G04 Layer_Color=255*
%FSLAX25Y25*%
%MOIN*%
G70*
G01*
G75*
%ADD13C,0.01000*%
%ADD15C,0.02000*%
%ADD28R,0.03937X0.04331*%
%ADD29R,0.04331X0.03937*%
%ADD30O,0.08071X0.02362*%
%ADD31O,0.02362X0.08071*%
G04:AMPARAMS|DCode=32|XSize=39.37mil|YSize=21.65mil|CornerRadius=5.41mil|HoleSize=0mil|Usage=FLASHONLY|Rotation=90.000|XOffset=0mil|YOffset=0mil|HoleType=Round|Shape=RoundedRectangle|*
%AMROUNDEDRECTD32*
21,1,0.03937,0.01083,0,0,90.0*
21,1,0.02854,0.02165,0,0,90.0*
1,1,0.01083,0.00541,0.01427*
1,1,0.01083,0.00541,-0.01427*
1,1,0.01083,-0.00541,-0.01427*
1,1,0.01083,-0.00541,0.01427*
%
%ADD32ROUNDEDRECTD32*%
%ADD33R,0.04000X0.03000*%
%ADD34C,0.01500*%
%ADD35R,0.13600X0.04600*%
%ADD36C,0.04724*%
%ADD37C,0.05906*%
%ADD38R,0.05906X0.05906*%
%ADD39R,0.05906X0.05906*%
%ADD40C,0.01968*%
G36*
X225971Y-5471D02*
X13529Y-5471D01*
Y75471D01*
X225971Y75471D01*
X225971Y-5471D01*
D02*
G37*
%LPC*%
G36*
X220500Y73921D02*
Y70500D01*
X223921D01*
X223851Y71032D01*
X223453Y71993D01*
X222819Y72819D01*
X221993Y73453D01*
X221032Y73851D01*
X220500Y73921D01*
D02*
G37*
G36*
X219500D02*
X218968Y73851D01*
X218007Y73453D01*
X217181Y72819D01*
X216547Y71993D01*
X216149Y71032D01*
X216079Y70500D01*
X219500D01*
Y73921D01*
D02*
G37*
G36*
X210000Y73483D02*
X209099Y73364D01*
X208259Y73016D01*
X207538Y72462D01*
X206984Y71741D01*
X206636Y70901D01*
X206518Y70000D01*
X206636Y69099D01*
X206935Y68377D01*
X204578Y66020D01*
X198551D01*
X198161Y65942D01*
X197950Y65801D01*
X197631Y66189D01*
X198377Y66935D01*
X199099Y66636D01*
X200000Y66518D01*
X200901Y66636D01*
X201741Y66984D01*
X202463Y67537D01*
X203016Y68259D01*
X203364Y69099D01*
X203483Y70000D01*
X203364Y70901D01*
X203016Y71741D01*
X202463Y72462D01*
X201741Y73016D01*
X200901Y73364D01*
X200000Y73483D01*
X199099Y73364D01*
X198259Y73016D01*
X197538Y72462D01*
X196984Y71741D01*
X196636Y70901D01*
X196518Y70000D01*
X196636Y69099D01*
X196935Y68377D01*
X192578Y64020D01*
X185169D01*
X184961Y64520D01*
X187787Y67346D01*
X188259Y66984D01*
X189099Y66636D01*
X190000Y66518D01*
X190901Y66636D01*
X191741Y66984D01*
X192463Y67537D01*
X193016Y68259D01*
X193364Y69099D01*
X193482Y70000D01*
X193364Y70901D01*
X193016Y71741D01*
X192463Y72462D01*
X191741Y73016D01*
X190901Y73364D01*
X190000Y73483D01*
X189099Y73364D01*
X188259Y73016D01*
X187538Y72462D01*
X186984Y71741D01*
X186636Y70901D01*
X186518Y70000D01*
X186636Y69099D01*
X186642Y69084D01*
X183578Y66020D01*
X180000D01*
X179610Y65942D01*
X179279Y65721D01*
X165326Y51768D01*
X149636D01*
X149507Y51960D01*
X148951Y52332D01*
X148295Y52462D01*
X142872D01*
X142665Y52962D01*
X143634Y53931D01*
X147819D01*
Y58868D01*
X142488D01*
Y56391D01*
X140962Y54865D01*
X140462Y55072D01*
Y59563D01*
X140879Y59980D01*
X171000D01*
X171390Y60058D01*
X171721Y60279D01*
X178377Y66935D01*
X179099Y66636D01*
X180000Y66518D01*
X180901Y66636D01*
X181741Y66984D01*
X182463Y67537D01*
X183016Y68259D01*
X183364Y69099D01*
X183483Y70000D01*
X183364Y70901D01*
X183016Y71741D01*
X182463Y72462D01*
X181741Y73016D01*
X180901Y73364D01*
X180000Y73483D01*
X179099Y73364D01*
X178259Y73016D01*
X177538Y72462D01*
X176984Y71741D01*
X176636Y70901D01*
X176517Y70000D01*
X176636Y69099D01*
X176935Y68377D01*
X170578Y62020D01*
X164115D01*
X163924Y62481D01*
X168377Y66935D01*
X169099Y66636D01*
X170000Y66518D01*
X170901Y66636D01*
X171741Y66984D01*
X172462Y67537D01*
X173016Y68259D01*
X173364Y69099D01*
X173483Y70000D01*
X173364Y70901D01*
X173016Y71741D01*
X172462Y72462D01*
X171741Y73016D01*
X170901Y73364D01*
X170000Y73483D01*
X169099Y73364D01*
X168259Y73016D01*
X167537Y72462D01*
X166984Y71741D01*
X166636Y70901D01*
X166517Y70000D01*
X166636Y69099D01*
X166935Y68377D01*
X162078Y63520D01*
X155615D01*
X155423Y63981D01*
X158377Y66935D01*
X159099Y66636D01*
X160000Y66518D01*
X160901Y66636D01*
X161741Y66984D01*
X162462Y67537D01*
X163016Y68259D01*
X163364Y69099D01*
X163482Y70000D01*
X163364Y70901D01*
X163016Y71741D01*
X162462Y72462D01*
X161741Y73016D01*
X160901Y73364D01*
X160000Y73483D01*
X159099Y73364D01*
X158259Y73016D01*
X157537Y72462D01*
X156984Y71741D01*
X156636Y70901D01*
X156518Y70000D01*
X156636Y69099D01*
X156935Y68377D01*
X153578Y65020D01*
X147115D01*
X146923Y65482D01*
X148377Y66935D01*
X149099Y66636D01*
X150000Y66518D01*
X150901Y66636D01*
X151741Y66984D01*
X152462Y67537D01*
X153016Y68259D01*
X153364Y69099D01*
X153482Y70000D01*
X153364Y70901D01*
X153016Y71741D01*
X152462Y72462D01*
X151741Y73016D01*
X150901Y73364D01*
X150000Y73483D01*
X149099Y73364D01*
X148259Y73016D01*
X147538Y72462D01*
X146984Y71741D01*
X146636Y70901D01*
X146518Y70000D01*
X146636Y69099D01*
X146935Y68377D01*
X145078Y66520D01*
X141927D01*
X141789Y66864D01*
X141788Y67020D01*
X142463Y67537D01*
X143016Y68259D01*
X143364Y69099D01*
X143482Y70000D01*
X143364Y70901D01*
X143016Y71741D01*
X142463Y72462D01*
X141741Y73016D01*
X140901Y73364D01*
X140000Y73483D01*
X139099Y73364D01*
X138259Y73016D01*
X137538Y72462D01*
X136984Y71741D01*
X136667Y70977D01*
X135547D01*
X135157Y70899D01*
X134826Y70678D01*
X133928Y69780D01*
X133639Y69923D01*
X133478Y70037D01*
X133364Y70901D01*
X133016Y71741D01*
X132463Y72462D01*
X131741Y73016D01*
X130901Y73364D01*
X130000Y73483D01*
X129099Y73364D01*
X128259Y73016D01*
X127538Y72462D01*
X126984Y71741D01*
X126636Y70901D01*
X126517Y70000D01*
X126636Y69099D01*
X126829Y68634D01*
X123215Y65020D01*
X121624D01*
X121234Y64942D01*
X120903Y64721D01*
X119129Y62947D01*
X118908Y62616D01*
X118831Y62226D01*
Y61636D01*
X118638Y61507D01*
X118570Y61405D01*
X118062Y61374D01*
X117720Y61712D01*
Y66278D01*
X118377Y66935D01*
X119099Y66636D01*
X120000Y66518D01*
X120901Y66636D01*
X121741Y66984D01*
X122462Y67537D01*
X123016Y68259D01*
X123364Y69099D01*
X123483Y70000D01*
X123364Y70901D01*
X123016Y71741D01*
X122462Y72462D01*
X121741Y73016D01*
X120901Y73364D01*
X120000Y73483D01*
X119099Y73364D01*
X118259Y73016D01*
X117537Y72462D01*
X116984Y71741D01*
X116636Y70901D01*
X116517Y70000D01*
X116636Y69099D01*
X116935Y68377D01*
X115980Y67422D01*
X115759Y67091D01*
X115681Y66701D01*
Y61636D01*
X115489Y61507D01*
X115421Y61405D01*
X114912Y61374D01*
X114571Y61712D01*
Y66449D01*
X114493Y66839D01*
X114272Y67170D01*
X113065Y68377D01*
X113364Y69099D01*
X113482Y70000D01*
X113364Y70901D01*
X113016Y71741D01*
X112462Y72462D01*
X111741Y73016D01*
X110901Y73364D01*
X110000Y73483D01*
X109099Y73364D01*
X108259Y73016D01*
X107537Y72462D01*
X106984Y71741D01*
X106636Y70901D01*
X106518Y70000D01*
X106636Y69099D01*
X106984Y68259D01*
X107537Y67537D01*
X108259Y66984D01*
X109099Y66636D01*
X110000Y66518D01*
X110901Y66636D01*
X111623Y66935D01*
X112532Y66027D01*
Y61636D01*
X112339Y61507D01*
X112271Y61405D01*
X111762Y61374D01*
X111421Y61712D01*
Y63598D01*
X111344Y63989D01*
X111123Y64319D01*
X109721Y65721D01*
X109390Y65942D01*
X109000Y66020D01*
X105422D01*
X103065Y68377D01*
X103364Y69099D01*
X103482Y70000D01*
X103364Y70901D01*
X103016Y71741D01*
X102462Y72462D01*
X101741Y73016D01*
X100901Y73364D01*
X100000Y73483D01*
X99099Y73364D01*
X98259Y73016D01*
X97537Y72462D01*
X96984Y71741D01*
X96636Y70901D01*
X96517Y70000D01*
X96636Y69099D01*
X96984Y68259D01*
X97537Y67537D01*
X98259Y66984D01*
X99099Y66636D01*
X100000Y66518D01*
X100901Y66636D01*
X101623Y66935D01*
X104279Y64279D01*
X104610Y64058D01*
X105000Y63980D01*
X108578D01*
X109382Y63176D01*
Y61636D01*
X109190Y61507D01*
X109077Y61339D01*
X108577D01*
X108464Y61507D01*
X107908Y61879D01*
X107252Y62009D01*
X106596Y61879D01*
X106040Y61507D01*
X105668Y60951D01*
X105538Y60295D01*
Y58460D01*
X96981D01*
X91020Y64422D01*
Y66685D01*
X91741Y66984D01*
X92462Y67537D01*
X93016Y68259D01*
X93364Y69099D01*
X93483Y70000D01*
X93364Y70901D01*
X93016Y71741D01*
X92462Y72462D01*
X91741Y73016D01*
X90901Y73364D01*
X90000Y73483D01*
X89099Y73364D01*
X88259Y73016D01*
X87537Y72462D01*
X86984Y71741D01*
X86636Y70901D01*
X86518Y70000D01*
X86636Y69099D01*
X86984Y68259D01*
X87537Y67537D01*
X88259Y66984D01*
X88980Y66685D01*
Y64000D01*
X89058Y63610D01*
X89279Y63279D01*
X95838Y56720D01*
X96169Y56499D01*
X96559Y56421D01*
X105538D01*
Y54587D01*
X105668Y53931D01*
X105929Y53541D01*
X105708Y53041D01*
X105500D01*
X105117Y52883D01*
X104959Y52500D01*
Y52293D01*
X104459Y52071D01*
X104069Y52332D01*
X103413Y52462D01*
X97705D01*
X97049Y52332D01*
X96493Y51960D01*
X96432Y51869D01*
X95907Y51835D01*
X81364Y66378D01*
X81462Y66868D01*
X81741Y66984D01*
X82463Y67537D01*
X83016Y68259D01*
X83364Y69099D01*
X83482Y70000D01*
X83364Y70901D01*
X83016Y71741D01*
X82463Y72462D01*
X81741Y73016D01*
X80901Y73364D01*
X80000Y73483D01*
X79099Y73364D01*
X78259Y73016D01*
X77538Y72462D01*
X76984Y71741D01*
X76636Y70901D01*
X76517Y70000D01*
X76636Y69099D01*
X76984Y68259D01*
X77538Y67537D01*
X78259Y66984D01*
X78980Y66685D01*
Y66300D01*
X79058Y65910D01*
X79279Y65579D01*
X94831Y50027D01*
X95162Y49806D01*
X95552Y49728D01*
X96364D01*
X96493Y49536D01*
X96595Y49468D01*
X96626Y48959D01*
X96288Y48618D01*
X89324D01*
X71505Y66436D01*
X71603Y66927D01*
X71741Y66984D01*
X72462Y67537D01*
X73016Y68259D01*
X73364Y69099D01*
X73483Y70000D01*
X73364Y70901D01*
X73016Y71741D01*
X72462Y72462D01*
X71741Y73016D01*
X70901Y73364D01*
X70000Y73483D01*
X69099Y73364D01*
X68259Y73016D01*
X67537Y72462D01*
X66984Y71741D01*
X66636Y70901D01*
X66518Y70000D01*
X66636Y69099D01*
X66984Y68259D01*
X67537Y67537D01*
X68259Y66984D01*
X68980Y66685D01*
Y66500D01*
X69058Y66110D01*
X69279Y65779D01*
X88181Y46878D01*
X88511Y46657D01*
X88902Y46579D01*
X96364D01*
X96493Y46386D01*
X96595Y46318D01*
X96626Y45810D01*
X96288Y45468D01*
X88674D01*
X68571Y65571D01*
X68240Y65792D01*
X67850Y65870D01*
X62172D01*
X61617Y66425D01*
X61678Y66924D01*
X61755Y66994D01*
X62463Y67537D01*
X63016Y68259D01*
X63364Y69099D01*
X63482Y70000D01*
X63364Y70901D01*
X63016Y71741D01*
X62463Y72462D01*
X61741Y73016D01*
X60901Y73364D01*
X60000Y73483D01*
X59099Y73364D01*
X58259Y73016D01*
X57538Y72462D01*
X56984Y71741D01*
X56636Y70901D01*
X56517Y70000D01*
X56636Y69099D01*
X56984Y68259D01*
X57538Y67537D01*
X58259Y66984D01*
X58980Y66685D01*
Y66600D01*
X59058Y66210D01*
X59279Y65879D01*
X61029Y64129D01*
X61360Y63908D01*
X61750Y63830D01*
X67428D01*
X87530Y43728D01*
X87861Y43507D01*
X88251Y43429D01*
X96067D01*
X96202Y42984D01*
X96170Y42897D01*
X96132Y42872D01*
X95650Y42150D01*
X95580Y41799D01*
X100559D01*
Y40799D01*
X95580D01*
X95650Y40448D01*
X96132Y39727D01*
X96170Y39702D01*
X96202Y39614D01*
X96067Y39169D01*
X93422D01*
X91971Y40621D01*
X91640Y40842D01*
X91250Y40920D01*
X88622D01*
X66821Y62721D01*
X66490Y62942D01*
X66100Y63020D01*
X54822D01*
X51435Y66407D01*
X51532Y66897D01*
X51741Y66984D01*
X52463Y67537D01*
X53016Y68259D01*
X53364Y69099D01*
X53483Y70000D01*
X53364Y70901D01*
X53016Y71741D01*
X52463Y72462D01*
X51741Y73016D01*
X50901Y73364D01*
X50000Y73483D01*
X49099Y73364D01*
X48259Y73016D01*
X47537Y72462D01*
X46984Y71741D01*
X46636Y70901D01*
X46518Y70000D01*
X46636Y69099D01*
X46984Y68259D01*
X47537Y67537D01*
X48259Y66984D01*
X48980Y66685D01*
Y66400D01*
X49058Y66010D01*
X49279Y65679D01*
X53679Y61279D01*
X54010Y61058D01*
X54400Y60980D01*
X65678D01*
X87479Y39179D01*
X87810Y38958D01*
X88200Y38880D01*
X90696D01*
X90908Y38609D01*
X90689Y38120D01*
X85622D01*
X63871Y59871D01*
X63540Y60092D01*
X63150Y60170D01*
X50272D01*
X42654Y67787D01*
X43016Y68259D01*
X43364Y69099D01*
X43483Y70000D01*
X43364Y70901D01*
X43016Y71741D01*
X42463Y72462D01*
X41741Y73016D01*
X40901Y73364D01*
X40000Y73483D01*
X39099Y73364D01*
X38259Y73016D01*
X37538Y72462D01*
X36984Y71741D01*
X36636Y70901D01*
X36518Y70000D01*
X36636Y69099D01*
X36984Y68259D01*
X37538Y67537D01*
X38259Y66984D01*
X39099Y66636D01*
X40000Y66518D01*
X40901Y66636D01*
X40916Y66642D01*
X49129Y58429D01*
X49460Y58208D01*
X49850Y58130D01*
X62728D01*
X84479Y36379D01*
X84810Y36158D01*
X85200Y36080D01*
X90778D01*
X92579Y34279D01*
X92910Y34058D01*
X93300Y33980D01*
X96364D01*
X96493Y33788D01*
X96346Y33285D01*
X96182Y33125D01*
X95811D01*
X95323Y33028D01*
X94910Y32752D01*
X94127Y31969D01*
X90665D01*
X88732Y33901D01*
X88318Y34178D01*
X87831Y34275D01*
X66370D01*
X63975Y36670D01*
X64166Y37132D01*
X64519D01*
Y41532D01*
X65019D01*
Y44000D01*
X61854D01*
X58688D01*
Y41532D01*
X59188D01*
Y40874D01*
X54928D01*
X34901Y60901D01*
X34488Y61177D01*
X34000Y61274D01*
X28953D01*
Y63453D01*
X22047D01*
Y56547D01*
X28953D01*
Y58726D01*
X33472D01*
X53499Y38699D01*
X53912Y38423D01*
X54400Y38326D01*
X59188D01*
Y37132D01*
X60579D01*
Y36988D01*
X60676Y36501D01*
X60952Y36087D01*
X64941Y32099D01*
X65354Y31822D01*
X65842Y31725D01*
X81669D01*
Y30000D01*
X84835D01*
Y29000D01*
X81669D01*
Y26531D01*
X81174Y26520D01*
X59922D01*
X31421Y55021D01*
X31090Y55242D01*
X30700Y55320D01*
X21422D01*
X20120Y56622D01*
Y66578D01*
X22522Y68980D01*
X26685D01*
X26984Y68259D01*
X27538Y67537D01*
X28259Y66984D01*
X29099Y66636D01*
X30000Y66518D01*
X30901Y66636D01*
X31741Y66984D01*
X32462Y67537D01*
X33016Y68259D01*
X33364Y69099D01*
X33483Y70000D01*
X33364Y70901D01*
X33016Y71741D01*
X32462Y72462D01*
X31741Y73016D01*
X30901Y73364D01*
X30000Y73483D01*
X29099Y73364D01*
X28259Y73016D01*
X27538Y72462D01*
X26984Y71741D01*
X26685Y71020D01*
X22100D01*
X21710Y70942D01*
X21379Y70721D01*
X18379Y67721D01*
X18158Y67390D01*
X18080Y67000D01*
Y56200D01*
X18158Y55810D01*
X18379Y55479D01*
X20279Y53579D01*
X20610Y53358D01*
X21000Y53280D01*
X22524D01*
X22596Y53068D01*
X22651Y52780D01*
X22047Y51993D01*
X21649Y51032D01*
X21579Y50500D01*
X25500D01*
X29421D01*
X29351Y51032D01*
X28953Y51993D01*
X28349Y52780D01*
X28404Y53068D01*
X28476Y53280D01*
X30278D01*
X58077Y25482D01*
X57885Y25020D01*
X29500D01*
X29110Y24942D01*
X28779Y24721D01*
X27123Y23065D01*
X26401Y23364D01*
X25500Y23483D01*
X24599Y23364D01*
X23759Y23016D01*
X23038Y22463D01*
X22484Y21741D01*
X22136Y20901D01*
X22017Y20000D01*
X22136Y19099D01*
X22484Y18259D01*
X23038Y17537D01*
X23759Y16984D01*
X24599Y16636D01*
X25500Y16518D01*
X26401Y16636D01*
X27241Y16984D01*
X27962Y17537D01*
X28516Y18259D01*
X28864Y19099D01*
X28982Y20000D01*
X28864Y20901D01*
X28565Y21623D01*
X29922Y22980D01*
X36385D01*
X36577Y22519D01*
X27123Y13065D01*
X26401Y13364D01*
X25500Y13483D01*
X24599Y13364D01*
X23759Y13016D01*
X23038Y12462D01*
X22484Y11741D01*
X22136Y10901D01*
X22017Y10000D01*
X22136Y9099D01*
X22484Y8259D01*
X23038Y7537D01*
X23759Y6984D01*
X24599Y6636D01*
X25500Y6517D01*
X26401Y6636D01*
X27241Y6984D01*
X27962Y7537D01*
X28516Y8259D01*
X28864Y9099D01*
X28982Y10000D01*
X28864Y10901D01*
X28565Y11623D01*
X37610Y20668D01*
X38070Y20422D01*
X37987Y20000D01*
X38043Y19716D01*
X37762Y19287D01*
X37665Y19249D01*
X37169Y19150D01*
X36678Y18822D01*
X36350Y18331D01*
X36235Y17752D01*
X36350Y17173D01*
X36678Y16682D01*
X37169Y16354D01*
X37748Y16239D01*
X38327Y16354D01*
X38818Y16682D01*
X38852Y16732D01*
X94826D01*
X95279Y16279D01*
X95610Y16058D01*
X96000Y15980D01*
X105129D01*
X105141Y15983D01*
X105567Y15558D01*
X105538Y15413D01*
Y13579D01*
X42559D01*
X42169Y13501D01*
X41838Y13280D01*
X32011Y3453D01*
X26547D01*
Y-3453D01*
X33453D01*
Y2011D01*
X42981Y11540D01*
X105538D01*
Y9705D01*
X105561Y9588D01*
X105100Y9341D01*
X104721Y9721D01*
X104390Y9942D01*
X104000Y10020D01*
X49000D01*
X48610Y9942D01*
X48279Y9721D01*
X41623Y3065D01*
X40901Y3364D01*
X40000Y3483D01*
X39099Y3364D01*
X38259Y3016D01*
X37538Y2462D01*
X36984Y1741D01*
X36636Y901D01*
X36518Y0D01*
X36636Y-901D01*
X36984Y-1741D01*
X37538Y-2462D01*
X38259Y-3016D01*
X39099Y-3364D01*
X40000Y-3483D01*
X40901Y-3364D01*
X41741Y-3016D01*
X42463Y-2462D01*
X43016Y-1741D01*
X43364Y-901D01*
X43483Y0D01*
X43364Y901D01*
X43065Y1623D01*
X49422Y7980D01*
X103578D01*
X104053Y7505D01*
X103862Y7043D01*
X56024D01*
X55633Y6966D01*
X55303Y6745D01*
X51623Y3065D01*
X50901Y3364D01*
X50000Y3483D01*
X49099Y3364D01*
X48259Y3016D01*
X47537Y2462D01*
X46984Y1741D01*
X46636Y901D01*
X46518Y0D01*
X46636Y-901D01*
X46984Y-1741D01*
X47537Y-2462D01*
X48259Y-3016D01*
X49099Y-3364D01*
X50000Y-3483D01*
X50901Y-3364D01*
X51741Y-3016D01*
X52463Y-2462D01*
X53016Y-1741D01*
X53364Y-901D01*
X53483Y0D01*
X53364Y901D01*
X53065Y1623D01*
X56446Y5004D01*
X62909D01*
X63100Y4542D01*
X61623Y3065D01*
X60901Y3364D01*
X60000Y3483D01*
X59099Y3364D01*
X58259Y3016D01*
X57538Y2462D01*
X56984Y1741D01*
X56636Y901D01*
X56517Y0D01*
X56636Y-901D01*
X56984Y-1741D01*
X57538Y-2462D01*
X58259Y-3016D01*
X59099Y-3364D01*
X60000Y-3483D01*
X60901Y-3364D01*
X61741Y-3016D01*
X62463Y-2462D01*
X63016Y-1741D01*
X63364Y-901D01*
X63482Y0D01*
X63364Y901D01*
X63065Y1623D01*
X64946Y3504D01*
X68130D01*
X68248Y3055D01*
X68243Y3004D01*
X67537Y2462D01*
X66984Y1741D01*
X66636Y901D01*
X66518Y0D01*
X66636Y-901D01*
X66984Y-1741D01*
X67537Y-2462D01*
X68259Y-3016D01*
X69099Y-3364D01*
X70000Y-3483D01*
X70901Y-3364D01*
X71741Y-3016D01*
X72462Y-2462D01*
X73016Y-1741D01*
X73364Y-901D01*
X73483Y0D01*
X73364Y901D01*
X73016Y1741D01*
X72462Y2462D01*
X71757Y3004D01*
X71751Y3055D01*
X71870Y3504D01*
X78130D01*
X78249Y3055D01*
X78243Y3004D01*
X77538Y2462D01*
X76984Y1741D01*
X76636Y901D01*
X76517Y0D01*
X76636Y-901D01*
X76984Y-1741D01*
X77538Y-2462D01*
X78259Y-3016D01*
X79099Y-3364D01*
X80000Y-3483D01*
X80901Y-3364D01*
X81741Y-3016D01*
X82463Y-2462D01*
X83016Y-1741D01*
X83364Y-901D01*
X83482Y0D01*
X83364Y901D01*
X83016Y1741D01*
X82463Y2462D01*
X81757Y3004D01*
X81752Y3055D01*
X81870Y3504D01*
X88130D01*
X88248Y3055D01*
X88243Y3004D01*
X87537Y2462D01*
X86984Y1741D01*
X86636Y901D01*
X86518Y0D01*
X86636Y-901D01*
X86984Y-1741D01*
X87537Y-2462D01*
X88259Y-3016D01*
X89099Y-3364D01*
X90000Y-3483D01*
X90901Y-3364D01*
X91741Y-3016D01*
X92462Y-2462D01*
X93016Y-1741D01*
X93364Y-901D01*
X93483Y0D01*
X93364Y901D01*
X93016Y1741D01*
X92462Y2462D01*
X91757Y3004D01*
X91751Y3055D01*
X91870Y3504D01*
X98130D01*
X98248Y3055D01*
X98243Y3004D01*
X97537Y2462D01*
X96984Y1741D01*
X96636Y901D01*
X96517Y0D01*
X96636Y-901D01*
X96984Y-1741D01*
X97537Y-2462D01*
X98259Y-3016D01*
X99099Y-3364D01*
X100000Y-3483D01*
X100901Y-3364D01*
X101741Y-3016D01*
X102462Y-2462D01*
X103016Y-1741D01*
X103364Y-901D01*
X103482Y0D01*
X103364Y901D01*
X103016Y1741D01*
X102462Y2462D01*
X101757Y3004D01*
X101751Y3055D01*
X101870Y3504D01*
X108130D01*
X108248Y3055D01*
X108243Y3004D01*
X107537Y2462D01*
X106984Y1741D01*
X106636Y901D01*
X106518Y0D01*
X106636Y-901D01*
X106984Y-1741D01*
X107537Y-2462D01*
X108259Y-3016D01*
X109099Y-3364D01*
X110000Y-3483D01*
X110901Y-3364D01*
X111741Y-3016D01*
X112462Y-2462D01*
X113016Y-1741D01*
X113364Y-901D01*
X113482Y0D01*
X113364Y901D01*
X113101Y1537D01*
X116544Y4980D01*
X122831D01*
X123052Y4535D01*
X123056Y4498D01*
X121623Y3065D01*
X120901Y3364D01*
X120000Y3483D01*
X119099Y3364D01*
X118259Y3016D01*
X117537Y2462D01*
X116984Y1741D01*
X116636Y901D01*
X116517Y0D01*
X116636Y-901D01*
X116984Y-1741D01*
X117537Y-2462D01*
X118259Y-3016D01*
X119099Y-3364D01*
X120000Y-3483D01*
X120901Y-3364D01*
X121741Y-3016D01*
X122462Y-2462D01*
X123016Y-1741D01*
X123364Y-901D01*
X123483Y0D01*
X123364Y901D01*
X123065Y1623D01*
X129466Y8024D01*
X129955Y8121D01*
X130511Y8493D01*
X130579Y8595D01*
X131088Y8626D01*
X131429Y8288D01*
Y3595D01*
X131014Y3317D01*
X130901Y3364D01*
X130000Y3483D01*
X129099Y3364D01*
X128259Y3016D01*
X127538Y2462D01*
X126984Y1741D01*
X126636Y901D01*
X126517Y0D01*
X126636Y-901D01*
X126984Y-1741D01*
X127538Y-2462D01*
X128259Y-3016D01*
X129099Y-3364D01*
X130000Y-3483D01*
X130901Y-3364D01*
X131741Y-3016D01*
X132463Y-2462D01*
X133016Y-1741D01*
X133364Y-901D01*
X133483Y0D01*
X133441Y313D01*
X133468Y449D01*
Y8364D01*
X133661Y8493D01*
X133729Y8595D01*
X134238Y8626D01*
X134579Y8288D01*
Y4402D01*
X134656Y4011D01*
X134878Y3681D01*
X136935Y1623D01*
X136636Y901D01*
X136518Y0D01*
X136636Y-901D01*
X136984Y-1741D01*
X137538Y-2462D01*
X138259Y-3016D01*
X139099Y-3364D01*
X140000Y-3483D01*
X140901Y-3364D01*
X141741Y-3016D01*
X142463Y-2462D01*
X143016Y-1741D01*
X143364Y-901D01*
X143482Y0D01*
X143364Y901D01*
X143016Y1741D01*
X142463Y2462D01*
X141741Y3016D01*
X140901Y3364D01*
X140000Y3483D01*
X139099Y3364D01*
X138377Y3065D01*
X136618Y4824D01*
Y8364D01*
X136810Y8493D01*
X136923Y8662D01*
X137423D01*
X137536Y8493D01*
X138092Y8121D01*
X138748Y7991D01*
X139404Y8121D01*
X139960Y8493D01*
X140332Y9049D01*
X140462Y9705D01*
Y10889D01*
X140962Y11096D01*
X148495Y3564D01*
X148397Y3073D01*
X148259Y3016D01*
X147538Y2462D01*
X146984Y1741D01*
X146636Y901D01*
X146518Y0D01*
X146636Y-901D01*
X146984Y-1741D01*
X147538Y-2462D01*
X148259Y-3016D01*
X149099Y-3364D01*
X150000Y-3483D01*
X150901Y-3364D01*
X151741Y-3016D01*
X152462Y-2462D01*
X153016Y-1741D01*
X153364Y-901D01*
X153482Y0D01*
X153364Y901D01*
X153016Y1741D01*
X152462Y2462D01*
X151741Y3016D01*
X151020Y3315D01*
Y3500D01*
X150942Y3890D01*
X150721Y4221D01*
X141662Y13280D01*
X141331Y13501D01*
X140941Y13579D01*
X140462D01*
Y15413D01*
X140332Y16069D01*
X139960Y16625D01*
X139404Y16997D01*
X139328Y17012D01*
X139183Y17491D01*
X140509Y18817D01*
X140988Y18672D01*
X141003Y18596D01*
X141375Y18040D01*
X141931Y17668D01*
X142587Y17538D01*
X144421D01*
Y14559D01*
X144499Y14169D01*
X144720Y13838D01*
X156935Y1623D01*
X156636Y901D01*
X156518Y0D01*
X156636Y-901D01*
X156984Y-1741D01*
X157537Y-2462D01*
X158259Y-3016D01*
X159099Y-3364D01*
X160000Y-3483D01*
X160901Y-3364D01*
X161741Y-3016D01*
X162462Y-2462D01*
X163016Y-1741D01*
X163364Y-901D01*
X163482Y0D01*
X163364Y901D01*
X163016Y1741D01*
X162462Y2462D01*
X161741Y3016D01*
X160901Y3364D01*
X160000Y3483D01*
X159099Y3364D01*
X158377Y3065D01*
X146460Y14981D01*
Y17538D01*
X148295D01*
X148951Y17668D01*
X149507Y18040D01*
X149879Y18596D01*
X150009Y19252D01*
X149879Y19908D01*
X149507Y20464D01*
X149338Y20577D01*
Y21077D01*
X149507Y21190D01*
X149879Y21746D01*
X150009Y22402D01*
X149879Y23057D01*
X149728Y23284D01*
X149830Y23954D01*
X149868Y23979D01*
X150350Y24700D01*
X150420Y25051D01*
X145441D01*
Y26051D01*
X150420D01*
X150350Y26402D01*
X150000Y26926D01*
X150246Y27426D01*
X151488D01*
Y26032D01*
X156819D01*
Y30968D01*
X151488D01*
Y29975D01*
X149414D01*
X149338Y30026D01*
Y30526D01*
X149507Y30638D01*
X149879Y31194D01*
X149914Y31372D01*
X154122Y35580D01*
X159328D01*
X162940Y31969D01*
X162733Y31468D01*
X161346D01*
Y28500D01*
Y25532D01*
X163280D01*
Y24369D01*
X161346D01*
Y21400D01*
Y18431D01*
X163280D01*
Y5700D01*
X163358Y5310D01*
X163579Y4979D01*
X166935Y1623D01*
X166636Y901D01*
X166517Y0D01*
X166636Y-901D01*
X166984Y-1741D01*
X167537Y-2462D01*
X168259Y-3016D01*
X169099Y-3364D01*
X170000Y-3483D01*
X170901Y-3364D01*
X171741Y-3016D01*
X172462Y-2462D01*
X173016Y-1741D01*
X173364Y-901D01*
X173483Y0D01*
X173364Y901D01*
X173016Y1741D01*
X172462Y2462D01*
X171741Y3016D01*
X170901Y3364D01*
X170000Y3483D01*
X169099Y3364D01*
X168377Y3065D01*
X165320Y6122D01*
Y12685D01*
X165781Y12877D01*
X176964Y1694D01*
X176636Y901D01*
X176517Y0D01*
X176636Y-901D01*
X176984Y-1741D01*
X177538Y-2462D01*
X178259Y-3016D01*
X179099Y-3364D01*
X180000Y-3483D01*
X180901Y-3364D01*
X181741Y-3016D01*
X182463Y-2462D01*
X183016Y-1741D01*
X183364Y-901D01*
X183483Y0D01*
X183364Y901D01*
X183016Y1741D01*
X182463Y2462D01*
X181741Y3016D01*
X180901Y3364D01*
X180000Y3483D01*
X179099Y3364D01*
X178448Y3094D01*
X177211Y4330D01*
X177419Y4830D01*
X183728D01*
X186935Y1623D01*
X186636Y901D01*
X186518Y0D01*
X186636Y-901D01*
X186984Y-1741D01*
X187538Y-2462D01*
X188259Y-3016D01*
X189099Y-3364D01*
X190000Y-3483D01*
X190901Y-3364D01*
X191741Y-3016D01*
X192463Y-2462D01*
X193016Y-1741D01*
X193364Y-901D01*
X193482Y0D01*
X193364Y901D01*
X193016Y1741D01*
X192463Y2462D01*
X191741Y3016D01*
X190901Y3364D01*
X190000Y3483D01*
X189099Y3364D01*
X188377Y3065D01*
X187944Y3498D01*
X187948Y3535D01*
X188169Y3980D01*
X194578D01*
X196935Y1623D01*
X196636Y901D01*
X196518Y0D01*
X196636Y-901D01*
X196984Y-1741D01*
X197538Y-2462D01*
X198259Y-3016D01*
X199099Y-3364D01*
X200000Y-3483D01*
X200901Y-3364D01*
X201741Y-3016D01*
X202463Y-2462D01*
X203016Y-1741D01*
X203364Y-901D01*
X203483Y0D01*
X203364Y901D01*
X203016Y1741D01*
X202463Y2462D01*
X201741Y3016D01*
X201020Y3315D01*
Y15578D01*
X205422Y19980D01*
X206988D01*
Y19031D01*
X212319D01*
Y23968D01*
X206988D01*
Y22020D01*
X205000D01*
X204610Y21942D01*
X204279Y21721D01*
X199279Y16721D01*
X199058Y16390D01*
X198980Y16000D01*
Y3315D01*
X198377Y3065D01*
X195721Y5721D01*
X195390Y5942D01*
X195000Y6020D01*
X188422D01*
X186221Y8221D01*
X185890Y8442D01*
X185500Y8520D01*
X178922D01*
X169820Y17622D01*
Y33914D01*
X169742Y34304D01*
X169521Y34635D01*
X162136Y42020D01*
X161805Y42241D01*
X161415Y42319D01*
X149636D01*
X149507Y42511D01*
X149405Y42579D01*
X149374Y43088D01*
X149712Y43429D01*
X151000D01*
X151390Y43507D01*
X151721Y43728D01*
X154722Y46728D01*
X167248D01*
X167638Y46806D01*
X167969Y47027D01*
X180822Y59880D01*
X194451D01*
X194841Y59958D01*
X195172Y60179D01*
X198974Y63980D01*
X205000D01*
X205390Y64058D01*
X205721Y64279D01*
X208377Y66935D01*
X209099Y66636D01*
X210000Y66518D01*
X210901Y66636D01*
X211741Y66984D01*
X212462Y67537D01*
X213016Y68259D01*
X213364Y69099D01*
X213482Y70000D01*
X213364Y70901D01*
X213016Y71741D01*
X212462Y72462D01*
X211741Y73016D01*
X210901Y73364D01*
X210000Y73483D01*
D02*
G37*
G36*
X223921Y69500D02*
X220500D01*
Y66079D01*
X221032Y66149D01*
X221993Y66547D01*
X222819Y67181D01*
X223453Y68007D01*
X223851Y68968D01*
X223921Y69500D01*
D02*
G37*
G36*
X219500D02*
X216079D01*
X216149Y68968D01*
X216547Y68007D01*
X217181Y67181D01*
X218007Y66547D01*
X218968Y66149D01*
X219500Y66079D01*
Y69500D01*
D02*
G37*
G36*
X155012Y59368D02*
X152346D01*
Y56900D01*
X155012D01*
Y59368D01*
D02*
G37*
G36*
X151346D02*
X148681D01*
Y56900D01*
X151346D01*
Y59368D01*
D02*
G37*
G36*
X155012Y55900D02*
X152346D01*
Y53431D01*
X155012D01*
Y55900D01*
D02*
G37*
G36*
X151346D02*
X148681D01*
Y53431D01*
X151346D01*
Y55900D01*
D02*
G37*
G36*
X212819Y51468D02*
X210154D01*
Y49000D01*
X212819D01*
Y51468D01*
D02*
G37*
G36*
X209154D02*
X206488D01*
Y49000D01*
X209154D01*
Y51468D01*
D02*
G37*
G36*
X29421Y49500D02*
X26000D01*
Y46079D01*
X26532Y46149D01*
X27493Y46547D01*
X28319Y47181D01*
X28953Y48007D01*
X29351Y48968D01*
X29421Y49500D01*
D02*
G37*
G36*
X25000D02*
X21579D01*
X21649Y48968D01*
X22047Y48007D01*
X22681Y47181D01*
X23507Y46547D01*
X24468Y46149D01*
X25000Y46079D01*
Y49500D01*
D02*
G37*
G36*
X212819Y48000D02*
X210154D01*
Y45531D01*
X212819D01*
Y48000D01*
D02*
G37*
G36*
X209154D02*
X206488D01*
Y45531D01*
X209154D01*
Y48000D01*
D02*
G37*
G36*
X65019Y47469D02*
X62354D01*
Y45000D01*
X65019D01*
Y47469D01*
D02*
G37*
G36*
X61354D02*
X58688D01*
Y45000D01*
X61354D01*
Y47469D01*
D02*
G37*
G36*
X198689Y44382D02*
X193689D01*
Y40382D01*
X198689D01*
Y44382D01*
D02*
G37*
G36*
X191981Y42319D02*
X190899D01*
X190492Y42238D01*
X190148Y42008D01*
X189918Y41663D01*
X189837Y41257D01*
Y38403D01*
X189918Y37996D01*
X190148Y37652D01*
X190492Y37422D01*
X190899Y37341D01*
X191981D01*
X192388Y37422D01*
X192732Y37652D01*
X192962Y37996D01*
X193043Y38403D01*
Y41257D01*
X192962Y41663D01*
X192732Y42008D01*
X192388Y42238D01*
X191981Y42319D01*
D02*
G37*
G36*
X170400Y42987D02*
X169653Y42889D01*
X168956Y42600D01*
X168359Y42141D01*
X167900Y41543D01*
X167612Y40847D01*
X167513Y40100D01*
X167612Y39353D01*
X167900Y38656D01*
X168359Y38059D01*
X168956Y37600D01*
X169653Y37312D01*
X170400Y37213D01*
X171147Y37312D01*
X171844Y37600D01*
X172441Y38059D01*
X172692Y38386D01*
X174031D01*
Y36796D01*
X178969D01*
Y38300D01*
X182377D01*
X182438Y37996D01*
X182668Y37652D01*
X183012Y37422D01*
X183419Y37341D01*
X184501D01*
X184907Y37422D01*
X185252Y37652D01*
X185482Y37996D01*
X185563Y38403D01*
Y41257D01*
X185482Y41663D01*
X185252Y42008D01*
X184907Y42238D01*
X184501Y42319D01*
X183419D01*
X183012Y42238D01*
X182668Y42008D01*
X182438Y41663D01*
X182377Y41359D01*
X178969D01*
Y42127D01*
X174031D01*
Y41444D01*
X172941D01*
X172900Y41543D01*
X172441Y42141D01*
X171844Y42600D01*
X171147Y42889D01*
X170400Y42987D01*
D02*
G37*
G36*
X71212Y46968D02*
X65881D01*
Y42031D01*
Y37132D01*
X71212D01*
Y42031D01*
Y46968D01*
D02*
G37*
G36*
X25500Y43483D02*
X24599Y43364D01*
X23759Y43016D01*
X23038Y42463D01*
X22484Y41741D01*
X22136Y40901D01*
X22017Y40000D01*
X22136Y39099D01*
X22484Y38259D01*
X23038Y37538D01*
X23759Y36984D01*
X24599Y36636D01*
X25500Y36518D01*
X26401Y36636D01*
X27241Y36984D01*
X27962Y37538D01*
X28516Y38259D01*
X28864Y39099D01*
X28982Y40000D01*
X28864Y40901D01*
X28516Y41741D01*
X27962Y42463D01*
X27241Y43016D01*
X26401Y43364D01*
X25500Y43483D01*
D02*
G37*
G36*
X179469Y35934D02*
X177000D01*
Y33268D01*
X179469D01*
Y35934D01*
D02*
G37*
G36*
X176000D02*
X173531D01*
Y33268D01*
X176000D01*
Y35934D01*
D02*
G37*
G36*
X179469Y32269D02*
X177000D01*
Y29603D01*
X179469D01*
Y32269D01*
D02*
G37*
G36*
X176000D02*
X173531D01*
Y29603D01*
X176000D01*
Y32269D01*
D02*
G37*
G36*
X188241Y32199D02*
X188200D01*
Y29200D01*
X187200D01*
Y32199D01*
X187159D01*
X186557Y32079D01*
X186047Y31738D01*
X185830Y31413D01*
X185292Y31365D01*
X185252Y31378D01*
X184907Y31608D01*
X184501Y31689D01*
X183419D01*
X183012Y31608D01*
X182668Y31378D01*
X182438Y31034D01*
X182357Y30627D01*
Y27773D01*
X182400Y27556D01*
X182089Y27056D01*
X179900D01*
X179517Y26898D01*
X179359Y26515D01*
Y21915D01*
X179517Y21532D01*
X179900Y21374D01*
X180565D01*
X180588Y20883D01*
X180588D01*
Y15947D01*
X181671D01*
Y13800D01*
X181787Y13215D01*
X182119Y12719D01*
X182615Y12387D01*
X183200Y12271D01*
X183785Y12387D01*
X184281Y12719D01*
X184613Y13215D01*
X184729Y13800D01*
Y15947D01*
X185919D01*
Y20883D01*
X185919D01*
X185942Y21374D01*
X186781D01*
Y18915D01*
X189946D01*
X193112D01*
Y21374D01*
X193500D01*
X193883Y21532D01*
X194041Y21915D01*
Y23225D01*
X194500D01*
X194988Y23323D01*
X195401Y23599D01*
X196901Y25099D01*
X197178Y25512D01*
X197198Y25618D01*
X198689D01*
Y29618D01*
X193689D01*
Y27583D01*
X193321Y27372D01*
X193017Y27640D01*
X193043Y27773D01*
Y30627D01*
X192962Y31034D01*
X192732Y31378D01*
X192388Y31608D01*
X191981Y31689D01*
X190899D01*
X190492Y31608D01*
X190148Y31378D01*
X190108Y31365D01*
X189570Y31413D01*
X189353Y31738D01*
X188843Y32079D01*
X188241Y32199D01*
D02*
G37*
G36*
X160346Y31468D02*
X157681D01*
Y29000D01*
X160346D01*
Y31468D01*
D02*
G37*
G36*
X25500Y33483D02*
X24599Y33364D01*
X23759Y33016D01*
X23038Y32462D01*
X22484Y31741D01*
X22136Y30901D01*
X22017Y30000D01*
X22136Y29099D01*
X22484Y28259D01*
X23038Y27538D01*
X23759Y26984D01*
X24599Y26636D01*
X25500Y26518D01*
X26401Y26636D01*
X27241Y26984D01*
X27962Y27538D01*
X28516Y28259D01*
X28864Y29099D01*
X28982Y30000D01*
X28864Y30901D01*
X28516Y31741D01*
X27962Y32462D01*
X27241Y33016D01*
X26401Y33364D01*
X25500Y33483D01*
D02*
G37*
G36*
X160346Y28000D02*
X157681D01*
Y25532D01*
X160346D01*
Y28000D01*
D02*
G37*
G36*
Y24369D02*
X157681D01*
Y21900D01*
X160346D01*
Y24369D01*
D02*
G37*
G36*
X219012Y50968D02*
X213681D01*
Y46031D01*
X215480D01*
Y45500D01*
X215558Y45110D01*
X215779Y44779D01*
X217311Y43247D01*
Y41753D01*
X215626Y40067D01*
X215405Y39737D01*
X215327Y39347D01*
Y23968D01*
X213681D01*
Y19031D01*
X219012D01*
Y23968D01*
X217366D01*
Y25618D01*
X222311D01*
Y29618D01*
X217366D01*
Y38924D01*
X218824Y40382D01*
X222311D01*
Y44382D01*
X219060D01*
X217910Y45531D01*
X218117Y46031D01*
X219012D01*
Y50968D01*
D02*
G37*
G36*
X160346Y20900D02*
X157681D01*
Y18431D01*
X160346D01*
Y20900D01*
D02*
G37*
G36*
X156819Y23868D02*
X151488D01*
Y18932D01*
X151924D01*
Y18046D01*
X152041Y17461D01*
X152372Y16965D01*
X152868Y16634D01*
X153454Y16517D01*
X154039Y16634D01*
X154535Y16965D01*
X154867Y17461D01*
X154983Y18046D01*
Y18932D01*
X156819D01*
Y23868D01*
D02*
G37*
G36*
X193112Y17915D02*
X190446D01*
Y15447D01*
X193112D01*
Y17915D01*
D02*
G37*
G36*
X189446D02*
X186781D01*
Y15447D01*
X189446D01*
Y17915D01*
D02*
G37*
G36*
X220000Y3483D02*
X219099Y3364D01*
X218259Y3016D01*
X217537Y2462D01*
X216984Y1741D01*
X216636Y901D01*
X216517Y0D01*
X216636Y-901D01*
X216984Y-1741D01*
X217537Y-2462D01*
X218259Y-3016D01*
X219099Y-3364D01*
X220000Y-3483D01*
X220901Y-3364D01*
X221741Y-3016D01*
X222463Y-2462D01*
X223016Y-1741D01*
X223364Y-901D01*
X223482Y0D01*
X223364Y901D01*
X223016Y1741D01*
X222463Y2462D01*
X221741Y3016D01*
X220901Y3364D01*
X220000Y3483D01*
D02*
G37*
G36*
X210000D02*
X209099Y3364D01*
X208259Y3016D01*
X207538Y2462D01*
X206984Y1741D01*
X206636Y901D01*
X206518Y0D01*
X206636Y-901D01*
X206984Y-1741D01*
X207538Y-2462D01*
X208259Y-3016D01*
X209099Y-3364D01*
X210000Y-3483D01*
X210901Y-3364D01*
X211741Y-3016D01*
X212462Y-2462D01*
X213016Y-1741D01*
X213364Y-901D01*
X213482Y0D01*
X213364Y901D01*
X213016Y1741D01*
X212462Y2462D01*
X211741Y3016D01*
X210901Y3364D01*
X210000Y3483D01*
D02*
G37*
%LPD*%
G36*
X140500Y29391D02*
X140363Y28701D01*
X140500Y28011D01*
Y21692D01*
X137644Y18835D01*
X126607D01*
X124721Y20721D01*
X124390Y20942D01*
X124000Y21020D01*
X115500D01*
X115110Y20942D01*
X114779Y20721D01*
X113078Y19020D01*
X106129D01*
X106000Y18994D01*
X105500Y19338D01*
Y31161D01*
X105637Y31850D01*
X105500Y32540D01*
X105500Y52500D01*
X134909D01*
X135598Y52363D01*
X136288Y52500D01*
X140500D01*
X140500Y29391D01*
D02*
G37*
D13*
X167248Y47748D02*
X180400Y60900D01*
X145441Y44449D02*
X151000D01*
X154299Y47748D02*
X167248D01*
X165748Y50748D02*
X180000Y65000D01*
X145441Y50748D02*
X165748D01*
X151000Y44449D02*
X154299Y47748D01*
X166369Y49248D02*
X180121Y63000D01*
X145441Y47598D02*
X151200D01*
X152850Y49248D02*
X166369D01*
X151200Y47598D02*
X152850Y49248D01*
X68546Y39600D02*
Y44500D01*
X108624Y7524D02*
X110216Y9116D01*
X134653Y62500D02*
X162500D01*
X132634Y60481D02*
X134653Y62500D01*
X132634Y57626D02*
Y60481D01*
X129299Y57441D02*
Y60664D01*
Y57244D02*
Y57441D01*
X132806Y62973D02*
X133833Y64000D01*
X129600Y60965D02*
Y61600D01*
X129299Y60664D02*
X129600Y60965D01*
Y61600D02*
X130973Y62973D01*
X132806D01*
X126150Y57441D02*
Y60650D01*
Y57244D02*
Y57441D01*
X129973Y64473D02*
X132184D01*
X126150Y60650D02*
X129973Y64473D01*
X105476Y7524D02*
X108624D01*
X104000Y9000D02*
X105476Y7524D01*
X110324Y6024D02*
X113366Y9066D01*
X56024Y6024D02*
X110324D01*
X50000Y0D02*
X56024Y6024D01*
X111145Y4524D02*
X114121Y7500D01*
X64524Y4524D02*
X111145D01*
X60000Y0D02*
X64524Y4524D01*
X138066Y17816D02*
X142652Y22402D01*
X126184Y17816D02*
X138066D01*
X124000Y20000D02*
X126184Y17816D01*
X128747Y66047D02*
X131637D01*
X132184Y64473D02*
X133211Y65500D01*
X145500D01*
X150000Y70000D01*
X131637Y66047D02*
X135547Y69957D01*
X139957D01*
X140000Y70000D01*
X133833Y64000D02*
X154000D01*
X123000Y60300D02*
X128747Y66047D01*
X123000Y57244D02*
Y60300D01*
X154000Y64000D02*
X160000Y70000D01*
X162500Y62500D02*
X170000Y70000D01*
X171000Y61000D02*
X180000Y70000D01*
X140457Y61000D02*
X171000D01*
X138748Y59291D02*
X140457Y61000D01*
X138748Y57244D02*
Y59291D01*
X161415Y41299D02*
X168800Y33914D01*
Y17200D02*
Y33914D01*
Y17200D02*
X178500Y7500D01*
X160794Y39799D02*
X167300Y33293D01*
Y15700D02*
Y33293D01*
Y15700D02*
X177150Y5850D01*
X160172Y38299D02*
X165800Y32672D01*
Y14300D02*
Y32672D01*
Y14300D02*
X180000Y100D01*
X159750Y36600D02*
X164300Y32050D01*
Y5700D02*
Y32050D01*
Y5700D02*
X170000Y0D01*
X153700Y36600D02*
X159750D01*
X152899Y38299D02*
X160172D01*
X148950Y31850D02*
X153700Y36600D01*
X149600Y35000D02*
X152899Y38299D01*
X145441Y35000D02*
X149600D01*
X145441Y38150D02*
X150100D01*
X151750Y39799D02*
X160794D01*
X150100Y38150D02*
X151750Y39799D01*
X145441Y31850D02*
X148950D01*
X120000Y8800D02*
Y12410D01*
X118700Y7500D02*
X120000Y8800D01*
X114121Y7500D02*
X118700D01*
X113366Y9066D02*
Y12374D01*
X110216Y9116D02*
Y12374D01*
X115500Y20000D02*
X124000D01*
X113500Y18000D02*
X115500Y20000D01*
X106129Y18000D02*
X113500D01*
X138748Y12559D02*
X140941D01*
X150000Y0D02*
Y3500D01*
X140941Y12559D02*
X150000Y3500D01*
X97201Y28701D02*
X100559D01*
X94000Y25500D02*
X97201Y28701D01*
X59500Y25500D02*
X94000D01*
X97051Y25551D02*
X100756D01*
X95500Y24000D02*
X97051Y25551D01*
X29500Y24000D02*
X95500D01*
X96000Y17000D02*
X105129D01*
X95248Y17752D02*
X96000Y17000D01*
X37748Y17752D02*
X95248D01*
X96748Y19252D02*
X100559D01*
X96000Y20000D02*
X96748Y19252D01*
X39500Y20000D02*
X96000D01*
X105129Y17000D02*
X106129Y18000D01*
X129299Y9299D02*
Y12559D01*
X120000Y0D02*
X129299Y9299D01*
X125964Y12744D02*
X126051Y12657D01*
X126051D02*
X126150Y12559D01*
X125927Y8927D02*
Y12533D01*
X123000Y6000D02*
X125927Y8927D01*
X116121Y6000D02*
X123000D01*
X126051Y12657D02*
X126150Y12756D01*
X125927Y12533D02*
X126051Y12657D01*
X110121Y0D02*
X116121Y6000D01*
X216500Y45500D02*
X219500Y42500D01*
X216500Y45500D02*
Y48346D01*
X216347Y48500D02*
X216500Y48346D01*
X216347Y39347D02*
X219500Y42500D01*
X216347Y21500D02*
Y39347D01*
X205000Y21000D02*
X208653D01*
X209154Y21500D01*
X200000Y16000D02*
X205000Y21000D01*
X200000Y0D02*
Y16000D01*
X185500Y7500D02*
X188000Y5000D01*
X178500Y7500D02*
X185500D01*
X180400Y60900D02*
X194451D01*
X180121Y63000D02*
X193000D01*
X145441Y41299D02*
X161415D01*
X30700Y54300D02*
X59500Y25500D01*
X85200Y37100D02*
X91200D01*
X40000Y69000D02*
X49850Y59150D01*
X63150D02*
X85200Y37100D01*
X49850Y59150D02*
X63150D01*
X88200Y39900D02*
X91250D01*
X50000Y66400D02*
X54400Y62000D01*
X66100D02*
X88200Y39900D01*
X54400Y62000D02*
X66100D01*
X60000Y66600D02*
X61750Y64850D01*
X88251Y44449D02*
X100559D01*
X67850Y64850D02*
X88251Y44449D01*
X61750Y64850D02*
X67850D01*
X21000Y54300D02*
X30700D01*
X19100Y56200D02*
X21000Y54300D01*
X19100Y56200D02*
Y67000D01*
X22100Y70000D01*
X30000D01*
X37902Y22402D02*
X100559D01*
X25500Y10000D02*
X37902Y22402D01*
X25500Y20000D02*
X29500Y24000D01*
X160000Y28654D02*
X160047Y28700D01*
X49000Y9000D02*
X104000D01*
X40000Y0D02*
X49000Y9000D01*
X142652Y22402D02*
X145244D01*
X145626Y25736D02*
X145763Y25600D01*
X145390Y25500D02*
X145626Y25736D01*
X126051Y12657D02*
X126051D01*
X125927Y12707D02*
X125964Y12744D01*
X110000Y0D02*
X110121D01*
X122906Y12654D02*
X123000Y12559D01*
X91250Y39900D02*
X93000Y38150D01*
X91200Y37100D02*
X93300Y35000D01*
X100559D01*
X93000Y38150D02*
X100559D01*
X50000Y66400D02*
Y70000D01*
X60000Y66600D02*
Y70000D01*
X70000Y66500D02*
Y70000D01*
Y66500D02*
X88902Y47598D01*
X100559D01*
X80000Y66300D02*
Y70000D01*
Y66300D02*
X95552Y50748D01*
X100559D01*
X119850Y62226D02*
X121624Y64000D01*
X123637D01*
X129637Y70000D01*
X119850Y57441D02*
Y62226D01*
X145441Y14559D02*
Y19252D01*
Y14559D02*
X160000Y0D01*
Y-1000D02*
Y0D01*
X177150Y5850D02*
X184150D01*
X40000Y69000D02*
Y70000D01*
X184150Y5850D02*
X190000Y0D01*
X180000D02*
Y100D01*
X194451Y60900D02*
X198551Y65000D01*
X205000D01*
X210000Y70000D01*
X193000Y63000D02*
X200000Y70000D01*
X180000Y65000D02*
X184000D01*
X189000Y70000D01*
X195000Y5000D02*
X200000Y0D01*
X188000Y5000D02*
X195000D01*
X189000Y70000D02*
X190000D01*
X132449Y57441D02*
X132634Y57626D01*
X129637Y70000D02*
X130000D01*
X90000Y64000D02*
Y70000D01*
Y64000D02*
X96559Y57441D01*
X107252D01*
X100000Y70000D02*
X105000Y65000D01*
X109000D01*
X110402Y63598D01*
Y57441D02*
Y63598D01*
X110000Y70000D02*
X113551Y66449D01*
Y57441D02*
Y66449D01*
X116701Y66701D02*
X120000Y70000D01*
X116701Y57441D02*
Y66701D01*
X110216Y12374D02*
X110402Y12559D01*
X30000Y0D02*
X42559Y12559D01*
X107252D01*
X119850D02*
X120000Y12410D01*
X113366Y12374D02*
X113551Y12559D01*
X132449Y449D02*
Y12559D01*
X132000Y0D02*
X132449Y449D01*
X135598Y4402D02*
X140000Y0D01*
X135598Y4402D02*
Y12559D01*
D15*
X183200Y13800D02*
Y18415D01*
Y23400D01*
X153454Y18046D02*
Y21600D01*
X187700Y29200D02*
Y33915D01*
X172300Y39915D02*
X176440D01*
X176525Y39830D02*
X183960D01*
X176440Y39915D02*
X176525Y39830D01*
D28*
X176500Y32768D02*
D03*
Y39461D02*
D03*
D29*
X189946Y18415D02*
D03*
X183254D02*
D03*
X61853Y39600D02*
D03*
X68546D02*
D03*
X61853Y44500D02*
D03*
X68546D02*
D03*
X154154Y21400D02*
D03*
X160846D02*
D03*
X216347Y48500D02*
D03*
X209653D02*
D03*
X216347Y21500D02*
D03*
X209653D02*
D03*
X151847Y56400D02*
D03*
X145153D02*
D03*
X160846Y28500D02*
D03*
X154154D02*
D03*
X84835Y29500D02*
D03*
X91528D02*
D03*
D30*
X100559Y50748D02*
D03*
Y47598D02*
D03*
Y44449D02*
D03*
Y41299D02*
D03*
Y38150D02*
D03*
Y35000D02*
D03*
Y31850D02*
D03*
Y28701D02*
D03*
Y25551D02*
D03*
Y22402D02*
D03*
Y19252D02*
D03*
X145441D02*
D03*
Y22402D02*
D03*
Y25551D02*
D03*
Y28701D02*
D03*
Y31850D02*
D03*
Y35000D02*
D03*
Y38150D02*
D03*
Y41299D02*
D03*
Y44449D02*
D03*
Y47598D02*
D03*
Y50748D02*
D03*
D31*
X107252Y12559D02*
D03*
X110402D02*
D03*
X113551D02*
D03*
X116701D02*
D03*
X119850D02*
D03*
X123000D02*
D03*
X126150D02*
D03*
X129299D02*
D03*
X132449D02*
D03*
X135598D02*
D03*
X138748D02*
D03*
Y57441D02*
D03*
X135598D02*
D03*
X132449D02*
D03*
X129299D02*
D03*
X126150D02*
D03*
X123000D02*
D03*
X119850D02*
D03*
X116701D02*
D03*
X113551D02*
D03*
X110402D02*
D03*
X107252D02*
D03*
D32*
X183960Y29200D02*
D03*
X187700D02*
D03*
X191440D02*
D03*
X183960Y39830D02*
D03*
X191440D02*
D03*
D33*
X196189Y27618D02*
D03*
Y42382D02*
D03*
X219811D02*
D03*
Y27618D02*
D03*
D34*
X65842Y33000D02*
X87831D01*
X54400Y39600D02*
X61853D01*
Y36988D02*
X65842Y33000D01*
X61853Y36988D02*
Y39600D01*
X100559Y31850D02*
X108450D01*
X136600Y28701D02*
X154646D01*
X95811Y31850D02*
X100559D01*
X191440Y24215D02*
Y29200D01*
X196000Y27000D02*
X196500Y27500D01*
X139500Y51600D02*
X143900Y56000D01*
X94900Y41299D02*
X100559D01*
X94461Y30500D02*
X95811Y31850D01*
X92528Y30500D02*
X94461D01*
X91528Y29500D02*
X92528Y30500D01*
X87831Y33000D02*
X91331Y29500D01*
X91528D01*
X196000Y26000D02*
Y27000D01*
X194500Y24500D02*
X196000Y26000D01*
X191985Y24500D02*
X194500D01*
X191800Y24315D02*
X191985Y24500D01*
X182660Y24555D02*
X182700Y24515D01*
X183960Y24555D02*
Y29200D01*
X34000Y60000D02*
X54400Y39600D01*
X25500Y60000D02*
X34000D01*
X145763Y25600D02*
X149800D01*
X116701Y12756D02*
Y18000D01*
X123000Y12756D02*
Y18000D01*
X135598Y50602D02*
Y57244D01*
X220000Y0D02*
X220200Y200D01*
D35*
X186700Y24215D02*
D03*
D36*
X170400Y40100D02*
D03*
D37*
X130000Y70000D02*
D03*
X220000D02*
D03*
X210000D02*
D03*
X200000D02*
D03*
X190000D02*
D03*
X180000D02*
D03*
X170000D02*
D03*
X160000D02*
D03*
X150000D02*
D03*
X140000D02*
D03*
X30000D02*
D03*
X120000D02*
D03*
X110000D02*
D03*
X100000D02*
D03*
X90000D02*
D03*
X80000D02*
D03*
X70000D02*
D03*
X60000D02*
D03*
X50000D02*
D03*
X40000D02*
D03*
X210000Y0D02*
D03*
X200000D02*
D03*
X190000D02*
D03*
X180000D02*
D03*
X170000D02*
D03*
X160000D02*
D03*
X150000D02*
D03*
X140000D02*
D03*
X130000D02*
D03*
X220000D02*
D03*
X110000D02*
D03*
X100000D02*
D03*
X90000D02*
D03*
X80000D02*
D03*
X70000D02*
D03*
X60000D02*
D03*
X50000D02*
D03*
X40000D02*
D03*
X120000D02*
D03*
X25500Y50000D02*
D03*
Y40000D02*
D03*
Y30000D02*
D03*
Y20000D02*
D03*
Y10000D02*
D03*
D38*
X30000Y0D02*
D03*
D39*
X25500Y60000D02*
D03*
D40*
X181800Y24500D02*
D03*
X191700D02*
D03*
X154700Y44000D02*
D03*
X169200Y46700D02*
D03*
X171500Y34700D02*
D03*
X195000Y16800D02*
D03*
X183200Y13800D02*
D03*
X186500Y24500D02*
D03*
X150600Y25600D02*
D03*
X135400Y19900D02*
D03*
X156300Y56200D02*
D03*
X142500Y16400D02*
D03*
X154200Y25000D02*
D03*
X154900Y33800D02*
D03*
X158900D02*
D03*
X85400Y39800D02*
D03*
X54300Y26500D02*
D03*
X166700Y9300D02*
D03*
X139800Y5700D02*
D03*
X91500Y15000D02*
D03*
X103500Y60500D02*
D03*
X103100Y54500D02*
D03*
X89500Y51500D02*
D03*
X90500Y34000D02*
D03*
X197700Y23300D02*
D03*
X204000Y17000D02*
D03*
X180500Y10500D02*
D03*
X185500D02*
D03*
X190500D02*
D03*
X160900Y56300D02*
D03*
X165500Y42500D02*
D03*
X172500Y50000D02*
D03*
X177500Y55000D02*
D03*
X173000Y18200D02*
D03*
X175400Y27500D02*
D03*
X195500Y35000D02*
D03*
X205200Y32600D02*
D03*
X210200D02*
D03*
Y37600D02*
D03*
X205200D02*
D03*
X204600Y7700D02*
D03*
X195600Y7600D02*
D03*
X202500Y55000D02*
D03*
X197500D02*
D03*
X192500D02*
D03*
X187500D02*
D03*
X182500Y55100D02*
D03*
X197700Y19300D02*
D03*
X186700Y38715D02*
D03*
X188700Y40715D02*
D03*
X182500Y35715D02*
D03*
X186500D02*
D03*
X190500D02*
D03*
X192500Y33715D02*
D03*
X188500D02*
D03*
X184500D02*
D03*
X39500Y20000D02*
D03*
X37748Y17752D02*
D03*
X153454Y18046D02*
D03*
X157500Y17500D02*
D03*
X161000D02*
D03*
X160800Y24900D02*
D03*
X116701Y18000D02*
D03*
X123000D02*
D03*
X80358Y29500D02*
D03*
X94900Y41200D02*
D03*
X161000Y9000D02*
D03*
M02*
