G04*
G04 #@! TF.GenerationSoftware,Altium Limited,Altium Designer,19.1.8 (144)*
G04*
G04 Layer_Physical_Order=2*
G04 Layer_Color=16711680*
%FSLAX25Y25*%
%MOIN*%
G70*
G01*
G75*
%ADD10C,0.01000*%
%ADD16C,0.02000*%
%ADD41C,0.01500*%
%ADD43R,0.04724X0.04724*%
%ADD44C,0.04724*%
%ADD45R,0.05906X0.05906*%
%ADD46C,0.05906*%
%ADD47R,0.05906X0.05906*%
%ADD48C,0.01968*%
%ADD49R,0.17600X0.11800*%
G36*
X226000Y-3980D02*
X-6880Y-3980D01*
Y73980D01*
X217974Y73980D01*
X218073Y73480D01*
X218007Y73453D01*
X217181Y72819D01*
X216547Y71993D01*
X216149Y71032D01*
X216079Y70500D01*
X220000D01*
X223921D01*
X223851Y71032D01*
X223453Y71993D01*
X222819Y72819D01*
X221993Y73453D01*
X221927Y73480D01*
X222026Y73980D01*
X226000D01*
Y-3980D01*
D02*
G37*
%LPC*%
G36*
X210000Y73483D02*
X209099Y73364D01*
X208259Y73016D01*
X207538Y72462D01*
X206984Y71741D01*
X206636Y70901D01*
X206518Y70000D01*
X206636Y69099D01*
X206984Y68259D01*
X207538Y67537D01*
X208259Y66984D01*
X209099Y66636D01*
X210000Y66518D01*
X210901Y66636D01*
X211741Y66984D01*
X212462Y67537D01*
X213016Y68259D01*
X213364Y69099D01*
X213482Y70000D01*
X213364Y70901D01*
X213016Y71741D01*
X212462Y72462D01*
X211741Y73016D01*
X210901Y73364D01*
X210000Y73483D01*
D02*
G37*
G36*
X200000D02*
X199099Y73364D01*
X198259Y73016D01*
X197538Y72462D01*
X196984Y71741D01*
X196636Y70901D01*
X196518Y70000D01*
X196636Y69099D01*
X196984Y68259D01*
X197538Y67537D01*
X198259Y66984D01*
X199099Y66636D01*
X200000Y66518D01*
X200901Y66636D01*
X201741Y66984D01*
X202463Y67537D01*
X203016Y68259D01*
X203364Y69099D01*
X203483Y70000D01*
X203364Y70901D01*
X203016Y71741D01*
X202463Y72462D01*
X201741Y73016D01*
X200901Y73364D01*
X200000Y73483D01*
D02*
G37*
G36*
X190000D02*
X189099Y73364D01*
X188259Y73016D01*
X187538Y72462D01*
X186984Y71741D01*
X186636Y70901D01*
X186518Y70000D01*
X186636Y69099D01*
X186984Y68259D01*
X187538Y67537D01*
X188259Y66984D01*
X189099Y66636D01*
X190000Y66518D01*
X190901Y66636D01*
X191741Y66984D01*
X192463Y67537D01*
X193016Y68259D01*
X193364Y69099D01*
X193482Y70000D01*
X193364Y70901D01*
X193016Y71741D01*
X192463Y72462D01*
X191741Y73016D01*
X190901Y73364D01*
X190000Y73483D01*
D02*
G37*
G36*
X180000D02*
X179099Y73364D01*
X178259Y73016D01*
X177538Y72462D01*
X176984Y71741D01*
X176636Y70901D01*
X176517Y70000D01*
X176636Y69099D01*
X176984Y68259D01*
X177538Y67537D01*
X178259Y66984D01*
X179099Y66636D01*
X180000Y66518D01*
X180901Y66636D01*
X181741Y66984D01*
X182463Y67537D01*
X183016Y68259D01*
X183364Y69099D01*
X183483Y70000D01*
X183364Y70901D01*
X183016Y71741D01*
X182463Y72462D01*
X181741Y73016D01*
X180901Y73364D01*
X180000Y73483D01*
D02*
G37*
G36*
X170000D02*
X169099Y73364D01*
X168259Y73016D01*
X167537Y72462D01*
X166984Y71741D01*
X166636Y70901D01*
X166517Y70000D01*
X166636Y69099D01*
X166984Y68259D01*
X167537Y67537D01*
X168259Y66984D01*
X169099Y66636D01*
X170000Y66518D01*
X170901Y66636D01*
X171741Y66984D01*
X172462Y67537D01*
X173016Y68259D01*
X173364Y69099D01*
X173483Y70000D01*
X173364Y70901D01*
X173016Y71741D01*
X172462Y72462D01*
X171741Y73016D01*
X170901Y73364D01*
X170000Y73483D01*
D02*
G37*
G36*
X160000D02*
X159099Y73364D01*
X158259Y73016D01*
X157537Y72462D01*
X156984Y71741D01*
X156636Y70901D01*
X156518Y70000D01*
X156636Y69099D01*
X156984Y68259D01*
X157537Y67537D01*
X158259Y66984D01*
X159099Y66636D01*
X160000Y66518D01*
X160901Y66636D01*
X161741Y66984D01*
X162462Y67537D01*
X163016Y68259D01*
X163364Y69099D01*
X163482Y70000D01*
X163364Y70901D01*
X163016Y71741D01*
X162462Y72462D01*
X161741Y73016D01*
X160901Y73364D01*
X160000Y73483D01*
D02*
G37*
G36*
X150000D02*
X149099Y73364D01*
X148259Y73016D01*
X147538Y72462D01*
X146984Y71741D01*
X146636Y70901D01*
X146518Y70000D01*
X146636Y69099D01*
X146984Y68259D01*
X147538Y67537D01*
X148259Y66984D01*
X149099Y66636D01*
X150000Y66518D01*
X150901Y66636D01*
X151741Y66984D01*
X152462Y67537D01*
X153016Y68259D01*
X153364Y69099D01*
X153482Y70000D01*
X153364Y70901D01*
X153016Y71741D01*
X152462Y72462D01*
X151741Y73016D01*
X150901Y73364D01*
X150000Y73483D01*
D02*
G37*
G36*
X140000D02*
X139099Y73364D01*
X138259Y73016D01*
X137538Y72462D01*
X136984Y71741D01*
X136636Y70901D01*
X136518Y70000D01*
X136636Y69099D01*
X136984Y68259D01*
X137538Y67537D01*
X138259Y66984D01*
X139099Y66636D01*
X140000Y66518D01*
X140901Y66636D01*
X141741Y66984D01*
X142463Y67537D01*
X143016Y68259D01*
X143364Y69099D01*
X143482Y70000D01*
X143364Y70901D01*
X143016Y71741D01*
X142463Y72462D01*
X141741Y73016D01*
X140901Y73364D01*
X140000Y73483D01*
D02*
G37*
G36*
X130000D02*
X129099Y73364D01*
X128259Y73016D01*
X127538Y72462D01*
X126984Y71741D01*
X126636Y70901D01*
X126517Y70000D01*
X126636Y69099D01*
X126984Y68259D01*
X127538Y67537D01*
X128259Y66984D01*
X129099Y66636D01*
X130000Y66518D01*
X130901Y66636D01*
X131741Y66984D01*
X132463Y67537D01*
X133016Y68259D01*
X133364Y69099D01*
X133483Y70000D01*
X133364Y70901D01*
X133016Y71741D01*
X132463Y72462D01*
X131741Y73016D01*
X130901Y73364D01*
X130000Y73483D01*
D02*
G37*
G36*
X120000D02*
X119099Y73364D01*
X118259Y73016D01*
X117537Y72462D01*
X116984Y71741D01*
X116636Y70901D01*
X116517Y70000D01*
X116636Y69099D01*
X116984Y68259D01*
X117537Y67537D01*
X118259Y66984D01*
X119099Y66636D01*
X120000Y66518D01*
X120901Y66636D01*
X121741Y66984D01*
X122462Y67537D01*
X123016Y68259D01*
X123364Y69099D01*
X123483Y70000D01*
X123364Y70901D01*
X123016Y71741D01*
X122462Y72462D01*
X121741Y73016D01*
X120901Y73364D01*
X120000Y73483D01*
D02*
G37*
G36*
X110000D02*
X109099Y73364D01*
X108259Y73016D01*
X107537Y72462D01*
X106984Y71741D01*
X106636Y70901D01*
X106518Y70000D01*
X106636Y69099D01*
X106984Y68259D01*
X107537Y67537D01*
X108259Y66984D01*
X109099Y66636D01*
X110000Y66518D01*
X110901Y66636D01*
X111741Y66984D01*
X112462Y67537D01*
X113016Y68259D01*
X113364Y69099D01*
X113482Y70000D01*
X113364Y70901D01*
X113016Y71741D01*
X112462Y72462D01*
X111741Y73016D01*
X110901Y73364D01*
X110000Y73483D01*
D02*
G37*
G36*
X100000D02*
X99099Y73364D01*
X98259Y73016D01*
X97537Y72462D01*
X96984Y71741D01*
X96636Y70901D01*
X96517Y70000D01*
X96636Y69099D01*
X96984Y68259D01*
X97537Y67537D01*
X98259Y66984D01*
X99099Y66636D01*
X100000Y66518D01*
X100901Y66636D01*
X101741Y66984D01*
X102462Y67537D01*
X103016Y68259D01*
X103364Y69099D01*
X103482Y70000D01*
X103364Y70901D01*
X103016Y71741D01*
X102462Y72462D01*
X101741Y73016D01*
X100901Y73364D01*
X100000Y73483D01*
D02*
G37*
G36*
X90000D02*
X89099Y73364D01*
X88259Y73016D01*
X87537Y72462D01*
X86984Y71741D01*
X86636Y70901D01*
X86518Y70000D01*
X86636Y69099D01*
X86984Y68259D01*
X87537Y67537D01*
X88259Y66984D01*
X89099Y66636D01*
X90000Y66518D01*
X90901Y66636D01*
X91741Y66984D01*
X92462Y67537D01*
X93016Y68259D01*
X93364Y69099D01*
X93483Y70000D01*
X93364Y70901D01*
X93016Y71741D01*
X92462Y72462D01*
X91741Y73016D01*
X90901Y73364D01*
X90000Y73483D01*
D02*
G37*
G36*
X80000D02*
X79099Y73364D01*
X78259Y73016D01*
X77538Y72462D01*
X76984Y71741D01*
X76636Y70901D01*
X76517Y70000D01*
X76636Y69099D01*
X76984Y68259D01*
X77538Y67537D01*
X78259Y66984D01*
X79099Y66636D01*
X80000Y66518D01*
X80901Y66636D01*
X81741Y66984D01*
X82463Y67537D01*
X83016Y68259D01*
X83364Y69099D01*
X83482Y70000D01*
X83364Y70901D01*
X83016Y71741D01*
X82463Y72462D01*
X81741Y73016D01*
X80901Y73364D01*
X80000Y73483D01*
D02*
G37*
G36*
X70000D02*
X69099Y73364D01*
X68259Y73016D01*
X67537Y72462D01*
X66984Y71741D01*
X66636Y70901D01*
X66518Y70000D01*
X66636Y69099D01*
X66984Y68259D01*
X67537Y67537D01*
X68259Y66984D01*
X69099Y66636D01*
X70000Y66518D01*
X70901Y66636D01*
X71741Y66984D01*
X72462Y67537D01*
X73016Y68259D01*
X73364Y69099D01*
X73483Y70000D01*
X73364Y70901D01*
X73016Y71741D01*
X72462Y72462D01*
X71741Y73016D01*
X70901Y73364D01*
X70000Y73483D01*
D02*
G37*
G36*
X60000D02*
X59099Y73364D01*
X58259Y73016D01*
X57538Y72462D01*
X56984Y71741D01*
X56636Y70901D01*
X56517Y70000D01*
X56636Y69099D01*
X56984Y68259D01*
X57538Y67537D01*
X58259Y66984D01*
X59099Y66636D01*
X60000Y66518D01*
X60901Y66636D01*
X61741Y66984D01*
X62463Y67537D01*
X63016Y68259D01*
X63364Y69099D01*
X63482Y70000D01*
X63364Y70901D01*
X63016Y71741D01*
X62463Y72462D01*
X61741Y73016D01*
X60901Y73364D01*
X60000Y73483D01*
D02*
G37*
G36*
X50000D02*
X49099Y73364D01*
X48259Y73016D01*
X47537Y72462D01*
X46984Y71741D01*
X46636Y70901D01*
X46518Y70000D01*
X46636Y69099D01*
X46984Y68259D01*
X47537Y67537D01*
X48259Y66984D01*
X49099Y66636D01*
X50000Y66518D01*
X50901Y66636D01*
X51741Y66984D01*
X52463Y67537D01*
X53016Y68259D01*
X53364Y69099D01*
X53483Y70000D01*
X53364Y70901D01*
X53016Y71741D01*
X52463Y72462D01*
X51741Y73016D01*
X50901Y73364D01*
X50000Y73483D01*
D02*
G37*
G36*
X40000D02*
X39099Y73364D01*
X38259Y73016D01*
X37538Y72462D01*
X36984Y71741D01*
X36636Y70901D01*
X36518Y70000D01*
X36636Y69099D01*
X36984Y68259D01*
X37538Y67537D01*
X38259Y66984D01*
X39099Y66636D01*
X40000Y66518D01*
X40901Y66636D01*
X41741Y66984D01*
X42463Y67537D01*
X43016Y68259D01*
X43364Y69099D01*
X43483Y70000D01*
X43364Y70901D01*
X43016Y71741D01*
X42463Y72462D01*
X41741Y73016D01*
X40901Y73364D01*
X40000Y73483D01*
D02*
G37*
G36*
X30000D02*
X29099Y73364D01*
X28259Y73016D01*
X27538Y72462D01*
X26984Y71741D01*
X26636Y70901D01*
X26518Y70000D01*
X26636Y69099D01*
X26984Y68259D01*
X27538Y67537D01*
X28259Y66984D01*
X29099Y66636D01*
X30000Y66518D01*
X30901Y66636D01*
X31741Y66984D01*
X32462Y67537D01*
X33016Y68259D01*
X33364Y69099D01*
X33483Y70000D01*
X33364Y70901D01*
X33016Y71741D01*
X32462Y72462D01*
X31741Y73016D01*
X30901Y73364D01*
X30000Y73483D01*
D02*
G37*
G36*
X223921Y69500D02*
X220500D01*
Y66079D01*
X221032Y66149D01*
X221993Y66547D01*
X222819Y67181D01*
X223453Y68007D01*
X223851Y68968D01*
X223921Y69500D01*
D02*
G37*
G36*
X219500D02*
X216079D01*
X216149Y68968D01*
X216547Y68007D01*
X217181Y67181D01*
X218007Y66547D01*
X218968Y66149D01*
X219500Y66079D01*
Y69500D01*
D02*
G37*
G36*
X15400Y64875D02*
X-371D01*
X-859Y64777D01*
X-1273Y64501D01*
X-4651Y61123D01*
X-4927Y60709D01*
X-5024Y60221D01*
Y16154D01*
X-4927Y15666D01*
X-4651Y15253D01*
X-2477Y13079D01*
X-2464Y13043D01*
X-2334Y12901D01*
X-2232Y12770D01*
X-2143Y12631D01*
X-2065Y12484D01*
X-1998Y12327D01*
X-1943Y12160D01*
X-1899Y11981D01*
X-1867Y11791D01*
X-1847Y11589D01*
X-1840Y11358D01*
X-1814Y11299D01*
X-1726Y10631D01*
X-1437Y9934D01*
X-978Y9337D01*
X-381Y8878D01*
X316Y8589D01*
X1063Y8491D01*
X1810Y8589D01*
X2506Y8878D01*
X3104Y9337D01*
X3563Y9934D01*
X3852Y10631D01*
X3950Y11378D01*
X3852Y12125D01*
X3563Y12821D01*
X3104Y13419D01*
X2506Y13878D01*
X1810Y14166D01*
X1063Y14265D01*
X1058Y14264D01*
X1019Y14281D01*
X790Y14283D01*
X590Y14299D01*
X402Y14327D01*
X226Y14368D01*
X61Y14421D01*
X-94Y14485D01*
X-240Y14561D01*
X-378Y14649D01*
X-510Y14751D01*
X-651Y14881D01*
X-687Y14894D01*
X-2475Y16682D01*
Y59693D01*
X-1846Y60322D01*
X-1437Y60066D01*
X-1726Y59369D01*
X-1824Y58622D01*
X-1726Y57875D01*
X-1437Y57179D01*
X-978Y56581D01*
X-381Y56122D01*
X316Y55834D01*
X1063Y55735D01*
X1810Y55834D01*
X2506Y56122D01*
X3104Y56581D01*
X3563Y57179D01*
X3852Y57875D01*
X3950Y58622D01*
X3852Y59369D01*
X3563Y60066D01*
X3104Y60663D01*
X2506Y61122D01*
X1810Y61411D01*
X1063Y61509D01*
X316Y61411D01*
X-380Y61122D01*
X-637Y61532D01*
X157Y62326D01*
X7785D01*
X7885Y61826D01*
X7241Y61559D01*
X6539Y61020D01*
X6000Y60318D01*
X5661Y59500D01*
X5612Y59122D01*
X12262D01*
X12213Y59500D01*
X11874Y60318D01*
X11335Y61020D01*
X10633Y61559D01*
X9989Y61826D01*
X10088Y62326D01*
X14872D01*
X18099Y59099D01*
X18512Y58823D01*
X19000Y58726D01*
X21008D01*
X21045Y58709D01*
X21316Y58702D01*
X21536Y58683D01*
X21716Y58653D01*
X21855Y58616D01*
X21950Y58577D01*
X22003Y58545D01*
X22021Y58528D01*
X22024Y58525D01*
X22025Y58522D01*
X22033Y58443D01*
X22047Y58417D01*
Y56547D01*
X28953D01*
Y63453D01*
X22047D01*
Y61583D01*
X22033Y61557D01*
X22025Y61478D01*
X22024Y61475D01*
X22021Y61472D01*
X22003Y61455D01*
X21950Y61423D01*
X21855Y61384D01*
X21716Y61347D01*
X21536Y61317D01*
X21316Y61298D01*
X21045Y61291D01*
X21008Y61274D01*
X19528D01*
X16301Y64501D01*
X15888Y64777D01*
X15400Y64875D01*
D02*
G37*
G36*
X12262Y58122D02*
X9437D01*
Y55297D01*
X9815Y55346D01*
X10633Y55685D01*
X11335Y56224D01*
X11874Y56926D01*
X12213Y57744D01*
X12262Y58122D01*
D02*
G37*
G36*
X8437D02*
X5612D01*
X5661Y57744D01*
X6000Y56926D01*
X6539Y56224D01*
X7241Y55685D01*
X8059Y55346D01*
X8437Y55297D01*
Y58122D01*
D02*
G37*
G36*
X9437Y54073D02*
Y51248D01*
X12262D01*
X12213Y51626D01*
X11874Y52444D01*
X11335Y53146D01*
X10633Y53685D01*
X9815Y54024D01*
X9437Y54073D01*
D02*
G37*
G36*
X8437D02*
X8059Y54024D01*
X7241Y53685D01*
X6539Y53146D01*
X6000Y52444D01*
X5661Y51626D01*
X5612Y51248D01*
X8437D01*
Y54073D01*
D02*
G37*
G36*
X26000Y53921D02*
Y50500D01*
X29421D01*
X29351Y51032D01*
X28953Y51993D01*
X28319Y52819D01*
X27493Y53453D01*
X26532Y53851D01*
X26000Y53921D01*
D02*
G37*
G36*
X25000D02*
X24468Y53851D01*
X23507Y53453D01*
X22681Y52819D01*
X22047Y51993D01*
X21649Y51032D01*
X21579Y50500D01*
X25000D01*
Y53921D01*
D02*
G37*
G36*
X1063Y53635D02*
X316Y53537D01*
X-381Y53248D01*
X-978Y52789D01*
X-1437Y52192D01*
X-1726Y51495D01*
X-1824Y50748D01*
X-1726Y50001D01*
X-1437Y49305D01*
X-978Y48707D01*
X-381Y48248D01*
X316Y47960D01*
X1063Y47861D01*
X1810Y47960D01*
X2506Y48248D01*
X3104Y48707D01*
X3563Y49305D01*
X3852Y50001D01*
X3950Y50748D01*
X3852Y51495D01*
X3563Y52192D01*
X3104Y52789D01*
X2506Y53248D01*
X1810Y53537D01*
X1063Y53635D01*
D02*
G37*
G36*
X12262Y50248D02*
X9437D01*
Y47423D01*
X9815Y47472D01*
X10633Y47811D01*
X11335Y48350D01*
X11874Y49052D01*
X12213Y49870D01*
X12262Y50248D01*
D02*
G37*
G36*
X8437D02*
X5612D01*
X5661Y49870D01*
X6000Y49052D01*
X6539Y48350D01*
X7241Y47811D01*
X8059Y47472D01*
X8437Y47423D01*
Y50248D01*
D02*
G37*
G36*
X29421Y49500D02*
X26000D01*
Y46079D01*
X26532Y46149D01*
X27493Y46547D01*
X28319Y47181D01*
X28953Y48007D01*
X29351Y48968D01*
X29421Y49500D01*
D02*
G37*
G36*
X25000D02*
X21579D01*
X21649Y48968D01*
X22047Y48007D01*
X22681Y47181D01*
X23507Y46547D01*
X24468Y46149D01*
X25000Y46079D01*
Y49500D01*
D02*
G37*
G36*
X9437Y46199D02*
Y43374D01*
X12262D01*
X12213Y43752D01*
X11874Y44570D01*
X11335Y45272D01*
X10633Y45811D01*
X9815Y46150D01*
X9437Y46199D01*
D02*
G37*
G36*
X8437D02*
X8059Y46150D01*
X7241Y45811D01*
X6539Y45272D01*
X6000Y44570D01*
X5661Y43752D01*
X5612Y43374D01*
X8437D01*
Y46199D01*
D02*
G37*
G36*
X170400Y42987D02*
X169653Y42889D01*
X168956Y42600D01*
X168359Y42141D01*
X168264Y42017D01*
X168192Y41985D01*
X168088Y41873D01*
X167994Y41791D01*
X167890Y41717D01*
X167774Y41653D01*
X167645Y41596D01*
X167500Y41548D01*
X167341Y41509D01*
X167165Y41480D01*
X166973Y41462D01*
X166750Y41456D01*
X166735Y41449D01*
X166719Y41454D01*
X166700Y41444D01*
X152715D01*
X152130Y41328D01*
X151634Y40996D01*
X146119Y35481D01*
X145787Y34985D01*
X145671Y34400D01*
Y27352D01*
X145659Y27328D01*
X145641Y26981D01*
X145594Y26713D01*
X145521Y26496D01*
X145428Y26322D01*
X145315Y26185D01*
X145178Y26072D01*
X145005Y25979D01*
X144787Y25906D01*
X144519Y25859D01*
X144172Y25840D01*
X144148Y25829D01*
X123001D01*
X122415Y25713D01*
X121919Y25381D01*
X115619Y19081D01*
X115288Y18585D01*
X115171Y18000D01*
X115288Y17415D01*
X115619Y16919D01*
X116115Y16587D01*
X116701Y16471D01*
X117286Y16587D01*
X117782Y16919D01*
X123634Y22771D01*
X144741D01*
X144766Y22759D01*
X145140Y22746D01*
X145482Y22708D01*
X145810Y22645D01*
X146127Y22558D01*
X146432Y22446D01*
X146727Y22309D01*
X147013Y22147D01*
X147289Y21959D01*
X147557Y21745D01*
X147831Y21490D01*
X147857Y21480D01*
X152372Y16965D01*
X152868Y16634D01*
X153454Y16517D01*
X154039Y16634D01*
X154535Y16965D01*
X154867Y17461D01*
X154983Y18046D01*
X154867Y18632D01*
X154535Y19128D01*
X150020Y23643D01*
X150010Y23669D01*
X149755Y23943D01*
X149541Y24211D01*
X149353Y24487D01*
X149191Y24773D01*
X149054Y25068D01*
X148942Y25373D01*
X148855Y25690D01*
X148792Y26018D01*
X148754Y26360D01*
X148741Y26734D01*
X148729Y26759D01*
Y33766D01*
X153349Y38386D01*
X166900D01*
X166926Y38374D01*
X167151Y38368D01*
X167350Y38353D01*
X167535Y38327D01*
X167708Y38293D01*
X167867Y38249D01*
X168014Y38197D01*
X168149Y38137D01*
X168273Y38070D01*
X168387Y37995D01*
X168511Y37896D01*
X168606Y37868D01*
X168956Y37600D01*
X169653Y37312D01*
X170400Y37213D01*
X171147Y37312D01*
X171844Y37600D01*
X172441Y38059D01*
X172900Y38656D01*
X173188Y39353D01*
X173287Y40100D01*
X173188Y40847D01*
X172900Y41543D01*
X172441Y42141D01*
X171844Y42600D01*
X171147Y42889D01*
X170400Y42987D01*
D02*
G37*
G36*
X1063Y45761D02*
X316Y45663D01*
X-381Y45374D01*
X-978Y44915D01*
X-1437Y44317D01*
X-1726Y43621D01*
X-1824Y42874D01*
X-1726Y42127D01*
X-1437Y41431D01*
X-978Y40833D01*
X-381Y40374D01*
X316Y40086D01*
X1063Y39987D01*
X1810Y40086D01*
X2506Y40374D01*
X3104Y40833D01*
X3563Y41431D01*
X3852Y42127D01*
X3950Y42874D01*
X3852Y43621D01*
X3563Y44317D01*
X3104Y44915D01*
X2506Y45374D01*
X1810Y45663D01*
X1063Y45761D01*
D02*
G37*
G36*
X12262Y42374D02*
X9437D01*
Y39549D01*
X9815Y39598D01*
X10633Y39937D01*
X11335Y40476D01*
X11874Y41178D01*
X12213Y41996D01*
X12262Y42374D01*
D02*
G37*
G36*
X8437D02*
X5612D01*
X5661Y41996D01*
X6000Y41178D01*
X6539Y40476D01*
X7241Y39937D01*
X8059Y39598D01*
X8437Y39549D01*
Y42374D01*
D02*
G37*
G36*
X9437Y38325D02*
Y35500D01*
X12262D01*
X12213Y35878D01*
X11874Y36696D01*
X11335Y37398D01*
X10633Y37937D01*
X9815Y38276D01*
X9437Y38325D01*
D02*
G37*
G36*
X8437D02*
X8059Y38276D01*
X7241Y37937D01*
X6539Y37398D01*
X6000Y36696D01*
X5661Y35878D01*
X5612Y35500D01*
X8437D01*
Y38325D01*
D02*
G37*
G36*
X1063Y37887D02*
X316Y37789D01*
X-381Y37500D01*
X-978Y37041D01*
X-1437Y36443D01*
X-1726Y35747D01*
X-1824Y35000D01*
X-1726Y34253D01*
X-1437Y33557D01*
X-978Y32959D01*
X-381Y32500D01*
X316Y32212D01*
X1063Y32113D01*
X1810Y32212D01*
X2506Y32500D01*
X3104Y32959D01*
X3563Y33557D01*
X3852Y34253D01*
X3950Y35000D01*
X3852Y35747D01*
X3563Y36443D01*
X3104Y37041D01*
X2506Y37500D01*
X1810Y37789D01*
X1063Y37887D01*
D02*
G37*
G36*
X12262Y34500D02*
X9437D01*
Y31675D01*
X9815Y31724D01*
X10633Y32063D01*
X11335Y32602D01*
X11874Y33304D01*
X12213Y34122D01*
X12262Y34500D01*
D02*
G37*
G36*
X8437D02*
X5612D01*
X5661Y34122D01*
X6000Y33304D01*
X6539Y32602D01*
X7241Y32063D01*
X8059Y31724D01*
X8437Y31675D01*
Y34500D01*
D02*
G37*
G36*
X9437Y30451D02*
Y27626D01*
X12262D01*
X12213Y28004D01*
X11874Y28822D01*
X11335Y29524D01*
X10633Y30063D01*
X9815Y30402D01*
X9437Y30451D01*
D02*
G37*
G36*
X8437D02*
X8059Y30402D01*
X7241Y30063D01*
X6539Y29524D01*
X6000Y28822D01*
X5661Y28004D01*
X5612Y27626D01*
X8437D01*
Y30451D01*
D02*
G37*
G36*
X1063Y30013D02*
X316Y29915D01*
X-381Y29626D01*
X-978Y29167D01*
X-1437Y28569D01*
X-1726Y27873D01*
X-1824Y27126D01*
X-1726Y26379D01*
X-1437Y25683D01*
X-978Y25085D01*
X-381Y24626D01*
X316Y24338D01*
X1063Y24239D01*
X1810Y24338D01*
X2506Y24626D01*
X3104Y25085D01*
X3563Y25683D01*
X3852Y26379D01*
X3950Y27126D01*
X3852Y27873D01*
X3563Y28569D01*
X3104Y29167D01*
X2506Y29626D01*
X1810Y29915D01*
X1063Y30013D01*
D02*
G37*
G36*
X12262Y26626D02*
X9437D01*
Y23801D01*
X9815Y23850D01*
X10633Y24189D01*
X11335Y24728D01*
X11874Y25430D01*
X12213Y26248D01*
X12262Y26626D01*
D02*
G37*
G36*
X8437D02*
X5612D01*
X5661Y26248D01*
X6000Y25430D01*
X6539Y24728D01*
X7241Y24189D01*
X8059Y23850D01*
X8437Y23801D01*
Y26626D01*
D02*
G37*
G36*
X9437Y22577D02*
Y19752D01*
X12262D01*
X12213Y20130D01*
X11874Y20948D01*
X11335Y21650D01*
X10633Y22189D01*
X9815Y22528D01*
X9437Y22577D01*
D02*
G37*
G36*
X8437D02*
X8059Y22528D01*
X7241Y22189D01*
X6539Y21650D01*
X6000Y20948D01*
X5661Y20130D01*
X5612Y19752D01*
X8437D01*
Y22577D01*
D02*
G37*
G36*
X25500Y43483D02*
X24599Y43364D01*
X23759Y43016D01*
X23038Y42463D01*
X22484Y41741D01*
X22136Y40901D01*
X22017Y40000D01*
X22136Y39099D01*
X22484Y38259D01*
X23038Y37538D01*
X23759Y36984D01*
X24599Y36636D01*
X25498Y36518D01*
X25526Y36506D01*
X25933Y36503D01*
X26658Y36454D01*
X26957Y36411D01*
X27230Y36355D01*
X27467Y36287D01*
X27669Y36211D01*
X27836Y36128D01*
X27970Y36041D01*
X28104Y35926D01*
X28146Y35912D01*
X29980Y34078D01*
Y28500D01*
X30058Y28110D01*
X30279Y27779D01*
X37715Y20343D01*
X37733Y20295D01*
X37861Y20157D01*
X37899Y20111D01*
X37916Y20086D01*
X37912Y19975D01*
X37873Y19788D01*
X37617Y19523D01*
X37470Y19503D01*
X37460Y19512D01*
X37410Y19532D01*
X29588Y27354D01*
X29574Y27397D01*
X29459Y27530D01*
X29372Y27663D01*
X29289Y27831D01*
X29213Y28033D01*
X29146Y28270D01*
X29089Y28543D01*
X29046Y28842D01*
X28997Y29567D01*
X28994Y29974D01*
X28982Y30002D01*
X28864Y30901D01*
X28516Y31741D01*
X27962Y32462D01*
X27241Y33016D01*
X26401Y33364D01*
X25500Y33483D01*
X24599Y33364D01*
X23759Y33016D01*
X23038Y32462D01*
X22484Y31741D01*
X22136Y30901D01*
X22017Y30000D01*
X22136Y29099D01*
X22484Y28259D01*
X23038Y27538D01*
X23759Y26984D01*
X24599Y26636D01*
X25498Y26518D01*
X25526Y26506D01*
X25933Y26503D01*
X26658Y26454D01*
X26957Y26411D01*
X27230Y26355D01*
X27467Y26287D01*
X27669Y26211D01*
X27836Y26128D01*
X27970Y26041D01*
X28104Y25926D01*
X28146Y25912D01*
X35963Y18095D01*
X35981Y18047D01*
X36109Y17910D01*
X36147Y17863D01*
X36179Y17819D01*
X36202Y17783D01*
X36216Y17756D01*
X36223Y17741D01*
X36224Y17728D01*
X36228Y17720D01*
X36230Y17711D01*
X36239Y17696D01*
X36250Y17674D01*
X36350Y17173D01*
X36678Y16682D01*
X37169Y16354D01*
X37748Y16239D01*
X38327Y16354D01*
X38818Y16682D01*
X39146Y17173D01*
X39261Y17752D01*
X39205Y18036D01*
X39486Y18465D01*
X39583Y18503D01*
X40079Y18602D01*
X40570Y18930D01*
X40898Y19421D01*
X41013Y20000D01*
X40898Y20579D01*
X40570Y21070D01*
X40079Y21398D01*
X39578Y21498D01*
X39555Y21509D01*
X39541Y21519D01*
X39532Y21520D01*
X39524Y21524D01*
X39511Y21525D01*
X39496Y21532D01*
X39469Y21546D01*
X39433Y21569D01*
X39394Y21598D01*
X39277Y21698D01*
X39212Y21760D01*
X39162Y21780D01*
X32020Y28922D01*
Y34500D01*
X31942Y34890D01*
X31721Y35221D01*
X29588Y37354D01*
X29574Y37396D01*
X29459Y37530D01*
X29372Y37663D01*
X29289Y37831D01*
X29213Y38033D01*
X29146Y38270D01*
X29089Y38543D01*
X29046Y38842D01*
X28997Y39567D01*
X28994Y39974D01*
X28982Y40002D01*
X28864Y40901D01*
X28516Y41741D01*
X27962Y42463D01*
X27241Y43016D01*
X26401Y43364D01*
X25500Y43483D01*
D02*
G37*
G36*
X195100Y30941D02*
X177500D01*
X177117Y30783D01*
X176959Y30400D01*
Y18600D01*
X177117Y18217D01*
X177500Y18059D01*
X195100D01*
X195483Y18217D01*
X195641Y18600D01*
Y30400D01*
X195483Y30783D01*
X195100Y30941D01*
D02*
G37*
G36*
X25500Y23483D02*
X24599Y23364D01*
X23759Y23016D01*
X23038Y22463D01*
X22484Y21741D01*
X22136Y20901D01*
X22017Y20000D01*
X22136Y19099D01*
X22484Y18259D01*
X23038Y17537D01*
X23759Y16984D01*
X24599Y16636D01*
X25500Y16518D01*
X26401Y16636D01*
X27241Y16984D01*
X27962Y17537D01*
X28516Y18259D01*
X28864Y19099D01*
X28982Y20000D01*
X28864Y20901D01*
X28516Y21741D01*
X27962Y22463D01*
X27241Y23016D01*
X26401Y23364D01*
X25500Y23483D01*
D02*
G37*
G36*
X1063Y22139D02*
X316Y22040D01*
X-381Y21752D01*
X-978Y21293D01*
X-1437Y20695D01*
X-1726Y19999D01*
X-1824Y19252D01*
X-1726Y18505D01*
X-1437Y17808D01*
X-978Y17211D01*
X-381Y16752D01*
X316Y16464D01*
X1063Y16365D01*
X1810Y16464D01*
X2506Y16752D01*
X3104Y17211D01*
X3563Y17808D01*
X3852Y18505D01*
X3950Y19252D01*
X3852Y19999D01*
X3563Y20695D01*
X3104Y21293D01*
X2506Y21752D01*
X1810Y22040D01*
X1063Y22139D01*
D02*
G37*
G36*
X12262Y18752D02*
X9437D01*
Y15927D01*
X9815Y15976D01*
X10633Y16315D01*
X11335Y16854D01*
X11874Y17556D01*
X12213Y18374D01*
X12262Y18752D01*
D02*
G37*
G36*
X8437D02*
X5612D01*
X5661Y18374D01*
X6000Y17556D01*
X6539Y16854D01*
X7241Y16315D01*
X8059Y15976D01*
X8437Y15927D01*
Y18752D01*
D02*
G37*
G36*
X11799Y14240D02*
X6075D01*
Y8516D01*
X11799D01*
Y14240D01*
D02*
G37*
G36*
X25500Y13483D02*
X24599Y13364D01*
X23759Y13016D01*
X23038Y12462D01*
X22484Y11741D01*
X22136Y10901D01*
X22017Y10000D01*
X22136Y9099D01*
X22484Y8259D01*
X23038Y7537D01*
X23759Y6984D01*
X24599Y6636D01*
X25500Y6517D01*
X26401Y6636D01*
X27241Y6984D01*
X27962Y7537D01*
X28516Y8259D01*
X28864Y9099D01*
X28982Y10000D01*
X28864Y10901D01*
X28516Y11741D01*
X27962Y12462D01*
X27241Y13016D01*
X26401Y13364D01*
X25500Y13483D01*
D02*
G37*
G36*
X33453Y3453D02*
X26547D01*
Y-3453D01*
X33453D01*
Y3453D01*
D02*
G37*
G36*
X135400Y21429D02*
X134815Y21313D01*
X134319Y20981D01*
X133987Y20485D01*
X133871Y19900D01*
X133987Y19315D01*
X134319Y18819D01*
X140419Y12719D01*
X140915Y12387D01*
X141500Y12271D01*
X205567D01*
X215669Y2168D01*
X215678Y2143D01*
X215851Y1956D01*
X215991Y1778D01*
X216113Y1593D01*
X216219Y1400D01*
X216308Y1199D01*
X216380Y988D01*
X216437Y767D01*
X216476Y535D01*
X216500Y291D01*
X216506Y17D01*
X216519Y-12D01*
X216636Y-901D01*
X216984Y-1741D01*
X217537Y-2462D01*
X218259Y-3016D01*
X219099Y-3364D01*
X220000Y-3483D01*
X220901Y-3364D01*
X221741Y-3016D01*
X222463Y-2462D01*
X223016Y-1741D01*
X223364Y-901D01*
X223482Y0D01*
X223364Y901D01*
X223016Y1741D01*
X222463Y2462D01*
X221741Y3016D01*
X220901Y3364D01*
X220012Y3481D01*
X219983Y3494D01*
X219709Y3500D01*
X219465Y3523D01*
X219233Y3563D01*
X219012Y3620D01*
X218801Y3692D01*
X218600Y3781D01*
X218407Y3887D01*
X218222Y4009D01*
X218044Y4149D01*
X217857Y4322D01*
X217832Y4331D01*
X207281Y14881D01*
X206785Y15213D01*
X206200Y15329D01*
X142133D01*
X136481Y20981D01*
X135985Y21313D01*
X135400Y21429D01*
D02*
G37*
G36*
X210000Y3483D02*
X209099Y3364D01*
X208259Y3016D01*
X207538Y2462D01*
X206984Y1741D01*
X206636Y901D01*
X206518Y0D01*
X206636Y-901D01*
X206984Y-1741D01*
X207538Y-2462D01*
X208259Y-3016D01*
X209099Y-3364D01*
X210000Y-3483D01*
X210901Y-3364D01*
X211741Y-3016D01*
X212462Y-2462D01*
X213016Y-1741D01*
X213364Y-901D01*
X213482Y0D01*
X213364Y901D01*
X213016Y1741D01*
X212462Y2462D01*
X211741Y3016D01*
X210901Y3364D01*
X210000Y3483D01*
D02*
G37*
G36*
X200000D02*
X199099Y3364D01*
X198259Y3016D01*
X197538Y2462D01*
X196984Y1741D01*
X196636Y901D01*
X196518Y0D01*
X196636Y-901D01*
X196984Y-1741D01*
X197538Y-2462D01*
X198259Y-3016D01*
X199099Y-3364D01*
X200000Y-3483D01*
X200901Y-3364D01*
X201741Y-3016D01*
X202463Y-2462D01*
X203016Y-1741D01*
X203364Y-901D01*
X203483Y0D01*
X203364Y901D01*
X203016Y1741D01*
X202463Y2462D01*
X201741Y3016D01*
X200901Y3364D01*
X200000Y3483D01*
D02*
G37*
G36*
X190000D02*
X189099Y3364D01*
X188259Y3016D01*
X187538Y2462D01*
X186984Y1741D01*
X186636Y901D01*
X186518Y0D01*
X186636Y-901D01*
X186984Y-1741D01*
X187538Y-2462D01*
X188259Y-3016D01*
X189099Y-3364D01*
X190000Y-3483D01*
X190901Y-3364D01*
X191741Y-3016D01*
X192463Y-2462D01*
X193016Y-1741D01*
X193364Y-901D01*
X193482Y0D01*
X193364Y901D01*
X193016Y1741D01*
X192463Y2462D01*
X191741Y3016D01*
X190901Y3364D01*
X190000Y3483D01*
D02*
G37*
G36*
X180000D02*
X179099Y3364D01*
X178259Y3016D01*
X177538Y2462D01*
X176984Y1741D01*
X176636Y901D01*
X176517Y0D01*
X176636Y-901D01*
X176984Y-1741D01*
X177538Y-2462D01*
X178259Y-3016D01*
X179099Y-3364D01*
X180000Y-3483D01*
X180901Y-3364D01*
X181741Y-3016D01*
X182463Y-2462D01*
X183016Y-1741D01*
X183364Y-901D01*
X183483Y0D01*
X183364Y901D01*
X183016Y1741D01*
X182463Y2462D01*
X181741Y3016D01*
X180901Y3364D01*
X180000Y3483D01*
D02*
G37*
G36*
X170000D02*
X169099Y3364D01*
X168259Y3016D01*
X167537Y2462D01*
X166984Y1741D01*
X166636Y901D01*
X166517Y0D01*
X166636Y-901D01*
X166984Y-1741D01*
X167537Y-2462D01*
X168259Y-3016D01*
X169099Y-3364D01*
X170000Y-3483D01*
X170901Y-3364D01*
X171741Y-3016D01*
X172462Y-2462D01*
X173016Y-1741D01*
X173364Y-901D01*
X173483Y0D01*
X173364Y901D01*
X173016Y1741D01*
X172462Y2462D01*
X171741Y3016D01*
X170901Y3364D01*
X170000Y3483D01*
D02*
G37*
G36*
X160000D02*
X159099Y3364D01*
X158259Y3016D01*
X157537Y2462D01*
X156984Y1741D01*
X156636Y901D01*
X156518Y0D01*
X156636Y-901D01*
X156984Y-1741D01*
X157537Y-2462D01*
X158259Y-3016D01*
X159099Y-3364D01*
X160000Y-3483D01*
X160901Y-3364D01*
X161741Y-3016D01*
X162462Y-2462D01*
X163016Y-1741D01*
X163364Y-901D01*
X163482Y0D01*
X163364Y901D01*
X163016Y1741D01*
X162462Y2462D01*
X161741Y3016D01*
X160901Y3364D01*
X160000Y3483D01*
D02*
G37*
G36*
X150000D02*
X149099Y3364D01*
X148259Y3016D01*
X147538Y2462D01*
X146984Y1741D01*
X146636Y901D01*
X146518Y0D01*
X146636Y-901D01*
X146984Y-1741D01*
X147538Y-2462D01*
X148259Y-3016D01*
X149099Y-3364D01*
X150000Y-3483D01*
X150901Y-3364D01*
X151741Y-3016D01*
X152462Y-2462D01*
X153016Y-1741D01*
X153364Y-901D01*
X153482Y0D01*
X153364Y901D01*
X153016Y1741D01*
X152462Y2462D01*
X151741Y3016D01*
X150901Y3364D01*
X150000Y3483D01*
D02*
G37*
G36*
X140000D02*
X139099Y3364D01*
X138259Y3016D01*
X137538Y2462D01*
X136984Y1741D01*
X136636Y901D01*
X136518Y0D01*
X136636Y-901D01*
X136984Y-1741D01*
X137538Y-2462D01*
X138259Y-3016D01*
X139099Y-3364D01*
X140000Y-3483D01*
X140901Y-3364D01*
X141741Y-3016D01*
X142463Y-2462D01*
X143016Y-1741D01*
X143364Y-901D01*
X143482Y0D01*
X143364Y901D01*
X143016Y1741D01*
X142463Y2462D01*
X141741Y3016D01*
X140901Y3364D01*
X140000Y3483D01*
D02*
G37*
G36*
X130000D02*
X129099Y3364D01*
X128259Y3016D01*
X127538Y2462D01*
X126984Y1741D01*
X126636Y901D01*
X126517Y0D01*
X126636Y-901D01*
X126984Y-1741D01*
X127538Y-2462D01*
X128259Y-3016D01*
X129099Y-3364D01*
X130000Y-3483D01*
X130901Y-3364D01*
X131741Y-3016D01*
X132463Y-2462D01*
X133016Y-1741D01*
X133364Y-901D01*
X133483Y0D01*
X133364Y901D01*
X133016Y1741D01*
X132463Y2462D01*
X131741Y3016D01*
X130901Y3364D01*
X130000Y3483D01*
D02*
G37*
G36*
X120000D02*
X119099Y3364D01*
X118259Y3016D01*
X117537Y2462D01*
X116984Y1741D01*
X116636Y901D01*
X116517Y0D01*
X116636Y-901D01*
X116984Y-1741D01*
X117537Y-2462D01*
X118259Y-3016D01*
X119099Y-3364D01*
X120000Y-3483D01*
X120901Y-3364D01*
X121741Y-3016D01*
X122462Y-2462D01*
X123016Y-1741D01*
X123364Y-901D01*
X123483Y0D01*
X123364Y901D01*
X123016Y1741D01*
X122462Y2462D01*
X121741Y3016D01*
X120901Y3364D01*
X120000Y3483D01*
D02*
G37*
G36*
X110000D02*
X109099Y3364D01*
X108259Y3016D01*
X107537Y2462D01*
X106984Y1741D01*
X106636Y901D01*
X106518Y0D01*
X106636Y-901D01*
X106984Y-1741D01*
X107537Y-2462D01*
X108259Y-3016D01*
X109099Y-3364D01*
X110000Y-3483D01*
X110901Y-3364D01*
X111741Y-3016D01*
X112462Y-2462D01*
X113016Y-1741D01*
X113364Y-901D01*
X113482Y0D01*
X113364Y901D01*
X113016Y1741D01*
X112462Y2462D01*
X111741Y3016D01*
X110901Y3364D01*
X110000Y3483D01*
D02*
G37*
G36*
X100000D02*
X99099Y3364D01*
X98259Y3016D01*
X97537Y2462D01*
X96984Y1741D01*
X96636Y901D01*
X96517Y0D01*
X96636Y-901D01*
X96984Y-1741D01*
X97537Y-2462D01*
X98259Y-3016D01*
X99099Y-3364D01*
X100000Y-3483D01*
X100901Y-3364D01*
X101741Y-3016D01*
X102462Y-2462D01*
X103016Y-1741D01*
X103364Y-901D01*
X103482Y0D01*
X103364Y901D01*
X103016Y1741D01*
X102462Y2462D01*
X101741Y3016D01*
X100901Y3364D01*
X100000Y3483D01*
D02*
G37*
G36*
X90000D02*
X89099Y3364D01*
X88259Y3016D01*
X87537Y2462D01*
X86984Y1741D01*
X86636Y901D01*
X86518Y0D01*
X86636Y-901D01*
X86984Y-1741D01*
X87537Y-2462D01*
X88259Y-3016D01*
X89099Y-3364D01*
X90000Y-3483D01*
X90901Y-3364D01*
X91741Y-3016D01*
X92462Y-2462D01*
X93016Y-1741D01*
X93364Y-901D01*
X93483Y0D01*
X93364Y901D01*
X93016Y1741D01*
X92462Y2462D01*
X91741Y3016D01*
X90901Y3364D01*
X90000Y3483D01*
D02*
G37*
G36*
X80000D02*
X79099Y3364D01*
X78259Y3016D01*
X77538Y2462D01*
X76984Y1741D01*
X76636Y901D01*
X76517Y0D01*
X76636Y-901D01*
X76984Y-1741D01*
X77538Y-2462D01*
X78259Y-3016D01*
X79099Y-3364D01*
X80000Y-3483D01*
X80901Y-3364D01*
X81741Y-3016D01*
X82463Y-2462D01*
X83016Y-1741D01*
X83364Y-901D01*
X83482Y0D01*
X83364Y901D01*
X83016Y1741D01*
X82463Y2462D01*
X81741Y3016D01*
X80901Y3364D01*
X80000Y3483D01*
D02*
G37*
G36*
X70000D02*
X69099Y3364D01*
X68259Y3016D01*
X67537Y2462D01*
X66984Y1741D01*
X66636Y901D01*
X66518Y0D01*
X66636Y-901D01*
X66984Y-1741D01*
X67537Y-2462D01*
X68259Y-3016D01*
X69099Y-3364D01*
X70000Y-3483D01*
X70901Y-3364D01*
X71741Y-3016D01*
X72462Y-2462D01*
X73016Y-1741D01*
X73364Y-901D01*
X73483Y0D01*
X73364Y901D01*
X73016Y1741D01*
X72462Y2462D01*
X71741Y3016D01*
X70901Y3364D01*
X70000Y3483D01*
D02*
G37*
G36*
X60000D02*
X59099Y3364D01*
X58259Y3016D01*
X57538Y2462D01*
X56984Y1741D01*
X56636Y901D01*
X56517Y0D01*
X56636Y-901D01*
X56984Y-1741D01*
X57538Y-2462D01*
X58259Y-3016D01*
X59099Y-3364D01*
X60000Y-3483D01*
X60901Y-3364D01*
X61741Y-3016D01*
X62463Y-2462D01*
X63016Y-1741D01*
X63364Y-901D01*
X63482Y0D01*
X63364Y901D01*
X63016Y1741D01*
X62463Y2462D01*
X61741Y3016D01*
X60901Y3364D01*
X60000Y3483D01*
D02*
G37*
G36*
X50000D02*
X49099Y3364D01*
X48259Y3016D01*
X47537Y2462D01*
X46984Y1741D01*
X46636Y901D01*
X46518Y0D01*
X46636Y-901D01*
X46984Y-1741D01*
X47537Y-2462D01*
X48259Y-3016D01*
X49099Y-3364D01*
X50000Y-3483D01*
X50901Y-3364D01*
X51741Y-3016D01*
X52463Y-2462D01*
X53016Y-1741D01*
X53364Y-901D01*
X53483Y0D01*
X53364Y901D01*
X53016Y1741D01*
X52463Y2462D01*
X51741Y3016D01*
X50901Y3364D01*
X50000Y3483D01*
D02*
G37*
G36*
X40000D02*
X39099Y3364D01*
X38259Y3016D01*
X37538Y2462D01*
X36984Y1741D01*
X36636Y901D01*
X36518Y0D01*
X36636Y-901D01*
X36984Y-1741D01*
X37538Y-2462D01*
X38259Y-3016D01*
X39099Y-3364D01*
X40000Y-3483D01*
X40901Y-3364D01*
X41741Y-3016D01*
X42463Y-2462D01*
X43016Y-1741D01*
X43364Y-901D01*
X43483Y0D01*
X43364Y901D01*
X43016Y1741D01*
X42463Y2462D01*
X41741Y3016D01*
X40901Y3364D01*
X40000Y3483D01*
D02*
G37*
%LPD*%
G36*
X22571Y58500D02*
X22556Y58643D01*
X22511Y58770D01*
X22435Y58882D01*
X22329Y58980D01*
X22193Y59062D01*
X22027Y59130D01*
X21830Y59183D01*
X21604Y59220D01*
X21347Y59242D01*
X21059Y59250D01*
Y60750D01*
X21347Y60757D01*
X21604Y60780D01*
X21830Y60817D01*
X22027Y60870D01*
X22193Y60938D01*
X22329Y61020D01*
X22435Y61118D01*
X22511Y61230D01*
X22556Y61357D01*
X22571Y61500D01*
Y58500D01*
D02*
G37*
G36*
X-859Y14336D02*
X-690Y14206D01*
X-512Y14092D01*
X-323Y13994D01*
X-125Y13912D01*
X83Y13846D01*
X301Y13795D01*
X528Y13761D01*
X766Y13742D01*
X1013Y13740D01*
X-1299Y11375D01*
X-1307Y11624D01*
X-1330Y11863D01*
X-1369Y12091D01*
X-1422Y12310D01*
X-1491Y12518D01*
X-1576Y12716D01*
X-1675Y12905D01*
X-1790Y13083D01*
X-1920Y13251D01*
X-2066Y13409D01*
X-1017Y14482D01*
X-859Y14336D01*
D02*
G37*
G36*
X168848Y38319D02*
X168706Y38432D01*
X168553Y38534D01*
X168389Y38623D01*
X168214Y38701D01*
X168029Y38766D01*
X167833Y38820D01*
X167626Y38861D01*
X167408Y38891D01*
X167179Y38909D01*
X166939Y38915D01*
X166765Y40915D01*
X167006Y40922D01*
X167234Y40943D01*
X167449Y40978D01*
X167650Y41027D01*
X167839Y41090D01*
X168015Y41168D01*
X168178Y41259D01*
X168328Y41364D01*
X168465Y41483D01*
X168589Y41616D01*
X168848Y38319D01*
D02*
G37*
G36*
X148200Y26714D02*
X148214Y26320D01*
X148257Y25938D01*
X148327Y25567D01*
X148426Y25208D01*
X148554Y24861D01*
X148709Y24525D01*
X148893Y24201D01*
X149105Y23889D01*
X149346Y23589D01*
X149614Y23300D01*
X148200Y21886D01*
X147911Y22154D01*
X147611Y22395D01*
X147299Y22607D01*
X146975Y22791D01*
X146639Y22946D01*
X146292Y23074D01*
X145933Y23173D01*
X145562Y23243D01*
X145180Y23286D01*
X144786Y23300D01*
X144200Y25300D01*
X144580Y25320D01*
X144920Y25380D01*
X145220Y25480D01*
X145480Y25620D01*
X145700Y25800D01*
X145880Y26020D01*
X146020Y26280D01*
X146120Y26580D01*
X146180Y26920D01*
X146200Y27300D01*
X148200Y26714D01*
D02*
G37*
G36*
X28456Y39546D02*
X28507Y38785D01*
X28556Y38449D01*
X28620Y38142D01*
X28698Y37863D01*
X28792Y37615D01*
X28901Y37395D01*
X29025Y37204D01*
X29164Y37043D01*
X28457Y36336D01*
X28296Y36475D01*
X28105Y36599D01*
X27885Y36708D01*
X27637Y36802D01*
X27358Y36880D01*
X27051Y36944D01*
X26715Y36993D01*
X25954Y37044D01*
X25530Y37047D01*
X28453Y39970D01*
X28456Y39546D01*
D02*
G37*
G36*
Y29546D02*
X28507Y28785D01*
X28556Y28449D01*
X28620Y28142D01*
X28698Y27863D01*
X28792Y27615D01*
X28901Y27395D01*
X29025Y27204D01*
X29164Y27043D01*
X28457Y26336D01*
X28296Y26475D01*
X28105Y26599D01*
X27885Y26708D01*
X27637Y26802D01*
X27358Y26880D01*
X27051Y26944D01*
X26715Y26993D01*
X25954Y27044D01*
X25530Y27047D01*
X28453Y29970D01*
X28456Y29546D01*
D02*
G37*
G36*
X38913Y21297D02*
X39059Y21172D01*
X39128Y21122D01*
X39194Y21080D01*
X39259Y21045D01*
X39320Y21018D01*
X39379Y20999D01*
X39436Y20988D01*
X39490Y20984D01*
X38516Y20010D01*
X38512Y20064D01*
X38501Y20121D01*
X38482Y20180D01*
X38455Y20241D01*
X38421Y20306D01*
X38378Y20372D01*
X38328Y20441D01*
X38269Y20513D01*
X38129Y20663D01*
X38837Y21371D01*
X38913Y21297D01*
D02*
G37*
G36*
X37161Y19049D02*
X37307Y18924D01*
X37376Y18874D01*
X37442Y18832D01*
X37507Y18797D01*
X37568Y18770D01*
X37627Y18751D01*
X37684Y18740D01*
X37738Y18736D01*
X36764Y17762D01*
X36760Y17816D01*
X36749Y17873D01*
X36730Y17932D01*
X36703Y17993D01*
X36669Y18057D01*
X36626Y18124D01*
X36576Y18193D01*
X36517Y18265D01*
X36377Y18416D01*
X37084Y19123D01*
X37161Y19049D01*
D02*
G37*
G36*
X217692Y3737D02*
X217905Y3570D01*
X218127Y3422D01*
X218360Y3295D01*
X218603Y3188D01*
X218857Y3101D01*
X219120Y3034D01*
X219393Y2987D01*
X219677Y2960D01*
X219970Y2953D01*
X217047Y30D01*
X217040Y323D01*
X217013Y607D01*
X216966Y880D01*
X216899Y1144D01*
X216812Y1397D01*
X216705Y1640D01*
X216578Y1873D01*
X216430Y2095D01*
X216263Y2308D01*
X216076Y2510D01*
X217490Y3924D01*
X217692Y3737D01*
D02*
G37*
D10*
X25500Y40000D02*
X31000Y34500D01*
Y28500D02*
Y34500D01*
Y28500D02*
X39500Y20000D01*
X25500Y30000D02*
X37748Y17752D01*
D16*
X152715Y39915D02*
X168700D01*
X183200Y13800D02*
X206200D01*
X141500D02*
X183200D01*
X135400Y19900D02*
X141500Y13800D01*
X147200Y34400D02*
X152715Y39915D01*
X147200Y24300D02*
Y34400D01*
X123001Y24300D02*
X147200D01*
X116701Y18000D02*
X123001Y24300D01*
X206200Y13800D02*
X220000Y0D01*
X147200Y24300D02*
X153454Y18046D01*
D41*
X-3750Y16154D02*
X1026Y11378D01*
X-3750Y16154D02*
Y60221D01*
X-371Y63600D01*
X15400D01*
X19000Y60000D01*
X25500D01*
D43*
X8937Y11378D02*
D03*
D44*
X1063D02*
D03*
X8937Y19252D02*
D03*
X1063D02*
D03*
X8937Y27126D02*
D03*
X1063D02*
D03*
X8937Y35000D02*
D03*
X1063D02*
D03*
X8937Y42874D02*
D03*
X1063D02*
D03*
X8937Y50748D02*
D03*
X1063D02*
D03*
X8937Y58622D02*
D03*
X1063D02*
D03*
X170400Y40100D02*
D03*
D45*
X25500Y60000D02*
D03*
D46*
Y50000D02*
D03*
Y40000D02*
D03*
Y30000D02*
D03*
Y20000D02*
D03*
Y10000D02*
D03*
X130000Y70000D02*
D03*
X220000D02*
D03*
X210000D02*
D03*
X200000D02*
D03*
X190000D02*
D03*
X180000D02*
D03*
X170000D02*
D03*
X160000D02*
D03*
X150000D02*
D03*
X140000D02*
D03*
X30000D02*
D03*
X120000D02*
D03*
X110000D02*
D03*
X100000D02*
D03*
X90000D02*
D03*
X80000D02*
D03*
X70000D02*
D03*
X60000D02*
D03*
X50000D02*
D03*
X40000D02*
D03*
X210000Y0D02*
D03*
X200000D02*
D03*
X190000D02*
D03*
X180000D02*
D03*
X170000D02*
D03*
X160000D02*
D03*
X150000D02*
D03*
X140000D02*
D03*
X130000D02*
D03*
X220000D02*
D03*
X110000D02*
D03*
X100000D02*
D03*
X90000D02*
D03*
X80000D02*
D03*
X70000D02*
D03*
X60000D02*
D03*
X50000D02*
D03*
X40000D02*
D03*
X120000D02*
D03*
D47*
X30000D02*
D03*
D48*
X54700Y14600D02*
D03*
X167600Y56100D02*
D03*
X150500Y16500D02*
D03*
X152500Y11000D02*
D03*
X145500D02*
D03*
X60900Y21000D02*
D03*
X181800Y24500D02*
D03*
X191700D02*
D03*
X154700Y44000D02*
D03*
X169200Y46700D02*
D03*
X171500Y34700D02*
D03*
X195000Y16800D02*
D03*
X183200Y13800D02*
D03*
X186500Y24500D02*
D03*
X150600Y25600D02*
D03*
X135400Y19900D02*
D03*
X142500Y16400D02*
D03*
X154200Y25000D02*
D03*
X154900Y33800D02*
D03*
X158900D02*
D03*
X85400Y39800D02*
D03*
X166700Y9300D02*
D03*
X139800Y5700D02*
D03*
X91500Y15000D02*
D03*
X103500Y60500D02*
D03*
X103100Y54500D02*
D03*
X89500Y51500D02*
D03*
X90500Y34000D02*
D03*
X197700Y23300D02*
D03*
X204000Y17000D02*
D03*
X180500Y10500D02*
D03*
X185500D02*
D03*
X190500D02*
D03*
X161900Y56200D02*
D03*
X165500Y42500D02*
D03*
X172900Y50400D02*
D03*
X177900Y55300D02*
D03*
X171600Y19000D02*
D03*
X171500Y26100D02*
D03*
X194500Y35600D02*
D03*
X211200Y35000D02*
D03*
X206200D02*
D03*
X195600Y7600D02*
D03*
X200300Y61700D02*
D03*
X195000Y58500D02*
D03*
X187500Y58300D02*
D03*
X182500D02*
D03*
X197700Y19300D02*
D03*
X186700Y38715D02*
D03*
X188700Y40715D02*
D03*
X182500Y35715D02*
D03*
X186500D02*
D03*
X190500D02*
D03*
X192500Y33715D02*
D03*
X188500D02*
D03*
X184500D02*
D03*
X39500Y20000D02*
D03*
X37748Y17752D02*
D03*
X153454Y18046D02*
D03*
X157500Y17500D02*
D03*
X161000D02*
D03*
X160800Y24900D02*
D03*
X116701Y18000D02*
D03*
X123000D02*
D03*
X80358Y29500D02*
D03*
X94900Y41200D02*
D03*
X161000Y9000D02*
D03*
D49*
X186300Y24500D02*
D03*
M02*
