G04*
G04 #@! TF.GenerationSoftware,Altium Limited,Altium Designer,19.1.8 (144)*
G04*
G04 Layer_Color=65535*
%FSLAX25Y25*%
%MOIN*%
G70*
G01*
G75*
%ADD10C,0.00984*%
%ADD11C,0.02362*%
%ADD12C,0.01000*%
%ADD13C,0.02000*%
%ADD14C,0.00787*%
%ADD15C,0.01500*%
%ADD16C,0.00394*%
%ADD17C,0.00600*%
%ADD18C,0.00500*%
G36*
X202400Y5900D02*
X200000Y3500D01*
X197600Y5900D01*
X202400D01*
D02*
G37*
D10*
X97492Y54000D02*
X96754Y54426D01*
Y53574D01*
X97492Y54000D01*
X180292Y29315D02*
X179554Y29741D01*
Y28889D01*
X180292Y29315D01*
D11*
X111386Y47795D02*
X110941Y48719D01*
X109942Y48947D01*
X109141Y48308D01*
Y47283D01*
X109942Y46644D01*
X110941Y46872D01*
X111386Y47795D01*
D12*
X214890Y35000D02*
X214816Y36003D01*
X214598Y36985D01*
X214238Y37924D01*
X213746Y38802D01*
X213131Y39598D01*
X212407Y40296D01*
X211589Y40881D01*
X210695Y41341D01*
X209743Y41666D01*
X208753Y41848D01*
X207748Y41885D01*
X206749Y41775D01*
X205775Y41521D01*
X204850Y41127D01*
X203991Y40603D01*
X203218Y39960D01*
X202547Y39211D01*
X201992Y38372D01*
X201565Y37461D01*
X201275Y36498D01*
X201129Y35503D01*
Y34497D01*
X201275Y33502D01*
X201565Y32539D01*
X201992Y31628D01*
X202547Y30789D01*
X203218Y30040D01*
X203991Y29397D01*
X204850Y28873D01*
X205775Y28479D01*
X206749Y28225D01*
X207748Y28115D01*
X208754Y28152D01*
X209743Y28334D01*
X210695Y28659D01*
X211589Y29119D01*
X212407Y29704D01*
X213131Y30402D01*
X213746Y31198D01*
X214238Y32076D01*
X214598Y33015D01*
X214816Y33997D01*
X214890Y35000D01*
X200000Y16000D02*
Y17200D01*
X205000Y22200D01*
X200000Y5000D02*
Y9200D01*
X205000Y22200D02*
Y24961D01*
X202095Y45039D02*
X213906D01*
X197961Y30276D02*
Y39724D01*
X218039Y30276D02*
Y39724D01*
X202095Y24961D02*
X213906D01*
X77000Y60500D02*
X103500D01*
X209000Y16998D02*
Y12999D01*
X210999Y11000D01*
X212999Y12999D01*
Y16998D01*
X218997Y15998D02*
X217997Y16998D01*
X215998D01*
X214998Y15998D01*
Y12000D01*
X215998Y11000D01*
X217997D01*
X218997Y12000D01*
X224995Y15998D02*
X223995Y16998D01*
X221996D01*
X220996Y15998D01*
Y12000D01*
X221996Y11000D01*
X223995D01*
X224995Y12000D01*
X212999Y57998D02*
X211999Y58998D01*
X210000D01*
X209000Y57998D01*
Y54000D01*
X210000Y53000D01*
X211999D01*
X212999Y54000D01*
Y55999D01*
X210999D01*
X214998Y53000D02*
Y58998D01*
X218997Y53000D01*
Y58998D01*
X220996D02*
Y53000D01*
X223995D01*
X224995Y54000D01*
Y57998D01*
X223995Y58998D01*
X220996D01*
X19000Y-3000D02*
X20999D01*
X20000D01*
Y2998D01*
X19000Y1998D01*
X40000Y15998D02*
X43332D01*
X41666D01*
Y11000D01*
X44998D02*
Y15998D01*
X46665Y14332D01*
X48331Y15998D01*
Y11000D01*
X53329Y15165D02*
X52496Y15998D01*
X50830D01*
X49997Y15165D01*
Y14332D01*
X50830Y13499D01*
X52496D01*
X53329Y12666D01*
Y11833D01*
X52496Y11000D01*
X50830D01*
X49997Y11833D01*
X40000Y24598D02*
X43332D01*
X41666D01*
Y19600D01*
X44998Y24598D02*
Y19600D01*
X47498D01*
X48331Y20433D01*
Y23765D01*
X47498Y24598D01*
X44998D01*
X49997D02*
X51663D01*
X50830D01*
Y19600D01*
X49997D01*
X51663D01*
X40000Y33198D02*
X43332D01*
X41666D01*
Y28200D01*
X44998Y33198D02*
Y28200D01*
X47498D01*
X48331Y29033D01*
Y32365D01*
X47498Y33198D01*
X44998D01*
X52496D02*
X50830D01*
X49997Y32365D01*
Y29033D01*
X50830Y28200D01*
X52496D01*
X53329Y29033D01*
Y32365D01*
X52496Y33198D01*
X40000Y41798D02*
X43332D01*
X41666D01*
Y36800D01*
X48331Y40965D02*
X47498Y41798D01*
X45831D01*
X44998Y40965D01*
Y37633D01*
X45831Y36800D01*
X47498D01*
X48331Y37633D01*
X49997Y41798D02*
Y36800D01*
Y38466D01*
X53329Y41798D01*
X50830Y39299D01*
X53329Y36800D01*
X43332Y49565D02*
X42499Y50398D01*
X40833D01*
X40000Y49565D01*
Y46233D01*
X40833Y45400D01*
X42499D01*
X43332Y46233D01*
Y47899D01*
X41666D01*
X44998Y45400D02*
Y50398D01*
X48331Y45400D01*
Y50398D01*
X49997D02*
Y45400D01*
X52496D01*
X53329Y46233D01*
Y49565D01*
X52496Y50398D01*
X49997D01*
X40000Y58998D02*
Y55666D01*
X41666Y54000D01*
X43332Y55666D01*
Y58998D01*
X48331Y58165D02*
X47498Y58998D01*
X45831D01*
X44998Y58165D01*
Y54833D01*
X45831Y54000D01*
X47498D01*
X48331Y54833D01*
X53329Y58165D02*
X52496Y58998D01*
X50830D01*
X49997Y58165D01*
Y54833D01*
X50830Y54000D01*
X52496D01*
X53329Y54833D01*
D13*
X220000Y5000D02*
Y9000D01*
X30000Y10000D02*
X31500D01*
X30000Y20000D02*
X32500D01*
X30000Y30000D02*
X33500D01*
X31500Y10000D02*
X34500Y13000D01*
X38000D01*
X32500Y20000D02*
X34500Y22000D01*
X38000D01*
X33500Y30000D02*
X34500Y31000D01*
X38500D01*
X34500Y39000D02*
X38500D01*
X33500Y40000D02*
X34500Y39000D01*
Y48000D02*
X38000D01*
X32500Y50000D02*
X34500Y48000D01*
Y57000D02*
X38000D01*
X31500Y60000D02*
X34500Y57000D01*
X30000Y40000D02*
X33500D01*
X30000Y50000D02*
X32500D01*
X30000Y60000D02*
X31500D01*
X220000Y61000D02*
Y65000D01*
X14000Y-5000D02*
Y5000D01*
X35000D01*
Y-5000D02*
Y5000D01*
X14000Y-5000D02*
X35000D01*
D14*
X106268Y18268D02*
Y51732D01*
X139732Y18268D02*
Y51732D01*
X106268D02*
X139732D01*
X106268Y18268D02*
X139732D01*
X13800Y64700D02*
X20500D01*
X13800Y5300D02*
Y64700D01*
X2167Y61667D02*
X15500D01*
X500Y60000D02*
X2167Y61667D01*
X500Y60000D02*
X2167Y58333D01*
X15500D01*
X2167Y51667D02*
X15500D01*
X500Y50000D02*
X2167Y51667D01*
X500Y50000D02*
X2167Y48333D01*
X15500D01*
X2167Y41667D02*
X15500D01*
X500Y40000D02*
X2167Y41667D01*
X500Y40000D02*
X2167Y38333D01*
X15500D01*
X2167Y31667D02*
X15500D01*
X500Y30000D02*
X2167Y31667D01*
X500Y30000D02*
X2167Y28333D01*
X15500D01*
X2167Y21667D02*
X15500D01*
X500Y20000D02*
X2167Y21667D01*
X500Y20000D02*
X2167Y18333D01*
X15500D01*
X2167Y11667D02*
X15500D01*
X500Y10000D02*
X2167Y11667D01*
X500Y10000D02*
X2167Y8333D01*
X15500D01*
X20500Y57500D02*
Y64700D01*
X18833Y64600D02*
X20500Y62933D01*
Y5300D02*
Y57500D01*
X13800Y5300D02*
X20500D01*
D15*
X75000Y62000D02*
Y73500D01*
X125000Y63000D02*
Y73500D01*
X175000Y62000D02*
Y73500D01*
Y-3500D02*
Y8000D01*
X125000Y-3500D02*
Y7000D01*
X75000Y-3500D02*
Y8000D01*
D16*
X187000Y45147D02*
Y49084D01*
X172247Y36115D02*
X178153D01*
X65200Y37533D02*
Y41667D01*
X65200Y42531D02*
Y46468D01*
X58802Y42531D02*
Y46468D01*
X186600Y15462D02*
Y21368D01*
X192306Y31365D02*
Y37665D01*
X180494Y31365D02*
Y37665D01*
X157500Y19432D02*
Y23369D01*
X213000Y46433D02*
Y50567D01*
Y19433D02*
Y23567D01*
X148500Y54431D02*
Y58368D01*
X157500Y26531D02*
Y30468D01*
X88181Y27531D02*
Y31468D01*
D17*
X77000Y65632D02*
X77666Y66299D01*
X78999D01*
X79666Y65632D01*
Y64966D01*
X78999Y64299D01*
X78333D01*
X78999D01*
X79666Y63633D01*
Y62966D01*
X78999Y62300D01*
X77666D01*
X77000Y62966D01*
X83665Y66299D02*
X80999D01*
Y64299D01*
X82332Y64966D01*
X82998D01*
X83665Y64299D01*
Y62966D01*
X82998Y62300D01*
X81665D01*
X80999Y62966D01*
X87000Y65632D02*
X87666Y66299D01*
X88999D01*
X89666Y65632D01*
Y64966D01*
X88999Y64299D01*
X88333D01*
X88999D01*
X89666Y63633D01*
Y62966D01*
X88999Y62300D01*
X87666D01*
X87000Y62966D01*
X92998Y62300D02*
Y66299D01*
X90999Y64299D01*
X93664D01*
X97000Y65632D02*
X97666Y66299D01*
X98999D01*
X99666Y65632D01*
Y64966D01*
X98999Y64299D01*
X98333D01*
X98999D01*
X99666Y63633D01*
Y62966D01*
X98999Y62300D01*
X97666D01*
X97000Y62966D01*
X100999Y65632D02*
X101665Y66299D01*
X102998D01*
X103665Y65632D01*
Y64966D01*
X102998Y64299D01*
X102332D01*
X102998D01*
X103665Y63633D01*
Y62966D01*
X102998Y62300D01*
X101665D01*
X100999Y62966D01*
X41666Y3800D02*
X39000D01*
X41666Y6466D01*
Y7132D01*
X40999Y7799D01*
X39666D01*
X39000Y7132D01*
X49000D02*
X49666Y7799D01*
X50999D01*
X51666Y7132D01*
Y6466D01*
X50999Y5799D01*
X50333D01*
X50999D01*
X51666Y5133D01*
Y4466D01*
X50999Y3800D01*
X49666D01*
X49000Y4466D01*
X37000Y65632D02*
X37666Y66299D01*
X38999D01*
X39666Y65632D01*
Y64966D01*
X38999Y64299D01*
X38333D01*
X38999D01*
X39666Y63633D01*
Y62966D01*
X38999Y62300D01*
X37666D01*
X37000Y62966D01*
X40999D02*
X41665Y62300D01*
X42998D01*
X43665Y62966D01*
Y65632D01*
X42998Y66299D01*
X41665D01*
X40999Y65632D01*
Y64966D01*
X41665Y64299D01*
X43665D01*
X47000Y65632D02*
X47666Y66299D01*
X48999D01*
X49666Y65632D01*
Y64966D01*
X48999Y64299D01*
X48333D01*
X48999D01*
X49666Y63633D01*
Y62966D01*
X48999Y62300D01*
X47666D01*
X47000Y62966D01*
X50999Y65632D02*
X51665Y66299D01*
X52998D01*
X53664Y65632D01*
Y64966D01*
X52998Y64299D01*
X53664Y63633D01*
Y62966D01*
X52998Y62300D01*
X51665D01*
X50999Y62966D01*
Y63633D01*
X51665Y64299D01*
X50999Y64966D01*
Y65632D01*
X51665Y64299D02*
X52998D01*
X57000Y65632D02*
X57666Y66299D01*
X58999D01*
X59666Y65632D01*
Y64966D01*
X58999Y64299D01*
X58333D01*
X58999D01*
X59666Y63633D01*
Y62966D01*
X58999Y62300D01*
X57666D01*
X57000Y62966D01*
X60999Y66299D02*
X63665D01*
Y65632D01*
X60999Y62966D01*
Y62300D01*
X107000Y65632D02*
X107667Y66299D01*
X108999D01*
X109666Y65632D01*
Y64966D01*
X108999Y64299D01*
X108333D01*
X108999D01*
X109666Y63633D01*
Y62966D01*
X108999Y62300D01*
X107667D01*
X107000Y62966D01*
X113664Y62300D02*
X110999D01*
X113664Y64966D01*
Y65632D01*
X112998Y66299D01*
X111665D01*
X110999Y65632D01*
X139666Y62300D02*
X137000D01*
X139666Y64966D01*
Y65632D01*
X138999Y66299D01*
X137666D01*
X137000Y65632D01*
X140999Y62966D02*
X141665Y62300D01*
X142998D01*
X143665Y62966D01*
Y65632D01*
X142998Y66299D01*
X141665D01*
X140999Y65632D01*
Y64966D01*
X141665Y64299D01*
X143665D01*
X149666Y62300D02*
X147000D01*
X149666Y64966D01*
Y65632D01*
X148999Y66299D01*
X147667D01*
X147000Y65632D01*
X150999D02*
X151665Y66299D01*
X152998D01*
X153665Y65632D01*
Y64966D01*
X152998Y64299D01*
X153665Y63633D01*
Y62966D01*
X152998Y62300D01*
X151665D01*
X150999Y62966D01*
Y63633D01*
X151665Y64299D01*
X150999Y64966D01*
Y65632D01*
X151665Y64299D02*
X152998D01*
X159666Y62300D02*
X157000D01*
X159666Y64966D01*
Y65632D01*
X158999Y66299D01*
X157667D01*
X157000Y65632D01*
X160999Y66299D02*
X163664D01*
Y65632D01*
X160999Y62966D01*
Y62300D01*
X209666D02*
X207000D01*
X209666Y64966D01*
Y65632D01*
X208999Y66299D01*
X207666D01*
X207000Y65632D01*
X213665Y62300D02*
X210999D01*
X213665Y64966D01*
Y65632D01*
X212998Y66299D01*
X211665D01*
X210999Y65632D01*
X199666Y62300D02*
X197000D01*
X199666Y64966D01*
Y65632D01*
X198999Y66299D01*
X197667D01*
X197000Y65632D01*
X200999D02*
X201665Y66299D01*
X202998D01*
X203664Y65632D01*
Y64966D01*
X202998Y64299D01*
X202332D01*
X202998D01*
X203664Y63633D01*
Y62966D01*
X202998Y62300D01*
X201665D01*
X200999Y62966D01*
X189666Y62300D02*
X187000D01*
X189666Y64966D01*
Y65632D01*
X188999Y66299D01*
X187666D01*
X187000Y65632D01*
X192998Y62300D02*
Y66299D01*
X190999Y64299D01*
X193665D01*
X206900Y3800D02*
X208233D01*
X207566D01*
Y7799D01*
X206900Y7132D01*
X210232Y4466D02*
X210899Y3800D01*
X212232D01*
X212898Y4466D01*
Y7132D01*
X212232Y7799D01*
X210899D01*
X210232Y7132D01*
Y6466D01*
X210899Y5799D01*
X212898D01*
X187100Y3800D02*
X188433D01*
X187767D01*
Y7799D01*
X187100Y7132D01*
X190432Y7799D02*
X193098D01*
Y7132D01*
X190432Y4466D01*
Y3800D01*
X137000D02*
X138333D01*
X137666D01*
Y7799D01*
X137000Y7132D01*
X142998Y3800D02*
X140332D01*
X142998Y6466D01*
Y7132D01*
X142332Y7799D01*
X140999D01*
X140332Y7132D01*
X147000Y3800D02*
X148333D01*
X147667D01*
Y7799D01*
X147000Y7132D01*
X150332D02*
X150999Y7799D01*
X152332D01*
X152998Y7132D01*
Y6466D01*
X152332Y5799D01*
X151665D01*
X152332D01*
X152998Y5133D01*
Y4466D01*
X152332Y3800D01*
X150999D01*
X150332Y4466D01*
X157000Y3800D02*
X158333D01*
X157667D01*
Y7799D01*
X157000Y7132D01*
X162332Y3800D02*
Y7799D01*
X160332Y5799D01*
X162998D01*
X108800Y4450D02*
X109450Y3800D01*
X110749D01*
X111399Y4450D01*
Y7049D01*
X110749Y7699D01*
X109450D01*
X108800Y7049D01*
Y6399D01*
X109450Y5749D01*
X111399D01*
X99000Y7132D02*
X99666Y7799D01*
X100999D01*
X101666Y7132D01*
Y6466D01*
X100999Y5799D01*
X101666Y5133D01*
Y4466D01*
X100999Y3800D01*
X99666D01*
X99000Y4466D01*
Y5133D01*
X99666Y5799D01*
X99000Y6466D01*
Y7132D01*
X99666Y5799D02*
X100999D01*
X89000Y7799D02*
X91666D01*
Y7132D01*
X89000Y4466D01*
Y3800D01*
X60999D02*
Y7799D01*
X59000Y5799D01*
X61666D01*
X60000Y52499D02*
Y49833D01*
X61333Y48500D01*
X62666Y49833D01*
Y52499D01*
X66664Y51832D02*
X65998Y52499D01*
X64665D01*
X63999Y51832D01*
Y49166D01*
X64665Y48500D01*
X65998D01*
X66664Y49166D01*
X70663Y51832D02*
X69997Y52499D01*
X68664D01*
X67997Y51832D01*
Y49166D01*
X68664Y48500D01*
X69997D01*
X70663Y49166D01*
X197366Y13832D02*
X196699Y14499D01*
X195367D01*
X194700Y13832D01*
Y11167D01*
X195367Y10500D01*
X196699D01*
X197366Y11167D01*
Y12499D01*
X196033D01*
X201364Y13832D02*
X200698Y14499D01*
X199365D01*
X198699Y13832D01*
Y13166D01*
X199365Y12499D01*
X200698D01*
X201364Y11833D01*
Y11167D01*
X200698Y10500D01*
X199365D01*
X198699Y11167D01*
X202697Y10500D02*
Y14499D01*
X204697D01*
X205363Y13832D01*
Y12499D01*
X204697Y11833D01*
X202697D01*
X204030D02*
X205363Y10500D01*
X20499Y68500D02*
Y72499D01*
X18500Y70499D01*
X21166D01*
X22499Y71832D02*
X23165Y72499D01*
X24498D01*
X25164Y71832D01*
Y69166D01*
X24498Y68500D01*
X23165D01*
X22499Y69166D01*
Y71832D01*
X117200Y65632D02*
X117867Y66299D01*
X119199D01*
X119866Y65632D01*
Y64966D01*
X119199Y64299D01*
X118533D01*
X119199D01*
X119866Y63633D01*
Y62966D01*
X119199Y62300D01*
X117867D01*
X117200Y62966D01*
X121199Y62300D02*
X122532D01*
X121865D01*
Y66299D01*
X121199Y65632D01*
X169166Y62300D02*
X166500D01*
X169166Y64966D01*
Y65632D01*
X168499Y66299D01*
X167166D01*
X166500Y65632D01*
X173164Y66299D02*
X171832Y65632D01*
X170499Y64299D01*
Y62966D01*
X171165Y62300D01*
X172498D01*
X173164Y62966D01*
Y63633D01*
X172498Y64299D01*
X170499D01*
X167000Y3800D02*
X168333D01*
X167666D01*
Y7799D01*
X167000Y7132D01*
X172998Y7799D02*
X170332D01*
Y5799D01*
X171665Y6466D01*
X172332D01*
X172998Y5799D01*
Y4466D01*
X172332Y3800D01*
X170999D01*
X170332Y4466D01*
X117000Y3800D02*
X118333D01*
X117666D01*
Y7799D01*
X117000Y7132D01*
X120332D02*
X120999Y7799D01*
X122332D01*
X122998Y7132D01*
Y4466D01*
X122332Y3800D01*
X120999D01*
X120332Y4466D01*
Y7132D01*
X71666Y7799D02*
X69000D01*
Y5799D01*
X70333Y6466D01*
X70999D01*
X71666Y5799D01*
Y4466D01*
X70999Y3800D01*
X69666D01*
X69000Y4466D01*
X66500Y65632D02*
X67166Y66299D01*
X68499D01*
X69166Y65632D01*
Y64966D01*
X68499Y64299D01*
X67833D01*
X68499D01*
X69166Y63633D01*
Y62966D01*
X68499Y62300D01*
X67166D01*
X66500Y62966D01*
X73164Y66299D02*
X71832Y65632D01*
X70499Y64299D01*
Y62966D01*
X71165Y62300D01*
X72498D01*
X73164Y62966D01*
Y63633D01*
X72498Y64299D01*
X70499D01*
X127000Y65632D02*
X127666Y66299D01*
X128999D01*
X129666Y65632D01*
Y64966D01*
X128999Y64299D01*
X128333D01*
X128999D01*
X129666Y63633D01*
Y62966D01*
X128999Y62300D01*
X127666D01*
X127000Y62966D01*
X130999Y65632D02*
X131665Y66299D01*
X132998D01*
X133665Y65632D01*
Y62966D01*
X132998Y62300D01*
X131665D01*
X130999Y62966D01*
Y65632D01*
X179666Y62300D02*
X177000D01*
X179666Y64966D01*
Y65632D01*
X178999Y66299D01*
X177666D01*
X177000Y65632D01*
X183665Y66299D02*
X180999D01*
Y64299D01*
X182332Y64966D01*
X182998D01*
X183665Y64299D01*
Y62966D01*
X182998Y62300D01*
X181665D01*
X180999Y62966D01*
X177000Y3800D02*
X178333D01*
X177666D01*
Y7799D01*
X177000Y7132D01*
X182998Y7799D02*
X181665Y7132D01*
X180332Y5799D01*
Y4466D01*
X180999Y3800D01*
X182332D01*
X182998Y4466D01*
Y5133D01*
X182332Y5799D01*
X180332D01*
X127500Y3800D02*
X128833D01*
X128166D01*
Y7799D01*
X127500Y7132D01*
X130832Y3800D02*
X132165D01*
X131499D01*
Y7799D01*
X130832Y7132D01*
X81166Y7799D02*
X79833Y7132D01*
X78500Y5799D01*
Y4466D01*
X79166Y3800D01*
X80499D01*
X81166Y4466D01*
Y5133D01*
X80499Y5799D01*
X78500D01*
X81166Y58332D02*
X80499Y58999D01*
X79166D01*
X78500Y58332D01*
Y55666D01*
X79166Y55000D01*
X80499D01*
X81166Y55666D01*
Y56999D01*
X79833D01*
X85164Y58332D02*
X84498Y58999D01*
X83165D01*
X82499Y58332D01*
Y55666D01*
X83165Y55000D01*
X84498D01*
X85164Y55666D01*
X86497Y58999D02*
Y55000D01*
Y56333D01*
X89163Y58999D01*
X87164Y56999D01*
X89163Y55000D01*
X93162D02*
X90496D01*
X93162Y57666D01*
Y58332D01*
X92496Y58999D01*
X91163D01*
X90496Y58332D01*
X94495Y56999D02*
X97161D01*
X98494Y58332D02*
X99160Y58999D01*
X100493D01*
X101159Y58332D01*
Y55666D01*
X100493Y55000D01*
X99160D01*
X98494Y55666D01*
Y58332D01*
D18*
X73200Y38200D02*
Y41199D01*
X74699D01*
X75199Y40699D01*
Y39700D01*
X74699Y39200D01*
X73200D01*
X74200D02*
X75199Y38200D01*
X76199Y40699D02*
X76699Y41199D01*
X77699D01*
X78198Y40699D01*
Y40199D01*
X77699Y39700D01*
X77199D01*
X77699D01*
X78198Y39200D01*
Y38700D01*
X77699Y38200D01*
X76699D01*
X76199Y38700D01*
X73000Y45999D02*
Y43000D01*
X74499D01*
X74999Y43500D01*
Y45499D01*
X74499Y45999D01*
X73000D01*
X75999Y43000D02*
X76999D01*
X76499D01*
Y45999D01*
X75999Y45499D01*
X186999Y53214D02*
X186500Y53714D01*
X185500D01*
X185000Y53214D01*
Y51215D01*
X185500Y50715D01*
X186500D01*
X186999Y51215D01*
X187999Y53714D02*
X189998D01*
Y53214D01*
X187999Y51215D01*
Y50715D01*
X174999Y46314D02*
X174499Y46814D01*
X173500D01*
X173000Y46314D01*
Y44315D01*
X173500Y43815D01*
X174499D01*
X174999Y44315D01*
X177998Y46814D02*
X176999Y46314D01*
X175999Y45314D01*
Y44315D01*
X176499Y43815D01*
X177499D01*
X177998Y44315D01*
Y44815D01*
X177499Y45314D01*
X175999D01*
X175999Y19214D02*
X175499Y19714D01*
X174500D01*
X174000Y19214D01*
Y17215D01*
X174500Y16715D01*
X175499D01*
X175999Y17215D01*
X178998Y19714D02*
X176999D01*
Y18214D01*
X177999Y18714D01*
X178499D01*
X178998Y18214D01*
Y17215D01*
X178499Y16715D01*
X177499D01*
X176999Y17215D01*
X174000Y26614D02*
Y24115D01*
X174500Y23615D01*
X175499D01*
X175999Y24115D01*
Y26614D01*
X178998Y23615D02*
X176999D01*
X178998Y25614D01*
Y26114D01*
X178499Y26614D01*
X177499D01*
X176999Y26114D01*
X220000Y20000D02*
Y22999D01*
X221499D01*
X221999Y22499D01*
Y21499D01*
X221499Y21000D01*
X220000D01*
X221000D02*
X221999Y20000D01*
X224998D02*
X222999D01*
X224998Y21999D01*
Y22499D01*
X224499Y22999D01*
X223499D01*
X222999Y22499D01*
X220000Y47000D02*
Y49999D01*
X221499D01*
X221999Y49499D01*
Y48500D01*
X221499Y48000D01*
X220000D01*
X221000D02*
X221999Y47000D01*
X222999D02*
X223999D01*
X223499D01*
Y49999D01*
X222999Y49499D01*
X87180Y24899D02*
X86681Y25399D01*
X85681D01*
X85181Y24899D01*
Y22900D01*
X85681Y22400D01*
X86681D01*
X87180Y22900D01*
X89680Y22400D02*
Y25399D01*
X88180Y23900D01*
X90180D01*
X152999Y51699D02*
X152499Y52199D01*
X151500D01*
X151000Y51699D01*
Y49700D01*
X151500Y49200D01*
X152499D01*
X152999Y49700D01*
X153999Y51699D02*
X154499Y52199D01*
X155499D01*
X155998Y51699D01*
Y51199D01*
X155499Y50700D01*
X154999D01*
X155499D01*
X155998Y50200D01*
Y49700D01*
X155499Y49200D01*
X154499D01*
X153999Y49700D01*
X156999Y15999D02*
X156500Y16499D01*
X155500D01*
X155000Y15999D01*
Y14000D01*
X155500Y13500D01*
X156500D01*
X156999Y14000D01*
X159998Y13500D02*
X157999D01*
X159998Y15499D01*
Y15999D01*
X159499Y16499D01*
X158499D01*
X157999Y15999D01*
X157499Y34499D02*
X157000Y34999D01*
X156000D01*
X155500Y34499D01*
Y32500D01*
X156000Y32000D01*
X157000D01*
X157499Y32500D01*
X158499Y32000D02*
X159499D01*
X158999D01*
Y34999D01*
X158499Y34499D01*
X98500Y14999D02*
Y12500D01*
X99000Y12000D01*
X99999D01*
X100499Y12500D01*
Y14999D01*
X101499Y12000D02*
X102499D01*
X101999D01*
Y14999D01*
X101499Y14499D01*
M02*
