G04*
G04 #@! TF.GenerationSoftware,Altium Limited,Altium Designer,19.1.8 (144)*
G04*
G04 Layer_Color=32896*
%FSLAX25Y25*%
%MOIN*%
G70*
G01*
G75*
%ADD13C,0.01000*%
%ADD14C,0.00394*%
D13*
X164300Y52898D02*
X160301Y46900D01*
Y52898D02*
X164300Y46900D01*
X154303Y51898D02*
X155303Y52898D01*
X157302D01*
X158302Y51898D01*
Y47900D01*
X157302Y46900D01*
X155303D01*
X154303Y47900D01*
X148305Y46900D02*
X152304D01*
X148305Y50899D01*
Y51898D01*
X149305Y52898D01*
X151304D01*
X152304Y51898D01*
X142307D02*
X143307Y52898D01*
X145306D01*
X146306Y51898D01*
Y47900D01*
X145306Y46900D01*
X143307D01*
X142307Y47900D01*
X136309Y52898D02*
X138308Y51898D01*
X140308Y49899D01*
Y47900D01*
X139308Y46900D01*
X137309D01*
X136309Y47900D01*
Y48899D01*
X137309Y49899D01*
X140308D01*
X131311Y46900D02*
Y52898D01*
X134310Y49899D01*
X130311D01*
X128312Y46900D02*
Y50899D01*
X126312Y52898D01*
X124313Y50899D01*
Y46900D01*
Y49899D01*
X128312D01*
X112317Y51898D02*
X113317Y52898D01*
X115316D01*
X116315Y51898D01*
Y47900D01*
X115316Y46900D01*
X113317D01*
X112317Y47900D01*
X110318Y46900D02*
Y52898D01*
X107318D01*
X106319Y51898D01*
Y49899D01*
X107318Y48899D01*
X110318D01*
X104319Y52898D02*
Y46900D01*
X100321D01*
X98321Y52898D02*
Y46900D01*
X95322D01*
X94323Y47900D01*
Y51898D01*
X95322Y52898D01*
X98321D01*
X86325D02*
Y46900D01*
X83326D01*
X82327Y47900D01*
Y48899D01*
X83326Y49899D01*
X86325D01*
X83326D01*
X82327Y50899D01*
Y51898D01*
X83326Y52898D01*
X86325D01*
X80327Y50899D02*
Y46900D01*
Y48899D01*
X79327Y49899D01*
X78328Y50899D01*
X77328D01*
X71330Y46900D02*
X73329D01*
X74329Y47900D01*
Y49899D01*
X73329Y50899D01*
X71330D01*
X70330Y49899D01*
Y48899D01*
X74329D01*
X67331Y50899D02*
X65332D01*
X64332Y49899D01*
Y46900D01*
X67331D01*
X68331Y47900D01*
X67331Y48899D01*
X64332D01*
X62333Y46900D02*
Y52898D01*
Y48899D02*
X59334Y50899D01*
X62333Y48899D02*
X59334Y46900D01*
X55335D02*
X53336D01*
X52336Y47900D01*
Y49899D01*
X53336Y50899D01*
X55335D01*
X56335Y49899D01*
Y47900D01*
X55335Y46900D01*
X50337Y50899D02*
Y47900D01*
X49337Y46900D01*
X46338D01*
Y50899D01*
X43339Y51898D02*
Y50899D01*
X44339D01*
X42339D01*
X43339D01*
Y47900D01*
X42339Y46900D01*
X163500Y42998D02*
Y38999D01*
X161501Y37000D01*
X159501Y38999D01*
Y42998D01*
X154503Y37000D02*
X156502D01*
X157502Y38000D01*
Y39999D01*
X156502Y40999D01*
X154503D01*
X153503Y39999D01*
Y38999D01*
X157502D01*
X151504Y40999D02*
Y37000D01*
Y38999D01*
X150504Y39999D01*
X149504Y40999D01*
X148505D01*
X145506Y37000D02*
X142507D01*
X141507Y38000D01*
X142507Y38999D01*
X144506D01*
X145506Y39999D01*
X144506Y40999D01*
X141507D01*
X139508Y37000D02*
X137508D01*
X138508D01*
Y40999D01*
X139508D01*
X133510Y37000D02*
X131510D01*
X130511Y38000D01*
Y39999D01*
X131510Y40999D01*
X133510D01*
X134509Y39999D01*
Y38000D01*
X133510Y37000D01*
X128511D02*
Y40999D01*
X125512D01*
X124513Y39999D01*
Y37000D01*
X116515Y38999D02*
X112516D01*
X116515Y40999D02*
X112516D01*
X104519Y42998D02*
Y38999D01*
X102520Y37000D01*
X100520Y38999D01*
Y42998D01*
X98521Y37000D02*
X96522D01*
X97521D01*
Y42998D01*
X98521Y41998D01*
D14*
X125000Y65000D02*
X225000D01*
X125000D02*
Y75000D01*
X225000D01*
Y65000D02*
Y75000D01*
X25000Y65000D02*
X125000D01*
X25000D02*
Y75000D01*
X125000D01*
Y65000D02*
Y75000D01*
Y-5000D02*
Y5000D01*
Y-5000D02*
X225000D01*
Y5000D01*
X125000D02*
X225000D01*
X25000Y-5000D02*
Y5000D01*
Y-5000D02*
X125000D01*
Y5000D01*
X25000D02*
X125000D01*
M02*
