M48
;Layer_Color=9474304
;FILE_FORMAT=2:5
INCH,TZ
;TYPE=PLATED
T1F00S00C0.01181
T2F00S00C0.03543
%
T01
X37748Y17752
X39500Y20000
X54300Y26500
X80358Y29500
X90500Y34000
X85400Y39800
X94900Y41200
X91500Y15000
X116701Y18000
X123000
X135400Y19900
X142500Y16400
X142000Y7500
X161000Y9000
X167500Y8500
X180500Y10500
X185500
X190500
X190300Y13815
X195500Y17000
X199000Y22000
X204000Y17000
X203500Y8200
X195900
X190500Y24500
X186500
X182500
X175000Y22500
Y18000
Y27500
X181200Y35715
X185200
X185400Y38715
X187400Y40715
X189200Y35715
X191200Y33715
X187200
X183200
X195500Y35000
X201500
Y40000
X171000Y39915
X167500Y45000
X158900Y33800
X154900
X154200Y25000
X150600Y25600
X153454Y18046
X157500Y17500
X161000
X160800Y24900
X206500Y35000
Y40000
X202500Y55000
X197500
X192500
X187500
X182500Y55100
X177500Y55000
X172500Y50000
X160900Y56500
X156300Y56400
X103100Y54500
X103500Y60500
X89500Y51500
T02
X30000Y0
X40000
X25500Y10000
Y20000
Y30000
Y40000
X50000Y0
X60000
X70000
X80000
X90000
X100000
X110000
X120000
X130000
X140000
X150000
X160000
X170000
X180000
X190000
X200000
X210000
X220000
Y70000
X210000
X200000
X190000
X180000
X170000
X160000
X150000
X140000
X130000
X120000
X110000
X100000
X90000
X80000
X70000
X60000
X50000
X40000
X30000
X25500Y60000
Y50000
M30
