M48
;Layer_Color=9474304
;FILE_FORMAT=2:5
INCH,TZ
;TYPE=PLATED
T1F00S00C0.01181
T2F00S00C0.02756
T3F00S00C0.03543
%
T01
X37748Y17752
X39500Y20000
X54300Y26500
X60900Y21000
X80358Y29500
X90500Y34000
X85400Y39800
X94900Y41200
X91500Y15000
X116701Y18000
X123000
X135400Y19900
X142500Y16400
X153454Y18046
X157500Y17500
X161000
X160800Y24900
X154200Y25000
X150600Y25600
X154900Y33800
X158900
X171500Y34700
X175400Y27500
X181800Y24500
X186500
X191700
X197700Y23300
Y19300
X195000Y16800
X204000Y17000
X195600Y7600
X190500Y10500
X185500
X180500
X183200Y13800
X173000Y18200
X166700Y9300
X161000Y9000
X139800Y5700
X154700Y44000
X165500Y42500
X182500Y35715
X186500
X186700Y38715
X188700Y40715
X190500Y35715
X192500Y33715
X188500
X184500
X195500Y35000
X205200Y32600
X210200
Y37600
X205200
X204600Y7700
X202500Y55000
X197500
X192500
X187500
X182500Y55100
X177500Y55000
X172500Y50000
X169200Y46700
X160900Y56300
X156300Y56200
X103100Y54500
X103500Y60500
X89500Y51500
T02
X170400Y40100
T03
X30000Y0
X40000
X25500Y10000
Y20000
Y30000
Y40000
X50000Y0
X60000
X70000
X80000
X90000
X100000
X110000
X120000
X130000
X140000
X150000
X160000
X170000
X180000
X190000
X200000
X210000
X220000
Y70000
X210000
X200000
X190000
X180000
X170000
X160000
X150000
X140000
X130000
X120000
X110000
X100000
X90000
X80000
X70000
X60000
X50000
X40000
X30000
X25500Y60000
Y50000
M30
