G04*
G04 #@! TF.GenerationSoftware,Altium Limited,Altium Designer,19.1.8 (144)*
G04*
G04 Layer_Color=8388736*
%FSLAX25Y25*%
%MOIN*%
G70*
G01*
G75*
%ADD20R,0.05524X0.03800*%
%ADD21R,0.04383X0.05603*%
%ADD22R,0.05131X0.04737*%
G04:AMPARAMS|DCode=23|XSize=23.75mil|YSize=41.47mil|CornerRadius=7.94mil|HoleSize=0mil|Usage=FLASHONLY|Rotation=90.000|XOffset=0mil|YOffset=0mil|HoleType=Round|Shape=RoundedRectangle|*
%AMROUNDEDRECTD23*
21,1,0.02375,0.02559,0,0,90.0*
21,1,0.00787,0.04147,0,0,90.0*
1,1,0.01587,0.01280,0.00394*
1,1,0.01587,0.01280,-0.00394*
1,1,0.01587,-0.01280,-0.00394*
1,1,0.01587,-0.01280,0.00394*
%
%ADD23ROUNDEDRECTD23*%
%ADD24R,0.04737X0.05131*%
%ADD25O,0.08871X0.03162*%
%ADD26O,0.03162X0.08871*%
G04:AMPARAMS|DCode=27|XSize=47.37mil|YSize=29.65mil|CornerRadius=9.41mil|HoleSize=0mil|Usage=FLASHONLY|Rotation=90.000|XOffset=0mil|YOffset=0mil|HoleType=Round|Shape=RoundedRectangle|*
%AMROUNDEDRECTD27*
21,1,0.04737,0.01083,0,0,90.0*
21,1,0.02854,0.02965,0,0,90.0*
1,1,0.01883,0.00541,0.01427*
1,1,0.01883,0.00541,-0.01427*
1,1,0.01883,-0.00541,-0.01427*
1,1,0.01883,-0.00541,0.01427*
%
%ADD27ROUNDEDRECTD27*%
%ADD28R,0.05524X0.05524*%
%ADD29C,0.05524*%
%ADD30R,0.06706X0.06706*%
%ADD31C,0.06706*%
%ADD32R,0.06706X0.06706*%
D20*
X196495Y27618D02*
D03*
Y42382D02*
D03*
X220905D02*
D03*
Y27618D02*
D03*
D21*
X59643Y32200D02*
D03*
X72557D02*
D03*
D22*
X183653Y53000D02*
D03*
X190347D02*
D03*
X183653Y48000D02*
D03*
X190347D02*
D03*
X189946Y18415D02*
D03*
X183254D02*
D03*
X61853Y39600D02*
D03*
X68546D02*
D03*
X61853Y44500D02*
D03*
X68546D02*
D03*
X154154Y21400D02*
D03*
X160846D02*
D03*
X216347Y48500D02*
D03*
X209653D02*
D03*
X216347Y21500D02*
D03*
X209653D02*
D03*
X157147Y56400D02*
D03*
X150453D02*
D03*
X160846Y28500D02*
D03*
X154154D02*
D03*
X84835Y29500D02*
D03*
X91528D02*
D03*
D23*
X65671Y23659D02*
D03*
Y21100D02*
D03*
Y18541D02*
D03*
X74529D02*
D03*
Y21100D02*
D03*
Y23659D02*
D03*
D24*
X176500Y32768D02*
D03*
Y39461D02*
D03*
D25*
X100559Y50748D02*
D03*
Y47598D02*
D03*
Y44449D02*
D03*
Y41299D02*
D03*
Y38150D02*
D03*
Y35000D02*
D03*
Y31850D02*
D03*
Y28701D02*
D03*
Y25551D02*
D03*
Y22402D02*
D03*
Y19252D02*
D03*
X145441D02*
D03*
Y22402D02*
D03*
Y25551D02*
D03*
Y28701D02*
D03*
Y31850D02*
D03*
Y35000D02*
D03*
Y38150D02*
D03*
Y41299D02*
D03*
Y44449D02*
D03*
Y47598D02*
D03*
Y50748D02*
D03*
D26*
X107252Y12559D02*
D03*
X110402D02*
D03*
X113551D02*
D03*
X116701D02*
D03*
X119850D02*
D03*
X123000D02*
D03*
X126150D02*
D03*
X129299D02*
D03*
X132449D02*
D03*
X135598D02*
D03*
X138748D02*
D03*
Y57441D02*
D03*
X135598D02*
D03*
X132449D02*
D03*
X129299D02*
D03*
X126150D02*
D03*
X123000D02*
D03*
X119850D02*
D03*
X116701D02*
D03*
X113551D02*
D03*
X110402D02*
D03*
X107252D02*
D03*
D27*
X183960Y29200D02*
D03*
X187700D02*
D03*
X191440D02*
D03*
X183960Y39830D02*
D03*
X191440D02*
D03*
D28*
X8937Y11378D02*
D03*
D29*
X1063D02*
D03*
X8937Y19252D02*
D03*
X1063D02*
D03*
X8937Y27126D02*
D03*
X1063D02*
D03*
X8937Y35000D02*
D03*
X1063D02*
D03*
X8937Y42874D02*
D03*
X1063D02*
D03*
X8937Y50748D02*
D03*
X1063D02*
D03*
X8937Y58622D02*
D03*
X1063D02*
D03*
X170400Y40100D02*
D03*
D30*
X25500Y60000D02*
D03*
D31*
Y50000D02*
D03*
Y40000D02*
D03*
Y30000D02*
D03*
Y20000D02*
D03*
Y10000D02*
D03*
X130000Y70000D02*
D03*
X220000D02*
D03*
X210000D02*
D03*
X200000D02*
D03*
X190000D02*
D03*
X180000D02*
D03*
X170000D02*
D03*
X160000D02*
D03*
X150000D02*
D03*
X140000D02*
D03*
X30000D02*
D03*
X120000D02*
D03*
X110000D02*
D03*
X100000D02*
D03*
X90000D02*
D03*
X80000D02*
D03*
X70000D02*
D03*
X60000D02*
D03*
X50000D02*
D03*
X40000D02*
D03*
X210000Y0D02*
D03*
X200000D02*
D03*
X190000D02*
D03*
X180000D02*
D03*
X170000D02*
D03*
X160000D02*
D03*
X150000D02*
D03*
X140000D02*
D03*
X130000D02*
D03*
X220000D02*
D03*
X110000D02*
D03*
X100000D02*
D03*
X90000D02*
D03*
X80000D02*
D03*
X70000D02*
D03*
X60000D02*
D03*
X50000D02*
D03*
X40000D02*
D03*
X120000D02*
D03*
D32*
X30000D02*
D03*
M02*
