M48
;Layer_Color=9474304
;FILE_FORMAT=2:5
INCH,TZ
;TYPE=PLATED
T1F00S00C0.01181
T2F00S00C0.02756
T3F00S00C0.03150
T4F00S00C0.03543
%
T01
X37748Y17752
X39500Y20000
X54700Y14600
X60900Y21000
X80358Y29500
X90500Y34000
X85400Y39800
X94900Y41200
X91500Y15000
X116701Y18000
X123000
X135400Y19900
X142500Y16400
X150500Y16500
X153454Y18046
X157500Y17500
X161000
X160800Y24900
X154200Y25000
X150600Y25600
X154900Y33800
X158900
X171500Y34700
Y26100
X171600Y19000
X166700Y9300
X161000Y9000
X152500Y11000
X145500
X139800Y5700
X180500Y10500
X185500
X190500
X195600Y7600
X195000Y16800
X197700Y19300
Y23300
X191700Y24500
X186500
X181800
X182500Y35715
X186500
X186700Y38715
X188700Y40715
X190500Y35715
X192500Y33715
X194500Y35600
X188500Y33715
X184500
X183200Y13800
X204000Y17000
X165500Y42500
X154700Y44000
X206200Y35000
X211200
X200300Y61700
X195000Y58500
X187500Y58300
X182500
X177900Y55300
X172900Y50400
X169200Y46700
X167600Y56100
X161900Y56200
X103100Y54500
X103500Y60500
X89500Y51500
T02
X170400Y40100
T03
X1063Y11378
X8937
Y19252
Y27126
X1063
Y19252
Y35000
Y42874
X8937
Y35000
Y50748
Y58622
X1063
Y50748
T04
X30000Y0
X40000
X25500Y10000
Y20000
Y30000
Y40000
X50000Y0
X60000
X70000
X80000
X90000
X100000
X110000
X120000
X130000
X140000
X150000
X160000
X170000
X180000
X190000
X200000
X210000
X220000
Y70000
X210000
X200000
X190000
X180000
X170000
X160000
X150000
X140000
X130000
X120000
X110000
X100000
X90000
X80000
X70000
X60000
X50000
X40000
X30000
X25500Y60000
Y50000
M30
