G04*
G04 #@! TF.GenerationSoftware,Altium Limited,Altium Designer,19.1.8 (144)*
G04*
G04 Layer_Physical_Order=1*
G04 Layer_Color=255*
%FSLAX25Y25*%
%MOIN*%
G70*
G01*
G75*
%ADD12C,0.01000*%
%ADD16C,0.02000*%
%ADD33O,0.08071X0.02362*%
%ADD34O,0.02362X0.08071*%
%ADD35R,0.04331X0.02559*%
%ADD36R,0.04724X0.03000*%
%ADD37R,0.03583X0.04803*%
%ADD38R,0.04331X0.03937*%
%ADD39R,0.03937X0.04331*%
G04:AMPARAMS|DCode=40|XSize=39.37mil|YSize=21.65mil|CornerRadius=5.41mil|HoleSize=0mil|Usage=FLASHONLY|Rotation=90.000|XOffset=0mil|YOffset=0mil|HoleType=Round|Shape=RoundedRectangle|*
%AMROUNDEDRECTD40*
21,1,0.03937,0.01083,0,0,90.0*
21,1,0.02854,0.02165,0,0,90.0*
1,1,0.01083,0.00541,0.01427*
1,1,0.01083,0.00541,-0.01427*
1,1,0.01083,-0.00541,-0.01427*
1,1,0.01083,-0.00541,0.01427*
%
%ADD40ROUNDEDRECTD40*%
%ADD41C,0.01500*%
%ADD42R,0.13600X0.04600*%
%ADD43R,0.05906X0.05906*%
%ADD44C,0.05906*%
%ADD45R,0.04724X0.04724*%
%ADD46C,0.04724*%
%ADD47R,0.05906X0.05906*%
%ADD48C,0.01968*%
G36*
X226480Y-3980D02*
X-6880D01*
Y73980D01*
X217974D01*
X218073Y73480D01*
X218007Y73453D01*
X217181Y72819D01*
X216547Y71993D01*
X216149Y71032D01*
X216079Y70500D01*
X220000D01*
X223921D01*
X223851Y71032D01*
X223453Y71993D01*
X222819Y72819D01*
X221993Y73453D01*
X221927Y73480D01*
X222026Y73980D01*
X226480D01*
X226480Y-3980D01*
D02*
G37*
%LPC*%
G36*
X210000Y73483D02*
X209099Y73364D01*
X208259Y73016D01*
X207538Y72462D01*
X206984Y71741D01*
X206636Y70901D01*
X206518Y70000D01*
X206636Y69099D01*
X206935Y68377D01*
X204578Y66020D01*
X198551D01*
X198161Y65942D01*
X197950Y65801D01*
X197631Y66189D01*
X198377Y66935D01*
X199099Y66636D01*
X200000Y66518D01*
X200901Y66636D01*
X201741Y66984D01*
X202463Y67537D01*
X203016Y68259D01*
X203364Y69099D01*
X203483Y70000D01*
X203364Y70901D01*
X203016Y71741D01*
X202463Y72462D01*
X201741Y73016D01*
X200901Y73364D01*
X200000Y73483D01*
X199099Y73364D01*
X198259Y73016D01*
X197538Y72462D01*
X196984Y71741D01*
X196636Y70901D01*
X196518Y70000D01*
X196636Y69099D01*
X196935Y68377D01*
X192578Y64020D01*
X185169D01*
X184961Y64520D01*
X187787Y67346D01*
X188259Y66984D01*
X189099Y66636D01*
X190000Y66518D01*
X190901Y66636D01*
X191741Y66984D01*
X192463Y67537D01*
X193016Y68259D01*
X193364Y69099D01*
X193482Y70000D01*
X193364Y70901D01*
X193016Y71741D01*
X192463Y72462D01*
X191741Y73016D01*
X190901Y73364D01*
X190000Y73483D01*
X189099Y73364D01*
X188259Y73016D01*
X187538Y72462D01*
X186984Y71741D01*
X186636Y70901D01*
X186518Y70000D01*
X186636Y69099D01*
X186642Y69084D01*
X183578Y66020D01*
X180000D01*
X179610Y65942D01*
X179279Y65721D01*
X165326Y51768D01*
X149636D01*
X149507Y51960D01*
X148951Y52332D01*
X148295Y52462D01*
X142872D01*
X142665Y52962D01*
X144428Y54725D01*
X147788D01*
Y53931D01*
X153119D01*
Y58868D01*
X147788D01*
Y57275D01*
X143900D01*
X143412Y57178D01*
X142999Y56901D01*
X140962Y54865D01*
X140462Y55072D01*
Y59563D01*
X140879Y59980D01*
X171000D01*
X171390Y60058D01*
X171721Y60279D01*
X178377Y66935D01*
X179099Y66636D01*
X180000Y66518D01*
X180901Y66636D01*
X181741Y66984D01*
X182463Y67537D01*
X183016Y68259D01*
X183364Y69099D01*
X183483Y70000D01*
X183364Y70901D01*
X183016Y71741D01*
X182463Y72462D01*
X181741Y73016D01*
X180901Y73364D01*
X180000Y73483D01*
X179099Y73364D01*
X178259Y73016D01*
X177538Y72462D01*
X176984Y71741D01*
X176636Y70901D01*
X176517Y70000D01*
X176636Y69099D01*
X176935Y68377D01*
X170578Y62020D01*
X164115D01*
X163924Y62481D01*
X168377Y66935D01*
X169099Y66636D01*
X170000Y66518D01*
X170901Y66636D01*
X171741Y66984D01*
X172462Y67537D01*
X173016Y68259D01*
X173364Y69099D01*
X173483Y70000D01*
X173364Y70901D01*
X173016Y71741D01*
X172462Y72462D01*
X171741Y73016D01*
X170901Y73364D01*
X170000Y73483D01*
X169099Y73364D01*
X168259Y73016D01*
X167537Y72462D01*
X166984Y71741D01*
X166636Y70901D01*
X166517Y70000D01*
X166636Y69099D01*
X166935Y68377D01*
X162078Y63520D01*
X155615D01*
X155423Y63981D01*
X158377Y66935D01*
X159099Y66636D01*
X160000Y66518D01*
X160901Y66636D01*
X161741Y66984D01*
X162462Y67537D01*
X163016Y68259D01*
X163364Y69099D01*
X163482Y70000D01*
X163364Y70901D01*
X163016Y71741D01*
X162462Y72462D01*
X161741Y73016D01*
X160901Y73364D01*
X160000Y73483D01*
X159099Y73364D01*
X158259Y73016D01*
X157537Y72462D01*
X156984Y71741D01*
X156636Y70901D01*
X156518Y70000D01*
X156636Y69099D01*
X156935Y68377D01*
X153578Y65020D01*
X147115D01*
X146923Y65482D01*
X148377Y66935D01*
X149099Y66636D01*
X150000Y66518D01*
X150901Y66636D01*
X151741Y66984D01*
X152462Y67537D01*
X153016Y68259D01*
X153364Y69099D01*
X153482Y70000D01*
X153364Y70901D01*
X153016Y71741D01*
X152462Y72462D01*
X151741Y73016D01*
X150901Y73364D01*
X150000Y73483D01*
X149099Y73364D01*
X148259Y73016D01*
X147538Y72462D01*
X146984Y71741D01*
X146636Y70901D01*
X146518Y70000D01*
X146636Y69099D01*
X146935Y68377D01*
X145078Y66520D01*
X141927D01*
X141789Y66864D01*
X141788Y67020D01*
X142463Y67537D01*
X143016Y68259D01*
X143364Y69099D01*
X143482Y70000D01*
X143364Y70901D01*
X143016Y71741D01*
X142463Y72462D01*
X141741Y73016D01*
X140901Y73364D01*
X140000Y73483D01*
X139099Y73364D01*
X138259Y73016D01*
X137538Y72462D01*
X136984Y71741D01*
X136667Y70977D01*
X135547D01*
X135157Y70899D01*
X134826Y70678D01*
X133928Y69780D01*
X133639Y69923D01*
X133478Y70037D01*
X133364Y70901D01*
X133016Y71741D01*
X132463Y72462D01*
X131741Y73016D01*
X130901Y73364D01*
X130000Y73483D01*
X129099Y73364D01*
X128259Y73016D01*
X127538Y72462D01*
X126984Y71741D01*
X126636Y70901D01*
X126517Y70000D01*
X126636Y69099D01*
X126829Y68634D01*
X123215Y65020D01*
X121624D01*
X121234Y64942D01*
X120903Y64721D01*
X119129Y62947D01*
X118908Y62616D01*
X118831Y62226D01*
Y61636D01*
X118638Y61507D01*
X118570Y61405D01*
X118062Y61374D01*
X117720Y61712D01*
Y66278D01*
X118377Y66935D01*
X119099Y66636D01*
X120000Y66518D01*
X120901Y66636D01*
X121741Y66984D01*
X122462Y67537D01*
X123016Y68259D01*
X123364Y69099D01*
X123483Y70000D01*
X123364Y70901D01*
X123016Y71741D01*
X122462Y72462D01*
X121741Y73016D01*
X120901Y73364D01*
X120000Y73483D01*
X119099Y73364D01*
X118259Y73016D01*
X117537Y72462D01*
X116984Y71741D01*
X116636Y70901D01*
X116517Y70000D01*
X116636Y69099D01*
X116935Y68377D01*
X115980Y67422D01*
X115759Y67091D01*
X115681Y66701D01*
Y61636D01*
X115489Y61507D01*
X115421Y61405D01*
X114912Y61374D01*
X114571Y61712D01*
Y66449D01*
X114493Y66839D01*
X114272Y67170D01*
X113065Y68377D01*
X113364Y69099D01*
X113482Y70000D01*
X113364Y70901D01*
X113016Y71741D01*
X112462Y72462D01*
X111741Y73016D01*
X110901Y73364D01*
X110000Y73483D01*
X109099Y73364D01*
X108259Y73016D01*
X107537Y72462D01*
X106984Y71741D01*
X106636Y70901D01*
X106518Y70000D01*
X106636Y69099D01*
X106984Y68259D01*
X107537Y67537D01*
X108259Y66984D01*
X109099Y66636D01*
X110000Y66518D01*
X110901Y66636D01*
X111623Y66935D01*
X112532Y66027D01*
Y61636D01*
X112339Y61507D01*
X112271Y61405D01*
X111762Y61374D01*
X111421Y61712D01*
Y63598D01*
X111344Y63989D01*
X111123Y64319D01*
X109721Y65721D01*
X109390Y65942D01*
X109000Y66020D01*
X105422D01*
X103065Y68377D01*
X103364Y69099D01*
X103482Y70000D01*
X103364Y70901D01*
X103016Y71741D01*
X102462Y72462D01*
X101741Y73016D01*
X100901Y73364D01*
X100000Y73483D01*
X99099Y73364D01*
X98259Y73016D01*
X97537Y72462D01*
X96984Y71741D01*
X96636Y70901D01*
X96517Y70000D01*
X96636Y69099D01*
X96984Y68259D01*
X97537Y67537D01*
X98259Y66984D01*
X99099Y66636D01*
X100000Y66518D01*
X100901Y66636D01*
X101623Y66935D01*
X104279Y64279D01*
X104610Y64058D01*
X105000Y63980D01*
X108578D01*
X109382Y63176D01*
Y61636D01*
X109190Y61507D01*
X109077Y61339D01*
X108577D01*
X108464Y61507D01*
X107908Y61879D01*
X107252Y62009D01*
X106596Y61879D01*
X106040Y61507D01*
X105668Y60951D01*
X105538Y60295D01*
Y58460D01*
X96981D01*
X91020Y64422D01*
Y66685D01*
X91741Y66984D01*
X92462Y67537D01*
X93016Y68259D01*
X93364Y69099D01*
X93483Y70000D01*
X93364Y70901D01*
X93016Y71741D01*
X92462Y72462D01*
X91741Y73016D01*
X90901Y73364D01*
X90000Y73483D01*
X89099Y73364D01*
X88259Y73016D01*
X87537Y72462D01*
X86984Y71741D01*
X86636Y70901D01*
X86518Y70000D01*
X86636Y69099D01*
X86984Y68259D01*
X87537Y67537D01*
X88259Y66984D01*
X88980Y66685D01*
Y64000D01*
X89058Y63610D01*
X89279Y63279D01*
X95838Y56720D01*
X96169Y56499D01*
X96559Y56421D01*
X105538D01*
Y54587D01*
X105668Y53931D01*
X105929Y53541D01*
X105708Y53041D01*
X105500D01*
X105117Y52883D01*
X104959Y52500D01*
Y52293D01*
X104459Y52071D01*
X104069Y52332D01*
X103413Y52462D01*
X97705D01*
X97049Y52332D01*
X96493Y51960D01*
X96364Y51768D01*
X95074D01*
X81020Y65822D01*
Y66685D01*
X81741Y66984D01*
X82463Y67537D01*
X83016Y68259D01*
X83364Y69099D01*
X83482Y70000D01*
X83364Y70901D01*
X83016Y71741D01*
X82463Y72462D01*
X81741Y73016D01*
X80901Y73364D01*
X80000Y73483D01*
X79099Y73364D01*
X78259Y73016D01*
X77538Y72462D01*
X76984Y71741D01*
X76636Y70901D01*
X76517Y70000D01*
X76636Y69099D01*
X76984Y68259D01*
X77538Y67537D01*
X78259Y66984D01*
X78980Y66685D01*
Y65400D01*
X79058Y65010D01*
X79279Y64679D01*
X93931Y50027D01*
X94262Y49806D01*
X94652Y49728D01*
X96364D01*
X96493Y49536D01*
X96595Y49468D01*
X96626Y48959D01*
X96288Y48618D01*
X89724D01*
X75420Y62922D01*
Y65600D01*
X75342Y65990D01*
X75121Y66321D01*
X73065Y68377D01*
X73364Y69099D01*
X73483Y70000D01*
X73364Y70901D01*
X73016Y71741D01*
X72462Y72462D01*
X71741Y73016D01*
X70901Y73364D01*
X70000Y73483D01*
X69099Y73364D01*
X68259Y73016D01*
X67537Y72462D01*
X66984Y71741D01*
X66636Y70901D01*
X66518Y70000D01*
X66636Y69099D01*
X66984Y68259D01*
X67537Y67537D01*
X68259Y66984D01*
X69099Y66636D01*
X70000Y66518D01*
X70901Y66636D01*
X71623Y66935D01*
X73380Y65178D01*
Y62500D01*
X73458Y62110D01*
X73679Y61779D01*
X88581Y46878D01*
X88911Y46657D01*
X89302Y46579D01*
X96364D01*
X96493Y46386D01*
X96595Y46318D01*
X96626Y45810D01*
X96288Y45468D01*
X88674D01*
X70121Y64021D01*
X69790Y64242D01*
X69400Y64320D01*
X61922D01*
X61020Y65222D01*
Y66685D01*
X61741Y66984D01*
X62463Y67537D01*
X63016Y68259D01*
X63364Y69099D01*
X63482Y70000D01*
X63364Y70901D01*
X63016Y71741D01*
X62463Y72462D01*
X61741Y73016D01*
X60901Y73364D01*
X60000Y73483D01*
X59099Y73364D01*
X58259Y73016D01*
X57538Y72462D01*
X56984Y71741D01*
X56636Y70901D01*
X56517Y70000D01*
X56636Y69099D01*
X56984Y68259D01*
X57538Y67537D01*
X58259Y66984D01*
X58980Y66685D01*
Y64800D01*
X59058Y64410D01*
X59279Y64079D01*
X60779Y62579D01*
X61110Y62358D01*
X61500Y62280D01*
X68978D01*
X87530Y43728D01*
X87861Y43507D01*
X88251Y43429D01*
X96067D01*
X96202Y42984D01*
X96170Y42897D01*
X96132Y42872D01*
X95650Y42150D01*
X95580Y41799D01*
X100559D01*
Y40799D01*
X95580D01*
X95650Y40448D01*
X96132Y39727D01*
X96170Y39702D01*
X96202Y39614D01*
X96067Y39169D01*
X93422D01*
X91971Y40621D01*
X91640Y40842D01*
X91250Y40920D01*
X88622D01*
X69121Y60421D01*
X68790Y60642D01*
X68400Y60720D01*
X56222D01*
X51020Y65922D01*
Y66685D01*
X51741Y66984D01*
X52463Y67537D01*
X53016Y68259D01*
X53364Y69099D01*
X53483Y70000D01*
X53364Y70901D01*
X53016Y71741D01*
X52463Y72462D01*
X51741Y73016D01*
X50901Y73364D01*
X50000Y73483D01*
X49099Y73364D01*
X48259Y73016D01*
X47537Y72462D01*
X46984Y71741D01*
X46636Y70901D01*
X46518Y70000D01*
X46636Y69099D01*
X46984Y68259D01*
X47537Y67537D01*
X48259Y66984D01*
X48980Y66685D01*
Y65500D01*
X49058Y65110D01*
X49279Y64779D01*
X55079Y58979D01*
X55410Y58758D01*
X55800Y58680D01*
X67978D01*
X87479Y39179D01*
X87810Y38958D01*
X88200Y38880D01*
X90696D01*
X90908Y38609D01*
X90689Y38120D01*
X85622D01*
X67021Y56721D01*
X66690Y56942D01*
X66300Y57020D01*
X53422D01*
X42654Y67787D01*
X43016Y68259D01*
X43364Y69099D01*
X43483Y70000D01*
X43364Y70901D01*
X43016Y71741D01*
X42463Y72462D01*
X41741Y73016D01*
X40901Y73364D01*
X40000Y73483D01*
X39099Y73364D01*
X38259Y73016D01*
X37538Y72462D01*
X36984Y71741D01*
X36636Y70901D01*
X36518Y70000D01*
X36636Y69099D01*
X36984Y68259D01*
X37538Y67537D01*
X38259Y66984D01*
X39099Y66636D01*
X40000Y66518D01*
X40901Y66636D01*
X40916Y66642D01*
X52279Y55279D01*
X52610Y55058D01*
X53000Y54980D01*
X65878D01*
X70990Y49869D01*
X70783Y49369D01*
X65881D01*
Y44431D01*
Y40625D01*
X65419Y40434D01*
X64519Y41334D01*
Y43931D01*
X65019D01*
Y46400D01*
X61854D01*
X58688D01*
Y43931D01*
X59188D01*
Y43275D01*
X52528D01*
X34901Y60901D01*
X34488Y61177D01*
X34000Y61274D01*
X28953D01*
Y63453D01*
X22047D01*
Y63453D01*
X21620Y63627D01*
Y65478D01*
X25122Y68980D01*
X26685D01*
X26984Y68259D01*
X27538Y67537D01*
X28259Y66984D01*
X29099Y66636D01*
X30000Y66518D01*
X30901Y66636D01*
X31741Y66984D01*
X32462Y67537D01*
X33016Y68259D01*
X33364Y69099D01*
X33483Y70000D01*
X33364Y70901D01*
X33016Y71741D01*
X32462Y72462D01*
X31741Y73016D01*
X30901Y73364D01*
X30000Y73483D01*
X29099Y73364D01*
X28259Y73016D01*
X27538Y72462D01*
X26984Y71741D01*
X26685Y71020D01*
X24700D01*
X24310Y70942D01*
X23979Y70721D01*
X19879Y66621D01*
X19658Y66290D01*
X19580Y65900D01*
Y56300D01*
X19658Y55910D01*
X19879Y55579D01*
X21179Y54279D01*
X21510Y54058D01*
X21900Y53980D01*
X23474D01*
X23573Y53480D01*
X23507Y53453D01*
X22681Y52819D01*
X22047Y51993D01*
X21649Y51032D01*
X21579Y50500D01*
X25500D01*
X29421D01*
X29351Y51032D01*
X28953Y51993D01*
X28319Y52819D01*
X27493Y53453D01*
X27427Y53480D01*
X27526Y53980D01*
X29778D01*
X37480Y46278D01*
Y37000D01*
X37558Y36610D01*
X37779Y36279D01*
X44679Y29379D01*
X45010Y29158D01*
X45400Y29080D01*
X54685D01*
X54877Y28618D01*
X50778Y24520D01*
X38722D01*
X38021Y25221D01*
X37690Y25442D01*
X37300Y25520D01*
X34720D01*
Y38300D01*
X34642Y38690D01*
X34421Y39021D01*
X27821Y45621D01*
X27490Y45842D01*
X27225Y45895D01*
X27138Y46350D01*
X27143Y46402D01*
X27493Y46547D01*
X28319Y47181D01*
X28953Y48007D01*
X29351Y48968D01*
X29421Y49500D01*
X25500D01*
X21579D01*
X21649Y48968D01*
X22047Y48007D01*
X22681Y47181D01*
X23507Y46547D01*
X23815Y46420D01*
X23715Y45920D01*
X20322D01*
X18721Y47521D01*
X18390Y47742D01*
X18000Y47820D01*
X11421D01*
X11261Y48293D01*
X11335Y48350D01*
X11874Y49052D01*
X12213Y49870D01*
X12262Y50248D01*
X5612D01*
X5661Y49870D01*
X6000Y49052D01*
X6539Y48350D01*
X6613Y48293D01*
X6453Y47820D01*
X4952D01*
X4562Y47742D01*
X4231Y47521D01*
X2208Y45498D01*
X1810Y45663D01*
X1063Y45761D01*
X316Y45663D01*
X-381Y45374D01*
X-978Y44915D01*
X-1437Y44317D01*
X-1726Y43621D01*
X-1824Y42874D01*
X-1726Y42127D01*
X-1437Y41431D01*
X-978Y40833D01*
X-381Y40374D01*
X316Y40086D01*
X1063Y39987D01*
X1810Y40086D01*
X2506Y40374D01*
X3104Y40833D01*
X3563Y41431D01*
X3852Y42127D01*
X3950Y42874D01*
X3852Y43621D01*
X3665Y44071D01*
X5374Y45780D01*
X6424D01*
X6585Y45307D01*
X6539Y45272D01*
X6000Y44570D01*
X5661Y43752D01*
X5612Y43374D01*
X12262D01*
X12213Y43752D01*
X11874Y44570D01*
X11335Y45272D01*
X11289Y45307D01*
X11450Y45780D01*
X17578D01*
X19179Y44179D01*
X19510Y43958D01*
X19900Y43880D01*
X24691D01*
X24724Y43380D01*
X24599Y43364D01*
X23759Y43016D01*
X23038Y42463D01*
X22484Y41741D01*
X22136Y40901D01*
X22017Y40000D01*
X22136Y39099D01*
X22484Y38259D01*
X23038Y37538D01*
X23759Y36984D01*
X24599Y36636D01*
X25500Y36518D01*
X26401Y36636D01*
X27123Y36935D01*
X29380Y34678D01*
Y30809D01*
X28880Y30776D01*
X28864Y30901D01*
X28516Y31741D01*
X27962Y32462D01*
X27241Y33016D01*
X26401Y33364D01*
X25500Y33483D01*
X24599Y33364D01*
X23759Y33016D01*
X23038Y32462D01*
X22484Y31741D01*
X22185Y31020D01*
X20422D01*
X19621Y31821D01*
X19290Y32042D01*
X18900Y32120D01*
X11484D01*
X11375Y32440D01*
X11348Y32620D01*
X11874Y33304D01*
X12213Y34122D01*
X12262Y34500D01*
X5612D01*
X5661Y34122D01*
X6000Y33304D01*
X6526Y32620D01*
X6499Y32440D01*
X6390Y32120D01*
X5348D01*
X3665Y33803D01*
X3852Y34253D01*
X3950Y35000D01*
X3852Y35747D01*
X3563Y36443D01*
X3104Y37041D01*
X2506Y37500D01*
X1810Y37789D01*
X1063Y37887D01*
X316Y37789D01*
X-381Y37500D01*
X-978Y37041D01*
X-1437Y36443D01*
X-1726Y35747D01*
X-1824Y35000D01*
X-1726Y34253D01*
X-1437Y33557D01*
X-978Y32959D01*
X-381Y32500D01*
X316Y32212D01*
X1063Y32113D01*
X1810Y32212D01*
X2208Y32376D01*
X4205Y30379D01*
X4536Y30158D01*
X4926Y30080D01*
X6443D01*
X6613Y29580D01*
X6539Y29524D01*
X6000Y28822D01*
X5661Y28004D01*
X5612Y27626D01*
X12262D01*
X12213Y28004D01*
X11874Y28822D01*
X11335Y29524D01*
X11261Y29580D01*
X11431Y30080D01*
X18478D01*
X19279Y29279D01*
X19610Y29058D01*
X20000Y28980D01*
X22185D01*
X22484Y28259D01*
X23038Y27538D01*
X23759Y26984D01*
X24599Y26636D01*
X25500Y26518D01*
X26401Y26636D01*
X27241Y26984D01*
X27962Y27538D01*
X28516Y28259D01*
X28864Y29099D01*
X28880Y29224D01*
X29380Y29191D01*
Y27822D01*
X27578Y26020D01*
X19800D01*
X19410Y25942D01*
X19079Y25721D01*
X17778Y24420D01*
X11725D01*
X11482Y24920D01*
X11874Y25430D01*
X12213Y26248D01*
X12262Y26626D01*
X5612D01*
X5661Y26248D01*
X6000Y25430D01*
X6392Y24920D01*
X6149Y24420D01*
X5174D01*
X3665Y25929D01*
X3852Y26379D01*
X3950Y27126D01*
X3852Y27873D01*
X3563Y28569D01*
X3104Y29167D01*
X2506Y29626D01*
X1810Y29915D01*
X1063Y30013D01*
X316Y29915D01*
X-381Y29626D01*
X-978Y29167D01*
X-1437Y28569D01*
X-1726Y27873D01*
X-1824Y27126D01*
X-1726Y26379D01*
X-1437Y25683D01*
X-978Y25085D01*
X-381Y24626D01*
X316Y24338D01*
X1063Y24239D01*
X1810Y24338D01*
X2208Y24502D01*
X4031Y22679D01*
X4362Y22458D01*
X4752Y22380D01*
X6670D01*
X6839Y21880D01*
X6539Y21650D01*
X6000Y20948D01*
X5661Y20130D01*
X5612Y19752D01*
X12262D01*
X12213Y20130D01*
X11874Y20948D01*
X11335Y21650D01*
X11035Y21880D01*
X11204Y22380D01*
X18200D01*
X18590Y22458D01*
X18921Y22679D01*
X20222Y23980D01*
X28000D01*
X28390Y24058D01*
X28721Y24279D01*
X31121Y26679D01*
X31342Y27010D01*
X31420Y27400D01*
Y35100D01*
X31342Y35490D01*
X31121Y35821D01*
X28565Y38377D01*
X28864Y39099D01*
X28982Y40000D01*
X28864Y40901D01*
X28803Y41048D01*
X29227Y41331D01*
X32680Y37878D01*
Y24822D01*
X29216Y21358D01*
X28626Y21475D01*
X28516Y21741D01*
X27962Y22463D01*
X27241Y23016D01*
X26401Y23364D01*
X25500Y23483D01*
X24599Y23364D01*
X23759Y23016D01*
X23038Y22463D01*
X22484Y21741D01*
X22136Y20901D01*
X22017Y20000D01*
X22136Y19099D01*
X22484Y18259D01*
X23038Y17537D01*
X23759Y16984D01*
X24599Y16636D01*
X25500Y16518D01*
X26401Y16636D01*
X27241Y16984D01*
X27962Y17537D01*
X28516Y18259D01*
X28815Y18980D01*
X29300D01*
X29690Y19058D01*
X30021Y19279D01*
X34222Y23480D01*
X36486D01*
X36709Y23221D01*
X36779Y22721D01*
X27123Y13065D01*
X26401Y13364D01*
X25500Y13483D01*
X24599Y13364D01*
X23759Y13016D01*
X23038Y12462D01*
X22484Y11741D01*
X22185Y11020D01*
X21622D01*
X16621Y16021D01*
X16290Y16242D01*
X15900Y16320D01*
X11416D01*
X11255Y16793D01*
X11335Y16854D01*
X11874Y17556D01*
X12213Y18374D01*
X12262Y18752D01*
X5612D01*
X5661Y18374D01*
X6000Y17556D01*
X6539Y16854D01*
X6618Y16793D01*
X6458Y16320D01*
X5400D01*
X3665Y18055D01*
X3852Y18505D01*
X3950Y19252D01*
X3852Y19999D01*
X3563Y20695D01*
X3104Y21293D01*
X2506Y21752D01*
X1810Y22040D01*
X1063Y22139D01*
X316Y22040D01*
X-381Y21752D01*
X-978Y21293D01*
X-1437Y20695D01*
X-1726Y19999D01*
X-1824Y19252D01*
X-1726Y18505D01*
X-1437Y17808D01*
X-978Y17211D01*
X-381Y16752D01*
X316Y16464D01*
X1063Y16365D01*
X1810Y16464D01*
X2208Y16628D01*
X4257Y14579D01*
X4588Y14358D01*
X4978Y14280D01*
X5592D01*
X6075Y14240D01*
X6075Y13780D01*
Y8516D01*
X11799D01*
X11799Y14240D01*
X12282Y14280D01*
X15478D01*
X20479Y9279D01*
X20810Y9058D01*
X21200Y8980D01*
X22185D01*
X22484Y8259D01*
X23038Y7537D01*
X23759Y6984D01*
X24599Y6636D01*
X25500Y6517D01*
X26401Y6636D01*
X27241Y6984D01*
X27962Y7537D01*
X28516Y8259D01*
X28864Y9099D01*
X28982Y10000D01*
X28864Y10901D01*
X28565Y11623D01*
X37610Y20668D01*
X38070Y20422D01*
X37987Y20000D01*
X38102Y19421D01*
X38430Y18930D01*
X38921Y18602D01*
X39500Y18487D01*
X40079Y18602D01*
X40570Y18930D01*
X40604Y18980D01*
X53400D01*
X53790Y19058D01*
X54121Y19279D01*
X57863Y23021D01*
X58668D01*
X58810Y22580D01*
X58810D01*
Y20800D01*
X61976D01*
Y19800D01*
X58810D01*
Y18021D01*
X58571Y17620D01*
X39904D01*
X39870Y17670D01*
X39379Y17998D01*
X38800Y18113D01*
X38221Y17998D01*
X37730Y17670D01*
X37402Y17179D01*
X37287Y16600D01*
X37402Y16021D01*
X37730Y15530D01*
X38221Y15202D01*
X38800Y15087D01*
X39379Y15202D01*
X39870Y15530D01*
X39904Y15580D01*
X59310D01*
Y14780D01*
X63199D01*
X65898Y12082D01*
X65706Y11620D01*
X40600D01*
X40210Y11542D01*
X39879Y11321D01*
X32011Y3453D01*
X26547D01*
Y-3453D01*
X33453D01*
Y2011D01*
X41022Y9580D01*
X47485D01*
X47677Y9119D01*
X41623Y3065D01*
X40901Y3364D01*
X40000Y3483D01*
X39099Y3364D01*
X38259Y3016D01*
X37538Y2462D01*
X36984Y1741D01*
X36636Y901D01*
X36518Y0D01*
X36636Y-901D01*
X36984Y-1741D01*
X37538Y-2462D01*
X38259Y-3016D01*
X39099Y-3364D01*
X40000Y-3483D01*
X40901Y-3364D01*
X41741Y-3016D01*
X42463Y-2462D01*
X43016Y-1741D01*
X43364Y-901D01*
X43483Y0D01*
X43364Y901D01*
X43065Y1623D01*
X49422Y7980D01*
X103578D01*
X104053Y7505D01*
X103862Y7043D01*
X56024D01*
X55633Y6966D01*
X55303Y6745D01*
X51623Y3065D01*
X50901Y3364D01*
X50000Y3483D01*
X49099Y3364D01*
X48259Y3016D01*
X47537Y2462D01*
X46984Y1741D01*
X46636Y901D01*
X46518Y0D01*
X46636Y-901D01*
X46984Y-1741D01*
X47537Y-2462D01*
X48259Y-3016D01*
X49099Y-3364D01*
X50000Y-3483D01*
X50901Y-3364D01*
X51741Y-3016D01*
X52463Y-2462D01*
X53016Y-1741D01*
X53364Y-901D01*
X53483Y0D01*
X53364Y901D01*
X53065Y1623D01*
X56446Y5004D01*
X62909D01*
X63100Y4542D01*
X61623Y3065D01*
X60901Y3364D01*
X60000Y3483D01*
X59099Y3364D01*
X58259Y3016D01*
X57538Y2462D01*
X56984Y1741D01*
X56636Y901D01*
X56517Y0D01*
X56636Y-901D01*
X56984Y-1741D01*
X57538Y-2462D01*
X58259Y-3016D01*
X59099Y-3364D01*
X60000Y-3483D01*
X60901Y-3364D01*
X61741Y-3016D01*
X62463Y-2462D01*
X63016Y-1741D01*
X63364Y-901D01*
X63482Y0D01*
X63364Y901D01*
X63065Y1623D01*
X64946Y3504D01*
X68130D01*
X68248Y3055D01*
X68243Y3004D01*
X67537Y2462D01*
X66984Y1741D01*
X66636Y901D01*
X66518Y0D01*
X66636Y-901D01*
X66984Y-1741D01*
X67537Y-2462D01*
X68259Y-3016D01*
X69099Y-3364D01*
X70000Y-3483D01*
X70901Y-3364D01*
X71741Y-3016D01*
X72462Y-2462D01*
X73016Y-1741D01*
X73364Y-901D01*
X73483Y0D01*
X73364Y901D01*
X73016Y1741D01*
X72462Y2462D01*
X71757Y3004D01*
X71751Y3055D01*
X71870Y3504D01*
X78130D01*
X78249Y3055D01*
X78243Y3004D01*
X77538Y2462D01*
X76984Y1741D01*
X76636Y901D01*
X76517Y0D01*
X76636Y-901D01*
X76984Y-1741D01*
X77538Y-2462D01*
X78259Y-3016D01*
X79099Y-3364D01*
X80000Y-3483D01*
X80901Y-3364D01*
X81741Y-3016D01*
X82463Y-2462D01*
X83016Y-1741D01*
X83364Y-901D01*
X83482Y0D01*
X83364Y901D01*
X83016Y1741D01*
X82463Y2462D01*
X81757Y3004D01*
X81752Y3055D01*
X81870Y3504D01*
X88130D01*
X88248Y3055D01*
X88243Y3004D01*
X87537Y2462D01*
X86984Y1741D01*
X86636Y901D01*
X86518Y0D01*
X86636Y-901D01*
X86984Y-1741D01*
X87537Y-2462D01*
X88259Y-3016D01*
X89099Y-3364D01*
X90000Y-3483D01*
X90901Y-3364D01*
X91741Y-3016D01*
X92462Y-2462D01*
X93016Y-1741D01*
X93364Y-901D01*
X93483Y0D01*
X93364Y901D01*
X93016Y1741D01*
X92462Y2462D01*
X91757Y3004D01*
X91751Y3055D01*
X91870Y3504D01*
X98130D01*
X98248Y3055D01*
X98243Y3004D01*
X97537Y2462D01*
X96984Y1741D01*
X96636Y901D01*
X96517Y0D01*
X96636Y-901D01*
X96984Y-1741D01*
X97537Y-2462D01*
X98259Y-3016D01*
X99099Y-3364D01*
X100000Y-3483D01*
X100901Y-3364D01*
X101741Y-3016D01*
X102462Y-2462D01*
X103016Y-1741D01*
X103364Y-901D01*
X103482Y0D01*
X103364Y901D01*
X103016Y1741D01*
X102462Y2462D01*
X101757Y3004D01*
X101751Y3055D01*
X101870Y3504D01*
X108130D01*
X108248Y3055D01*
X108243Y3004D01*
X107537Y2462D01*
X106984Y1741D01*
X106636Y901D01*
X106518Y0D01*
X106636Y-901D01*
X106984Y-1741D01*
X107537Y-2462D01*
X108259Y-3016D01*
X109099Y-3364D01*
X110000Y-3483D01*
X110901Y-3364D01*
X111741Y-3016D01*
X112462Y-2462D01*
X113016Y-1741D01*
X113364Y-901D01*
X113482Y0D01*
X113364Y901D01*
X113101Y1537D01*
X116044Y4480D01*
X122331D01*
X122552Y4035D01*
X122556Y3998D01*
X121623Y3065D01*
X120901Y3364D01*
X120000Y3483D01*
X119099Y3364D01*
X118259Y3016D01*
X117537Y2462D01*
X116984Y1741D01*
X116636Y901D01*
X116517Y0D01*
X116636Y-901D01*
X116984Y-1741D01*
X117537Y-2462D01*
X118259Y-3016D01*
X119099Y-3364D01*
X120000Y-3483D01*
X120901Y-3364D01*
X121741Y-3016D01*
X122462Y-2462D01*
X123016Y-1741D01*
X123364Y-901D01*
X123483Y0D01*
X123364Y901D01*
X123065Y1623D01*
X129466Y8024D01*
X129955Y8121D01*
X130511Y8493D01*
X130579Y8595D01*
X131088Y8626D01*
X131429Y8288D01*
Y3595D01*
X131014Y3317D01*
X130901Y3364D01*
X130000Y3483D01*
X129099Y3364D01*
X128259Y3016D01*
X127538Y2462D01*
X126984Y1741D01*
X126636Y901D01*
X126517Y0D01*
X126636Y-901D01*
X126984Y-1741D01*
X127538Y-2462D01*
X128259Y-3016D01*
X129099Y-3364D01*
X130000Y-3483D01*
X130901Y-3364D01*
X131741Y-3016D01*
X132463Y-2462D01*
X133016Y-1741D01*
X133364Y-901D01*
X133483Y0D01*
X133441Y313D01*
X133468Y449D01*
Y8364D01*
X133661Y8493D01*
X133729Y8595D01*
X134238Y8626D01*
X134579Y8288D01*
Y4402D01*
X134656Y4011D01*
X134878Y3681D01*
X136935Y1623D01*
X136636Y901D01*
X136518Y0D01*
X136636Y-901D01*
X136984Y-1741D01*
X137538Y-2462D01*
X138259Y-3016D01*
X139099Y-3364D01*
X140000Y-3483D01*
X140901Y-3364D01*
X141741Y-3016D01*
X142463Y-2462D01*
X143016Y-1741D01*
X143364Y-901D01*
X143482Y0D01*
X143364Y901D01*
X143016Y1741D01*
X142463Y2462D01*
X141741Y3016D01*
X140901Y3364D01*
X140000Y3483D01*
X139099Y3364D01*
X138377Y3065D01*
X136618Y4824D01*
Y8364D01*
X136810Y8493D01*
X136923Y8662D01*
X137423D01*
X137536Y8493D01*
X138092Y8121D01*
X138748Y7991D01*
X139404Y8121D01*
X139960Y8493D01*
X140332Y9049D01*
X140462Y9705D01*
Y11434D01*
X140962Y11496D01*
X148713Y3745D01*
X148595Y3156D01*
X148259Y3016D01*
X147538Y2462D01*
X146984Y1741D01*
X146636Y901D01*
X146518Y0D01*
X146636Y-901D01*
X146984Y-1741D01*
X147538Y-2462D01*
X148259Y-3016D01*
X149099Y-3364D01*
X150000Y-3483D01*
X150901Y-3364D01*
X151741Y-3016D01*
X152462Y-2462D01*
X153016Y-1741D01*
X153364Y-901D01*
X153482Y0D01*
X153364Y901D01*
X153016Y1741D01*
X152462Y2462D01*
X151741Y3016D01*
X151020Y3315D01*
Y3900D01*
X150942Y4290D01*
X150721Y4621D01*
X142062Y13280D01*
X141731Y13501D01*
X141341Y13579D01*
X140462D01*
Y15413D01*
X140332Y16069D01*
X139960Y16625D01*
X139404Y16997D01*
X139328Y17012D01*
X139183Y17491D01*
X140509Y18817D01*
X140988Y18672D01*
X141003Y18596D01*
X141375Y18040D01*
X141931Y17668D01*
X142587Y17538D01*
X144421D01*
Y14559D01*
X144499Y14169D01*
X144720Y13838D01*
X156935Y1623D01*
X156636Y901D01*
X156518Y0D01*
X156636Y-901D01*
X156984Y-1741D01*
X157537Y-2462D01*
X158259Y-3016D01*
X159099Y-3364D01*
X160000Y-3483D01*
X160901Y-3364D01*
X161741Y-3016D01*
X162462Y-2462D01*
X163016Y-1741D01*
X163364Y-901D01*
X163482Y0D01*
X163364Y901D01*
X163016Y1741D01*
X162462Y2462D01*
X161741Y3016D01*
X160901Y3364D01*
X160000Y3483D01*
X159099Y3364D01*
X158377Y3065D01*
X146460Y14981D01*
Y17538D01*
X148295D01*
X148951Y17668D01*
X149507Y18040D01*
X149879Y18596D01*
X150009Y19252D01*
X149879Y19908D01*
X149507Y20464D01*
X149338Y20577D01*
Y21077D01*
X149507Y21190D01*
X149879Y21746D01*
X150009Y22402D01*
X149879Y23057D01*
X149728Y23284D01*
X149830Y23954D01*
X149868Y23979D01*
X150350Y24700D01*
X150420Y25051D01*
X145441D01*
Y26051D01*
X150420D01*
X150350Y26402D01*
X150000Y26926D01*
X150246Y27426D01*
X152807D01*
Y26032D01*
X158138D01*
Y30968D01*
X152807D01*
Y29975D01*
X149414D01*
X149338Y30026D01*
Y30526D01*
X149507Y30638D01*
X149879Y31194D01*
X149914Y31372D01*
X153522Y34980D01*
X159928D01*
X162978Y31930D01*
X162787Y31468D01*
X162665D01*
Y28500D01*
Y25532D01*
X164796D01*
Y24369D01*
X162665D01*
Y21400D01*
Y18431D01*
X164796D01*
Y4184D01*
X164874Y3794D01*
X165095Y3463D01*
X166935Y1623D01*
X166636Y901D01*
X166517Y0D01*
X166636Y-901D01*
X166984Y-1741D01*
X167537Y-2462D01*
X168259Y-3016D01*
X169099Y-3364D01*
X170000Y-3483D01*
X170901Y-3364D01*
X171741Y-3016D01*
X172462Y-2462D01*
X173016Y-1741D01*
X173364Y-901D01*
X173483Y0D01*
X173364Y901D01*
X173016Y1741D01*
X172462Y2462D01*
X171741Y3016D01*
X170901Y3364D01*
X170000Y3483D01*
X169099Y3364D01*
X168377Y3065D01*
X166835Y4607D01*
Y11169D01*
X167297Y11361D01*
X176964Y1694D01*
X176636Y901D01*
X176517Y0D01*
X176636Y-901D01*
X176984Y-1741D01*
X177538Y-2462D01*
X178259Y-3016D01*
X179099Y-3364D01*
X180000Y-3483D01*
X180901Y-3364D01*
X181741Y-3016D01*
X182463Y-2462D01*
X183016Y-1741D01*
X183364Y-901D01*
X183483Y0D01*
X183364Y901D01*
X183016Y1741D01*
X182463Y2462D01*
X181741Y3016D01*
X180901Y3364D01*
X180000Y3483D01*
X179099Y3364D01*
X178448Y3094D01*
X177211Y4330D01*
X177419Y4830D01*
X183728D01*
X186935Y1623D01*
X186636Y901D01*
X186518Y0D01*
X186636Y-901D01*
X186984Y-1741D01*
X187538Y-2462D01*
X188259Y-3016D01*
X189099Y-3364D01*
X190000Y-3483D01*
X190901Y-3364D01*
X191741Y-3016D01*
X192463Y-2462D01*
X193016Y-1741D01*
X193364Y-901D01*
X193482Y0D01*
X193364Y901D01*
X193016Y1741D01*
X192463Y2462D01*
X191741Y3016D01*
X190901Y3364D01*
X190000Y3483D01*
X189099Y3364D01*
X188377Y3065D01*
X187944Y3498D01*
X187948Y3535D01*
X188169Y3980D01*
X194578D01*
X196935Y1623D01*
X196636Y901D01*
X196518Y0D01*
X196636Y-901D01*
X196984Y-1741D01*
X197538Y-2462D01*
X198259Y-3016D01*
X199099Y-3364D01*
X200000Y-3483D01*
X200901Y-3364D01*
X201741Y-3016D01*
X202463Y-2462D01*
X203016Y-1741D01*
X203364Y-901D01*
X203483Y0D01*
X203364Y901D01*
X203016Y1741D01*
X202463Y2462D01*
X201741Y3016D01*
X201020Y3315D01*
Y15578D01*
X205422Y19980D01*
X206988D01*
Y19031D01*
X212319D01*
Y23968D01*
X206988D01*
Y22020D01*
X205000D01*
X204610Y21942D01*
X204279Y21721D01*
X199279Y16721D01*
X199058Y16390D01*
X198980Y16000D01*
Y3315D01*
X198377Y3065D01*
X195721Y5721D01*
X195390Y5942D01*
X195000Y6020D01*
X188422D01*
X186221Y8221D01*
X185890Y8442D01*
X185500Y8520D01*
X178922D01*
X171335Y16107D01*
Y32399D01*
X171258Y32789D01*
X171037Y33120D01*
X162136Y42020D01*
X161805Y42241D01*
X161415Y42319D01*
X149636D01*
X149507Y42511D01*
X149405Y42579D01*
X149374Y43088D01*
X149712Y43429D01*
X151000D01*
X151390Y43507D01*
X151721Y43728D01*
X154722Y46728D01*
X167248D01*
X167638Y46806D01*
X167969Y47027D01*
X180822Y59880D01*
X189327D01*
Y55468D01*
X187681D01*
Y50968D01*
X187181D01*
Y48500D01*
X190347D01*
X193512D01*
Y50968D01*
X193012D01*
Y55468D01*
X191366D01*
Y59880D01*
X194451D01*
X194841Y59958D01*
X195172Y60179D01*
X198974Y63980D01*
X205000D01*
X205390Y64058D01*
X205721Y64279D01*
X208377Y66935D01*
X209099Y66636D01*
X210000Y66518D01*
X210901Y66636D01*
X211741Y66984D01*
X212462Y67537D01*
X213016Y68259D01*
X213364Y69099D01*
X213482Y70000D01*
X213364Y70901D01*
X213016Y71741D01*
X212462Y72462D01*
X211741Y73016D01*
X210901Y73364D01*
X210000Y73483D01*
D02*
G37*
G36*
X223921Y69500D02*
X220500D01*
Y66079D01*
X221032Y66149D01*
X221993Y66547D01*
X222819Y67181D01*
X223453Y68007D01*
X223851Y68968D01*
X223921Y69500D01*
D02*
G37*
G36*
X219500D02*
X216079D01*
X216149Y68968D01*
X216547Y68007D01*
X217181Y67181D01*
X218007Y66547D01*
X218968Y66149D01*
X219500Y66079D01*
Y69500D01*
D02*
G37*
G36*
X9437Y61947D02*
Y59122D01*
X12262D01*
X12213Y59500D01*
X11874Y60318D01*
X11335Y61020D01*
X10633Y61559D01*
X9815Y61898D01*
X9437Y61947D01*
D02*
G37*
G36*
X8437D02*
X8059Y61898D01*
X7241Y61559D01*
X6539Y61020D01*
X6000Y60318D01*
X5661Y59500D01*
X5612Y59122D01*
X8437D01*
Y61947D01*
D02*
G37*
G36*
X160312Y59368D02*
X157646D01*
Y56900D01*
X160312D01*
Y59368D01*
D02*
G37*
G36*
X156646D02*
X153981D01*
Y56900D01*
X156646D01*
Y59368D01*
D02*
G37*
G36*
X1063Y61509D02*
X316Y61411D01*
X-381Y61122D01*
X-978Y60663D01*
X-1437Y60066D01*
X-1726Y59369D01*
X-1824Y58622D01*
X-1726Y57875D01*
X-1437Y57179D01*
X-978Y56581D01*
X-381Y56122D01*
X316Y55834D01*
X1063Y55735D01*
X1810Y55834D01*
X2506Y56122D01*
X3104Y56581D01*
X3563Y57179D01*
X3852Y57875D01*
X3950Y58622D01*
X3852Y59369D01*
X3563Y60066D01*
X3104Y60663D01*
X2506Y61122D01*
X1810Y61411D01*
X1063Y61509D01*
D02*
G37*
G36*
X12262Y58122D02*
X9437D01*
Y55297D01*
X9815Y55346D01*
X10633Y55685D01*
X11335Y56224D01*
X11874Y56926D01*
X12213Y57744D01*
X12262Y58122D01*
D02*
G37*
G36*
X8437D02*
X5612D01*
X5661Y57744D01*
X6000Y56926D01*
X6539Y56224D01*
X7241Y55685D01*
X8059Y55346D01*
X8437Y55297D01*
Y58122D01*
D02*
G37*
G36*
X160312Y55900D02*
X157646D01*
Y53431D01*
X160312D01*
Y55900D01*
D02*
G37*
G36*
X156646D02*
X153981D01*
Y53431D01*
X156646D01*
Y55900D01*
D02*
G37*
G36*
X9437Y54073D02*
Y51248D01*
X12262D01*
X12213Y51626D01*
X11874Y52444D01*
X11335Y53146D01*
X10633Y53685D01*
X9815Y54024D01*
X9437Y54073D01*
D02*
G37*
G36*
X8437D02*
X8059Y54024D01*
X7241Y53685D01*
X6539Y53146D01*
X6000Y52444D01*
X5661Y51626D01*
X5612Y51248D01*
X8437D01*
Y54073D01*
D02*
G37*
G36*
X212819Y51468D02*
X210154D01*
Y49000D01*
X212819D01*
Y51468D01*
D02*
G37*
G36*
X209154D02*
X206488D01*
Y49000D01*
X209154D01*
Y51468D01*
D02*
G37*
G36*
X1063Y53635D02*
X316Y53537D01*
X-381Y53248D01*
X-978Y52789D01*
X-1437Y52192D01*
X-1726Y51495D01*
X-1824Y50748D01*
X-1726Y50001D01*
X-1437Y49305D01*
X-978Y48707D01*
X-381Y48248D01*
X316Y47960D01*
X1063Y47861D01*
X1810Y47960D01*
X2506Y48248D01*
X3104Y48707D01*
X3563Y49305D01*
X3852Y50001D01*
X3950Y50748D01*
X3852Y51495D01*
X3563Y52192D01*
X3104Y52789D01*
X2506Y53248D01*
X1810Y53537D01*
X1063Y53635D01*
D02*
G37*
G36*
X65019Y49869D02*
X62354D01*
Y47400D01*
X65019D01*
Y49869D01*
D02*
G37*
G36*
X61354D02*
X58688D01*
Y47400D01*
X61354D01*
Y49869D01*
D02*
G37*
G36*
X212819Y48000D02*
X210154D01*
Y45531D01*
X212819D01*
Y48000D01*
D02*
G37*
G36*
X209154D02*
X206488D01*
Y45531D01*
X209154D01*
Y48000D01*
D02*
G37*
G36*
X186319Y55468D02*
X180988D01*
Y50532D01*
X180988D01*
X180988Y50468D01*
X180988D01*
Y45531D01*
X186319D01*
Y50468D01*
X186319D01*
X186319Y50532D01*
X186319D01*
Y55468D01*
D02*
G37*
G36*
X193512Y47500D02*
X190847D01*
Y45031D01*
X193512D01*
Y47500D01*
D02*
G37*
G36*
X189847D02*
X187181D01*
Y45031D01*
X189847D01*
Y47500D01*
D02*
G37*
G36*
X199357Y44382D02*
X193633D01*
Y40382D01*
X199357D01*
Y44382D01*
D02*
G37*
G36*
X12262Y42374D02*
X9437D01*
Y39549D01*
X9815Y39598D01*
X10633Y39937D01*
X11335Y40476D01*
X11874Y41178D01*
X12213Y41996D01*
X12262Y42374D01*
D02*
G37*
G36*
X8437D02*
X5612D01*
X5661Y41996D01*
X6000Y41178D01*
X6539Y40476D01*
X7241Y39937D01*
X8059Y39598D01*
X8437Y39549D01*
Y42374D01*
D02*
G37*
G36*
X191981Y42319D02*
X190899D01*
X190492Y42238D01*
X190148Y42008D01*
X189918Y41663D01*
X189837Y41257D01*
Y38403D01*
X189918Y37996D01*
X190148Y37652D01*
X190492Y37422D01*
X190899Y37341D01*
X191981D01*
X192388Y37422D01*
X192732Y37652D01*
X192962Y37996D01*
X193043Y38403D01*
Y41257D01*
X192962Y41663D01*
X192732Y42008D01*
X192388Y42238D01*
X191981Y42319D01*
D02*
G37*
G36*
X170400Y42987D02*
X169653Y42889D01*
X168956Y42600D01*
X168359Y42141D01*
X167900Y41543D01*
X167612Y40847D01*
X167513Y40100D01*
X167612Y39353D01*
X167900Y38656D01*
X168359Y38059D01*
X168956Y37600D01*
X169653Y37312D01*
X170400Y37213D01*
X171147Y37312D01*
X171844Y37600D01*
X172441Y38059D01*
X172692Y38386D01*
X174031D01*
Y36796D01*
X178969D01*
Y38300D01*
X182377D01*
X182438Y37996D01*
X182668Y37652D01*
X183012Y37422D01*
X183419Y37341D01*
X184501D01*
X184907Y37422D01*
X185252Y37652D01*
X185482Y37996D01*
X185563Y38403D01*
Y41257D01*
X185482Y41663D01*
X185252Y42008D01*
X184907Y42238D01*
X184501Y42319D01*
X183419D01*
X183012Y42238D01*
X182668Y42008D01*
X182438Y41663D01*
X182377Y41359D01*
X178969D01*
Y42127D01*
X174031D01*
Y41444D01*
X172941D01*
X172900Y41543D01*
X172441Y42141D01*
X171844Y42600D01*
X171147Y42889D01*
X170400Y42987D01*
D02*
G37*
G36*
X9437Y38325D02*
Y35500D01*
X12262D01*
X12213Y35878D01*
X11874Y36696D01*
X11335Y37398D01*
X10633Y37937D01*
X9815Y38276D01*
X9437Y38325D01*
D02*
G37*
G36*
X8437D02*
X8059Y38276D01*
X7241Y37937D01*
X6539Y37398D01*
X6000Y36696D01*
X5661Y35878D01*
X5612Y35500D01*
X8437D01*
Y38325D01*
D02*
G37*
G36*
X179469Y35934D02*
X177000D01*
Y33268D01*
X179469D01*
Y35934D01*
D02*
G37*
G36*
X176000D02*
X173531D01*
Y33268D01*
X176000D01*
Y35934D01*
D02*
G37*
G36*
X179469Y32269D02*
X177000D01*
Y29603D01*
X179469D01*
Y32269D01*
D02*
G37*
G36*
X176000D02*
X173531D01*
Y29603D01*
X176000D01*
Y32269D01*
D02*
G37*
G36*
X188241Y32199D02*
X188200D01*
Y29200D01*
X187200D01*
Y32199D01*
X187159D01*
X186557Y32079D01*
X186047Y31738D01*
X185830Y31413D01*
X185292Y31365D01*
X185252Y31378D01*
X184907Y31608D01*
X184501Y31689D01*
X183419D01*
X183012Y31608D01*
X182668Y31378D01*
X182438Y31034D01*
X182357Y30627D01*
Y27773D01*
X182400Y27556D01*
X182089Y27056D01*
X179900D01*
X179517Y26898D01*
X179359Y26515D01*
Y21915D01*
X179517Y21532D01*
X179900Y21374D01*
X180565D01*
X180588Y20883D01*
X180588D01*
Y15947D01*
X181671D01*
Y13800D01*
X181787Y13215D01*
X182119Y12719D01*
X182615Y12387D01*
X183200Y12271D01*
X183785Y12387D01*
X184281Y12719D01*
X184613Y13215D01*
X184729Y13800D01*
Y15947D01*
X185919D01*
Y20883D01*
X185919D01*
X185942Y21374D01*
X186781D01*
Y18915D01*
X189946D01*
X193112D01*
Y21374D01*
X193500D01*
X193883Y21532D01*
X194041Y21915D01*
Y23358D01*
X194401Y23599D01*
X196421Y25618D01*
X199357D01*
Y29618D01*
X193633D01*
Y27485D01*
X193479Y27441D01*
X193173Y27674D01*
X193043Y27836D01*
Y30627D01*
X192962Y31034D01*
X192732Y31378D01*
X192388Y31608D01*
X191981Y31689D01*
X190899D01*
X190492Y31608D01*
X190148Y31378D01*
X190108Y31365D01*
X189570Y31413D01*
X189353Y31738D01*
X188843Y32079D01*
X188241Y32199D01*
D02*
G37*
G36*
X161665Y31468D02*
X159000D01*
Y29000D01*
X161665D01*
Y31468D01*
D02*
G37*
G36*
X223767Y29618D02*
X218042D01*
Y25618D01*
X223767D01*
Y29618D01*
D02*
G37*
G36*
X161665Y28000D02*
X159000D01*
Y25532D01*
X161665D01*
Y28000D01*
D02*
G37*
G36*
Y24369D02*
X159000D01*
Y21900D01*
X161665D01*
Y24369D01*
D02*
G37*
G36*
X219012Y50968D02*
X213681D01*
Y46031D01*
X215480D01*
Y45500D01*
X215558Y45110D01*
X215779Y44779D01*
X218042Y42516D01*
Y42484D01*
X215626Y40067D01*
X215405Y39737D01*
X215327Y39347D01*
Y23968D01*
X213681D01*
Y19031D01*
X219012D01*
Y23968D01*
X217366D01*
Y38924D01*
X218824Y40382D01*
X223767D01*
Y44382D01*
X219060D01*
X217910Y45531D01*
X218117Y46031D01*
X219012D01*
Y50968D01*
D02*
G37*
G36*
X161665Y20900D02*
X159000D01*
Y18431D01*
X161665D01*
Y20900D01*
D02*
G37*
G36*
X158138Y23868D02*
X152807D01*
Y18932D01*
X153324D01*
Y18373D01*
X153259Y18046D01*
X153374Y17467D01*
X153702Y16976D01*
X154193Y16648D01*
X154772Y16533D01*
X155352Y16648D01*
X155842Y16976D01*
X155875Y17025D01*
X155935Y17065D01*
X156266Y17561D01*
X156383Y18146D01*
Y18932D01*
X158138D01*
Y23868D01*
D02*
G37*
G36*
X193112Y17915D02*
X190446D01*
Y15447D01*
X193112D01*
Y17915D01*
D02*
G37*
G36*
X189446D02*
X186781D01*
Y15447D01*
X189446D01*
Y17915D01*
D02*
G37*
G36*
X1063Y14265D02*
X316Y14166D01*
X-381Y13878D01*
X-978Y13419D01*
X-1437Y12821D01*
X-1726Y12125D01*
X-1824Y11378D01*
X-1726Y10631D01*
X-1437Y9934D01*
X-978Y9337D01*
X-381Y8878D01*
X316Y8589D01*
X1063Y8491D01*
X1810Y8589D01*
X2506Y8878D01*
X3104Y9337D01*
X3563Y9934D01*
X3852Y10631D01*
X3950Y11378D01*
X3852Y12125D01*
X3563Y12821D01*
X3104Y13419D01*
X2506Y13878D01*
X1810Y14166D01*
X1063Y14265D01*
D02*
G37*
G36*
X220000Y3483D02*
X219099Y3364D01*
X218259Y3016D01*
X217537Y2462D01*
X216984Y1741D01*
X216636Y901D01*
X216517Y0D01*
X216636Y-901D01*
X216984Y-1741D01*
X217537Y-2462D01*
X218259Y-3016D01*
X219099Y-3364D01*
X220000Y-3483D01*
X220901Y-3364D01*
X221741Y-3016D01*
X222463Y-2462D01*
X223016Y-1741D01*
X223364Y-901D01*
X223482Y0D01*
X223364Y901D01*
X223016Y1741D01*
X222463Y2462D01*
X221741Y3016D01*
X220901Y3364D01*
X220000Y3483D01*
D02*
G37*
G36*
X210000D02*
X209099Y3364D01*
X208259Y3016D01*
X207538Y2462D01*
X206984Y1741D01*
X206636Y901D01*
X206518Y0D01*
X206636Y-901D01*
X206984Y-1741D01*
X207538Y-2462D01*
X208259Y-3016D01*
X209099Y-3364D01*
X210000Y-3483D01*
X210901Y-3364D01*
X211741Y-3016D01*
X212462Y-2462D01*
X213016Y-1741D01*
X213364Y-901D01*
X213482Y0D01*
X213364Y901D01*
X213016Y1741D01*
X212462Y2462D01*
X211741Y3016D01*
X210901Y3364D01*
X210000Y3483D01*
D02*
G37*
%LPD*%
G36*
X140500Y29391D02*
X140363Y28701D01*
X140500Y28011D01*
Y21692D01*
X137644Y18835D01*
X126607D01*
X124721Y20721D01*
X124390Y20942D01*
X124000Y21020D01*
X115500D01*
X115110Y20942D01*
X114779Y20721D01*
X113078Y19020D01*
X106129D01*
X106000Y18994D01*
X105500Y19338D01*
Y31161D01*
X105637Y31850D01*
X105500Y32540D01*
X105500Y52500D01*
X134909D01*
X135598Y52363D01*
X136288Y52500D01*
X140500D01*
X140500Y29391D01*
D02*
G37*
G36*
X84384Y36474D02*
X84283Y36101D01*
X84194Y35974D01*
X76864D01*
X76679Y36098D01*
X76100Y36213D01*
X75521Y36098D01*
X75348Y35983D01*
X74848Y36076D01*
Y37502D01*
X70265D01*
Y36247D01*
X69765Y36088D01*
X66783Y39070D01*
X66975Y39531D01*
X71212D01*
Y44431D01*
Y48939D01*
X71712Y49146D01*
X84384Y36474D01*
D02*
G37*
G36*
X92579Y34279D02*
X92910Y34058D01*
X93300Y33980D01*
X96364D01*
X96493Y33788D01*
X96346Y33285D01*
X96182Y33125D01*
X95811D01*
X95323Y33028D01*
X94910Y32752D01*
X93933Y31775D01*
X92693D01*
Y31969D01*
X89165D01*
X85553Y35580D01*
X85558Y35669D01*
X85715Y36080D01*
X90778D01*
X92579Y34279D01*
D02*
G37*
G36*
X51099Y41099D02*
X51512Y40822D01*
X52000Y40725D01*
X59188D01*
Y39531D01*
X62717D01*
X68449Y33799D01*
X68863Y33522D01*
X69350Y33426D01*
X70265D01*
Y31698D01*
X74848D01*
Y33324D01*
X75348Y33417D01*
X75521Y33302D01*
X76100Y33187D01*
X76679Y33302D01*
X76864Y33426D01*
X84103D01*
X84598Y32930D01*
X84407Y32469D01*
X83835D01*
Y29500D01*
X83335D01*
Y29000D01*
X80169D01*
Y27020D01*
X77322D01*
X76321Y28021D01*
X75990Y28242D01*
X75600Y28320D01*
X71122D01*
X68621Y30821D01*
X68290Y31042D01*
X67900Y31120D01*
X62902D01*
X62435Y31198D01*
X62435Y31620D01*
Y34100D01*
X56852D01*
X56852Y31198D01*
X56385Y31120D01*
X45822D01*
X39520Y37422D01*
Y46700D01*
X39442Y47090D01*
X39221Y47421D01*
X30921Y55721D01*
X30590Y55942D01*
X30200Y56020D01*
X22824D01*
X22806Y56047D01*
X23073Y56547D01*
X28953D01*
Y58726D01*
X33472D01*
X51099Y41099D01*
D02*
G37*
G36*
X105567Y15558D02*
X105538Y15413D01*
Y12287D01*
X104871Y11620D01*
X81715D01*
X81524Y12082D01*
X85422Y15980D01*
X105129D01*
X105141Y15983D01*
X105567Y15558D01*
D02*
G37*
%LPC*%
G36*
X62435Y38002D02*
X60143D01*
Y35100D01*
X62435D01*
Y38002D01*
D02*
G37*
G36*
X59143D02*
X56852D01*
Y35100D01*
X59143D01*
Y38002D01*
D02*
G37*
G36*
X82835Y32469D02*
X80169D01*
Y30000D01*
X82835D01*
Y32469D01*
D02*
G37*
%LPD*%
D12*
X75600Y27300D02*
X76900Y26000D01*
X45400Y30100D02*
X67900D01*
X70700Y27300D02*
X75600D01*
X67900Y30100D02*
X70700Y27300D01*
X1026Y42874D02*
X4952Y46800D01*
X56250Y28550D02*
X66571D01*
X51200Y23500D02*
X56250Y28550D01*
X38300Y23500D02*
X51200D01*
X1026Y18774D02*
X1504D01*
X57300Y26800D02*
X65422D01*
X52500Y22000D02*
X57300Y26800D01*
X37500Y22000D02*
X52500D01*
X33800Y24500D02*
X37300D01*
X38300Y23500D01*
X33700Y24400D02*
Y38300D01*
X29300Y20000D02*
X33700Y24400D01*
X27100Y44900D02*
X33700Y38300D01*
Y24400D02*
X33800Y24500D01*
X1026Y27126D02*
X4752Y23400D01*
X25500Y40000D02*
X30400Y35100D01*
Y27400D02*
Y35100D01*
X28000Y25000D02*
X30400Y27400D01*
X25500Y20000D02*
X29300D01*
X38500Y37000D02*
X45400Y30100D01*
X38500Y37000D02*
Y46700D01*
X30200Y55000D02*
X38500Y46700D01*
X19900Y44900D02*
X27100D01*
X76900Y26000D02*
X92700D01*
X57440Y24040D02*
X61976D01*
X53400Y20000D02*
X57440Y24040D01*
X39500Y20000D02*
X53400D01*
X1026Y35000D02*
X4926Y31100D01*
X38800Y16600D02*
X62821D01*
X85000Y17000D02*
X105129D01*
X80200Y12200D02*
X85000Y17000D01*
X67221Y12200D02*
X80200D01*
X83052Y19252D02*
X100559D01*
X78080Y14280D02*
X83052Y19252D01*
X68320Y14280D02*
X78080D01*
X82202Y22402D02*
X100559D01*
X76360Y16560D02*
X82202Y22402D01*
X71424Y16560D02*
X76360D01*
X62821Y16600D02*
X67221Y12200D01*
X65800Y16800D02*
X68320Y14280D01*
X65800Y16800D02*
Y23414D01*
X67400Y17700D02*
X68600Y16500D01*
X67400Y17700D02*
Y24822D01*
X93661Y24040D02*
X95173Y25551D01*
X71424Y24040D02*
X93661D01*
X65422Y26800D02*
X67400Y24822D01*
X71081Y24040D02*
X71424D01*
X66571Y28550D02*
X71081Y24040D01*
X105293Y10600D02*
X107252Y12559D01*
X40600Y10600D02*
X105293D01*
X30000Y0D02*
X40600Y10600D01*
X68600Y16500D02*
X71365D01*
X65214Y24000D02*
X65800Y23414D01*
X62016Y24000D02*
X65214D01*
X61976Y24040D02*
X62016Y24000D01*
X68546Y42000D02*
Y46900D01*
X145626Y25736D02*
X145763Y25600D01*
X145441Y25551D02*
X145626Y25736D01*
X145390Y25500D02*
X145441Y25551D01*
X165816Y4184D02*
Y30535D01*
Y4184D02*
X170000Y0D01*
X160350Y36000D02*
X165816Y30535D01*
X167316Y12784D02*
Y31156D01*
Y12784D02*
X180000Y100D01*
X160972Y37500D02*
X167316Y31156D01*
X168816Y14184D02*
Y31777D01*
Y14184D02*
X177150Y5850D01*
X161093Y39500D02*
X168816Y31777D01*
X170316Y15684D02*
Y32399D01*
Y15684D02*
X178500Y7500D01*
X161415Y41299D02*
X170316Y32399D01*
X95401Y28701D02*
X100559D01*
X92700Y26000D02*
X95401Y28701D01*
X95173Y25551D02*
X100559D01*
X61500Y63300D02*
X69400D01*
X60000Y64800D02*
X61500Y63300D01*
X60000Y64800D02*
Y70000D01*
X89302Y47598D02*
X100559D01*
X74400Y62500D02*
X89302Y47598D01*
X74400Y62500D02*
Y65600D01*
X70000Y70000D02*
X74400Y65600D01*
X69400Y63300D02*
X88251Y44449D01*
X66300Y56000D02*
X85200Y37100D01*
X53000Y56000D02*
X66300D01*
X40000Y69000D02*
X53000Y56000D01*
X68400Y59700D02*
X88200Y39900D01*
X55800Y59700D02*
X68400D01*
X50000Y65500D02*
X55800Y59700D01*
X94652Y50748D02*
X100559D01*
X80000Y65400D02*
X94652Y50748D01*
X80000Y65400D02*
Y70000D01*
X50000Y65500D02*
Y70000D01*
X19800Y25000D02*
X28000D01*
X150000Y0D02*
Y3900D01*
X141341Y12559D02*
X150000Y3900D01*
X138748Y12559D02*
X141341D01*
X4978Y15300D02*
X15900D01*
X21200Y10000D02*
X25500D01*
X15900Y15300D02*
X21200Y10000D01*
X1504Y18774D02*
X4978Y15300D01*
X1026Y18774D02*
Y19252D01*
X18000Y46800D02*
X19900Y44900D01*
X4952Y46800D02*
X18000D01*
X18200Y23400D02*
X19800Y25000D01*
X4752Y23400D02*
X18200D01*
X18900Y31100D02*
X20000Y30000D01*
X25500D01*
X4926Y31100D02*
X18900D01*
X20600Y65900D02*
X24700Y70000D01*
X20600Y56300D02*
Y65900D01*
Y56300D02*
X21900Y55000D01*
X30200D01*
X24700Y70000D02*
X30000D01*
X190347Y60747D02*
X190500Y60900D01*
X190347Y53000D02*
Y60747D01*
X183653Y48000D02*
X183653Y48000D01*
Y53000D01*
X190500Y60900D02*
X194451D01*
X180400D02*
X190500D01*
X152100Y37500D02*
X160972D01*
X149600Y35000D02*
X152100Y37500D01*
X151450Y39500D02*
X161093D01*
X150100Y38150D02*
X151450Y39500D01*
X153100Y36000D02*
X160350D01*
X148950Y31850D02*
X153100Y36000D01*
X118200Y7000D02*
X120000Y8800D01*
X113621Y7000D02*
X118200D01*
X111145Y4524D02*
X113621Y7000D01*
X126051Y12657D02*
X126150Y12756D01*
X125927Y12707D02*
X125964Y12744D01*
X125927Y12533D02*
X126051Y12657D01*
X122500Y5500D02*
X125927Y8927D01*
X115621Y5500D02*
X122500D01*
X110121Y0D02*
X115621Y5500D01*
X25500Y10000D02*
X37500Y22000D01*
X167248Y47748D02*
X180400Y60900D01*
X145441Y44449D02*
X151000D01*
X154299Y47748D02*
X167248D01*
X165748Y50748D02*
X180000Y65000D01*
X145441Y50748D02*
X165748D01*
X151000Y44449D02*
X154299Y47748D01*
X166369Y49248D02*
X180121Y63000D01*
X145441Y47598D02*
X151200D01*
X152850Y49248D02*
X166369D01*
X151200Y47598D02*
X152850Y49248D01*
X108624Y7524D02*
X110216Y9116D01*
X134653Y62500D02*
X162500D01*
X132634Y60481D02*
X134653Y62500D01*
X132634Y57626D02*
Y60481D01*
X129299Y57441D02*
Y60664D01*
Y57244D02*
Y57441D01*
X132806Y62973D02*
X133833Y64000D01*
X129600Y60965D02*
Y61600D01*
X129299Y60664D02*
X129600Y60965D01*
Y61600D02*
X130973Y62973D01*
X132806D01*
X126150Y57441D02*
Y60650D01*
Y57244D02*
Y57441D01*
X129973Y64473D02*
X132184D01*
X126150Y60650D02*
X129973Y64473D01*
X105476Y7524D02*
X108624D01*
X104000Y9000D02*
X105476Y7524D01*
X110324Y6024D02*
X113366Y9066D01*
X56024Y6024D02*
X110324D01*
X50000Y0D02*
X56024Y6024D01*
X64524Y4524D02*
X111145D01*
X60000Y0D02*
X64524Y4524D01*
X138066Y17816D02*
X142652Y22402D01*
X126184Y17816D02*
X138066D01*
X124000Y20000D02*
X126184Y17816D01*
X128747Y66047D02*
X131637D01*
X132184Y64473D02*
X133211Y65500D01*
X145500D01*
X150000Y70000D01*
X131637Y66047D02*
X135547Y69957D01*
X139957D01*
X140000Y70000D01*
X133833Y64000D02*
X154000D01*
X123000Y60300D02*
X128747Y66047D01*
X123000Y57244D02*
Y60300D01*
X154000Y64000D02*
X160000Y70000D01*
X162500Y62500D02*
X170000Y70000D01*
X171000Y61000D02*
X180000Y70000D01*
X140457Y61000D02*
X171000D01*
X138748Y59291D02*
X140457Y61000D01*
X138748Y57244D02*
Y59291D01*
X145441Y35000D02*
X149600D01*
X145441Y38150D02*
X150100D01*
X145441Y31850D02*
X148950D01*
X120000Y8800D02*
Y12410D01*
X113366Y9066D02*
Y12374D01*
X110216Y9116D02*
Y12374D01*
X115500Y20000D02*
X124000D01*
X113500Y18000D02*
X115500Y20000D01*
X106129Y18000D02*
X113500D01*
X105129Y17000D02*
X106129Y18000D01*
X129299Y9299D02*
Y12559D01*
X120000Y0D02*
X129299Y9299D01*
X125964Y12744D02*
X126051Y12657D01*
X126051D02*
X126150Y12559D01*
X125927Y8927D02*
Y12533D01*
X216500Y45500D02*
X219500Y42500D01*
X216500Y45500D02*
Y48346D01*
X216347Y48500D02*
X216500Y48346D01*
X216347Y39347D02*
X219500Y42500D01*
X216347Y21500D02*
Y39347D01*
X205000Y21000D02*
X208653D01*
X209154Y21500D01*
X200000Y16000D02*
X205000Y21000D01*
X200000Y0D02*
Y16000D01*
X185500Y7500D02*
X188000Y5000D01*
X178500Y7500D02*
X185500D01*
X180121Y63000D02*
X193000D01*
X145441Y41299D02*
X161415D01*
X85200Y37100D02*
X91200D01*
X88200Y39900D02*
X91250D01*
X88251Y44449D02*
X100559D01*
X49000Y9000D02*
X104000D01*
X40000Y0D02*
X49000Y9000D01*
X142652Y22402D02*
X145244D01*
X126051Y12657D02*
X126051D01*
X110000Y0D02*
X110121D01*
X122906Y12654D02*
X123000Y12559D01*
X91250Y39900D02*
X93000Y38150D01*
X91200Y37100D02*
X93300Y35000D01*
X100559D01*
X93000Y38150D02*
X100559D01*
X119850Y62226D02*
X121624Y64000D01*
X123637D01*
X129637Y70000D01*
X119850Y57441D02*
Y62226D01*
X145441Y14559D02*
Y19252D01*
Y14559D02*
X160000Y0D01*
Y-1000D02*
Y0D01*
X177150Y5850D02*
X184150D01*
X40000Y69000D02*
Y70000D01*
X184150Y5850D02*
X190000Y0D01*
X180000D02*
Y100D01*
X194451Y60900D02*
X198551Y65000D01*
X205000D01*
X210000Y70000D01*
X193000Y63000D02*
X200000Y70000D01*
X180000Y65000D02*
X184000D01*
X189000Y70000D01*
X195000Y5000D02*
X200000Y0D01*
X188000Y5000D02*
X195000D01*
X189000Y70000D02*
X190000D01*
X132449Y57441D02*
X132634Y57626D01*
X129637Y70000D02*
X130000D01*
X90000Y64000D02*
Y70000D01*
Y64000D02*
X96559Y57441D01*
X107252D01*
X100000Y70000D02*
X105000Y65000D01*
X109000D01*
X110402Y63598D01*
Y57441D02*
Y63598D01*
X110000Y70000D02*
X113551Y66449D01*
Y57441D02*
Y66449D01*
X116701Y66701D02*
X120000Y70000D01*
X116701Y57441D02*
Y66701D01*
X110216Y12374D02*
X110402Y12559D01*
X119850D02*
X120000Y12410D01*
X113366Y12374D02*
X113551Y12559D01*
X132449Y449D02*
Y12559D01*
X132000Y0D02*
X132449Y449D01*
X135598Y4402D02*
X140000Y0D01*
X135598Y4402D02*
Y12559D01*
D16*
X183200Y13800D02*
Y23400D01*
X154853Y18146D02*
Y21700D01*
X187700Y29200D02*
Y33915D01*
X172300Y39915D02*
X176440D01*
X176525Y39830D02*
X183960D01*
X176440Y39915D02*
X176525Y39830D01*
D33*
X100559Y50748D02*
D03*
Y47598D02*
D03*
Y44449D02*
D03*
Y41299D02*
D03*
Y38150D02*
D03*
Y35000D02*
D03*
Y31850D02*
D03*
Y28701D02*
D03*
Y25551D02*
D03*
Y22402D02*
D03*
Y19252D02*
D03*
X145441D02*
D03*
Y22402D02*
D03*
Y25551D02*
D03*
Y28701D02*
D03*
Y31850D02*
D03*
Y35000D02*
D03*
Y38150D02*
D03*
Y41299D02*
D03*
Y44449D02*
D03*
Y47598D02*
D03*
Y50748D02*
D03*
D34*
X107252Y12559D02*
D03*
X110402D02*
D03*
X113551D02*
D03*
X116701D02*
D03*
X119850D02*
D03*
X123000D02*
D03*
X126150D02*
D03*
X129299D02*
D03*
X132449D02*
D03*
X135598D02*
D03*
X138748D02*
D03*
Y57441D02*
D03*
X135598D02*
D03*
X132449D02*
D03*
X129299D02*
D03*
X126150D02*
D03*
X123000D02*
D03*
X119850D02*
D03*
X116701D02*
D03*
X113551D02*
D03*
X110402D02*
D03*
X107252D02*
D03*
D35*
X61976Y24040D02*
D03*
Y20300D02*
D03*
Y16560D02*
D03*
X71424D02*
D03*
Y20300D02*
D03*
Y24040D02*
D03*
D36*
X196495Y27618D02*
D03*
Y42382D02*
D03*
X220905D02*
D03*
Y27618D02*
D03*
D37*
X59643Y34600D02*
D03*
X72557D02*
D03*
D38*
X183653Y53000D02*
D03*
X190347D02*
D03*
X183653Y48000D02*
D03*
X190347D02*
D03*
X189946Y18415D02*
D03*
X183254D02*
D03*
X61853Y42000D02*
D03*
X68546D02*
D03*
X61853Y46900D02*
D03*
X68546D02*
D03*
X155472Y21400D02*
D03*
X162165D02*
D03*
X216347Y48500D02*
D03*
X209653D02*
D03*
X216347Y21500D02*
D03*
X209653D02*
D03*
X157147Y56400D02*
D03*
X150453D02*
D03*
X162165Y28500D02*
D03*
X155472D02*
D03*
X83335Y29500D02*
D03*
X90028D02*
D03*
D39*
X176500Y32768D02*
D03*
Y39461D02*
D03*
D40*
X183960Y29200D02*
D03*
X187700D02*
D03*
X191440D02*
D03*
X183960Y39830D02*
D03*
X191440D02*
D03*
D41*
X72557Y34700D02*
X76100D01*
X84631D01*
X69350D02*
X72557D01*
X191800Y24315D02*
X191985Y24500D01*
X191440Y24215D02*
Y29200D01*
X91331Y29500D02*
Y30500D01*
X84631Y34700D02*
X89831Y29500D01*
X62050Y42000D02*
X69350Y34700D01*
X59643Y34600D02*
X64400D01*
X59643D02*
X59943Y34300D01*
X71424Y20300D02*
X76000D01*
X57400D02*
X61976D01*
X61853Y42000D02*
X62050D01*
X34000Y60000D02*
X52000Y42000D01*
X61853D01*
X94900Y41299D02*
X100559D01*
X145441Y28701D02*
X154646D01*
X91331Y30500D02*
X94461D01*
X143900Y56000D02*
X150054D01*
X139500Y51600D02*
X143900Y56000D01*
X193500Y24500D02*
X196000Y27000D01*
X191985Y24500D02*
X193500D01*
X136600Y28701D02*
X145441D01*
X196000Y27000D02*
X196071D01*
X100559Y31850D02*
X108450D01*
X95811D02*
X100559D01*
X94461Y30500D02*
X95811Y31850D01*
X182660Y24555D02*
X182700Y24515D01*
X183960Y24555D02*
Y29200D01*
X25500Y60000D02*
X34000D01*
X145763Y25600D02*
X151100D01*
X116701Y12756D02*
Y18000D01*
X123000Y12756D02*
Y18000D01*
X135598Y50602D02*
Y57244D01*
X220000Y0D02*
X220200Y200D01*
D42*
X186700Y24215D02*
D03*
D43*
X25500Y60000D02*
D03*
D44*
Y50000D02*
D03*
Y40000D02*
D03*
Y30000D02*
D03*
Y20000D02*
D03*
Y10000D02*
D03*
X130000Y70000D02*
D03*
X220000D02*
D03*
X210000D02*
D03*
X200000D02*
D03*
X190000D02*
D03*
X180000D02*
D03*
X170000D02*
D03*
X160000D02*
D03*
X150000D02*
D03*
X140000D02*
D03*
X30000D02*
D03*
X120000D02*
D03*
X110000D02*
D03*
X100000D02*
D03*
X90000D02*
D03*
X80000D02*
D03*
X70000D02*
D03*
X60000D02*
D03*
X50000D02*
D03*
X40000D02*
D03*
X210000Y0D02*
D03*
X200000D02*
D03*
X190000D02*
D03*
X180000D02*
D03*
X170000D02*
D03*
X160000D02*
D03*
X150000D02*
D03*
X140000D02*
D03*
X130000D02*
D03*
X220000D02*
D03*
X110000D02*
D03*
X100000D02*
D03*
X90000D02*
D03*
X80000D02*
D03*
X70000D02*
D03*
X60000D02*
D03*
X50000D02*
D03*
X40000D02*
D03*
X120000D02*
D03*
D45*
X8937Y11378D02*
D03*
D46*
X1063D02*
D03*
X8937Y19252D02*
D03*
X1063D02*
D03*
X8937Y27126D02*
D03*
X1063D02*
D03*
X8937Y35000D02*
D03*
X1063D02*
D03*
X8937Y42874D02*
D03*
X1063D02*
D03*
X8937Y50748D02*
D03*
X1063D02*
D03*
X8937Y58622D02*
D03*
X1063D02*
D03*
X170400Y40100D02*
D03*
D47*
X30000Y0D02*
D03*
D48*
X90500Y34000D02*
D03*
X57000Y13900D02*
D03*
X46700Y27100D02*
D03*
X51800Y35200D02*
D03*
X35600Y53400D02*
D03*
X73700Y39100D02*
D03*
X76100Y34700D02*
D03*
X64400Y34600D02*
D03*
X57400Y20300D02*
D03*
X76000D02*
D03*
X38800Y16600D02*
D03*
X151100Y25600D02*
D03*
X167600Y56100D02*
D03*
X150500Y16500D02*
D03*
X152500Y11000D02*
D03*
X145900Y11100D02*
D03*
X181800Y24500D02*
D03*
X191700D02*
D03*
X154700Y44000D02*
D03*
X169200Y46700D02*
D03*
X172300Y34700D02*
D03*
X195000Y16800D02*
D03*
X183200Y13800D02*
D03*
X186500Y24500D02*
D03*
X135400Y19900D02*
D03*
X142500Y16400D02*
D03*
X155519Y25000D02*
D03*
X154900Y33800D02*
D03*
X158900D02*
D03*
X85400Y39800D02*
D03*
X168300Y7900D02*
D03*
X139800Y5700D02*
D03*
X91500Y15000D02*
D03*
X103500Y60500D02*
D03*
X103100Y54500D02*
D03*
X89500Y51500D02*
D03*
X197700Y23300D02*
D03*
X204000Y17000D02*
D03*
X180500Y10500D02*
D03*
X185500D02*
D03*
X190500D02*
D03*
X161900Y56200D02*
D03*
X165500Y42500D02*
D03*
X172900Y50400D02*
D03*
X177900Y55300D02*
D03*
X172400Y19000D02*
D03*
X172300Y26100D02*
D03*
X194500Y35600D02*
D03*
X211200Y35000D02*
D03*
X206200D02*
D03*
X195600Y7600D02*
D03*
X200300Y61700D02*
D03*
X195000Y58500D02*
D03*
X187500Y58300D02*
D03*
X182500D02*
D03*
X197700Y19300D02*
D03*
X186700Y38715D02*
D03*
X188700Y40715D02*
D03*
X182500Y35715D02*
D03*
X186500D02*
D03*
X190500D02*
D03*
X192500Y33715D02*
D03*
X188500D02*
D03*
X184500D02*
D03*
X39500Y20000D02*
D03*
X154772Y18046D02*
D03*
X158819Y17500D02*
D03*
X162319D02*
D03*
X162119Y24900D02*
D03*
X116701Y18000D02*
D03*
X123000D02*
D03*
X78858Y29500D02*
D03*
X94900Y41200D02*
D03*
X161000Y9000D02*
D03*
M02*
